<?xml version="1.0" standalone="no"?>
<!DOCTYPE svg PUBLIC "-//W3C//DTD SVG 1.1//EN" "http://www.w3.org/Graphics/SVG/1.1/DTD/svg11.dtd" >
<svg xmlns="http://www.w3.org/2000/svg" xmlns:xlink="http://www.w3.org/1999/xlink" version="1.1">
<metadata>
Created by FontForge 20170731 at Sun Jun  5 20:38:32 2022
 By Aleksey,,,
Copyright (c) 2002 by Frantisek Storm. All rights reserved.
</metadata>
<defs>
<font id="Jannon10Pro-Italic" horiz-adv-x="757" >
  <font-face 
    font-family="Jannon 10 Pro"
    font-weight="400"
    font-style="italic"
    font-stretch="normal"
    units-per-em="2048"
    panose-1="2 0 5 3 9 0 0 9 0 3"
    ascent="1638"
    descent="-410"
    x-height="946"
    cap-height="1413"
    bbox="-608 -776 2855 2019"
    underline-thickness="116"
    underline-position="-353"
    slope="-12"
    unicode-range="U+0020-FB06"
  />
<missing-glyph horiz-adv-x="1024" 
 />
    <glyph glyph-name="f_f" unicode="ff" horiz-adv-x="1040" 
d="M1257 946q11 0 11 -39q0 -25 -5 -45t-14 -20h-313q-8 -24 -118.5 -385.5t-158.5 -501.5q-75 -215 -212.5 -340t-311.5 -125q-57 0 -101 20t-65 52q-109 -103 -248 -103q-143 0 -143 107q0 37 21.5 58.5t54.5 21.5q32 0 48 -17.5t18.5 -39t15 -39t39.5 -17.5q34 0 66.5 25
t61 75t51.5 101t47 128t38.5 129t34.5 130q50 192 107.5 437t68.5 284h-129q-15 0 -15 24q0 34 17 37l143 4q70 307 206 462t364 155q75 0 136 -24t97 -66q64 54 129.5 81t157.5 27q119 0 178 -46.5t59 -119.5q0 -39 -20 -62.5t-53 -23.5q-72 0 -72 72q0 82 -100 82
q-123 0 -207.5 -113t-175.5 -395zM41 -358q16 -40 42.5 -58t74.5 -18q85 0 149 44.5t124.5 158t119.5 311.5q31 105 88.5 304.5t88.5 302.5t50 155h-370q-63 -265 -191 -772q-66 -262 -176 -428zM958 1329q0 49 -32.5 79t-102.5 30q-130 0 -227 -127.5t-172 -397.5l385 15
q34 117 72.5 209t57.5 132t19 60z" />
    <glyph glyph-name="f_i" unicode="fi" horiz-adv-x="997" 
d="M897 946q34 2 53 -17.5t19 -62.5q0 -45 -48 -156t-105.5 -219.5t-105.5 -208t-48 -124.5q0 -14 7 -21.5t17 -7.5q28 0 88 47t88 82q8 8 12 8q10 0 19.5 -7t9.5 -15q0 -26 -37 -73t-88.5 -92t-112 -78.5t-102.5 -33.5q-41 0 -56 20.5t-15 61.5q0 66 76 241t152.5 334.5
t76.5 188.5t-23 29h-366q-112 -471 -185 -772q-33 -137 -78 -245.5t-105 -192t-138.5 -128.5t-171.5 -45q-144 0 -144 107q0 37 21.5 58.5t54.5 21.5q32 0 48 -17.5t18.5 -39t15 -39t39.5 -17.5q165 0 297 586q130 574 170 723h-129q-15 0 -15 24q0 34 17 37l141 6
q25 112 56 202t78.5 172.5t107 138t142 88t181.5 32.5q135 0 207 -55t72 -137q0 -54 -27 -84.5t-73 -30.5q-52 0 -74.5 26.5t-22.5 79.5q0 48 -24.5 77.5t-91.5 29.5q-119 0 -206.5 -130t-162.5 -403z" />
    <glyph glyph-name="f_l" unicode="fl" horiz-adv-x="1075" 
d="M1083 1460q152 162 308 162q61 0 104.5 -12.5t63.5 -33.5t28 -40.5t8 -40.5q0 -34 -21 -56t-56 -22q-32 0 -54 12t-34 28.5t-22.5 33.5t-28.5 29t-44 12q-82 0 -174 -127t-166.5 -311.5t-136.5 -381t-96.5 -347t-34.5 -197.5q0 -23 23 -23q31 0 102 68t145 170q3 6 13 6
q7 0 17.5 -9.5t10.5 -19.5q0 -35 -76.5 -130.5t-177 -179t-155.5 -83.5q-70 0 -70 76q0 142 213 799h-364q-14 -103 -63.5 -356t-80.5 -375q-34 -137 -79.5 -245.5t-106 -192t-139 -128.5t-170.5 -45q-144 0 -144 107q0 37 21 58.5t53 21.5q27 0 42.5 -11.5t20.5 -28.5
t10 -33.5t16.5 -28t33.5 -11.5q34 0 66.5 25.5t60 74t51.5 102t46.5 126.5t38 130.5t32.5 129.5q32 132 58 257t52.5 270t28.5 153h-135q-15 0 -15 24q0 34 17 37l143 4q25 141 67 251t93.5 181.5t116 117.5t130.5 65.5t140 19.5q90 0 160 -23.5t110 -58.5zM999 1356
q-37 108 -190 108q-156 0 -240 -122t-145 -427l375 13q88 256 200 428z" />
    <glyph glyph-name="f_f_i" unicode="ffi" horiz-adv-x="1533" 
d="M1409 946q74 0 74 -80q0 -43 -48 -153.5t-105.5 -220.5t-105.5 -212t-48 -130q0 -21 24 -21q26 0 86 46.5t90 82.5q8 8 13 8q9 0 18.5 -7.5t9.5 -14.5q0 -26 -37.5 -73t-89.5 -92t-112.5 -78.5t-102.5 -33.5q-69 0 -69 86q0 56 47.5 178t105 237t105 218t47.5 127
q0 29 -25 29h-350q-11 -30 -125 -395t-147 -459q-92 -264 -213 -381t-299 -117q-59 0 -113 20.5t-74 51.5q-109 -103 -248 -103q-143 0 -143 107q0 37 21.5 58.5t54.5 21.5q32 0 48 -17.5t18.5 -39t15 -39t39.5 -17.5q26 0 51 14.5t47.5 44.5t41.5 62t39 83.5t34 90
t31.5 100.5t27 97t25.5 96q49 188 109.5 432.5t72.5 288.5h-129q-15 0 -15 24q0 34 17 37l141 4q24 110 56.5 199.5t80.5 169t108 133t141.5 84.5t178.5 31q155 0 232 -90q127 108 330 108q140 0 211 -54.5t71 -137.5q0 -54 -26 -84.5t-72 -30.5q-53 0 -74.5 26t-21.5 80
q0 107 -117 107q-56 0 -101.5 -20.5t-82 -57t-72.5 -103.5t-66.5 -141.5t-70.5 -189.5zM37 -358q30 -76 137 -76q48 0 92.5 26.5t80 69t70.5 106.5t61.5 127.5t53.5 143.5q66 190 148 475.5t98 327.5h-370q-15 -62 -89.5 -347.5t-107.5 -406.5q-80 -288 -174 -446zM946 1329
q0 50 -32 79.5t-101 29.5q-128 0 -222.5 -127.5t-168.5 -395.5l385 13q31 112 67 204.5t54 134.5t18 62z" />
    <glyph glyph-name="f_f_l" unicode="ffl" horiz-adv-x="1556" 
d="M1272 842h-336q-9 -31 -92 -343t-117 -429q-79 -273 -212.5 -426.5t-307.5 -153.5q-56 0 -102 20t-68 52q-103 -103 -244 -103q-70 0 -107.5 28t-37.5 79q0 38 18.5 59t50.5 21q33 0 50 -17.5t21 -39t17 -39t39 -17.5q41 0 78.5 39t65 96t53 142t41.5 154.5t33 156.5
q27 139 74.5 400t60.5 321h-129q-13 0 -17 24q0 34 15 37l143 6q23 138 62.5 245.5t102.5 193t156.5 131t213.5 45.5q76 0 138.5 -24t98.5 -66q53 55 130 81.5t139 26.5q127 0 202 -72q53 68 99 142q15 0 33.5 -9.5t15.5 -17.5q-74 -204 -250 -784.5t-176 -622.5
q0 -22 22 -22q32 0 101 63t141 164q3 6 12 6q7 0 19 -9.5t12 -19.5q0 -26 -48 -91t-113 -132t-137 -118.5t-114 -51.5q-67 0 -67 76q0 33 31.5 148.5t91.5 321t94 329.5zM104 -358q20 -40 46.5 -58t74.5 -18q59 0 117.5 51t105.5 136t83.5 177t64.5 191q51 182 108.5 426.5
t73.5 294.5h-370q-6 -34 -70 -346.5t-86 -425.5q-52 -271 -148 -428zM926 1329q0 49 -35 79t-105 30q-129 0 -219 -129.5t-147 -395.5l381 15q24 112 55.5 208.5t50.5 141.5t19 51zM1298 942q16 49 37.5 114t34 103t25.5 79t18.5 67t5.5 41q0 59 -28.5 80.5t-104.5 21.5
q-51 0 -91.5 -21.5t-71.5 -59t-59.5 -104t-51.5 -141.5t-51 -186z" />
    <glyph glyph-name="f_j" unicode="fj" horiz-adv-x="974" 
d="M756 842h-348l-189 -744q-77 -295 -206 -467t-289 -172q-144 0 -144 107q0 37 21.5 58.5t54.5 21.5q32 0 48 -17.5t18.5 -39t15 -39t39.5 -17.5q34 0 67 25.5t60.5 74t51 101.5t46 127t37.5 130.5t33 129.5q156 641 178 721h-129q-15 0 -15 24q0 34 17 37l143 10
q39 177 93 299t126 194.5t156 104t193 31.5q119 0 181 -45t62 -115q0 -39 -26 -67.5t-66 -28.5q-37 0 -57.5 16.5t-28 40.5t-14 48t-25.5 40.5t-53 16.5q-128 0 -217.5 -128t-163.5 -398l455 28q73 0 73 -80q0 -69 -83.5 -330.5t-155.5 -428.5q-73 -169 -141 -285.5
t-129.5 -180t-115.5 -90t-112 -26.5q-54 0 -85.5 27t-31.5 71q0 31 17 52.5t51 21.5q30 0 43.5 -14t14 -31t10.5 -31t34 -14q64 0 151 157.5t165 383.5q76 220 136 421.5t60 239.5q0 29 -26 29z" />
    <glyph glyph-name="f_f_j" unicode="ffj" horiz-adv-x="1527" 
d="M250 842h-129q-15 0 -15 24q0 34 17 37l143 10q73 333 205 481t354 148q144 0 219 -102q129 102 312 102q119 0 181 -45t62 -115q0 -39 -26 -67.5t-66 -28.5q-37 0 -57.5 16.5t-28 40.5t-14 48t-25.5 40.5t-53 16.5q-128 0 -217.5 -128t-163.5 -398l455 28q74 0 74 -80
q0 -69 -84 -330t-156 -429q-77 -177 -143 -293.5t-126.5 -178.5t-112.5 -86t-114 -24q-54 0 -85 27t-31 71q0 31 16.5 52.5t50.5 21.5q30 0 44 -14t14.5 -31t10.5 -31t34 -14q64 0 149 156.5t164 384.5q77 222 137 422.5t60 238.5q0 29 -27 29h-348l-189 -744
q-75 -290 -203.5 -456t-293.5 -166q-144 0 -144 106q0 37 21.5 58.5t54.5 21.5q32 0 48 -17.5t18.5 -39t15 -39t39.5 -17.5q41 0 80.5 37.5t69 92.5t59 137t48.5 150.5t40 154.5q156 641 178 721h-364l-183 -731q-33 -137 -82 -252t-113.5 -206t-147.5 -142.5t-175 -51.5
q-143 0 -143 107q0 37 21.5 58.5t54.5 21.5q32 0 48 -17.5t18 -39t15 -39t39 -17.5q41 0 82.5 43t74.5 107t65 153t54 165.5t42 160.5q38 149 97.5 386t74.5 294zM788 926q59 268 173 424q-48 90 -156 90q-129 0 -218.5 -127.5t-156.5 -401.5z" />
    <glyph glyph-name="f_f_k" unicode="ffk" horiz-adv-x="2033" 
d="M1178 946q10 0 10 -39q0 -25 -5 -45t-14 -20h-233q-10 -28 -99 -352t-122 -420q-108 -313 -231 -446.5t-328 -133.5q-118 0 -187 72q-109 -103 -248 -103q-143 0 -143 107q0 37 21.5 58.5t54.5 21.5q32 0 48 -17.5t18.5 -39t15 -39t39.5 -17.5q34 0 66.5 25t61 75
t51.5 101t47 128t38.5 129t34.5 130q50 192 107.5 437t68.5 284h-129q-15 0 -15 24q0 34 17 37l143 4q35 153 81 264t111.5 192t155 121t205.5 40q75 0 136.5 -24t97.5 -66q128 108 303 108q36 0 94 -12t66 -12q73 0 126 90q27 0 27 -23q0 -35 -127.5 -451t-179.5 -542
l18 -2q219 356 490 356q72 0 116 -40t44 -103q0 -44 -21 -85.5t-71 -82.5t-123.5 -71.5t-186.5 -49t-252 -18.5q43 -50 96.5 -118t89.5 -114.5t75 -90.5t71.5 -66.5t60.5 -22.5q46 0 46 66q0 71 61 71q31 0 51.5 -21.5t20.5 -56.5q0 -61 -49 -118.5t-134 -57.5
q-157 0 -265 128t-150 351h-17q-90 -369 -116 -450q-13 -29 -37 -29q-31 0 -59.5 12.5t-28.5 32.5t71 278t157.5 574.5t113.5 438.5q15 64 -7 102.5t-88 38.5q-128 0 -222 -118t-161 -390zM41 -358q46 -76 137 -76q126 0 229 132.5t175 389.5q38 137 80 308.5t70 284
t46 161.5h-370q-63 -265 -191 -772q-66 -262 -176 -428zM942 1329q0 49 -32.5 79t-102.5 30q-128 0 -217.5 -125t-165.5 -400l377 15q34 116 70.5 208.5t53.5 132.5t17 60zM1391 543q222 25 346.5 86t124.5 125q0 63 -68 63q-169 0 -403 -274z" />
    <glyph glyph-name="T_h" unicode="Th" horiz-adv-x="1943" 
d="M1163 1413q247 0 344 62q29 0 29 -23q0 -34 -121.5 -441.5t-183.5 -578.5l22 -4q25 44 40 70.5t53 87.5t67.5 101.5t75 94t85.5 86t87.5 55.5t91.5 23q73 0 113.5 -49t40.5 -131q0 -133 -32.5 -259t-86.5 -221.5t-120.5 -168.5t-137.5 -111.5t-135 -38.5
q-42 0 -68.5 20.5t-26.5 63.5q0 44 19 71.5t53 27.5q26 0 38 -15t13.5 -32.5t8.5 -32.5t24 -15q46 0 114 98.5t119.5 242t51.5 255.5q0 65 -14.5 92t-53.5 27q-93 0 -230.5 -180.5t-281.5 -478.5q-7 -14 -17 -37.5t-17 -40t-15.5 -33t-16.5 -25t-16 -8.5q-27 0 -53.5 12.5
t-26.5 36.5t19 87.5t70 232.5t104 366q19 72 49 183.5t46.5 175t21.5 96.5q5 24 5 43.5t-4 36t-15 28.5t-26 22.5t-40 17.5t-54 12.5t-70.5 9t-87 6t-106.5 4.5l-309 -1239q-8 -35 21 -35h153v-63h-540v63h137q27 0 35 35l307 1239q-94 -3 -158 -9t-120 -18.5t-92.5 -30.5
t-68.5 -48t-54.5 -68t-45.5 -94q-39 0 -39 27q0 8 2.5 22t9 41t12.5 50.5t19 73.5t23 89q5 23 17 32t40 9h903z" />
    <glyph glyph-name="r_t" unicode="rt" horiz-adv-x="1374" 
d="M782 715q-35 0 -58.5 22t-23.5 64q0 3 5 33q-33 0 -119 -129t-180.5 -310.5t-167.5 -349.5q-5 -12 -12 -29t-9.5 -23.5t-7.5 -14t-10.5 -9.5t-14.5 -2q-26 0 -52 12.5t-26 36.5q0 22 66 224q52 158 95.5 315.5t43.5 196.5q0 28 -26 28q-28 0 -97.5 -58t-97.5 -99
q-7 -7 -14 -7q-9 0 -20 9t-11 18q0 27 63 100t150.5 138t142.5 65q70 0 70 -80q0 -103 -127 -430l21 -6q144 286 237 401t178 115q58 0 78.5 -31.5t20.5 -97.5q65 32 182.5 163.5t136.5 207.5q16 196 119 196q30 0 46.5 -21t16.5 -54q0 -37 -21.5 -78.5t-62.5 -73.5
q-17 -41 -79 -231l253 20q13 0 13 -39q0 -25 -5 -45t-14 -20h-272q-61 -202 -126 -437.5t-65 -267.5q0 -22 25 -22q11 0 32.5 10t51 29.5t54.5 36t61 41.5t51 36q4 4 14 4q9 0 19 -14.5t10 -24.5q-17 -13 -69.5 -53t-96 -71.5t-95.5 -66.5t-94 -55t-67 -20q-32 0 -45.5 16.5
t-13.5 59.5q0 87 99 426t187 492l-10 4q-82 -106 -172.5 -178t-159.5 -72z" />
    <glyph glyph-name="t_t" unicode="tt" horiz-adv-x="1193" 
d="M1288 981q0 -61 -65 -101t-187 -40h-71q-168 -586 -168 -662q0 -22 22 -22q32 0 101 63t141 164q3 6 12 6q7 0 19 -9.5t12 -19.5q0 -26 -48 -91t-113 -132t-137 -118.5t-114 -51.5q-67 0 -67 76q0 128 180 807q-71 5 -198.5 17.5t-162.5 15.5q-188 -660 -188 -705
q0 -22 23 -22q31 0 141 106t184 209q3 6 12 6q7 0 16 -6.5t9 -15.5q0 -35 -96.5 -154t-217 -226.5t-175.5 -107.5q-68 0 -68 76q0 137 203 848h-31q-65 0 -97 -38t-32 -91q0 -19 -27 -19q-28 0 -28 23q0 79 59.5 128.5t171.5 53.5l64 219q6 19 42 34.5t70 15.5q49 0 49 -27
q0 -8 -65 -242q3 0 364 -18q42 159 80 284q6 19 42.5 34.5t70.5 15.5q57 0 57 -27q0 -8 -88 -313h80q61 0 96 19.5t35 55.5q0 12 11.5 19.5t27.5 7.5q20 0 34.5 -11.5t14.5 -33.5z" />
    <glyph glyph-name="l_l" unicode="ll" horiz-adv-x="960" 
d="M1122 1573q38 0 58 -23.5t20 -60.5q0 -106 -128.5 -348t-317.5 -508q-103 -412 -103 -492q0 -22 23 -22q30 0 109.5 61t152.5 139q7 7 12 7q6 0 12.5 -13t6.5 -24q0 -19 -79.5 -97.5t-182 -151.5t-152.5 -73q-70 0 -70 76q0 81 58 305q-142 -173 -259 -277t-180 -104
q-69 0 -69 76q0 109 101 454t198 541l-10 4q-129 -213 -287 -389q-15 0 -25 16t-10 29q255 282 442 643q10 100 54.5 183.5t105.5 83.5q43 0 59.5 -18t16.5 -52q0 -54 -48 -135t-122 -164q-96 -300 -198.5 -660.5t-102.5 -400.5q0 -22 22 -22q48 0 141 91t205 240
q63 224 154 498q104 314 194 451t199 137zM846 965q-17 -55 -45 -156q126 197 207.5 362t81.5 234q0 39 -35 39q-50 0 -76.5 -58t-93.5 -288q-25 -84 -39 -133z" />
    <glyph glyph-name="r_r" unicode="rr" horiz-adv-x="1437" 
d="M762 662q-66 0 -66 90q0 24 2 36q-51 0 -200 -244t-260 -499q-5 -12 -12 -29t-9.5 -23.5t-7.5 -14t-10.5 -9.5t-14.5 -2q-26 0 -52 12.5t-26 36.5q0 22 66 224q52 158 95.5 315.5t43.5 196.5q0 28 -26 28q-28 0 -97.5 -58t-97.5 -99q-7 -7 -14 -7q-9 0 -20 9t-11 18
q0 27 63 100t150.5 138t142.5 65q70 0 70 -80q0 -103 -127 -430l21 -6q143 285 238.5 400.5t184.5 115.5q111 0 111 -129q134 129 184 129q31 0 45.5 -18.5t14.5 -61.5q0 -66 -30.5 -184t-80.5 -246l21 -6q99 248 264 479q46 65 97 101.5t88.5 44.5t69 9.5t48 8.5t16.5 31
q0 19 -17 23.5t-38 1.5t-38 6t-17 36q0 33 26.5 53.5t59.5 20.5q42 0 77 -30t35 -80q0 -55 -29.5 -97.5t-80 -74.5t-105.5 -62t-118.5 -75.5t-106.5 -98.5q-84 -106 -164.5 -256t-193.5 -426q-5 -11 -10.5 -26t-8 -21t-6.5 -14t-7.5 -10.5t-9 -4.5t-12.5 -2
q-26 0 -51.5 12.5t-25.5 36.5q0 23 65 222q54 165 96.5 320t42.5 194q0 28 -22 28q-27 0 -59 -18.5t-56.5 -40.5t-52.5 -40.5t-47 -18.5z" />
    <glyph glyph-name=".notdef" horiz-adv-x="1024" 
 />
    <glyph glyph-name=".null" horiz-adv-x="0" 
 />
    <glyph glyph-name="nonmarkingreturn" horiz-adv-x="682" 
 />
    <glyph glyph-name="space" unicode=" " horiz-adv-x="458" 
 />
    <glyph glyph-name="exclam" unicode="!" horiz-adv-x="507" 
d="M197 227q51 0 85.5 -34t34.5 -84q0 -51 -34.5 -86t-85.5 -35t-86 35t-35 86q0 50 35 84t86 34zM264 362h-51l164 967q6 50 45 84.5t90 34.5q50 0 69.5 -34t4.5 -85z" />
    <glyph glyph-name="quotedbl" unicode="&#x22;" horiz-adv-x="763" 
d="M336 1364q5 34 39 59t78 25q46 0 67.5 -21.5t3.5 -64.5l-241 -426h-56zM657 1364q5 34 39 59t78 25q46 0 68 -21.5t4 -64.5l-242 -426h-55z" />
    <glyph glyph-name="numbersign" unicode="#" horiz-adv-x="1445" 
d="M854 350l74 299h-287l-74 -299h287zM928 250l-105 -418h-98l104 418h-288l-105 -418h-100l104 418h-354l25 100h356l74 299h-357l25 101h356l99 403h100l-100 -403h288l101 403h100l-100 -403h338l-23 -101h-340l-74 -299h338l-24 -100h-340z" />
    <glyph glyph-name="dollar" unicode="$" horiz-adv-x="1034" 
d="M440 47l-75 -283h-78l80 287q-134 14 -199.5 67t-58.5 107l22 170q6 29 53 29q38 -248 207 -283l148 539q-107 106 -146 178t-39 164q0 151 108.5 250.5t266.5 99.5l72 264h76l-74 -268q105 -12 159 -51.5t52 -75.5l-17 -192q-5 -31 -53 -31q-23 215 -164 258l-127 -461
q132 -132 178 -214.5t46 -186.5q0 -66 -28 -130t-80.5 -117.5t-138 -86.5t-190.5 -33zM467 135q105 5 174.5 73.5t69.5 176.5q0 62 -24.5 114.5t-88.5 121.5zM594 883l111 401q-88 -3 -142.5 -58.5t-54.5 -144.5q0 -95 86 -198z" />
    <glyph glyph-name="percent" unicode="%" horiz-adv-x="1363" 
d="M1071 662q174 0 174 -224q0 -114 -56 -225t-139 -178.5t-161 -67.5q-83 0 -131.5 56t-48.5 165q0 110 52.5 220.5t137.5 182t172 71.5zM1071 602q-43 0 -89 -60.5t-78 -143t-52.5 -165.5t-20.5 -131q0 -36 14.5 -53.5t49.5 -17.5q46 0 91 64t75 151.5t48.5 171
t18.5 129.5q0 55 -57 55zM594 1444q174 0 174 -223q0 -114 -56 -225.5t-139 -178.5t-161 -67q-83 0 -132 55t-49 164q0 110 52.5 220.5t138 182.5t172.5 72zM594 1384q-43 0 -89 -60t-78 -142.5t-52.5 -165.5t-20.5 -131q0 -74 64 -74q46 0 91 64.5t75 152t48.5 171.5
t18.5 130q0 55 -57 55zM1520 1413l-1401 -1413h-142l1397 1413h146z" />
    <glyph glyph-name="ampersand" unicode="&#x26;" horiz-adv-x="2285" 
d="M444 248q128 -113 338 -113q127 0 264.5 43.5t271.5 126t259 212t217 290.5q-85 31 -138 48t-135 32.5t-161 15.5q-59 0 -95 -39t-36 -100q0 -31 14.5 -49.5t30.5 -18.5q24 0 24 27q0 61 50 61q38 0 58.5 -23.5t20.5 -62.5q0 -50 -38.5 -81t-90.5 -31q-60 0 -102.5 45
t-42.5 135q0 46 22.5 92t63.5 84t106.5 62t143.5 24q94 0 248.5 -39t291.5 -78t187 -39q47 0 82 28t35 81q0 55 -37 55q-14 0 -37 -14t-51 -14t-47 21t-19 65q0 43 32 76.5t83 33.5q76 0 111.5 -63t35.5 -158q0 -118 -67.5 -193t-161.5 -75q-55 0 -118 12.5t-104.5 25.5
t-117.5 40q-69 -168 -165 -305.5t-202.5 -232t-225.5 -159t-235 -94t-231 -29.5q-131 0 -247.5 39t-203.5 110.5t-137.5 179.5t-50.5 237q0 165 70.5 301.5t187.5 213t252 76.5q151 0 215 -61q178 293 178 356q0 16 -16 27t-35 18t-35 27.5t-16 52.5q0 50 32.5 80.5
t88.5 30.5q50 0 81 -32t31 -79q0 -116 -211 -495t-516 -807zM412 279q111 213 329 593q-23 11 -45 39t-36.5 53.5t-38 45.5t-52.5 20q-102 0 -190 -124t-88 -290q0 -213 121 -337z" />
    <glyph glyph-name="quotesingle" unicode="'" horiz-adv-x="317" 
d="M295 1364q5 34 39 59t78 25q46 0 67.5 -21.5t3.5 -64.5l-241 -426h-56z" />
    <glyph glyph-name="parenleft" unicode="(" horiz-adv-x="872" 
d="M795 -457q-5 -20 -18 -36.5t-25 -16.5q-125 4 -229.5 64t-175 166t-110 243.5t-38 305t44.5 341.5q53 218 163.5 417t250.5 343t305.5 231t324.5 91q31 0 15 -45q-3 -21 -14 -35.5t-25 -14.5q-139 -4 -276.5 -85t-250.5 -215t-202.5 -312t-139.5 -375
q-39 -156 -47 -306.5t17.5 -278t78 -225.5t138.5 -154.5t196 -59.5q27 0 17 -43z" />
    <glyph glyph-name="parenright" unicode=")" horiz-adv-x="872" 
d="M528 610q39 157 47 304t-16.5 269t-77 214t-138.5 144.5t-196 55.5q-26 3 -12 50q4 20 14.5 32.5t22.5 12.5q126 -3 231 -59t176 -156t110 -232.5t37.5 -296t-44.5 -338.5q-54 -218 -164.5 -421.5t-250 -355.5t-306 -245.5t-326.5 -97.5q-22 0 -10 53q10 43 37 43
q138 4 276 90.5t250 229t201 325t139 379.5z" />
    <glyph glyph-name="asterisk" unicode="*" horiz-adv-x="759" 
d="M526 1184l15 -264q1 -39 -28.5 -55.5t-70.5 -8.5q-42 9 -63 39.5t-4 60.5l123 234l-246 -92q-35 -14 -61 8.5t-29 64.5q-5 42 18 71.5t56 23.5l262 -45l-168 206q-21 30 -7.5 59.5t50.5 47.5q38 18 73.5 6t38.5 -47l37 -266l148 223q24 35 55 31t61 -37q27 -31 26 -67.5
t-30 -51.5l-241 -115l256 -71q39 -10 45.5 -44t-15.5 -69q-22 -38 -56.5 -48t-59.5 15z" />
    <glyph glyph-name="plus" unicode="+" horiz-adv-x="1226" 
d="M657 455l-104 -426h-117l105 426h-428l30 114h428l105 428h117l-105 -428h426l-31 -114h-426z" />
    <glyph glyph-name="comma" unicode="," horiz-adv-x="563" 
d="M-33 -262q-12 3 -12 29q0 21 20 30q104 18 176 81.5t72 144.5q0 31 -16 46t-39 15q-43 0 -68.5 20t-25.5 56q0 52 43 100.5t106 48.5q62 0 103 -42.5t41 -114.5q0 -40 -11 -85.5t-39.5 -99t-72 -98.5t-115.5 -81.5t-162 -49.5z" />
    <glyph glyph-name="hyphen" unicode="-" horiz-adv-x="735" 
d="M170 682l508 66q-3 -74 -41 -162l-508 -66q3 70 41 162z" />
    <glyph glyph-name="period" unicode="." horiz-adv-x="563" 
d="M238 252q60 0 100.5 -40t40.5 -97q0 -59 -40.5 -99.5t-100.5 -40.5q-56 0 -96 41t-40 99q0 57 40 97t96 40z" />
    <glyph glyph-name="slash" unicode="/" horiz-adv-x="813" 
d="M1225 1413l-1157 -1413h-150l1155 1413h152z" />
    <glyph glyph-name="zero" unicode="0" horiz-adv-x="1024" 
d="M793 1448q144 0 228.5 -129t84.5 -338q0 -127 -35 -269.5t-99.5 -273.5t-147 -238t-187.5 -171t-211 -64q-144 0 -228.5 130t-84.5 337q0 153 41.5 307.5t112 279t157.5 223t184 152.5t185 54zM786 1372q-67 0 -140 -62.5t-136.5 -169.5t-115 -239t-81.5 -282.5
t-30 -288.5q0 -134 38 -210.5t111 -76.5q83 0 174.5 97.5t163.5 246t119 337t47 359.5q0 135 -38.5 212t-111.5 77z" />
    <glyph glyph-name="one" unicode="1" horiz-adv-x="1024" 
d="M700 1104q6 25 6 38t-3.5 17t-12.5 4q-7 0 -30.5 -9t-34.5 -15q-196 -74 -240 -74q-7 0 -12.5 10.5t-3.5 22.5q4 13 14 20q169 32 541 332q14 0 22.5 -1t13 -5.5t1.5 -13.5q-2 -11 -23 -87t-60 -224t-79 -308l-176 -711q-9 -37 16 -37h188v-63h-602v63h189q28 0 37 37z
" />
    <glyph glyph-name="two" unicode="2" horiz-adv-x="1024" 
d="M817 0h-805v55q451 281 684.5 545t233.5 477q0 221 -228 221q-118 0 -197 -63.5t-89 -173.5q-39 0 -39 22q0 38 12.5 83.5t43 96t74.5 91.5t113.5 67.5t153.5 26.5q152 0 242 -84t90 -231q0 -133 -63 -266t-178.5 -256t-261.5 -233.5t-329 -217.5h474q53 0 78 23t55 98
q22 0 32 -6t7 -17q-3 -15 -32.5 -104.5t-35.5 -122.5q-3 -13 -13.5 -22t-21.5 -9z" />
    <glyph glyph-name="three" unicode="3" horiz-adv-x="1024" 
d="M684 1323q-120 0 -195.5 -53t-85.5 -146q-38 0 -38 21q0 32 12.5 69.5t43 79.5t73.5 76t111.5 56t150.5 22q148 0 232.5 -77t84.5 -191q0 -128 -103.5 -232t-338.5 -188q122 -6 199 -97t77 -227q0 -97 -37.5 -181t-110.5 -149.5t-192 -103t-272 -37.5q-141 0 -201.5 46
t-60.5 112q0 44 24 69t66 25q37 0 55 -17.5t24.5 -42.5t16 -50t41 -42.5t88.5 -17.5q97 0 183.5 45t141 129t54.5 187q0 122 -65.5 186.5t-174.5 64.5q-76 0 -108 -12q-19 7 -19 35q0 8 5 18q211 88 328.5 160t161.5 133.5t44 136.5q0 87 -58 140t-157 53z" />
    <glyph glyph-name="four" unicode="4" horiz-adv-x="1024" 
d="M831 420l-106 -420h-162l107 420h-582v47l903 985l96 -6l-225 -895h156l-31 -131h-156zM700 551l162 641l-581 -641h419z" />
    <glyph glyph-name="five" unicode="5" horiz-adv-x="1024" 
d="M1059 1450q27 3 39.5 18.5t19.5 44.5h45q-8 -45 -32.5 -120t-30.5 -101l-580 -57q-13 -1 -25 -23.5t-12 -37.5q0 -5 4 -9q116 -48 202 -112t136 -137t73.5 -149t23.5 -159q0 -86 -25.5 -170.5t-73 -161.5t-121 -143t-164 -114t-207 -75.5t-245.5 -27.5q-20 0 -20 43
q161 7 295 62t219.5 139.5t132.5 188.5t47 214q0 72 -22.5 138.5t-69 129t-128 115t-190.5 88.5l164 365z" />
    <glyph glyph-name="six" unicode="6" horiz-adv-x="1024" 
d="M375 784q66 75 131 108.5t145 33.5q67 0 124 -23t102 -68.5t70.5 -121.5t25.5 -176q0 -141 -64.5 -272.5t-177.5 -214.5t-242 -83q-165 0 -261.5 111.5t-96.5 341.5q0 134 46 265.5t126.5 243.5t194.5 209t246 165t285 106.5t308 38.5q8 0 13.5 -13t5.5 -30
q-163 -23 -316.5 -82.5t-278 -144t-224.5 -183t-172 -207.5zM297 334q0 -140 51 -213.5t141 -73.5q127 0 215.5 153t88.5 373q0 135 -49.5 201t-133.5 66q-77 0 -139 -45t-99 -119t-56 -162t-19 -180z" />
    <glyph glyph-name="seven" unicode="7" horiz-adv-x="1024" 
d="M489 1255q-68 0 -99.5 -27t-65.5 -110q-21 0 -30.5 6t-6.5 17q10 45 55 175t51 157h47q-6 -31 3.5 -45.5t41.5 -14.5h727v-41l-933 -1413l-54 23l725 1273h-461z" />
    <glyph glyph-name="eight" unicode="8" horiz-adv-x="1024" 
d="M713 750q106 -133 152 -218t46 -190q0 -165 -129.5 -271t-322.5 -106q-159 0 -274 90.5t-115 233.5q0 311 438 454q-80 103 -117 179.5t-37 167.5q0 146 119 252t301 106q152 0 253 -81t101 -204q0 -79 -26.5 -141.5t-83 -111t-128.5 -86t-177 -74.5zM551 686
q-154 -67 -239 -166.5t-85 -230.5q0 -109 66.5 -175.5t169.5 -66.5q102 0 183 73.5t81 196.5q0 94 -40 173t-136 196zM674 807q72 32 122.5 63.5t94 75t65 101t21.5 129.5q0 94 -56.5 146t-150.5 52q-110 0 -176 -72.5t-66 -179.5q0 -87 36.5 -156t109.5 -159z" />
    <glyph glyph-name="nine" unicode="9" horiz-adv-x="1024" 
d="M700 535q9 0 9 -11q0 -10 -11 -25.5t-22 -15.5q-203 0 -320.5 111t-117.5 317q0 102 35 198.5t96 172t151.5 121t194.5 45.5q163 0 262.5 -117.5t99.5 -300.5q0 -164 -49 -313t-134 -263.5t-200 -208t-248.5 -154t-278 -92.5t-288.5 -32q-20 0 -20 35q0 21 10 21
q209 2 400 84t330.5 219.5t222.5 328t83 400.5q0 160 -48.5 238.5t-151.5 78.5q-128 0 -202.5 -129t-74.5 -338q0 -175 69.5 -272.5t202.5 -97.5z" />
    <glyph glyph-name="colon" unicode=":" horiz-adv-x="583" 
d="M205 252q58 0 98.5 -40t40.5 -97q0 -59 -40.5 -99.5t-98.5 -40.5q-57 0 -97 41t-40 99q0 57 40 97t97 40zM383 958q60 0 100.5 -40t40.5 -97q0 -59 -40.5 -99t-100.5 -40q-56 0 -95.5 40.5t-39.5 98.5q0 57 39.5 97t95.5 40z" />
    <glyph glyph-name="semicolon" unicode=";" horiz-adv-x="583" 
d="M-16 -262q-5 0 -9 9.5t-4 19.5q0 9 5.5 19t15.5 11q40 3 82 18t80.5 41t63 68t24.5 92q0 32 -16.5 50t-41.5 18q-94 0 -94 88q0 60 40.5 98.5t96.5 38.5q156 0 156 -186q0 -83 -29 -151.5t-73 -110.5t-99.5 -71t-105 -40.5t-92.5 -11.5zM393 958q60 0 101 -40t41 -97
q0 -59 -41 -99t-101 -40q-56 0 -95.5 40.5t-39.5 98.5q0 57 39.5 97t95.5 40z" />
    <glyph glyph-name="less" unicode="&#x3c;" horiz-adv-x="1052" 
d="M1047 983l24 -55l-745 -414l536 -422l-51 -57l-737 432l22 86z" />
    <glyph glyph-name="equal" unicode="=" horiz-adv-x="1226" 
d="M182 735h973l-29 -114h-970zM100 403h971l-27 -116h-972z" />
    <glyph glyph-name="greater" unicode="&#x3e;" horiz-adv-x="1052" 
d="M6 35l-24 55l745 414l-537 422l52 57l735 -432l-21 -86z" />
    <glyph glyph-name="question" unicode="?" horiz-adv-x="735" 
d="M854 1130q0 -71 -26 -130.5t-69 -98.5t-98 -74t-112 -59t-112 -51t-98 -52.5t-69 -61.5t-26 -79q0 -80 78 -80q28 0 45.5 16t24.5 35.5t24.5 35.5t46.5 16q28 0 45.5 -18.5t17.5 -51.5q0 -53 -48 -87t-116 -34q-90 0 -145 47.5t-55 126.5q0 70 30.5 129t79 101t107 79.5
t117.5 73.5t107.5 74.5t79 90t30.5 112.5q0 123 -113 123q-33 0 -63 -15.5t-50.5 -34t-50.5 -34t-63 -15.5q-37 0 -57.5 21.5t-20.5 54.5q0 21 13.5 46.5t40 51.5t75.5 43t111 17q155 0 237 -89t82 -229zM219 227q51 0 86 -34t35 -84q0 -51 -35 -86t-86 -35q-50 0 -84.5 35
t-34.5 86q0 49 34.5 83.5t84.5 34.5z" />
    <glyph glyph-name="at" unicode="@" horiz-adv-x="1744" 
d="M1276 866q0 -25 -91 -318.5t-91 -322.5q0 -33 12 -49t41 -16q63 0 133.5 41t131 111.5t100.5 180t40 232.5q0 97 -28.5 179t-85 145.5t-148 99t-209.5 35.5q-165 0 -318 -66t-267.5 -179.5t-183 -276t-68.5 -345.5q0 -139 43 -249.5t118.5 -181.5t177 -108.5t220.5 -37.5
q67 0 137 12q10 0 16.5 -8.5t6.5 -19.5q0 -10 -6.5 -20t-16.5 -11q-125 -19 -188 -19q-141 0 -258 39t-204 114.5t-135.5 195.5t-48.5 274q0 134 39.5 263t108 235.5t163 197.5t203 153t230.5 97t242 35q150 0 263 -38.5t181 -108.5t101.5 -162.5t33.5 -206.5
q0 -148 -52 -280t-133.5 -220.5t-180.5 -140t-195 -51.5q-87 0 -122.5 35t-35.5 118q0 31 10 77t29 81l-10 2q-32 -56 -69 -105t-86 -97.5t-108.5 -77.5t-119.5 -29q-68 0 -102.5 50t-34.5 132q0 63 20.5 135.5t58 147t96 143t130 121.5t165 85t195.5 32q55 0 102.5 -15
t47.5 -39zM1098 803q0 37 -37 37q-104 0 -204.5 -79.5t-162 -202.5t-61.5 -245q0 -88 57 -88q78 0 176 103.5t165 241t67 233.5z" />
    <glyph glyph-name="A" unicode="A" horiz-adv-x="1265" 
d="M418 598h446l-69 594zM870 522h-499l-238 -372q-26 -44 -19 -65.5t38 -21.5h94v-63h-430v63h61q34 0 78 62q178 246 441 633.5t448 683.5h114q10 -144 77 -663.5t95 -678.5q3 -17 11.5 -27t19.5 -10h74v-63h-477v63h114q19 0 32 16t9 50z" />
    <glyph glyph-name="B" unicode="B" horiz-adv-x="1241" 
d="M674 1339l-150 -583q249 4 373.5 94t124.5 250q0 117 -78.5 176.5t-269.5 62.5zM510 690l-156 -608q135 0 238 17.5t170.5 49t110 78t60 100t17.5 119.5q0 47 -10.5 82t-39.5 67t-77.5 52t-127 31.5t-185.5 11.5zM465 0h-465v63h125q29 0 35 35l309 1217q5 19 1 26t-19 7
h-125v65h454q227 0 340 -82t113 -221q0 -140 -114.5 -242t-301.5 -131q173 -17 263.5 -90t90.5 -196q0 -60 -21 -119.5t-72.5 -120.5t-129.5 -107t-202.5 -75t-280.5 -29z" />
    <glyph glyph-name="C" unicode="C" horiz-adv-x="1382" 
d="M1319 383q0 -21 -10 -70.5t-25 -112t-20 -85.5q-7 -33 -54 -58q-65 -35 -193 -62.5t-253 -27.5q-138 0 -256.5 45t-202 124.5t-131 193.5t-47.5 248q0 179 85 342.5t223 278t317.5 182t365.5 67.5q157 0 289 -31q34 -10 31 -47q0 -3 -1.5 -75.5t-5 -128.5t-8.5 -81
q-5 -24 -55 -24q-6 157 -75 226t-218 69q-103 0 -207 -35t-199 -106.5t-168.5 -170t-117 -236t-43.5 -294.5q0 -198 124 -327.5t316 -129.5q168 0 297.5 87.5t192.5 267.5q49 0 49 -29z" />
    <glyph glyph-name="D" unicode="D" horiz-adv-x="1519" 
d="M500 0h-500v63h125q29 0 35 35l309 1217q5 19 1 26t-19 7h-125v65h526q321 0 484 -155t163 -429q0 -91 -28.5 -186t-82 -188t-139.5 -175t-193.5 -144.5t-251 -99t-304.5 -36.5zM674 1335l-324 -1263q235 2 416.5 64.5t293 171t168 248.5t56.5 306q0 239 -146.5 356
t-463.5 117z" />
    <glyph glyph-name="E" unicode="E" horiz-adv-x="1181" 
d="M668 1329l-144 -559q278 6 336 18t78 66l23 72q53 0 53 -21q0 -17 -5.5 -45t-16.5 -70t-15 -61q-5 -29 -14.5 -86.5t-16.5 -91.5q-5 -23 -65 -23l6 64q-1 12 1 22.5t-2 19t-7.5 15.5t-14.5 13t-23.5 10.5t-35.5 7.5t-49 5.5t-64 4t-82 2.5t-102 2l-152 -602
q113 2 186.5 5t143.5 8.5t112 16t80 25t62 37.5t43.5 51.5t36.5 69.5q45 0 45 -29q0 -19 -12 -62t-31 -98.5t-23 -70.5q-6 -22 -20 -35.5t-31 -13.5q-7 0 -411.5 2t-536.5 2v63h125q27 0 35 35l307 1217q5 19 1 26t-19 7h-121v65q60 0 165.5 0.5t214.5 1.5t208.5 2t165 1.5
t67.5 0.5q17 0 26 -6t10 -11.5t1 -15.5q0 -18 -12 -80t-21 -147q-3 -22 -53 -22q0 45 -3 70t-19 49.5t-40.5 35t-76.5 20t-119 12.5t-174 5z" />
    <glyph glyph-name="F" unicode="F" horiz-adv-x="1083" 
d="M358 98q-8 -35 17 -35h166v-63h-541v63h125q27 0 35 35l307 1217q5 19 1 26t-19 7h-121v65q60 0 165.5 0.5t214.5 1.5t208.5 2t165 1.5t67.5 0.5q17 0 26 -6t10 -11.5t1 -15.5q0 -18 -12 -80t-21 -147q-3 -22 -53 -22q0 45 -3 70t-19 49.5t-40.5 35t-76.5 20t-119 12.5
t-174 5l-148 -581q279 4 336.5 15.5t77.5 67.5l22 72q54 0 54 -20q0 -18 -5.5 -45.5t-16.5 -71t-15 -61.5q-6 -30 -15.5 -87.5t-15.5 -89.5q-1 -6 -4.5 -10.5t-9.5 -7t-11.5 -4t-13 -2t-12 -0.5h-10.5h-7l9 65q2 23 0.5 35.5t-13.5 26t-34.5 19t-67 11.5t-107.5 8t-159 3z
" />
    <glyph glyph-name="G" unicode="G" horiz-adv-x="1548" 
d="M748 -33q-187 0 -329 78t-217 216.5t-75 316.5q0 144 56.5 279t155 240.5t225.5 185.5t275 122.5t296 42.5q154 0 290 -31q32 -11 29 -47q0 -7 -1.5 -76.5t-4.5 -126.5t-8 -82q-5 -24 -56 -24q-6 157 -74.5 226t-215.5 69q-104 0 -210 -35t-203.5 -106.5t-173.5 -169.5
t-121.5 -235.5t-45.5 -293.5q0 -141 60 -247t159 -159t221 -53q132 0 213.5 44t102.5 122l63 254q7 35 -20 35h-185v63h570v-63h-123q-28 0 -35 -35l-94 -377q-254 -133 -524 -133z" />
    <glyph glyph-name="H" unicode="H" horiz-adv-x="1636" 
d="M1266 702h-758l-152 -604q-6 -35 19 -35h125v-63h-500v63h125q29 0 35 35l305 1217q8 33 -19 33h-124v65h499v-65h-125q-26 0 -37 -33l-133 -537h758l135 537q8 33 -18 33h-125v65h500v-65h-125q-27 0 -35 -33l-303 -1217q-3 -19 0 -27t16 -8h125v-63h-500v63h125
q29 0 35 35z" />
    <glyph glyph-name="I" unicode="I" horiz-adv-x="686" 
d="M500 0h-500v63h125q29 0 35 35l309 1217q5 19 1 26t-19 7h-125v65h501v-65h-127q-24 0 -32 -33l-310 -1217q-6 -35 17 -35h125v-63z" />
    <glyph glyph-name="J" unicode="J" horiz-adv-x="663" 
d="M350 98q-27 -106 -90.5 -205t-145.5 -172.5t-180.5 -118t-193.5 -44.5q-59 0 -91 32t-32 84q0 57 30 93t81 36q31 0 53 -17t33.5 -37t34 -37t53.5 -17q147 0 250 403l309 1217q4 19 0 26t-19 7h-125v65h500v-65h-125q-27 0 -35 -33z" />
    <glyph glyph-name="K" unicode="K" horiz-adv-x="1333" 
d="M514 715l-156 -617q-8 -35 17 -35h125v-63h-500v63h125q29 0 35 35l309 1217q5 19 1 26t-19 7h-125v65h501v-65h-127q-24 0 -32 -33l-146 -559q134 84 342.5 252.5t313.5 273.5q21 20 12.5 43t-39.5 23h-98v65h540v-65h-67q-56 0 -105 -35q-26 -19 -151 -112
t-195.5 -144.5t-182 -130t-198.5 -135.5q270 -341 488 -699q16 -29 53 -29h94v-63h-547v63h109q80 0 43 66q-75 129 -212.5 324.5t-207.5 261.5z" />
    <glyph glyph-name="L" unicode="L" horiz-adv-x="1093" 
d="M358 92q106 1 185.5 6.5t159.5 20.5t136.5 40t102.5 67t72 100q43 0 43 -27q0 -19 -11 -59.5t-28.5 -98.5t-26.5 -96q-13 -49 -53 -49q-7 0 -407 2t-531 2v63h125q29 0 35 35l305 1217q4 19 0 26t-19 7h-124v65h509v-65h-135q-23 0 -34 -33z" />
    <glyph glyph-name="M" unicode="M" horiz-adv-x="1855" 
d="M846 29h-68l-262 1095q-125 -494 -231 -958q-13 -64 0.5 -83.5t66.5 -19.5h70v-63h-422v63h70q38 0 59.5 22t36.5 79q166 619 299 1151q8 33 -16 33h-127v65h321l258 -1143l780 1143h314v-65h-125q-24 0 -35 -33l-303 -1217q-6 -35 16 -35h125v-63h-508v63h133
q29 0 35 35l256 1018z" />
    <glyph glyph-name="N" unicode="N" horiz-adv-x="1548" 
d="M1171 322q158 634 222 923q14 66 2 84.5t-68 18.5h-70v65h433v-65h-74q-45 0 -60.5 -18t-33.5 -83q-133 -482 -330 -1270h-84l-551 1278q-211 -867 -262 -1089q-15 -66 -2.5 -84.5t69.5 -18.5h70v-63h-432v63h63q46 0 67 20t38 81q112 407 297 1151q8 33 -16 33h-127v65
h393z" />
    <glyph glyph-name="O" unicode="O" horiz-adv-x="1431" 
d="M1432 887q0 -106 -30 -217t-83 -212t-128.5 -191.5t-163 -156.5t-191.5 -104.5t-209 -38.5q-230 0 -365 152t-135 405q0 127 42 260t118 250.5t174.5 211t221 148t247.5 54.5q241 0 371.5 -154.5t130.5 -406.5zM340 498q0 -216 77 -329.5t224 -113.5q113 0 221.5 79.5
t185.5 203.5t124 277t47 298q0 223 -69 332t-230 109q-113 0 -222 -79t-186 -202t-124.5 -276.5t-47.5 -298.5z" />
    <glyph glyph-name="P" unicode="P" horiz-adv-x="1128" 
d="M674 1339l-170 -661q27 -2 78 -2q205 0 325.5 105t120.5 292q0 128 -94.5 195.5t-259.5 70.5zM485 604l-127 -506q-8 -35 17 -35h149v-63h-524v63h125q29 0 35 35l309 1217q5 19 1 26t-19 7h-125v65h417q242 0 370 -95.5t128 -285.5q0 -67 -25 -129t-78.5 -117.5
t-129.5 -96.5t-185 -65t-239 -24q-29 0 -99 4z" />
    <glyph glyph-name="Q" unicode="Q" horiz-adv-x="1431" 
d="M637 -33q-61 -84 -105 -131q47 -17 172 -73.5t232 -102.5t249.5 -84.5t254.5 -38.5q94 0 155.5 18.5t118.5 63.5q15 -9 15 -39q0 -16 -13 -41.5t-43.5 -56t-72.5 -57t-107.5 -44.5t-140.5 -18q-91 0 -200 27t-197.5 61.5t-203 93.5t-177.5 95.5t-160 95.5
q-63 -55 -109 -74.5t-106 -19.5q-52 0 -88.5 23t-36.5 75q0 62 59 103.5t139 41.5q118 0 201 -28q36 34 102 112q-215 13 -337.5 162t-122.5 393q0 127 42 260t118 250.5t174.5 211t221 148t247.5 54.5q160 0 274.5 -73t170.5 -198t56 -290q0 -124 -40 -253.5t-114 -244.5
t-170 -208t-215.5 -150t-242.5 -64zM219 -213q-72 0 -72 -47q0 -39 68 -39q62 0 141 57q-63 29 -137 29zM328 498q0 -216 77 -329.5t224 -113.5q113 0 221.5 79.5t185 203.5t123.5 277t47 298q0 223 -69 332t-230 109q-113 0 -221.5 -79t-186 -202t-124.5 -276.5t-47 -298.5
z" />
    <glyph glyph-name="R" unicode="R" horiz-adv-x="1310" 
d="M504 698q273 1 389.5 95t116.5 305q0 122 -86.5 180.5t-259.5 58.5zM0 0v63h121q27 0 35 35l305 1217q7 33 -19 33h-120v65h432q236 0 352.5 -93.5t116.5 -250.5q0 -162 -116.5 -270t-299.5 -140q88 -177 237 -391q64 -92 135 -148.5t111 -56.5q0 -63 -22 -63h-232
q-34 0 -110 101.5t-157.5 244.5t-150.5 287q-90 -4 -131 -4l-133 -531q-8 -35 15 -35h151v-63h-520z" />
    <glyph glyph-name="S" unicode="S" horiz-adv-x="972" 
d="M1030 1303l-18 -218q-6 -32 -58 -32q-36 297 -258 297q-102 0 -165.5 -62.5t-63.5 -163.5q0 -66 37 -136.5t137 -172.5q145 -146 192.5 -233t47.5 -205q0 -74 -31.5 -145.5t-90 -131.5t-153 -96.5t-209.5 -36.5q-81 0 -148.5 13.5t-110 35t-71 49t-39.5 53.5t-8 50
l27 190q3 31 59 31q23 -161 99 -242t198 -81q125 0 204 75t79 201q0 74 -35.5 141t-128.5 158q-138 134 -187.5 220t-49.5 194q0 110 58 201t155 141.5t211 50.5q84 0 150.5 -15.5t102 -39t53 -47t15.5 -43.5z" />
    <glyph glyph-name="T" unicode="T" horiz-adv-x="1179" 
d="M911 1337l-309 -1239q-8 -35 21 -35h153v-63h-540v63h137q27 0 35 35l307 1239q-94 -3 -158 -9t-120 -18.5t-92.5 -30.5t-68.5 -48t-54.5 -68t-45.5 -94q-39 0 -39 27q0 8 2.5 22t9 41t12.5 50.5t19 73.5t23 89q5 23 17 32t40 9h1153q35 0 35 -31q0 -24 -15.5 -119.5
t-19.5 -162.5q-3 -20 -15.5 -25.5t-35.5 -5.5q-7 51 -16 85t-22.5 64t-37 47.5t-53 31.5t-78.5 21.5t-104.5 11.5t-139.5 7z" />
    <glyph glyph-name="U" unicode="U" horiz-adv-x="1583" 
d="M1438 1247q12 57 -2 79t-68 22h-88v65h467v-65h-61q-55 0 -79.5 -22t-37.5 -71l-189 -759q-33 -128 -106 -232.5t-168 -170.5t-202.5 -101t-215.5 -35t-198.5 33t-155.5 99.5t-85.5 168t11.5 238.5l205 819q4 18 -1 25.5t-20 7.5h-125v65h535v-65h-162q-22 0 -33 -33
l-202 -819q-26 -113 -16.5 -192.5t55.5 -130t111 -74t149 -23.5q170 0 305.5 107.5t187.5 312.5z" />
    <glyph glyph-name="V" unicode="V" horiz-adv-x="1232" 
d="M569 219l660 1045q27 44 21 64t-38 20h-94v65h430v-65h-61q-35 0 -80 -62q-175 -243 -438 -631.5t-449 -685.5h-114q-13 154 -80 673.5t-95 670.5q-7 35 -28 35h-76v65h477v-65h-115q-17 0 -30 -16t-8 -50z" />
    <glyph glyph-name="W" unicode="W" horiz-adv-x="1849" 
d="M1090 805l77 -586l660 1045q27 44 21 64t-38 20h-94v65h426v-65h-61q-36 0 -78 -62q-172 -236 -436.5 -626.5t-452.5 -690.5h-115q0 124 -59 623q-238 -345 -410 -623h-114q-10 144 -77 664.5t-95 679.5q-10 35 -31 35h-74v65h482v-65h-117q-17 0 -30 -16t-9 -50
l119 -1063l338 498q-53 412 -84 596q-3 15 -12 25t-19 10h-84v65h852v-65h-55q-23 0 -41.5 -14.5t-42.5 -47.5q-250 -344 -346 -481zM1067 928l227 336q28 44 22 64t-38 20h-219q-18 0 -31.5 -16t-9.5 -50z" />
    <glyph glyph-name="X" unicode="X" horiz-adv-x="1345" 
d="M657 688l-348 625q-7 12 -31 23.5t-36 11.5h-76v65h504v-65h-92q-64 0 -27 -66l254 -465q16 15 79.5 71.5t86 77t75.5 69t84 78t73.5 71.5t78.5 80q31 35 20.5 59.5t-42.5 24.5h-60v65h440v-65h-53q-38 0 -114 -62q-81 -63 -172 -139t-146 -124.5t-162 -143t-147 -129.5
l356 -631q14 -25 34.5 -40.5t33.5 -15.5h73v-63h-497v63h115q10 0 17.5 7t7.5 23t-13 36l-275 492q-350 -310 -508 -471q-36 -38 -31 -62.5t42 -24.5h61v-63h-434v63h45q58 0 133 62q255 213 651 563z" />
    <glyph glyph-name="Y" unicode="Y" horiz-adv-x="1284" 
d="M799 725l-158 -627q-6 -35 16 -35h127v-63h-501v63h127q26 0 32 35l150 588l-342 606q-16 27 -36 41.5t-34 14.5h-74v65h498v-65h-115q-10 0 -17.5 -6.5t-7.5 -22.5t13 -37l275 -489q339 300 510 471q36 38 30 61t-43 23h-61v65h434v-65h-43q-60 0 -135 -62
q-101 -83 -208.5 -176t-239 -210t-197.5 -175z" />
    <glyph glyph-name="Z" unicode="Z" horiz-adv-x="1353" 
d="M1249 334q0 -34 -50 -147t-58 -142q-4 -21 -19.5 -34t-34.5 -13q-14 0 -235.5 0.5t-497.5 1t-422 0.5l-6 37l1266 1282q-137 0 -232 -1.5t-179.5 -8.5t-137 -13.5t-101.5 -24t-76 -33t-58 -48t-50.5 -60t-50.5 -77.5q-41 0 -41 26q0 19 51.5 138t59.5 153q4 19 19.5 32
t31.5 13q7 0 474.5 -1t598.5 -1l8 -39l-1261 -1280q202 0 327 2.5t228 17t154 27t103 50.5t77 69.5t73 101.5q39 0 39 -28z" />
    <glyph glyph-name="bracketleft" unicode="[" horiz-adv-x="872" 
d="M84 -510l537 2202h655q12 0 15.5 -14t-1.5 -31q-3 -21 -15 -35.5t-26 -14.5h-514l-485 -2011h514q23 0 16 -49q-5 -19 -17 -33t-24 -14h-655z" />
    <glyph glyph-name="backslash" unicode="\" horiz-adv-x="813" 
d="M51 1413h144l450 -1413h-141z" />
    <glyph glyph-name="bracketright" unicode="]" horiz-adv-x="872" 
d="M895 1692l-537 -2202h-657q-12 0 -15.5 14t1.5 31q3 21 15.5 35t25.5 14h516l485 2011h-516q-21 0 -14 50q5 19 16 33t23 14h657z" />
    <glyph glyph-name="asciicircum" unicode="^" horiz-adv-x="1081" 
d="M963 678l-56 -33l-227 559l-502 -559l-41 33l555 735h76z" />
    <glyph glyph-name="underscore" unicode="_" horiz-adv-x="1308" 
d="M-51 -217h1308l-26 -100h-1307z" />
    <glyph glyph-name="grave" unicode="`" horiz-adv-x="999" 
d="M459 1366q-29 23 -29 47q0 15 17.5 25t46.5 10q71 0 92 -35l209 -319l-45 -17z" />
    <glyph glyph-name="a" unicode="a" horiz-adv-x="1009" 
d="M829 915q28 62 38 75.5t28 13.5q29 0 48.5 -12.5t19.5 -28.5q0 -30 -139.5 -388.5t-139.5 -396.5q0 -18 18 -18q34 0 102 62.5t142 174.5q5 13 15 13q8 0 14 -9.5t6 -19.5q0 -13 -20 -55.5t-58 -100.5t-84.5 -112t-108 -91.5t-120.5 -37.5q-35 0 -49.5 17t-14.5 60
q0 73 103 297l-21 4q-107 -174 -245 -284.5t-240 -110.5q-64 0 -93.5 32t-29.5 97q0 145 74 297t186 266.5t250 187.5t262 73q17 0 57 -5zM745 778q0 31 -12 43.5t-41 12.5q-82 0 -177 -70t-167.5 -168.5t-121 -206t-48.5 -180.5q0 -37 15.5 -52.5t50.5 -15.5
q79 0 200 117.5t211 271t90 248.5z" />
    <glyph glyph-name="b" unicode="b" horiz-adv-x="909" 
d="M57 152q0 22 2 45t8 56.5t11 57.5t18.5 77t21.5 84t28 108t32 122q164 612 164 703q0 43 -47 51l-66 12q-6 0 -6 17q0 13 5.5 24t13.5 11q67 6 148 30.5t140 57.5q27 0 27 -23q0 -34 -123.5 -466.5t-185.5 -612.5l22 -4q108 195 235.5 319.5t231.5 124.5q74 0 107 -50.5
t33 -162.5q0 -123 -63 -263t-155 -249t-202.5 -181.5t-200.5 -72.5q-199 0 -199 185zM266 37q63 0 143 80.5t144 190t108 224t44 181.5q0 73 -60 73q-58 0 -139.5 -77t-150.5 -182t-118 -219t-49 -183q0 -46 17 -67t61 -21z" />
    <glyph glyph-name="c" unicode="c" horiz-adv-x="692" 
d="M631 946q74 0 108.5 -28t34.5 -76q0 -56 -33 -92.5t-82 -36.5q-26 0 -45.5 16.5t-29.5 35.5t-28.5 35.5t-43.5 16.5q-56 0 -114 -58t-100 -143t-68.5 -181.5t-26.5 -172.5q0 -71 24.5 -99t73.5 -28q109 0 229 166q7 12 21 12t24.5 -9t10.5 -21q0 -6 -17 -38.5
t-50.5 -79.5t-76 -91.5t-101.5 -75.5t-118 -31q-93 0 -138.5 64t-45.5 172q0 87 28.5 188t83.5 198.5t126 178t164 129.5t190 49z" />
    <glyph glyph-name="d" unicode="d" horiz-adv-x="1019" 
d="M1087 1585q0 -18 -225 -825q-27 -97 -72.5 -253t-66.5 -230.5t-21 -86.5q0 -20 25 -20q31 0 105 72t114 153q6 11 15 11t22.5 -11t13.5 -18q0 -41 -77.5 -134.5t-180 -173t-161.5 -79.5q-25 0 -33 13t-8 42q0 88 108 373l-20 4q-111 -219 -237 -337t-238 -118
q-117 0 -117 180q0 109 36.5 226.5t97 217.5t134 181t154 127.5t149.5 46.5q99 0 139 -82q39 137 70.5 265.5t46 196.5t14.5 79q0 43 -51 51l-63 12q-6 0 -6 17q0 13 4.5 24t11.5 11q69 6 150.5 30.5t140.5 57.5q26 0 26 -23zM616 858q-90 0 -190 -105t-164.5 -254.5
t-64.5 -275.5q0 -50 14.5 -68t52.5 -18q69 0 175 115.5t184.5 265.5t78.5 242q0 98 -86 98z" />
    <glyph glyph-name="e" unicode="e" horiz-adv-x="770" 
d="M252 483q-55 -116 -55 -223q0 -79 32 -112t99 -33q61 0 138 45.5t140 122.5q6 6 15 6q10 0 20 -11.5t10 -23.5q0 -11 -16 -41t-50 -72.5t-80 -81t-115 -65.5t-144 -27q-98 0 -150.5 65.5t-52.5 172.5q0 127 58 262.5t147 240t202.5 171.5t219.5 67q129 0 129 -115
q0 -107 -81 -187t-202.5 -119t-263.5 -42zM272 535q81 17 161.5 54.5t137.5 80t93 85.5t36 72q0 33 -38 33q-48 0 -119.5 -39.5t-148 -117t-122.5 -168.5z" />
    <glyph glyph-name="f" unicode="f" horiz-adv-x="540" 
d="M250 842h-129q-15 0 -15 24q0 34 17 37l143 10q73 333 205 481t354 148q125 0 188.5 -44t63.5 -114q0 -40 -26 -69t-66 -29q-37 0 -57 16.5t-27.5 40.5l-15 48t-26.5 40.5t-54 16.5q-127 0 -213 -124t-162 -398l256 20q10 0 10 -39q0 -65 -16 -65h-272l-183 -731
q-67 -276 -179.5 -412.5t-297.5 -136.5q-143 0 -143 106q0 37 21.5 58.5t54.5 21.5q26 0 41 -11.5t20 -28t9.5 -33.5t16 -28.5t33.5 -11.5q35 0 66 20.5t57.5 61.5t48.5 86.5t43 111.5t35.5 120t32.5 127q37 147 93.5 384.5t72.5 295.5z" />
    <glyph glyph-name="g" unicode="g" horiz-adv-x="821" 
d="M203 -20q-128 -52 -189 -110t-61 -126q0 -95 86.5 -147t208.5 -52q100 0 166.5 40t66.5 114q0 41 -21 75.5t-77 75.5q-49 36 -104 75t-76 55zM162 6q-111 79 -111 156q0 17 14 31.5t42 25.5t53 18.5t63 17t56 15.5q-132 54 -132 219q0 114 51 219t142 171.5t197 66.5
q85 0 133 -39l225 33q7 1 12.5 -8.5t8 -21.5t2.5 -25q0 -23 -7.5 -45t-19.5 -23l-180 -6q22 -46 22 -131q0 -167 -91.5 -280.5t-260.5 -149.5q-84 -19 -113.5 -39.5t-29.5 -46.5q0 -24 38.5 -59t147.5 -101q136 -85 179.5 -144.5t43.5 -133.5q0 -88 -59 -150t-146 -89.5
t-190 -27.5q-111 0 -212 30t-168 89.5t-67 136.5q0 98 86 165t271 126zM535 877q-44 0 -91.5 -59t-80.5 -139t-54.5 -157t-21.5 -116q0 -51 14 -71t49 -20q58 0 118 97t95 210.5t35 180.5q0 43 -14 58.5t-49 15.5z" />
    <glyph glyph-name="h" unicode="h" horiz-adv-x="954" 
d="M242 432l22 -4q25 44 40 70.5t53 87.5t67.5 101.5t75 94t85.5 86t87.5 55.5t91.5 23q73 0 113.5 -49t40.5 -131q0 -133 -32.5 -259t-86.5 -221.5t-120.5 -168.5t-137.5 -111.5t-135 -38.5q-43 0 -65 22t-22 54q0 34 22.5 60t57.5 26q26 0 35.5 -11.5t8 -25.5t3 -25.5
t21.5 -11.5q46 0 114 98.5t119.5 242t51.5 255.5q0 65 -14.5 92t-53.5 27q-93 0 -230.5 -180.5t-281.5 -478.5q-7 -14 -17 -37.5t-17 -40t-15.5 -33t-16.5 -25t-16 -8.5q-27 0 -53.5 12.5t-26.5 36.5t19 87.5t70 232.5t104 366q164 625 164 703q0 43 -50 51l-63 12
q-6 0 -6 17q0 13 4.5 24t11.5 11q69 6 150.5 30.5t138.5 57.5q29 0 29 -23q0 -34 -139 -508.5t-201 -644.5z" />
    <glyph glyph-name="i" unicode="i" horiz-adv-x="567" 
d="M461 946q71 0 71 -80q0 -55 -75 -216t-149.5 -313t-74.5 -185q0 -23 25 -23q28 0 88 47t88 82q8 8 12 8q10 0 19.5 -7t9.5 -15q0 -35 -62 -101.5t-147 -121t-141 -54.5q-70 0 -70 86q0 61 70.5 220t140.5 304.5t70 174.5q0 28 -23 28q-29 0 -83.5 -42t-98.5 -89
q-6 -4 -12 -4q-9 0 -19 9t-10 18q0 25 66 91t157 124.5t148 58.5zM502 1378q44 0 74 -31t30 -73q0 -44 -30.5 -76.5t-73.5 -32.5t-76 33t-33 76q0 41 33 72.5t76 31.5z" />
    <glyph glyph-name="j" unicode="j" horiz-adv-x="577" 
d="M168 193q68 174 119 345.5t51 213.5q0 28 -25 28q-28 0 -83.5 -42.5t-98.5 -88.5q-4 -4 -12 -4t-18.5 9t-10.5 18q0 25 66.5 91t157.5 124.5t147 58.5q74 0 74 -80q0 -92 -91.5 -356.5t-236.5 -599.5q-37 -83 -69.5 -144.5t-77.5 -122.5t-92.5 -99t-111 -61.5
t-137.5 -23.5q-62 0 -100.5 34.5t-38.5 74.5q0 46 22 71t58 25q37 0 54.5 -19t19.5 -41.5t15 -41.5t42 -19q127 0 377 650zM535 1378q42 0 73 -31t31 -73q0 -43 -31 -76t-73 -33q-43 0 -76 33t-33 76q0 41 33 72.5t76 31.5z" />
    <glyph glyph-name="k" unicode="k" horiz-adv-x="952" 
d="M588 1585q0 -35 -127.5 -451t-179.5 -542l18 -2q219 356 489 356q72 0 116 -40t44 -103q0 -44 -21 -85.5t-71 -82.5t-123 -71.5t-186 -49t-252 -18.5q43 -50 96.5 -118t89.5 -114.5t75 -90.5t71.5 -66.5t60.5 -22.5q45 0 45 66q0 71 62 71q31 0 51 -21.5t20 -56.5
q0 -61 -48.5 -118.5t-133.5 -57.5q-157 0 -265.5 128.5t-150.5 350.5h-16q-87 -357 -117 -450q-13 -29 -37 -29q-31 0 -59.5 12.5t-28.5 32.5q0 25 181.5 685t181.5 708q0 43 -49 51l-64 12q-6 0 -6 17q0 13 4.5 24t11.5 11q69 6 150.5 30.5t140.5 57.5q27 0 27 -23z
M309 543q222 25 346.5 86t124.5 125q0 63 -67 63q-82 0 -185.5 -70t-218.5 -204z" />
    <glyph glyph-name="l" unicode="l" horiz-adv-x="512" 
d="M575 1585q0 -26 -191 -702t-191 -705q0 -22 22 -22q32 0 101 63t141 164q3 6 12 6q7 0 18 -9.5t11 -19.5q0 -26 -48 -91t-112 -132t-136 -118.5t-114 -51.5q-70 0 -70 76q0 60 85.5 388.5t171 640.5t85.5 333q0 43 -49 51l-63 12q-6 0 -6 17q0 13 4.5 24t11.5 11
q69 6 150.5 30.5t138.5 57.5q28 0 28 -23z" />
    <glyph glyph-name="m" unicode="m" horiz-adv-x="1587" 
d="M858 424q63 95 130.5 179.5t148 165.5t164.5 129t157 48q119 0 119 -104q0 -55 -58.5 -165t-129 -211t-129 -190t-58.5 -108q0 -25 19 -25q30 0 88.5 36.5t103.5 84.5q8 4 12 4q7 0 17 -9t10 -15q0 -29 -78.5 -96t-180 -124t-157.5 -57q-29 0 -42 11.5t-13 37.5
q0 32 63 141.5t138.5 225.5t138.5 227t63 146q0 19 -9 27t-32 8q-34 0 -94 -39t-140 -116t-184 -214t-208 -311q-7 -12 -21.5 -38t-23.5 -40.5t-20.5 -32t-20.5 -25.5t-17 -8q-30 0 -52.5 12t-22.5 27q0 29 77 184q94 194 160 354.5t66 198.5q0 48 -47 48q-20 0 -50.5 -14.5
t-82 -59.5t-108 -116t-132.5 -198.5t-152 -291.5q-7 -14 -17 -37.5t-17 -40t-15.5 -33t-16.5 -25t-16 -8.5q-33 0 -57.5 12.5t-24.5 30.5q0 21 66 228q139 439 139 514q0 28 -26 28q-28 0 -97.5 -58t-97.5 -99q-7 -7 -14 -7q-9 0 -21 9t-12 18q0 18 39.5 68t93.5 102
t118.5 92.5t106.5 40.5q74 0 74 -80q0 -49 -24 -135t-44.5 -140t-62.5 -161l23 -4q35 59 53.5 89t52.5 83t54.5 82t53.5 71.5t57.5 66t57.5 52t62.5 42.5t63.5 24t69 10q71 0 96 -31.5t25 -78.5q0 -53 -45 -152.5t-129 -253.5z" />
    <glyph glyph-name="n" unicode="n" horiz-adv-x="1062" 
d="M365 426q60 109 114 191t122 162t141.5 123.5t146.5 43.5q131 0 131 -129q0 -70 -66.5 -219t-133 -281.5t-66.5 -160.5q0 -27 24 -27t81.5 42t103.5 83q9 6 12 6q10 0 20.5 -10t10.5 -19q0 -28 -61.5 -91.5t-147 -118t-140.5 -54.5q-36 0 -51.5 19t-15.5 65
q0 63 62.5 217.5t125 297.5t62.5 177q0 48 -41 48q-37 0 -89 -36.5t-119 -111.5t-152 -213t-171 -319q-8 -16 -27 -60t-31.5 -64t-25.5 -20q-26 0 -52 12.5t-26 36.5t66 226q139 419 139 510q0 28 -26 28q-28 0 -97.5 -58t-97.5 -99q-7 -7 -14 -7q-9 0 -20 9t-11 18
q0 26 61.5 98.5t151 138.5t152.5 66q65 0 65 -80q0 -76 -34.5 -182t-96.5 -254z" />
    <glyph glyph-name="o" unicode="o" horiz-adv-x="790" 
d="M537 946q45 0 79.5 -13t66 -45.5t48.5 -97.5t17 -159q0 -108 -33.5 -212.5t-87.5 -184t-118.5 -141t-129.5 -94t-119 -32.5q-112 0 -164.5 75t-52.5 234q0 137 49.5 265t124.5 214.5t160.5 138.5t159.5 52zM532 860q-61 0 -127 -85t-114 -201t-79.5 -232.5t-31.5 -183.5
q0 -103 90 -103q66 0 132.5 90.5t111 213.5t72.5 241.5t28 183.5q0 76 -82 76z" />
    <glyph glyph-name="p" unicode="p" horiz-adv-x="915" 
d="M481 946q191 0 287 -87t96 -273q0 -87 -21.5 -173.5t-64.5 -163.5t-101.5 -136.5t-139 -94t-170.5 -34.5q-86 0 -138 20q-100 -369 -100 -412q0 -26 33 -26h200v-64h-565v64h99q41 0 55 51q17 53 173 596t185 633q-47 -5 -108 -15t-84 -10q-19 0 -19 23t16.5 50.5
t41.5 27.5q24 0 84 3.5t98 4.5l70 233q10 31 32 31q44 0 72.5 -11.5t24.5 -29.5zM461 860q-176 -603 -176 -715q0 -46 14.5 -67t56.5 -21q90 0 170 93t125 228t45 265q0 125 -49 171t-186 46z" />
    <glyph glyph-name="q" unicode="q" horiz-adv-x="946" 
d="M418 -383q164 547 248 801l-23 4q-127 -223 -245 -339t-234 -116q-61 0 -94 45.5t-33 124.5q0 118 57.5 261.5t145 264t201 202t216.5 81.5q58 0 94 -15t66 -44q32 43 52 84.5t20 60.5t22 19q39 0 39 -21q0 -33 -248 -964q-10 -38 -24 -90t-22 -82t-18.5 -70t-16.5 -63
t-13 -51t-10.5 -44t-7 -32.5t-5 -26t-1.5 -15.5q0 -26 34 -26h130v-64h-504v64h121q24 0 34.5 11t18.5 40zM643 868q-71 0 -148.5 -73.5t-135 -177t-95 -214t-37.5 -184.5q0 -34 12 -49.5t40 -15.5q68 0 176.5 117.5t191 271t82.5 248.5q0 38 -19.5 57.5t-66.5 19.5z" />
    <glyph glyph-name="r" unicode="r" horiz-adv-x="808" 
d="M344 436l21 -6q143 285 238.5 400.5t184.5 115.5q111 0 111 -129q0 -58 -30 -96.5t-72 -38.5q-30 0 -45 15.5t-17 33.5t-10 33.5t-27 15.5q-51 0 -200.5 -241t-259.5 -494q-5 -12 -12 -29t-9.5 -23.5t-7.5 -14t-10.5 -9.5t-14.5 -2q-26 0 -52 12.5t-26 36.5q0 22 66 224
q52 158 95.5 315.5t43.5 196.5q0 28 -26 28q-28 0 -97.5 -58t-97.5 -99q-7 -7 -14 -7q-9 0 -20 9t-11 18q0 27 63 100t150.5 138t142.5 65q70 0 70 -80q0 -103 -127 -430z" />
    <glyph glyph-name="s" unicode="s" horiz-adv-x="571" 
d="M440 262q0 -142 -86 -218.5t-217 -76.5q-88 0 -144 40.5t-56 113.5q0 84 81 84q26 0 42.5 -15t25.5 -37t19.5 -44t32.5 -37t57 -15q94 0 94 121q0 54 -17 116t-37.5 110t-37.5 111.5t-17 119.5q0 77 26 138.5t67.5 98t89 55.5t94.5 19q77 0 118 -34.5t41 -94.5
q0 -82 -81 -82q-28 0 -46 16.5t-26.5 37t-29 37t-52.5 16.5q-31 0 -49.5 -22.5t-18.5 -57.5q0 -48 20 -109t43.5 -112.5t43.5 -127.5t20 -151z" />
    <glyph glyph-name="t" unicode="t" horiz-adv-x="620" 
d="M256 178q0 -22 23 -22q32 0 100 63t141 164q3 6 12 6q7 0 19 -9.5t12 -19.5q0 -35 -77 -130.5t-178 -179t-156 -83.5q-68 0 -68 76q0 43 31.5 173t86.5 333t77 293h-125q-15 0 -15 24q0 34 17 37l143 10q25 116 63 254q4 19 41.5 34.5t71.5 15.5q57 0 57 -27
q0 -7 -12 -53.5t-31.5 -117.5t-25.5 -93l254 20q12 0 12 -39q0 -65 -18 -65h-273q-182 -602 -182 -664z" />
    <glyph glyph-name="u" unicode="u" horiz-adv-x="1081" 
d="M813 637l-22 6q-121 -173 -222.5 -300t-169.5 -198t-126 -112.5t-92.5 -53.5t-67.5 -12q-36 0 -50 14.5t-14 49.5q0 55 42.5 168.5t94 220.5t94 205t42.5 125q0 12 -7 19t-16 7q-12 0 -25 -4t-28 -13.5t-26.5 -17.5t-29 -24t-26.5 -24.5t-28 -27t-25 -24.5q-8 -4 -13 -4
q-7 0 -14.5 9t-7.5 16q0 14 32.5 58.5t81 95.5t117.5 90.5t131 39.5q50 0 66 -17t16 -59q0 -47 -67.5 -196t-135 -299.5t-67.5 -202.5q0 -16 4.5 -22.5t17.5 -6.5q50 0 267 275q95 119 174.5 224t115.5 155.5t65 89t41.5 49t27.5 10.5q28 0 53.5 -13.5t25.5 -37.5
q0 -5 -143 -362.5t-143 -403.5q0 -27 24 -27q28 0 94.5 60t96.5 104q5 8 12 8q12 0 19.5 -8.5t7.5 -19.5q0 -18 -37.5 -64t-90 -94t-115 -84.5t-105.5 -36.5q-35 0 -51.5 15t-16.5 57q0 58 74 253t145 345z" />
    <glyph glyph-name="v" unicode="v" horiz-adv-x="940" 
d="M106 113q0 59 34.5 156t75.5 182.5t75.5 174t34.5 132.5q0 33 -23 33q-32 0 -91.5 -47t-113.5 -109q-4 -4 -10 -4q-10 0 -17.5 9t-7.5 17q0 10 20 42t56.5 73.5t80.5 80.5t99 66t105 27q43 0 65.5 -26.5t22.5 -73.5q0 -64 -59 -201t-118 -267.5t-59 -176.5
q0 -37 21.5 -58.5t58.5 -21.5q62 0 130 36.5t127.5 101t98 165.5t38.5 217q0 46 -16.5 106t-16.5 93q0 47 26.5 76.5t67.5 29.5q104 0 104 -129q0 -63 -21 -149t-58.5 -181.5t-95.5 -188t-126 -166.5t-156.5 -119.5t-181.5 -45.5q-170 0 -170 146z" />
    <glyph glyph-name="w" unicode="w" horiz-adv-x="1380" 
d="M512 846q0 -61 -35.5 -160.5t-78 -187.5t-78 -176.5t-35.5 -128.5q0 -33 21 -52.5t65 -19.5q48 0 98 19t129 63q-16 72 -16 137q0 97 22.5 197.5t63 184.5t103 137.5t134.5 53.5q53 0 83 -41t30 -114q0 -113 -76.5 -258.5t-218.5 -270.5q29 -53 75.5 -82.5t100.5 -29.5
q99 0 174.5 64.5t113.5 167.5t38 226q0 58 -15 103t-33.5 68.5t-33.5 52.5t-15 57q0 40 24 65t60 25q121 0 121 -258q0 -185 -61.5 -350t-172 -268t-241.5 -103q-86 0 -145 50.5t-90 127.5q-210 -178 -357 -178q-71 0 -110 41t-39 117q0 48 32.5 141t72 180t72 177.5
t32.5 134.5q0 19 -6 26t-19 7q-30 0 -90 -47t-119 -109q-4 -4 -10 -4q-10 0 -17.5 9t-7.5 17q0 10 21 42t59 73.5t83 80.5t100.5 66t103.5 27q41 0 64.5 -26.5t23.5 -73.5zM698 291q87 102 140 208.5t53 188.5q0 41 -11 57.5t-44 16.5q-42 0 -79 -46.5t-59 -121.5t-22 -156
q0 -82 22 -147z" />
    <glyph glyph-name="x" unicode="x" horiz-adv-x="1218" 
d="M561 373q-196 -210 -318 -308t-218 -98q-37 0 -62.5 23t-25.5 78q0 67 42.5 124.5t102.5 57.5q12 0 21.5 -11t9.5 -26q0 -16 -8.5 -43t-8.5 -35q0 -26 23 -26t368 285q27 23 41 34q-165 270 -196 309q-10 13 -23 13q-41 0 -41 -205q0 -5 -6.5 -11t-17.5 -6q-37 0 -37 127
q0 39 6.5 85.5t20 94.5t39 79.5t57.5 31.5q38 0 67.5 -25.5t71.5 -89.5q39 -61 174 -303q169 202 302.5 310t236.5 108q88 0 88 -98q0 -73 -45.5 -132t-106.5 -59q-12 0 -22.5 11t-10.5 26q0 14 9.5 42.5t9.5 37.5q0 23 -23 23q-18 0 -75 -45t-164.5 -138.5t-167.5 -142.5
q136 -230 180 -289q17 -20 33 -20q7 0 11.5 1.5t11.5 11t10.5 28t6.5 57t3 92.5q0 17 26 17q39 0 39 -133q0 -52 -11.5 -110.5t-41 -108.5t-70.5 -50q-28 0 -47 10.5t-39 38.5q-97 136 -225 357z" />
    <glyph glyph-name="y" unicode="y" horiz-adv-x="901" 
d="M-317 -360q0 46 27 77t71 31q36 0 56 -17.5t28 -42.5t16.5 -50t31.5 -42.5t64 -17.5q161 0 299 150q148 158 148 450q0 231 -52.5 396t-123.5 165q-58 0 -89.5 -84t-31.5 -206q0 -17 -23 -17q-43 0 -43 62q0 116 28.5 219.5t80.5 168t115 64.5q52 0 100.5 -42.5t89 -126
t64.5 -224.5t24 -320q0 -120 -20 -198l16 -2q148 294 148 622q0 42 -9.5 109.5t-9.5 93.5q0 39 18.5 63.5t53.5 24.5q41 0 58.5 -29t17.5 -90q0 -327 -102.5 -595.5t-276.5 -467.5q-130 -147 -269 -215.5t-266 -68.5q-122 0 -180.5 43t-58.5 117z" />
    <glyph glyph-name="z" unicode="z" horiz-adv-x="792" 
d="M152 172q283 347 499 551q-81 0 -209.5 31.5t-181.5 31.5q-43 0 -65.5 -20t-22.5 -53q0 -30 23 -47t65 -17q55 0 55 -57q0 -29 -18 -48.5t-49 -19.5q-70 0 -111 44.5t-41 129.5q0 104 65.5 176t178.5 72q66 0 127 -24t98.5 -52.5t77.5 -52.5t70 -24q1 79 34 116t84 37
q48 0 70.5 -25.5t22.5 -66.5q0 -46 -44.5 -79.5t-131.5 -43.5q-130 -169 -266.5 -316t-239.5 -237q180 0 247 -328q36 -166 65.5 -221t84.5 -55q57 0 57 53q0 16 -8 28t-17.5 18.5t-17.5 22t-8 38.5q0 32 23 54t55 22q98 0 98 -119q0 -90 -60.5 -140.5t-158.5 -50.5
q-128 0 -192.5 73t-79.5 247q-14 174 -41 231.5t-101 57.5q-13 -73 -54.5 -107.5t-94.5 -34.5q-80 0 -80 74q0 55 54 93t139 38z" />
    <glyph glyph-name="braceleft" unicode="{" horiz-adv-x="872" 
d="M168 563q-25 0 -16 45q3 19 15 34t28 15h49q50 0 87.5 14t60 34t40.5 58.5t27 70t23 87.5q2 8 3 13q11 41 29 134.5t31 139.5q116 484 672 484q24 0 12 -45q-12 -50 -39 -50q-103 0 -183 -20.5t-132 -53t-91 -84t-60 -103t-38 -119.5q-15 -55 -32 -164.5t-27 -153.5
q-32 -120 -88.5 -193t-165.5 -96q67 -16 98 -58t28 -99.5t-20 -128.5q-30 -131 -94 -377q-17 -68 -21 -120t10 -103t50.5 -84t107 -53.5t173.5 -20.5q26 0 16 -43q-6 -21 -18.5 -37t-22.5 -16q-131 0 -223 27t-140.5 71t-69.5 108.5t-18.5 129.5t21.5 145q12 46 40 170.5
t40 167.5q9 35 12.5 52t9.5 46.5t6.5 44t-0.5 37t-7 33.5t-16 25t-26.5 20.5t-39 11t-52.5 4.5h-49z" />
    <glyph glyph-name="bar" unicode="|" horiz-adv-x="520" 
d="M573 1532l-489 -1983h-137l489 1983h137z" />
    <glyph glyph-name="braceright" unicode="}" horiz-adv-x="872" 
d="M764 659q27 0 18 -45q-3 -18 -16 -33.5t-27 -15.5h-49q-29 0 -54 -5t-44 -11t-36 -21t-28 -25.5t-23 -34t-18 -37t-15 -44.5t-13 -46t-13 -52q-8 -34 -26 -159.5t-33 -176.5q-116 -483 -670 -483q-26 0 -14 45q15 49 39 49q103 0 183.5 20.5t133 53.5t91.5 84.5t60 103
t38 119.5q12 51 29 190t30 189q30 118 87 191t167 95q-67 17 -98 59.5t-28 100.5t20 129q12 51 46 157.5t46 157.5q17 68 21 119.5t-9.5 103t-50 84.5t-107 53.5t-174.5 20.5q-24 0 -14 43q5 21 17 37.5t24 16.5q109 0 191.5 -18t133 -52.5t81 -78t39 -100t5 -112
t-19.5 -121.5q-4 -14 -82 -276q-30 -130 -28 -174q4 -79 82 -96q25 -5 59 -5h49z" />
    <glyph glyph-name="asciitilde" unicode="~" horiz-adv-x="1050" 
d="M164 324l-60 20q21 75 53 131.5t67 89.5t78.5 53t82.5 26.5t84 6.5q30 0 94.5 -4t98.5 -4q44 0 72 2.5t63 14t59.5 33t51 60.5t48.5 95l56 -17q-24 -93 -63 -156t-89 -93.5t-96.5 -42t-104.5 -11.5q-31 0 -96 4.5t-98 4.5q-42 0 -71.5 -3.5t-64.5 -16t-61.5 -35
t-53.5 -62.5t-50 -96z" />
    <glyph glyph-name="nbspace" unicode="&#xa0;" horiz-adv-x="458" 
 />
    <glyph glyph-name="exclamdown" unicode="&#xa1;" horiz-adv-x="507" 
d="M324 739q-51 0 -86 34.5t-35 84.5q0 51 35 86t86 35q50 0 84 -35t34 -86q0 -50 -34.5 -84.5t-83.5 -34.5zM256 604h51l-164 -966q-6 -49 -45.5 -84t-89.5 -35t-71 34.5t-3 84.5z" />
    <glyph glyph-name="cent" unicode="&#xa2;" horiz-adv-x="919" 
d="M397 483q-81 7 -121 69.5t-40 162.5q0 104 39 224.5t105 228.5t165.5 188t208.5 98l63 186h78l-68 -182q129 -6 129 -104q0 -54 -32.5 -90.5t-79.5 -36.5q-27 0 -47 16.5t-30.5 35.5t-29 35.5t-43.5 16.5q-74 0 -142 -95t-105 -220t-37 -230q0 -62 26 -95.5t72 -33.5
q109 0 221 156q8 14 21 14q12 0 23 -9.5t11 -20.5q0 -5 -14.5 -33.5t-43.5 -70t-65 -83.5t-87 -76.5t-103 -46.5l-68 -219h-77z" />
    <glyph glyph-name="sterling" unicode="&#xa3;" horiz-adv-x="1204" 
d="M451 698h-238l18 78h211q-14 123 -14 236q0 77 30.5 154t85 140t140 102.5t186.5 39.5q84 0 150.5 -15.5t102 -39t53.5 -47t16 -43.5l-18 -218q-6 -32 -58 -32q-33 297 -258 297q-109 0 -178.5 -78.5t-69.5 -229.5q0 -56 6 -266h289l-18 -78h-269v-118q0 -241 -176 -387
q219 -91 277 -109q83 -25 164 -25q93 0 146.5 27.5t113.5 87.5q9 -3 15.5 -11.5t6.5 -17.5q0 -21 -22 -55t-61.5 -71.5t-108.5 -64t-150 -26.5q-119 0 -204.5 31t-274.5 135q-61 -55 -107 -74.5t-108 -19.5q-52 0 -90.5 24.5t-38.5 77.5q0 61 60 105.5t139 44.5
q91 0 184 -35q86 75 86 264q0 109 -18 217zM145 156q-35 0 -54 -16t-19 -38q0 -41 69 -41q59 0 142 60q-59 35 -138 35z" />
    <glyph glyph-name="currency" unicode="&#xa4;" horiz-adv-x="1247" 
d="M952 457l119 -160l-129 -107l-123 160q-135 -82 -272 -82q-130 0 -230 76l-198 -156l-82 109l196 158q-51 112 -16 250q39 146 143 256l-118 157l133 105l119 -158q132 78 270 78q146 0 233 -78l195 158l84 -109l-199 -158q54 -108 19 -251q-36 -137 -144 -248zM731 1001
q-122 0 -227.5 -86.5t-136.5 -209.5q-31 -122 32 -207.5t185 -85.5q121 0 226 85.5t136 207.5t-31.5 209t-183.5 87z" />
    <glyph glyph-name="yen" unicode="&#xa5;" horiz-adv-x="1284" 
d="M281 735h282l-313 557q-16 27 -36 41.5t-34 14.5h-74v65h498v-65h-115q-10 0 -17.5 -6.5t-7.5 -22.5t13 -37l275 -489q339 300 510 471q36 38 30 61t-43 23h-61v65h434v-65h-43q-60 0 -135 -62q-99 -82 -205 -174t-235.5 -206t-194.5 -171h293l-23 -92h-301l-45 -176h260
l-20 -92h-262l-70 -277q-6 -35 16 -35h127v-63h-501v63h127q26 0 32 35l70 277h-281l23 92h283l43 176h-322z" />
    <glyph glyph-name="brokenbar" unicode="&#xa6;" horiz-adv-x="520" 
d="M573 1532l-170 -686h-137l170 686h137zM272 317l-188 -768h-137l190 768h135z" />
    <glyph glyph-name="section" unicode="&#xa7;" horiz-adv-x="1128" 
d="M39 -221q31 0 45 -20.5t16.5 -50.5t7 -59.5t24.5 -50t61 -20.5q119 0 186 83t67 216q0 88 -29.5 187.5t-72 190t-85 180t-72 187t-29.5 181.5q0 73 26 155.5t87.5 170.5t149 158t224.5 115.5t301 45.5q104 0 163.5 -41.5t59.5 -110.5q0 -54 -24.5 -88t-75.5 -34
q-31 0 -44.5 20.5t-16.5 49.5t-7.5 58t-25.5 49.5t-62 20.5q-45 0 -87 -14.5t-81.5 -46.5t-63.5 -92t-24 -142q0 -97 30 -199.5t73.5 -190t86.5 -174t73 -183.5t30 -187q0 -71 -26 -152t-87 -168.5t-148 -157.5t-224 -115.5t-301 -45.5q-106 0 -165.5 42.5t-59.5 111.5
q0 121 100 121zM786 68q0 84 -22 168.5t-55 151t-71.5 141t-71.5 139t-55 145t-22 158.5q0 77 39.5 181t130.5 187q-150 -45 -243.5 -168t-93.5 -290q0 -93 30.5 -192.5t74 -186t87 -171t74 -175.5t30.5 -170q0 -88 -47.5 -198t-126.5 -177q155 50 248.5 172t93.5 285z" />
    <glyph glyph-name="dieresis" unicode="&#xa8;" horiz-adv-x="964" 
d="M440 1364q40 0 61 -34.5t9 -84.5q-12 -49 -50.5 -85t-78.5 -36q-39 0 -59 35.5t-9 85.5q12 50 49.5 84.5t77.5 34.5zM827 1364q41 0 60.5 -34t7.5 -85q-10 -49 -49 -85t-80 -36t-60 35.5t-8 85.5q12 51 49 85t80 34z" />
    <glyph glyph-name="copyright" unicode="&#xa9;" horiz-adv-x="1789" 
d="M1683 762q0 -128 -40 -248t-113 -216.5t-170 -169t-217 -112t-248 -39.5t-248.5 39.5t-217.5 112t-170 169t-113 216.5t-40 248t40 248t113 217t170 170t217.5 113t248.5 40q160 0 306 -62.5t251.5 -168t168 -251.5t62.5 -306zM203 762q0 -192 94.5 -354.5t253.5 -255.5
t344 -93t345 93t255.5 255.5t95.5 354.5q0 145 -56.5 276.5t-150.5 226t-222 150t-267 55.5q-138 0 -265.5 -55.5t-221 -150t-149.5 -226t-56 -276.5zM1227 1206q14 -14 14 -26q0 -28 7 -107.5t7 -97.5q0 -19 -41 -19q-45 258 -303 258q-160 0 -256 -124t-96 -328
q0 -198 96.5 -315t249.5 -117q49 0 96.5 11.5t96 38t83.5 79t46 125.5q37 0 37 -19q0 -17 -5.5 -91t-5.5 -103q0 -9 -4 -14.5t-11 -10t-9 -6.5q-58 -37 -150 -59.5t-192 -22.5q-213 0 -344 136t-131 360q0 111 38.5 209t105.5 169t161 112.5t201 41.5q185 0 309 -80z" />
    <glyph glyph-name="ordfeminine" unicode="&#xaa;" horiz-adv-x="919" 
d="M811 1415q21 42 28 52t17 10q22 0 35.5 -9.5t13.5 -21.5q0 -22 -99 -274.5t-99 -278.5q0 -12 14 -12q23 0 70 43.5t100 122.5q2 6 10 6q14 0 14 -21q0 -12 -23 -54.5t-58.5 -93.5t-88.5 -90.5t-104 -39.5q-25 0 -35 12t-10 43q0 36 29.5 120.5t29.5 88.5
q-68 -111 -165 -193t-185 -82q-78 0 -78 93q0 140 83.5 276.5t211 220.5t252.5 84q27 0 37 -2zM743 1307q0 25 -10.5 34t-34.5 9q-59 0 -141.5 -79.5t-140.5 -182t-58 -166.5q0 -54 48 -54q55 0 136.5 80t141 185.5t59.5 173.5z" />
    <glyph glyph-name="guillemotleft" unicode="&#xab;" horiz-adv-x="1210" 
d="M690 827l15 -45l-463 -331l295 -336l-35 -47l-441 346l17 69zM1133 827l16 -45l-463 -331l295 -336l-35 -47l-440 346l18 69z" />
    <glyph glyph-name="logicalnot" unicode="&#xac;" horiz-adv-x="1085" 
d="M131 436h844l-160 -649h-94l135 549h-747z" />
    <glyph glyph-name="registered" unicode="&#xae;" horiz-adv-x="1142" 
d="M1090 1116q0 -180 -135 -306t-328 -126q-127 0 -234.5 57.5t-170 157t-62.5 217.5t62.5 218t170 158t234.5 58q193 0 328 -127t135 -307zM809 823q-26 0 -70.5 49.5t-80.5 105.5t-66 112h-47v-213q0 -13 8 -13h57v-37h-217v37h49q13 0 13 13v471q0 14 -13 14h-49v39h201
q114 0 167.5 -41t53.5 -111q0 -114 -137 -139q30 -56 106 -143.5t131 -110.5q101 98 101 260q0 160 -113 270.5t-276 110.5t-276 -110.5t-113 -270.5q0 -158 113 -267.5t276 -109.5q145 0 256 88q-3 0 -24 -2t-50 -2zM707 1249q0 59 -34 86t-128 27v-227q75 0 118.5 28
t43.5 86z" />
    <glyph glyph-name="macron" unicode="&#xaf;" horiz-adv-x="888" 
d="M365 1262h495l-24 -91h-498z" />
    <glyph glyph-name="degree" unicode="&#xb0;" horiz-adv-x="829" 
d="M627 1444q182 0 182 -244q0 -94 -36 -190t-91 -167t-124 -116t-132 -45q-90 0 -139 60t-49 180q0 121 55 242.5t146.5 200.5t187.5 79zM627 1384q-48 0 -98.5 -68t-86 -161t-58 -185.5t-22.5 -146.5q0 -78 70 -78q51 0 101 72t83 170t53.5 192.5t20.5 145.5q0 59 -63 59z
" />
    <glyph glyph-name="plusminus" unicode="&#xb1;" horiz-adv-x="1249" 
d="M698 698l-106 -426h-115l107 426h-428l26 115h428l107 428h117l-107 -428h426l-29 -115h-426zM10 115h969l-27 -115h-968z" />
    <glyph glyph-name="two.superior" unicode="&#xb2;" 
d="M723 901h-588v37q295 182 430 331.5t135 286.5q0 144 -147 144q-76 0 -127.5 -41.5t-58.5 -112.5q-11 0 -26 6.5t-15 14.5q0 17 6.5 44.5t27 68t52 74.5t89 58.5t130.5 24.5q102 0 158.5 -58.5t56.5 -148.5q0 -303 -500 -606h316q35 0 53 17t43 73q14 0 25.5 -5t11.5 -11
q0 -9 -9 -35t-21.5 -66t-19.5 -75q-7 -21 -22 -21z" />
    <glyph glyph-name="three.superior" unicode="&#xb3;" 
d="M596 1731q-139 0 -172 -134q-11 0 -23 6t-12 13q0 27 16 62.5t46.5 72t84.5 61.5t119 25q232 0 232 -176q0 -81 -74 -147.5t-227 -110.5q81 -3 136.5 -63t55.5 -148q0 -130 -113 -220.5t-309 -90.5q-48 0 -83 14t-53 35.5t-26 42.5t-8 41q0 78 70 78q28 0 42 -14
t19 -34.5t11.5 -41t26.5 -34.5t57 -14q102 0 155.5 64t53.5 168q0 73 -29.5 110t-97.5 37q-42 0 -82 -16q-15 12 -15 41q0 2 1 6.5t1 5.5q103 35 169.5 67t101.5 64t48 61.5t13 67.5q0 41 -34.5 71t-100.5 30z" />
    <glyph glyph-name="acute" unicode="&#xb4;" horiz-adv-x="790" 
d="M715 1354l-412 -326l-41 19l326 360q32 41 114 41q30 0 44.5 -11t11.5 -30q-9 -27 -43 -53z" />
    <glyph glyph-name="mu" unicode="&#xb5;" horiz-adv-x="874" 
d="M627 889q8 36 31 46.5t65 10.5t58 -11.5t10 -37.5q-13 -66 -59.5 -196.5t-106.5 -260.5q-13 -180 2 -259t63 -79q32 0 72 52.5t72 146.5q5 13 22 0q15 -11 12 -22q-28 -115 -100.5 -213.5t-142.5 -98.5q-52 0 -80 22.5t-38 80.5t-1 161q-97 -158 -151 -211t-115 -53
q-55 0 -79.5 46t-29.5 147q-38 -150 -61 -305.5t-25 -268.5q-2 -30 -41 -57t-84 -27q-30 0 -43 11t-10 30q24 111 62 226.5t104.5 290.5t91.5 247q0 141 18.5 270.5t57.5 319.5q6 24 38.5 36.5t69.5 12.5q28 0 44.5 -9t11.5 -34q-17 -79 -78 -278.5t-80 -264.5
q0 -106 23 -156t73 -50q60 0 113.5 57t107.5 178q11 78 29.5 166.5t41.5 190.5t32 143z" />
    <glyph glyph-name="mu" unicode="&#x3bc;" horiz-adv-x="874" 
d="M627 889q8 36 31 46.5t65 10.5t58 -11.5t10 -37.5q-13 -66 -59.5 -196.5t-106.5 -260.5q-13 -180 2 -259t63 -79q32 0 72 52.5t72 146.5q5 13 22 0q15 -11 12 -22q-28 -115 -100.5 -213.5t-142.5 -98.5q-52 0 -80 22.5t-38 80.5t-1 161q-97 -158 -151 -211t-115 -53
q-55 0 -79.5 46t-29.5 147q-38 -150 -61 -305.5t-25 -268.5q-2 -30 -41 -57t-84 -27q-30 0 -43 11t-10 30q24 111 62 226.5t104.5 290.5t91.5 247q0 141 18.5 270.5t57.5 319.5q6 24 38.5 36.5t69.5 12.5q28 0 44.5 -9t11.5 -34q-17 -79 -78 -278.5t-80 -264.5
q0 -106 23 -156t73 -50q60 0 113.5 57t107.5 178q11 78 29.5 166.5t41.5 190.5t32 143z" />
    <glyph glyph-name="paragraph" unicode="&#xb6;" horiz-adv-x="935" 
d="M569 600q-49 -6 -90 -6q-131 0 -205.5 65.5t-74.5 192.5q0 145 64 273.5t180.5 208t256.5 79.5h408v-65h-127q-25 0 -33 -33l-309 -1217q-27 -106 -90 -205.5t-145 -172.5t-180.5 -117.5t-192.5 -44.5q-60 0 -92.5 31.5t-32.5 84.5q0 57 29.5 93t80.5 36q31 0 53.5 -17
t34.5 -37t35 -37t54 -17q65 0 129 93t118 310z" />
    <glyph glyph-name="periodcentered" unicode="&#xb7;" horiz-adv-x="522" 
d="M303 686q57 0 95 -38t38 -95q0 -56 -38 -94.5t-95 -38.5t-95 38.5t-38 94.5q0 57 38 95t95 38z" />
    <glyph glyph-name="cedilla" unicode="&#xb8;" horiz-adv-x="823" 
d="M242 -123q101 0 151.5 -39t50.5 -110q0 -67 -33 -118t-86 -78t-108.5 -39.5t-110.5 -12.5q-69 0 -105 23t-36 55q0 20 17 30q50 -22 122 -22q82 0 134.5 39t52.5 119q0 86 -107 86q-36 0 -75 -17q-21 0 -21 25q0 12 14 22l252 160h95z" />
    <glyph glyph-name="one.superior" unicode="&#xb9;" 
d="M590 1595q4 17 4 25.5t-2 11t-8 2.5q-3 0 -11.5 -3t-22.5 -8.5t-24 -8.5q-110 -43 -141 -43q-5 0 -10.5 10.5t-5.5 26.5t14 20q56 13 156 65.5t209 137.5q14 0 30.5 -4.5t16.5 -11.5q0 -4 -11.5 -46.5t-37 -141t-50.5 -200.5l-110 -440q-6 -24 10 -24h123v-62h-428v62
h121q18 0 24 24z" />
    <glyph glyph-name="ordmasculine" unicode="&#xba;" horiz-adv-x="727" 
d="M600 1417q68 0 109 -48t41 -175q0 -93 -36 -181.5t-88.5 -148.5t-111.5 -96.5t-106 -36.5q-78 0 -115 53t-37 164q0 96 35 185.5t87 150t112 97t110 36.5zM598 1356q-56 0 -115.5 -98.5t-94 -213.5t-34.5 -180q0 -36 14 -53.5t48 -17.5q46 0 92 63t77 149t50.5 169.5
t19.5 128.5q0 53 -57 53z" />
    <glyph glyph-name="guillemotright" unicode="&#xbb;" horiz-adv-x="1212" 
d="M522 68l-16 45l463 329l-295 338l35 47l442 -346l-18 -69zM78 68l-17 45l463 329l-295 338l37 47l439 -346l-17 -69z" />
    <glyph glyph-name="onequarter" unicode="&#xbc;" horiz-adv-x="1687" 
d="M252 6l1233 1499l94 -18l-1231 -1499zM477 1313q4 17 4 25.5t-2 11t-8 2.5q-3 0 -11.5 -3.5t-22 -9t-23.5 -8.5q-110 -43 -142 -43q-5 0 -10.5 10.5t-5.5 26.5q0 17 14 21q56 13 156 65t209 137q14 0 30.5 -4.5t16.5 -11.5q0 -4 -11 -46.5t-36.5 -141t-50.5 -199.5
l-111 -440q-6 -25 10 -25h123v-62h-428v62h121q19 0 25 25zM1370 262l-67 -262h-134l66 262h-377l-6 51l561 602l107 -6l-125 -542h100l-25 -105h-100zM1260 367l98 393l-369 -393h271z" />
    <glyph glyph-name="onehalf" unicode="&#xbd;" horiz-adv-x="1687" 
d="M477 1313q4 17 4 25.5t-2 11t-8 2.5q-3 0 -11.5 -3.5t-22 -9t-23.5 -8.5q-110 -43 -142 -43q-5 0 -10.5 10.5t-5.5 26.5q0 17 14 21q56 13 156 65t209 137q14 0 30.5 -4.5t16.5 -11.5q0 -4 -11 -46.5t-36.5 -141t-50.5 -199.5l-111 -440q-6 -25 10 -25h123v-62h-428v62
h121q19 0 25 25zM1473 0h-588v37q295 182 430 331.5t135 286.5q0 144 -147 144q-76 0 -128 -41.5t-59 -112.5q-11 0 -26 6.5t-15 14.5q0 17 6.5 44.5t27 68t52 74.5t89 58.5t130.5 24.5q102 0 158.5 -58.5t56.5 -148.5q0 -85 -40 -170.5t-111.5 -162t-157 -143
t-190.5 -130.5h315q35 0 53 17t43 73q14 0 25.5 -5t11.5 -11q0 -9 -8.5 -35.5t-21 -66.5t-19.5 -75q-7 -20 -22 -20zM252 6l1233 1499l94 -18l-1231 -1499z" />
    <glyph glyph-name="threequarters" unicode="&#xbe;" horiz-adv-x="1687" 
d="M252 6l1233 1499l94 -18l-1231 -1499zM559 1448q-140 0 -172 -133q-11 0 -23 5.5t-12 12.5q0 27 16 62.5t46.5 72t84.5 61.5t119 25q232 0 232 -176q0 -81 -74 -147.5t-227 -110.5q81 -3 136.5 -63t55.5 -148q0 -130 -113 -220.5t-309 -90.5q-48 0 -83 14t-52.5 35.5
t-25.5 42.5t-8 41q0 78 69 78q28 0 42 -14t19 -34.5t11.5 -40.5t26.5 -34t57 -14q102 0 155.5 63.5t53.5 167.5q0 74 -29.5 111t-97.5 37q-39 0 -82 -17q-15 12 -15 41q0 2 1 6.5t1 5.5q103 35 169.5 67.5t101.5 64.5t48 61.5t13 67.5q0 41 -34.5 70.5t-100.5 29.5z
M1366 262l-68 -262h-133l66 262h-377l-6 51l561 602l107 -6l-125 -542h100l-25 -105h-100zM1255 367l99 393l-369 -393h270z" />
    <glyph glyph-name="questiondown" unicode="&#xbf;" horiz-adv-x="735" 
d="M-113 -164q0 71 26.5 130.5t69 98.5t97.5 74t112.5 59t112.5 51t97.5 52.5t69 61.5t26.5 79q0 80 -78 80q-28 0 -45.5 -16t-24.5 -35t-24.5 -35t-46.5 -16t-46.5 18t-17.5 51q0 54 47.5 87.5t116.5 33.5q90 0 145.5 -47.5t55.5 -126.5q0 -70 -30.5 -129t-79 -101
t-107 -79.5t-117.5 -73.5t-107.5 -74t-79 -89.5t-30.5 -112.5q0 -121 112 -121q32 0 62.5 15t51 33t51 33t63.5 15q37 0 57 -21t20 -55q0 -21 -13.5 -46.5t-39.5 -51t-75 -42.5t-111 -17q-155 0 -237.5 89t-82.5 228zM522 739q-51 0 -86 34.5t-35 84.5q0 51 35 86t86 35
q50 0 84.5 -35t34.5 -86q0 -50 -34.5 -84.5t-84.5 -34.5z" />
    <glyph glyph-name="Agrave" unicode="&#xc0;" horiz-adv-x="1265" 
d="M418 598h446l-69 594zM870 522h-499l-238 -372q-26 -44 -19 -65.5t38 -21.5h94v-63h-430v63h61q34 0 78 62q178 246 441 633.5t448 683.5h114q10 -144 77 -663.5t95 -678.5q3 -17 11.5 -27t19.5 -10h74v-63h-477v63h114q19 0 32 16t9 50zM690 1731q-22 25 -20 43
q10 34 75 34q76 0 95 -34l164 -289l-46 -12z" />
    <glyph glyph-name="Aacute" unicode="&#xc1;" horiz-adv-x="1265" 
d="M418 598h446l-69 594zM870 522h-499l-238 -372q-26 -44 -19 -65.5t38 -21.5h94v-63h-430v63h61q34 0 78 62q178 246 441 633.5t448 683.5h114q10 -144 77 -663.5t95 -678.5q3 -17 11.5 -27t19.5 -10h74v-63h-477v63h114q19 0 32 16t9 50zM1182 1724l-402 -258l-41 13
l308 288q39 35 118 35q29 0 44 -10t10 -25q-2 -15 -37 -43z" />
    <glyph glyph-name="Acircumflex" unicode="&#xc2;" horiz-adv-x="1265" 
d="M418 598h446l-69 594zM870 522h-499l-238 -372q-26 -44 -19 -65.5t38 -21.5h94v-63h-430v63h61q34 0 78 62q178 246 441 633.5t448 683.5h114q10 -144 77 -663.5t95 -678.5q3 -17 11.5 -27t19.5 -10h74v-63h-477v63h114q19 0 32 16t9 50zM922 1653l-273 -180l-28 18
l292 287q20 20 43 20q32 0 35 -20l156 -287l-41 -18z" />
    <glyph glyph-name="Atilde" unicode="&#xc3;" horiz-adv-x="1265" 
d="M418 598h446l-69 594zM870 522h-499l-238 -372q-26 -44 -19 -65.5t38 -21.5h94v-63h-430v63h61q34 0 78 62q178 246 441 633.5t448 683.5h114q10 -144 77 -663.5t95 -678.5q3 -17 11.5 -27t19.5 -10h74v-63h-477v63h114q19 0 32 16t9 50zM629 1524l-23 28
q126 183 236 183q31 0 61 -15t50.5 -32.5t49 -32.5t56.5 -15q63 0 141 103l21 -29q-125 -180 -230 -180q-45 0 -106 46t-109 46q-68 0 -147 -102z" />
    <glyph glyph-name="Adieresis" unicode="&#xc4;" horiz-adv-x="1265" 
d="M418 598h446l-69 594zM870 522h-499l-238 -372q-26 -44 -19 -65.5t38 -21.5h94v-63h-430v63h61q34 0 78 62q178 246 441 633.5t448 683.5h114q10 -144 77 -663.5t95 -678.5q3 -17 11.5 -27t19.5 -10h74v-63h-477v63h114q19 0 32 16t9 50zM778 1702q37 0 58 -27t12 -65
q-11 -35 -43.5 -60.5t-69.5 -25.5q-36 0 -56 25.5t-11 60.5q9 38 41 65t69 27zM1120 1702q38 0 58.5 -27t11.5 -65q-9 -35 -42 -60.5t-71 -25.5q-36 0 -56.5 25.5t-10.5 60.5q9 38 41.5 65t68.5 27z" />
    <glyph glyph-name="Aring" unicode="&#xc5;" horiz-adv-x="1265" 
d="M418 598h446l-69 594zM870 522h-499l-238 -372q-26 -44 -19 -65.5t38 -21.5h94v-63h-430v63h61q34 0 78 62q178 246 441 633.5t448 683.5h114q10 -144 77 -663.5t95 -678.5q3 -17 11.5 -27t19.5 -10h74v-63h-477v63h114q19 0 32 16t9 50zM1004 1862q88 0 136.5 -58.5
t26.5 -140.5q-20 -83 -97 -140t-165 -57t-136 57t-28 140q22 82 99 140.5t164 58.5zM983 1776q-54 0 -100 -34t-58 -85q-12 -50 16.5 -84.5t82.5 -34.5q53 0 99 35t58 84q12 51 -16.5 85t-81.5 34z" />
    <glyph glyph-name="AE" unicode="&#xc6;" horiz-adv-x="1955" 
d="M1208 1188l-583 -590h434zM1239 1341q-7 7 -16 7h-121v65q60 0 165.5 0.5t214.5 1.5t208 2t164.5 1.5t66.5 0.5q18 0 27 -6t10.5 -11.5t1.5 -15.5q0 -17 -13 -79t-22 -148q-3 -22 -53 -22q0 34 -1.5 54t-8.5 42t-18 33.5t-34.5 24t-52.5 17.5t-77 10.5t-103.5 7.5
t-136.5 3l-144 -559q156 3 221 5.5t114 13t58.5 23t20.5 42.5l25 72q53 0 53 -21q0 -17 -6.5 -46t-16.5 -67.5t-14 -62.5q-29 -162 -33 -178q-5 -23 -65 -23l6 64q-1 12 1 22.5t-2 19t-7.5 15.5t-14.5 13t-23.5 10.5t-35.5 7.5t-49 5.5t-64 4t-82 2.5t-102 2l-152 -602
q113 2 186.5 5t143.5 8.5t112.5 16t80.5 25t62 37.5t43.5 51.5t37.5 69.5q45 0 45 -29q0 -15 -8.5 -48.5t-17.5 -60.5l-23.5 -70.5t-17.5 -51.5q-14 -49 -52 -49q-6 0 -410 2t-536 2v63h125q24 0 35 35l106 424h-489l-369 -372q-39 -44 -30.5 -65.5t43.5 -21.5h92v-63h-463
v63h61q33 0 101 62q765 718 1253 1216z" />
    <glyph glyph-name="Ccedilla" unicode="&#xc7;" horiz-adv-x="1382" 
d="M694 -123q101 0 152 -39t51 -110q0 -67 -33 -118t-86 -78t-108.5 -39.5t-110.5 -12.5q-69 0 -105 23t-36 55q0 20 16 30q50 -22 123 -22q81 0 133.5 39t52.5 119q0 86 -106 86q-37 0 -76 -17q-20 0 -20 25q0 12 14 22l201 127q-278 3 -453.5 172.5t-175.5 438.5
q0 179 85 342.5t223 278t317.5 182t365.5 67.5q157 0 289 -31q34 -10 31 -47q0 -3 -1.5 -75.5t-5 -128.5t-8.5 -81q-5 -24 -55 -24q-6 157 -75 226t-218 69q-103 0 -207 -35t-199 -106.5t-168.5 -170t-117 -236t-43.5 -294.5q0 -198 124 -327.5t316 -129.5q168 0 297.5 87.5
t192.5 267.5q49 0 49 -29q0 -21 -10 -70.5t-25 -112t-20 -85.5q-7 -33 -54 -58q-53 -29 -152 -53t-206 -33z" />
    <glyph glyph-name="Egrave" unicode="&#xc8;" horiz-adv-x="1181" 
d="M668 1329l-144 -559q278 6 336 18t78 66l23 72q53 0 53 -21q0 -17 -5.5 -45t-16.5 -70t-15 -61q-5 -29 -14.5 -86.5t-16.5 -91.5q-5 -23 -65 -23l6 64q-1 12 1 22.5t-2 19t-7.5 15.5t-14.5 13t-23.5 10.5t-35.5 7.5t-49 5.5t-64 4t-82 2.5t-102 2l-152 -602
q113 2 186.5 5t143.5 8.5t112 16t80 25t62 37.5t43.5 51.5t36.5 69.5q45 0 45 -29q0 -19 -12 -62t-31 -98.5t-23 -70.5q-6 -22 -20 -35.5t-31 -13.5q-7 0 -411.5 2t-536.5 2v63h125q27 0 35 35l307 1217q5 19 1 26t-19 7h-121v65q60 0 165.5 0.5t214.5 1.5t208.5 2t165 1.5
t67.5 0.5q17 0 26 -6t10 -11.5t1 -15.5q0 -18 -12 -80t-21 -147q-3 -22 -53 -22q0 45 -3 70t-19 49.5t-40.5 35t-76.5 20t-119 12.5t-174 5zM635 1724q-23 26 -21 43q5 15 25.5 25t50.5 10q75 0 94 -35l164 -288l-45 -13z" />
    <glyph glyph-name="Eacute" unicode="&#xc9;" horiz-adv-x="1181" 
d="M668 1329l-144 -559q278 6 336 18t78 66l23 72q53 0 53 -21q0 -17 -5.5 -45t-16.5 -70t-15 -61q-5 -29 -14.5 -86.5t-16.5 -91.5q-5 -23 -65 -23l6 64q-1 12 1 22.5t-2 19t-7.5 15.5t-14.5 13t-23.5 10.5t-35.5 7.5t-49 5.5t-64 4t-82 2.5t-102 2l-152 -602
q113 2 186.5 5t143.5 8.5t112 16t80 25t62 37.5t43.5 51.5t36.5 69.5q45 0 45 -29q0 -19 -12 -62t-31 -98.5t-23 -70.5q-6 -22 -20 -35.5t-31 -13.5q-7 0 -411.5 2t-536.5 2v63h125q27 0 35 35l307 1217q5 19 1 26t-19 7h-121v65q60 0 165.5 0.5t214.5 1.5t208.5 2t165 1.5
t67.5 0.5q17 0 26 -6t10 -11.5t1 -15.5q0 -18 -12 -80t-21 -147q-3 -22 -53 -22q0 45 -3 70t-19 49.5t-40.5 35t-76.5 20t-119 12.5t-174 5zM1098 1724l-402 -258l-41 13l308 288q39 35 118 35q29 0 44 -10t10 -25q-2 -15 -37 -43z" />
    <glyph glyph-name="Ecircumflex" unicode="&#xca;" horiz-adv-x="1181" 
d="M668 1329l-144 -559q278 6 336 18t78 66l23 72q53 0 53 -21q0 -17 -5.5 -45t-16.5 -70t-15 -61q-5 -29 -14.5 -86.5t-16.5 -91.5q-5 -23 -65 -23l6 64q-1 12 1 22.5t-2 19t-7.5 15.5t-14.5 13t-23.5 10.5t-35.5 7.5t-49 5.5t-64 4t-82 2.5t-102 2l-152 -602
q113 2 186.5 5t143.5 8.5t112 16t80 25t62 37.5t43.5 51.5t36.5 69.5q45 0 45 -29q0 -19 -12 -62t-31 -98.5t-23 -70.5q-6 -22 -20 -35.5t-31 -13.5q-7 0 -411.5 2t-536.5 2v63h125q27 0 35 35l307 1217q5 19 1 26t-19 7h-121v65q60 0 165.5 0.5t214.5 1.5t208.5 2t165 1.5
t67.5 0.5q17 0 26 -6t10 -11.5t1 -15.5q0 -18 -12 -80t-21 -147q-3 -22 -53 -22q0 45 -3 70t-19 49.5t-40.5 35t-76.5 20t-119 12.5t-174 5zM840 1653l-273 -180l-28 18l292 287q20 20 43 20q32 0 35 -20l156 -287l-41 -18z" />
    <glyph glyph-name="Edieresis" unicode="&#xcb;" horiz-adv-x="1181" 
d="M668 1329l-144 -559q278 6 336 18t78 66l23 72q53 0 53 -21q0 -17 -5.5 -45t-16.5 -70t-15 -61q-5 -29 -14.5 -86.5t-16.5 -91.5q-5 -23 -65 -23l6 64q-1 12 1 22.5t-2 19t-7.5 15.5t-14.5 13t-23.5 10.5t-35.5 7.5t-49 5.5t-64 4t-82 2.5t-102 2l-152 -602
q113 2 186.5 5t143.5 8.5t112 16t80 25t62 37.5t43.5 51.5t36.5 69.5q45 0 45 -29q0 -19 -12 -62t-31 -98.5t-23 -70.5q-6 -22 -20 -35.5t-31 -13.5q-7 0 -411.5 2t-536.5 2v63h125q27 0 35 35l307 1217q5 19 1 26t-19 7h-121v65q60 0 165.5 0.5t214.5 1.5t208.5 2t165 1.5
t67.5 0.5q17 0 26 -6t10 -11.5t1 -15.5q0 -18 -12 -80t-21 -147q-3 -22 -53 -22q0 45 -3 70t-19 49.5t-40.5 35t-76.5 20t-119 12.5t-174 5zM692 1702q37 0 58 -27t12 -65q-11 -35 -43.5 -60.5t-69.5 -25.5q-36 0 -56 25.5t-11 60.5q9 38 41 65t69 27zM1034 1702
q38 0 58.5 -27t11.5 -65q-9 -35 -42 -60.5t-71 -25.5q-36 0 -56.5 25.5t-10.5 60.5q9 38 41.5 65t68.5 27z" />
    <glyph glyph-name="Igrave" unicode="&#xcc;" horiz-adv-x="686" 
d="M500 0h-500v63h125q29 0 35 35l309 1217q5 19 1 26t-19 7h-125v65h501v-65h-127q-24 0 -32 -33l-310 -1217q-6 -35 17 -35h125v-63zM406 1724q-23 26 -21 43q5 15 25.5 25t50.5 10q75 0 94 -35l164 -288l-45 -13z" />
    <glyph glyph-name="Iacute" unicode="&#xcd;" horiz-adv-x="686" 
d="M500 0h-500v63h125q29 0 35 35l309 1217q5 19 1 26t-19 7h-125v65h501v-65h-127q-24 0 -32 -33l-310 -1217q-6 -35 17 -35h125v-63zM905 1724l-401 -258l-41 13l307 288q39 35 119 35q29 0 43.5 -10t9.5 -25q-2 -15 -37 -43z" />
    <glyph glyph-name="Icircumflex" unicode="&#xce;" horiz-adv-x="686" 
d="M500 0h-500v63h125q29 0 35 35l309 1217q5 19 1 26t-19 7h-125v65h501v-65h-127q-24 0 -32 -33l-310 -1217q-6 -35 17 -35h125v-63zM635 1653l-273 -180l-28 18l293 287q20 20 43 20q32 0 35 -20l155 -287l-41 -18z" />
    <glyph glyph-name="Idieresis" unicode="&#xcf;" horiz-adv-x="686" 
d="M500 0h-500v63h125q29 0 35 35l309 1217q5 19 1 26t-19 7h-125v65h501v-65h-127q-24 0 -32 -33l-310 -1217q-6 -35 17 -35h125v-63zM475 1702q37 0 58 -27t12 -65q-11 -35 -43.5 -60.5t-69.5 -25.5q-36 0 -56 25.5t-11 60.5q9 38 41 65t69 27zM817 1702q38 0 58.5 -27
t11.5 -65q-9 -35 -42 -60.5t-71 -25.5q-36 0 -56.5 25.5t-10.5 60.5q9 38 41.5 65t68.5 27z" />
    <glyph glyph-name="Eth" unicode="&#xd0;" horiz-adv-x="1499" 
d="M528 768h369l-27 -98h-368l-152 -598q159 1 296 34t237.5 90t178.5 132t126 164t72 181.5t24 188.5q0 235 -151.5 351.5t-458.5 121.5zM305 670h-196l26 98h195l139 547q5 19 1 26t-19 7h-125v65h526q321 0 484 -155t163 -429q0 -91 -28.5 -186t-82 -188t-139.5 -175
t-193.5 -144.5t-251 -99t-304.5 -36.5h-500v63h125q29 0 35 35z" />
    <glyph glyph-name="Ntilde" unicode="&#xd1;" horiz-adv-x="1548" 
d="M1171 322q158 634 222 923q14 66 2 84.5t-68 18.5h-70v65h433v-65h-74q-45 0 -60.5 -18t-33.5 -83q-133 -482 -330 -1270h-84l-551 1278q-211 -867 -262 -1089q-15 -66 -2.5 -84.5t69.5 -18.5h70v-63h-432v63h63q46 0 67 20t38 81q112 407 297 1151q8 33 -16 33h-127v65
h393zM809 1524l-23 28q126 183 236 183q31 0 61 -15t50.5 -32.5t49 -32.5t56.5 -15q63 0 141 103l21 -29q-125 -180 -230 -180q-45 0 -106 46t-109 46q-68 0 -147 -102z" />
    <glyph glyph-name="Ograve" unicode="&#xd2;" horiz-adv-x="1431" 
d="M1432 887q0 -106 -30 -217t-83 -212t-128.5 -191.5t-163 -156.5t-191.5 -104.5t-209 -38.5q-230 0 -365 152t-135 405q0 127 42 260t118 250.5t174.5 211t221 148t247.5 54.5q241 0 371.5 -154.5t130.5 -406.5zM340 498q0 -216 77 -329.5t224 -113.5q113 0 221.5 79.5
t185.5 203.5t124 277t47 298q0 223 -69 332t-230 109q-113 0 -222 -79t-186 -202t-124.5 -276.5t-47.5 -298.5zM807 1731q-23 26 -21 43q5 15 25.5 24.5t50.5 9.5q75 0 94 -34l164 -289l-45 -12z" />
    <glyph glyph-name="Oacute" unicode="&#xd3;" horiz-adv-x="1431" 
d="M1432 887q0 -106 -30 -217t-83 -212t-128.5 -191.5t-163 -156.5t-191.5 -104.5t-209 -38.5q-230 0 -365 152t-135 405q0 127 42 260t118 250.5t174.5 211t221 148t247.5 54.5q241 0 371.5 -154.5t130.5 -406.5zM340 498q0 -216 77 -329.5t224 -113.5q113 0 221.5 79.5
t185.5 203.5t124 277t47 298q0 223 -69 332t-230 109q-113 0 -222 -79t-186 -202t-124.5 -276.5t-47.5 -298.5zM1151 1724l-401 -258l-41 13l307 288q39 35 119 35q29 0 43.5 -10t9.5 -25q-2 -15 -37 -43z" />
    <glyph glyph-name="Ocircumflex" unicode="&#xd4;" horiz-adv-x="1431" 
d="M1432 887q0 -106 -30 -217t-83 -212t-128.5 -191.5t-163 -156.5t-191.5 -104.5t-209 -38.5q-230 0 -365 152t-135 405q0 127 42 260t118 250.5t174.5 211t221 148t247.5 54.5q241 0 371.5 -154.5t130.5 -406.5zM340 498q0 -216 77 -329.5t224 -113.5q113 0 221.5 79.5
t185.5 203.5t124 277t47 298q0 223 -69 332t-230 109q-113 0 -222 -79t-186 -202t-124.5 -276.5t-47.5 -298.5zM995 1653l-272 -180l-29 18l293 287q20 20 43 20q32 0 35 -20l156 -287l-41 -18z" />
    <glyph glyph-name="Otilde" unicode="&#xd5;" horiz-adv-x="1431" 
d="M1432 887q0 -106 -30 -217t-83 -212t-128.5 -191.5t-163 -156.5t-191.5 -104.5t-209 -38.5q-230 0 -365 152t-135 405q0 127 42 260t118 250.5t174.5 211t221 148t247.5 54.5q241 0 371.5 -154.5t130.5 -406.5zM340 498q0 -216 77 -329.5t224 -113.5q113 0 221.5 79.5
t185.5 203.5t124 277t47 298q0 223 -69 332t-230 109q-113 0 -222 -79t-186 -202t-124.5 -276.5t-47.5 -298.5zM711 1524l-23 28q126 183 236 183q31 0 61 -15t50.5 -32.5t49 -32.5t56.5 -15q63 0 141 103l21 -29q-125 -180 -230 -180q-45 0 -106 46t-109 46
q-68 0 -147 -102z" />
    <glyph glyph-name="Odieresis" unicode="&#xd6;" horiz-adv-x="1431" 
d="M1432 887q0 -106 -30 -217t-83 -212t-128.5 -191.5t-163 -156.5t-191.5 -104.5t-209 -38.5q-230 0 -365 152t-135 405q0 127 42 260t118 250.5t174.5 211t221 148t247.5 54.5q241 0 371.5 -154.5t130.5 -406.5zM340 498q0 -216 77 -329.5t224 -113.5q113 0 221.5 79.5
t185.5 203.5t124 277t47 298q0 223 -69 332t-230 109q-113 0 -222 -79t-186 -202t-124.5 -276.5t-47.5 -298.5zM872 1702q37 0 58 -27t12 -65q-11 -35 -43.5 -60.5t-69.5 -25.5q-36 0 -56 25.5t-11 60.5q9 38 41 65t69 27zM1214 1702q38 0 58.5 -27t11.5 -65
q-9 -35 -42 -60.5t-71 -25.5q-36 0 -56.5 25.5t-10.5 60.5q9 38 41.5 65t68.5 27z" />
    <glyph glyph-name="multiply" unicode="&#xd7;" horiz-adv-x="1226" 
d="M698 514l226 -301l-103 -84l-225 301l-377 -303l-63 82l379 303l-230 301l103 84l227 -303l377 303l61 -84z" />
    <glyph glyph-name="Oslash" unicode="&#xd8;" horiz-adv-x="1431" 
d="M252 129l-127 -129h-117l197 201q-78 137 -78 323q0 127 42 260t118 250.5t174.5 211t221 148t247.5 54.5q227 0 358 -141l107 106h118l-172 -176q91 -145 91 -350q0 -106 -30 -217t-83 -212t-128.5 -191.5t-163 -156.5t-191.5 -104.5t-209 -38.5q-238 0 -375 162z
M352 350l826 842q-35 81 -97 121.5t-161 40.5q-113 0 -222 -79t-186 -202t-124.5 -276.5t-47.5 -298.5q0 -84 12 -148zM377 254q68 -199 264 -199q113 0 221.5 79.5t185.5 203.5t124 277t47 298q0 105 -15 185z" />
    <glyph glyph-name="Ugrave" unicode="&#xd9;" horiz-adv-x="1583" 
d="M1438 1247q12 57 -2 79t-68 22h-88v65h467v-65h-61q-55 0 -79.5 -22t-37.5 -71l-189 -759q-33 -128 -106 -232.5t-168 -170.5t-202.5 -101t-215.5 -35t-198.5 33t-155.5 99.5t-85.5 168t11.5 238.5l205 819q4 18 -1 25.5t-20 7.5h-125v65h535v-65h-162q-22 0 -33 -33
l-202 -819q-26 -113 -16.5 -192.5t55.5 -130t111 -74t149 -23.5q170 0 305.5 107.5t187.5 312.5zM815 1724q-22 25 -20 43q11 35 75 35q76 0 95 -35l163 -288l-45 -13z" />
    <glyph glyph-name="Uacute" unicode="&#xda;" horiz-adv-x="1583" 
d="M1438 1247q12 57 -2 79t-68 22h-88v65h467v-65h-61q-55 0 -79.5 -22t-37.5 -71l-189 -759q-33 -128 -106 -232.5t-168 -170.5t-202.5 -101t-215.5 -35t-198.5 33t-155.5 99.5t-85.5 168t11.5 238.5l205 819q4 18 -1 25.5t-20 7.5h-125v65h535v-65h-162q-22 0 -33 -33
l-202 -819q-26 -113 -16.5 -192.5t55.5 -130t111 -74t149 -23.5q170 0 305.5 107.5t187.5 312.5zM1335 1724l-401 -258l-41 13l307 288q39 35 119 35q29 0 43.5 -10t9.5 -25q-2 -15 -37 -43z" />
    <glyph glyph-name="Ucircumflex" unicode="&#xdb;" horiz-adv-x="1583" 
d="M1438 1247q12 57 -2 79t-68 22h-88v65h467v-65h-61q-55 0 -79.5 -22t-37.5 -71l-189 -759q-33 -128 -106 -232.5t-168 -170.5t-202.5 -101t-215.5 -35t-198.5 33t-155.5 99.5t-85.5 168t11.5 238.5l205 819q4 18 -1 25.5t-20 7.5h-125v65h535v-65h-162q-22 0 -33 -33
l-202 -819q-26 -113 -16.5 -192.5t55.5 -130t111 -74t149 -23.5q170 0 305.5 107.5t187.5 312.5zM1116 1653l-272 -180l-29 18l293 287q20 20 43 20q32 0 35 -20l155 -287l-41 -18z" />
    <glyph glyph-name="Udieresis" unicode="&#xdc;" horiz-adv-x="1583" 
d="M1438 1247q12 57 -2 79t-68 22h-88v65h467v-65h-61q-55 0 -79.5 -22t-37.5 -71l-189 -759q-33 -128 -106 -232.5t-168 -170.5t-202.5 -101t-215.5 -35t-198.5 33t-155.5 99.5t-85.5 168t11.5 238.5l205 819q4 18 -1 25.5t-20 7.5h-125v65h535v-65h-162q-22 0 -33 -33
l-202 -819q-26 -113 -16.5 -192.5t55.5 -130t111 -74t149 -23.5q170 0 305.5 107.5t187.5 312.5zM952 1702q37 0 58 -27t12 -65q-11 -35 -43.5 -60.5t-69.5 -25.5q-36 0 -56 25.5t-11 60.5q9 38 41 65t69 27zM1294 1702q38 0 58.5 -27t11.5 -65q-9 -35 -42 -60.5t-71 -25.5
q-36 0 -56.5 25.5t-10.5 60.5q9 38 41.5 65t68.5 27z" />
    <glyph glyph-name="Yacute" unicode="&#xdd;" horiz-adv-x="1284" 
d="M799 725l-158 -627q-6 -35 16 -35h127v-63h-501v63h127q26 0 32 35l150 588l-342 606q-16 27 -36 41.5t-34 14.5h-74v65h498v-65h-115q-10 0 -17.5 -6.5t-7.5 -22.5t13 -37l275 -489q339 300 510 471q36 38 30 61t-43 23h-61v65h434v-65h-43q-60 0 -135 -62
q-101 -83 -208.5 -176t-239 -210t-197.5 -175zM1223 1724l-402 -258l-41 13l307 288q39 35 119 35q29 0 44 -10t10 -25q-2 -15 -37 -43z" />
    <glyph glyph-name="Thorn" unicode="&#xde;" horiz-adv-x="1118" 
d="M641 1130h53q136 0 234.5 -29t155 -82t82.5 -119t26 -148q0 -84 -40.5 -159t-118.5 -135t-206 -95t-290 -35q-33 0 -99 4l-59 -234q-6 -35 16 -35h127v-63h-502v63h127q27 0 33 35l309 1217q4 19 1 26t-17 7h-125v65h500v-65h-125q-27 0 -35 -33zM625 1059l-166 -653
q38 -3 76 -3q223 0 333.5 93.5t110.5 257.5q0 63 -17.5 115t-56.5 95.5t-110.5 68.5t-169.5 26z" />
    <glyph glyph-name="germandbls" unicode="&#xdf;" horiz-adv-x="950" 
d="M563 51q55 0 87 38t32 120q0 57 -19 132t-41.5 137t-41.5 139t-19 137q0 68 24.5 128.5t61 103t79.5 87t79.5 81t61 83.5t24.5 96q0 56 -29 82.5t-94 26.5q-54 0 -97 -22t-87.5 -77.5t-86 -156.5t-83.5 -252q-10 -34 -53.5 -207.5t-96.5 -387.5t-67 -269
q-34 -137 -79.5 -245.5t-106 -192t-139.5 -128.5t-171 -45q-143 0 -143 107q0 37 20.5 58.5t52.5 21.5q27 0 42.5 -11.5t20.5 -28t10 -33.5t16.5 -28.5t33.5 -11.5q40 0 80 39.5t70 96t61.5 143t51 154t42.5 155.5q52 198 118.5 487t72.5 314q41 169 105 294t138 195
t149 102.5t153 32.5q125 0 187 -53.5t62 -142.5q0 -53 -26 -102t-65 -85t-84 -76.5t-84 -76.5t-65 -85t-26 -102q0 -57 22 -128.5t49 -129t49 -134t22 -142.5q0 -137 -93 -229.5t-260 -92.5q-76 0 -115.5 37.5t-39.5 95.5q0 42 23.5 67.5t60.5 25.5q25 0 40.5 -14.5
t22.5 -35.5t15 -42t26 -35.5t47 -14.5z" />
    <glyph glyph-name="agrave" unicode="&#xe0;" horiz-adv-x="1009" 
d="M829 915q28 62 38 75.5t28 13.5q29 0 48.5 -12.5t19.5 -28.5q0 -30 -139.5 -388.5t-139.5 -396.5q0 -18 18 -18q34 0 102 62.5t142 174.5q5 13 15 13q8 0 14 -9.5t6 -19.5q0 -13 -20 -55.5t-58 -100.5t-84.5 -112t-108 -91.5t-120.5 -37.5q-35 0 -49.5 17t-14.5 60
q0 73 103 297l-21 4q-107 -174 -245 -284.5t-240 -110.5q-64 0 -93.5 32t-29.5 97q0 145 74 297t186 266.5t250 187.5t262 73q17 0 57 -5zM745 778q0 31 -12 43.5t-41 12.5q-82 0 -177 -70t-167.5 -168.5t-121 -206t-48.5 -180.5q0 -37 15.5 -52.5t50.5 -15.5
q79 0 200 117.5t211 271t90 248.5zM588 1366q-29 23 -29 47q0 15 17.5 25t46.5 10q71 0 92 -35l209 -319l-45 -17z" />
    <glyph glyph-name="aacute" unicode="&#xe1;" horiz-adv-x="1009" 
d="M829 915q28 62 38 75.5t28 13.5q29 0 48.5 -12.5t19.5 -28.5q0 -30 -139.5 -388.5t-139.5 -396.5q0 -18 18 -18q34 0 102 62.5t142 174.5q5 13 15 13q8 0 14 -9.5t6 -19.5q0 -13 -20 -55.5t-58 -100.5t-84.5 -112t-108 -91.5t-120.5 -37.5q-35 0 -49.5 17t-14.5 60
q0 73 103 297l-21 4q-107 -174 -245 -284.5t-240 -110.5q-64 0 -93.5 32t-29.5 97q0 145 74 297t186 266.5t250 187.5t262 73q17 0 57 -5zM745 778q0 31 -12 43.5t-41 12.5q-82 0 -177 -70t-167.5 -168.5t-121 -206t-48.5 -180.5q0 -37 15.5 -52.5t50.5 -15.5
q79 0 200 117.5t211 271t90 248.5zM1034 1354l-411 -326l-41 19l325 360q32 41 115 41q30 0 44 -11t11 -30q-9 -27 -43 -53z" />
    <glyph glyph-name="acircumflex" unicode="&#xe2;" horiz-adv-x="1009" 
d="M829 915q28 62 38 75.5t28 13.5q29 0 48.5 -12.5t19.5 -28.5q0 -30 -139.5 -388.5t-139.5 -396.5q0 -18 18 -18q34 0 102 62.5t142 174.5q5 13 15 13q8 0 14 -9.5t6 -19.5q0 -13 -20 -55.5t-58 -100.5t-84.5 -112t-108 -91.5t-120.5 -37.5q-35 0 -49.5 17t-14.5 60
q0 73 103 297l-21 4q-107 -174 -245 -284.5t-240 -110.5q-64 0 -93.5 32t-29.5 97q0 145 74 297t186 266.5t250 187.5t262 73q17 0 57 -5zM745 778q0 31 -12 43.5t-41 12.5q-82 0 -177 -70t-167.5 -168.5t-121 -206t-48.5 -180.5q0 -37 15.5 -52.5t50.5 -15.5
q79 0 200 117.5t211 271t90 248.5zM782 1268l-280 -226l-33 19l315 364q16 23 43 23q24 0 37 -23l135 -364l-41 -19z" />
    <glyph glyph-name="atilde" unicode="&#xe3;" horiz-adv-x="1009" 
d="M829 915q28 62 38 75.5t28 13.5q29 0 48.5 -12.5t19.5 -28.5q0 -30 -139.5 -388.5t-139.5 -396.5q0 -18 18 -18q34 0 102 62.5t142 174.5q5 13 15 13q8 0 14 -9.5t6 -19.5q0 -13 -20 -55.5t-58 -100.5t-84.5 -112t-108 -91.5t-120.5 -37.5q-35 0 -49.5 17t-14.5 60
q0 73 103 297l-21 4q-107 -174 -245 -284.5t-240 -110.5q-64 0 -93.5 32t-29.5 97q0 145 74 297t186 266.5t250 187.5t262 73q17 0 57 -5zM745 778q0 31 -12 43.5t-41 12.5q-82 0 -177 -70t-167.5 -168.5t-121 -206t-48.5 -180.5q0 -37 15.5 -52.5t50.5 -15.5
q79 0 200 117.5t211 271t90 248.5zM420 1102l-23 31q132 200 260 200q34 0 67 -16t56 -35t54.5 -35t62.5 -16q68 0 158 112l24 -28q-140 -201 -256 -201q-33 0 -64.5 15.5t-52.5 34.5t-54 34.5t-68 15.5q-74 0 -164 -112z" />
    <glyph glyph-name="adieresis" unicode="&#xe4;" horiz-adv-x="1009" 
d="M829 915q28 62 38 75.5t28 13.5q29 0 48.5 -12.5t19.5 -28.5q0 -30 -139.5 -388.5t-139.5 -396.5q0 -18 18 -18q34 0 102 62.5t142 174.5q5 13 15 13q8 0 14 -9.5t6 -19.5q0 -13 -20 -55.5t-58 -100.5t-84.5 -112t-108 -91.5t-120.5 -37.5q-35 0 -49.5 17t-14.5 60
q0 73 103 297l-21 4q-107 -174 -245 -284.5t-240 -110.5q-64 0 -93.5 32t-29.5 97q0 145 74 297t186 266.5t250 187.5t262 73q17 0 57 -5zM745 778q0 31 -12 43.5t-41 12.5q-82 0 -177 -70t-167.5 -168.5t-121 -206t-48.5 -180.5q0 -37 15.5 -52.5t50.5 -15.5
q79 0 200 117.5t211 271t90 248.5zM641 1364q40 0 61 -34.5t9 -84.5q-12 -49 -50.5 -85t-78.5 -36q-39 0 -59 35.5t-9 85.5q12 50 49.5 84.5t77.5 34.5zM1028 1364q41 0 60.5 -34t7.5 -85q-10 -49 -49 -85t-80 -36t-60 35.5t-8 85.5q12 51 49 85t80 34z" />
    <glyph glyph-name="aring" unicode="&#xe5;" horiz-adv-x="1009" 
d="M829 915q28 62 38 75.5t28 13.5q29 0 48.5 -12.5t19.5 -28.5q0 -30 -139.5 -388.5t-139.5 -396.5q0 -18 18 -18q34 0 102 62.5t142 174.5q5 13 15 13q8 0 14 -9.5t6 -19.5q0 -13 -20 -55.5t-58 -100.5t-84.5 -112t-108 -91.5t-120.5 -37.5q-35 0 -49.5 17t-14.5 60
q0 73 103 297l-21 4q-107 -174 -245 -284.5t-240 -110.5q-64 0 -93.5 32t-29.5 97q0 145 74 297t186 266.5t250 187.5t262 73q17 0 57 -5zM745 778q0 31 -12 43.5t-41 12.5q-82 0 -177 -70t-167.5 -168.5t-121 -206t-48.5 -180.5q0 -37 15.5 -52.5t50.5 -15.5
q79 0 200 117.5t211 271t90 248.5zM831 1485q88 0 136.5 -62t25.5 -149q-22 -88 -99 -149.5t-165 -61.5t-136 62t-26 149q23 88 100 149.5t164 61.5zM811 1395q-54 0 -100.5 -36.5t-59.5 -90.5t16 -91.5t83 -37.5q52 0 97.5 37.5t59.5 91.5q13 54 -15 90.5t-81 36.5z" />
    <glyph glyph-name="ae" unicode="&#xe6;" horiz-adv-x="1300" 
d="M897 823q155 123 301 123q129 0 129 -115q0 -104 -78 -184t-200.5 -120.5t-268.5 -43.5q-51 -116 -51 -219q0 -145 133 -145q60 0 135 44t140 120q6 6 12 6q11 0 22 -11.5t11 -23.5q0 -11 -16 -41t-51 -72.5t-81 -81t-115.5 -65.5t-144.5 -27q-98 0 -150.5 65.5
t-52.5 172.5q0 28 13 108q-98 -144 -227 -245t-246 -101q-111 0 -111 129q0 126 48 246t126.5 211.5t175 161.5t197.5 106.5t190 36.5q30 0 54 -4q14 30 32 84.5t30.5 84.5t23.5 30q38 0 69 -7.5t31 -23.5q0 -13 -10.5 -40.5t-35.5 -82t-34 -76.5zM713 709q0 67 -64 67
q-58 0 -126.5 -41t-127.5 -105.5t-109 -138.5t-79 -146.5t-29 -123.5q0 -43 15 -63.5t53 -20.5q78 0 190 100.5t194.5 238t82.5 233.5zM801 535q164 33 296 129.5t132 162.5q0 33 -41 33q-44 0 -114.5 -39.5t-148.5 -117t-124 -168.5z" />
    <glyph glyph-name="ccedilla" unicode="&#xe7;" horiz-adv-x="692" 
d="M115 -123q101 0 151.5 -39t50.5 -110q0 -67 -33 -118t-86 -78t-108 -39.5t-110 -12.5q-69 0 -105.5 23t-36.5 55q0 20 17 30q49 -22 122 -22q82 0 134.5 39t52.5 119q0 86 -107 86q-36 0 -75 -17q-21 0 -21 25q0 12 14 22l205 131q-71 14 -106 75.5t-35 156.5
q0 87 28.5 188t83.5 198.5t126 178t164 129.5t190 49q74 0 108.5 -28t34.5 -76q0 -56 -33 -92.5t-82 -36.5q-26 0 -45.5 16.5t-29.5 35.5t-28.5 35.5t-43.5 16.5q-56 0 -114 -58t-100 -143t-68.5 -181.5t-26.5 -172.5q0 -71 24.5 -99t73.5 -28q109 0 229 166q7 12 21 12
t24.5 -9t10.5 -21q0 -6 -14.5 -34t-43 -69t-64.5 -82t-86.5 -76t-101.5 -47z" />
    <glyph glyph-name="egrave" unicode="&#xe8;" horiz-adv-x="770" 
d="M252 483q-55 -116 -55 -223q0 -79 32 -112t99 -33q61 0 138 45.5t140 122.5q6 6 15 6q10 0 20 -11.5t10 -23.5q0 -11 -16 -41t-50 -72.5t-80 -81t-115 -65.5t-144 -27q-98 0 -150.5 65.5t-52.5 172.5q0 127 58 262.5t147 240t202.5 171.5t219.5 67q129 0 129 -115
q0 -107 -81 -187t-202.5 -119t-263.5 -42zM272 535q81 17 161.5 54.5t137.5 80t93 85.5t36 72q0 33 -38 33q-48 0 -119.5 -39.5t-148 -117t-122.5 -168.5zM459 1366q-29 23 -29 47q0 15 17.5 25t46.5 10q71 0 92 -35l209 -319l-45 -17z" />
    <glyph glyph-name="eacute" unicode="&#xe9;" horiz-adv-x="770" 
d="M252 483q-55 -116 -55 -223q0 -79 32 -112t99 -33q61 0 138 45.5t140 122.5q6 6 15 6q10 0 20 -11.5t10 -23.5q0 -11 -16 -41t-50 -72.5t-80 -81t-115 -65.5t-144 -27q-98 0 -150.5 65.5t-52.5 172.5q0 127 58 262.5t147 240t202.5 171.5t219.5 67q129 0 129 -115
q0 -107 -81 -187t-202.5 -119t-263.5 -42zM272 535q81 17 161.5 54.5t137.5 80t93 85.5t36 72q0 33 -38 33q-48 0 -119.5 -39.5t-148 -117t-122.5 -168.5zM958 1354l-411 -326l-41 19l325 360q32 41 115 41q30 0 44 -11t11 -30q-9 -27 -43 -53z" />
    <glyph glyph-name="ecircumflex" unicode="&#xea;" horiz-adv-x="770" 
d="M252 483q-55 -116 -55 -223q0 -79 32 -112t99 -33q61 0 138 45.5t140 122.5q6 6 15 6q10 0 20 -11.5t10 -23.5q0 -11 -16 -41t-50 -72.5t-80 -81t-115 -65.5t-144 -27q-98 0 -150.5 65.5t-52.5 172.5q0 127 58 262.5t147 240t202.5 171.5t219.5 67q129 0 129 -115
q0 -107 -81 -187t-202.5 -119t-263.5 -42zM272 535q81 17 161.5 54.5t137.5 80t93 85.5t36 72q0 33 -38 33q-48 0 -119.5 -39.5t-148 -117t-122.5 -168.5zM684 1268l-281 -226l-32 19l315 364q16 23 43 23q24 0 37 -23l135 -364l-41 -19z" />
    <glyph glyph-name="edieresis" unicode="&#xeb;" horiz-adv-x="770" 
d="M252 483q-55 -116 -55 -223q0 -79 32 -112t99 -33q61 0 138 45.5t140 122.5q6 6 15 6q10 0 20 -11.5t10 -23.5q0 -11 -16 -41t-50 -72.5t-80 -81t-115 -65.5t-144 -27q-98 0 -150.5 65.5t-52.5 172.5q0 127 58 262.5t147 240t202.5 171.5t219.5 67q129 0 129 -115
q0 -107 -81 -187t-202.5 -119t-263.5 -42zM272 535q81 17 161.5 54.5t137.5 80t93 85.5t36 72q0 33 -38 33q-48 0 -119.5 -39.5t-148 -117t-122.5 -168.5zM504 1364q40 0 60.5 -34.5t8.5 -84.5q-12 -49 -50.5 -85t-78.5 -36q-39 0 -58.5 35.5t-8.5 85.5q12 50 49.5 84.5
t77.5 34.5zM891 1364q41 0 60 -34t7 -85q-10 -49 -49 -85t-80 -36q-40 0 -59 35t-8 86q12 51 49 85t80 34z" />
    <glyph glyph-name="igrave" unicode="&#xec;" horiz-adv-x="567" 
d="M461 946q71 0 71 -80q0 -55 -75 -216t-149.5 -313t-74.5 -185q0 -23 25 -23q28 0 88 47t88 82q8 8 12 8q10 0 19.5 -7t9.5 -15q0 -35 -62 -101.5t-147 -121t-141 -54.5q-70 0 -70 86q0 61 70.5 220t140.5 304.5t70 174.5q0 28 -23 28q-29 0 -83.5 -42t-98.5 -89
q-6 -4 -12 -4q-9 0 -19 9t-10 18q0 25 66 91t157 124.5t148 58.5zM258 1366q-29 23 -29 47q0 15 17.5 25t46.5 10q71 0 92 -35l209 -319l-45 -17z" />
    <glyph glyph-name="iacute" unicode="&#xed;" horiz-adv-x="567" 
d="M461 946q71 0 71 -80q0 -55 -75 -216t-149.5 -313t-74.5 -185q0 -23 25 -23q28 0 88 47t88 82q8 8 12 8q10 0 19.5 -7t9.5 -15q0 -35 -62 -101.5t-147 -121t-141 -54.5q-70 0 -70 86q0 61 70.5 220t140.5 304.5t70 174.5q0 28 -23 28q-29 0 -83.5 -42t-98.5 -89
q-6 -4 -12 -4q-9 0 -19 9t-10 18q0 25 66 91t157 124.5t148 58.5zM750 1354l-412 -326l-41 19l326 360q32 41 114 41q30 0 44.5 -11t11.5 -30q-9 -27 -43 -53z" />
    <glyph glyph-name="icircumflex" unicode="&#xee;" horiz-adv-x="567" 
d="M461 946q71 0 71 -80q0 -55 -75 -216t-149.5 -313t-74.5 -185q0 -23 25 -23q28 0 88 47t88 82q8 8 12 8q10 0 19.5 -7t9.5 -15q0 -35 -62 -101.5t-147 -121t-141 -54.5q-70 0 -70 86q0 61 70.5 220t140.5 304.5t70 174.5q0 28 -23 28q-29 0 -83.5 -42t-98.5 -89
q-6 -4 -12 -4q-9 0 -19 9t-10 18q0 25 66 91t157 124.5t148 58.5zM479 1268l-280 -226l-33 19l315 364q16 23 43 23q24 0 37 -23l135 -364l-41 -19z" />
    <glyph glyph-name="idieresis" unicode="&#xef;" horiz-adv-x="567" 
d="M461 946q71 0 71 -80q0 -55 -75 -216t-149.5 -313t-74.5 -185q0 -23 25 -23q28 0 88 47t88 82q8 8 12 8q10 0 19.5 -7t9.5 -15q0 -35 -62 -101.5t-147 -121t-141 -54.5q-70 0 -70 86q0 61 70.5 220t140.5 304.5t70 174.5q0 28 -23 28q-29 0 -83.5 -42t-98.5 -89
q-6 -4 -12 -4q-9 0 -19 9t-10 18q0 25 66 91t157 124.5t148 58.5zM305 1364q40 0 61 -34.5t9 -84.5q-12 -49 -50.5 -85t-78.5 -36q-39 0 -59 35.5t-9 85.5q12 50 49.5 84.5t77.5 34.5zM692 1364q41 0 60.5 -34t7.5 -85q-10 -49 -49 -85t-80 -36t-60 35.5t-8 85.5
q12 51 49 85t80 34z" />
    <glyph glyph-name="eth" unicode="&#xf0;" horiz-adv-x="829" 
d="M829 860q0 -151 -39.5 -294.5t-102 -249t-136.5 -186.5t-145 -122t-125 -41q-112 0 -165 75t-53 234q0 111 29.5 216.5t79 185.5t110 141.5t125.5 94t123 32.5q107 0 150 -88q0 166 -66 309l-231 -63l-23 70l218 61q-75 118 -199 207q1 12 12.5 21.5t22.5 9.5
q187 -60 293 -201l139 39l24 -70l-122 -35q81 -150 81 -346zM553 860q-61 0 -127 -85t-114 -201t-79.5 -232.5t-31.5 -183.5q0 -103 90 -103q53 0 109.5 55.5t100.5 140t79.5 179.5t55 179t19.5 134q0 45 -26 81t-76 36z" />
    <glyph glyph-name="ntilde" unicode="&#xf1;" horiz-adv-x="1062" 
d="M365 426q60 109 114 191t122 162t141.5 123.5t146.5 43.5q131 0 131 -129q0 -70 -66.5 -219t-133 -281.5t-66.5 -160.5q0 -27 24 -27t81.5 42t103.5 83q9 6 12 6q10 0 20.5 -10t10.5 -19q0 -28 -61.5 -91.5t-147 -118t-140.5 -54.5q-36 0 -51.5 19t-15.5 65
q0 63 62.5 217.5t125 297.5t62.5 177q0 48 -41 48q-37 0 -89 -36.5t-119 -111.5t-152 -213t-171 -319q-8 -16 -27 -60t-31.5 -64t-25.5 -20q-26 0 -52 12.5t-26 36.5t66 226q139 419 139 510q0 28 -26 28q-28 0 -97.5 -58t-97.5 -99q-7 -7 -14 -7q-9 0 -20 9t-11 18
q0 26 61.5 98.5t151 138.5t152.5 66q65 0 65 -80q0 -76 -34.5 -182t-96.5 -254zM418 1102l-23 31q132 200 260 200q34 0 67 -16t56 -35t54.5 -35t62.5 -16q68 0 158 112l24 -28q-140 -201 -256 -201q-33 0 -64.5 15.5t-52.5 34.5t-54 34.5t-68 15.5q-74 0 -164 -112z" />
    <glyph glyph-name="ograve" unicode="&#xf2;" horiz-adv-x="790" 
d="M537 946q45 0 79.5 -13t66 -45.5t48.5 -97.5t17 -159q0 -108 -33.5 -212.5t-87.5 -184t-118.5 -141t-129.5 -94t-119 -32.5q-112 0 -164.5 75t-52.5 234q0 137 49.5 265t124.5 214.5t160.5 138.5t159.5 52zM532 860q-61 0 -127 -85t-114 -201t-79.5 -232.5t-31.5 -183.5
q0 -103 90 -103q66 0 132.5 90.5t111 213.5t72.5 241.5t28 183.5q0 76 -82 76zM330 1366q-29 23 -29 47q0 15 17.5 25t46.5 10q71 0 92 -35l209 -319l-45 -17z" />
    <glyph glyph-name="oacute" unicode="&#xf3;" horiz-adv-x="790" 
d="M537 946q45 0 79.5 -13t66 -45.5t48.5 -97.5t17 -159q0 -108 -33.5 -212.5t-87.5 -184t-118.5 -141t-129.5 -94t-119 -32.5q-112 0 -164.5 75t-52.5 234q0 137 49.5 265t124.5 214.5t160.5 138.5t159.5 52zM532 860q-61 0 -127 -85t-114 -201t-79.5 -232.5t-31.5 -183.5
q0 -103 90 -103q66 0 132.5 90.5t111 213.5t72.5 241.5t28 183.5q0 76 -82 76zM858 1354l-412 -326l-40 19l325 360q32 41 115 41q30 0 44 -11t11 -30q-9 -27 -43 -53z" />
    <glyph glyph-name="ocircumflex" unicode="&#xf4;" horiz-adv-x="790" 
d="M537 946q45 0 79.5 -13t66 -45.5t48.5 -97.5t17 -159q0 -108 -33.5 -212.5t-87.5 -184t-118.5 -141t-129.5 -94t-119 -32.5q-112 0 -164.5 75t-52.5 234q0 137 49.5 265t124.5 214.5t160.5 138.5t159.5 52zM532 860q-61 0 -127 -85t-114 -201t-79.5 -232.5t-31.5 -183.5
q0 -103 90 -103q66 0 132.5 90.5t111 213.5t72.5 241.5t28 183.5q0 76 -82 76zM621 1268l-281 -226l-33 19l316 364q16 23 43 23q23 0 36 -23l136 -364l-41 -19z" />
    <glyph glyph-name="otilde" unicode="&#xf5;" horiz-adv-x="790" 
d="M537 946q45 0 79.5 -13t66 -45.5t48.5 -97.5t17 -159q0 -108 -33.5 -212.5t-87.5 -184t-118.5 -141t-129.5 -94t-119 -32.5q-112 0 -164.5 75t-52.5 234q0 137 49.5 265t124.5 214.5t160.5 138.5t159.5 52zM532 860q-61 0 -127 -85t-114 -201t-79.5 -232.5t-31.5 -183.5
q0 -103 90 -103q66 0 132.5 90.5t111 213.5t72.5 241.5t28 183.5q0 76 -82 76zM303 1102l-22 31q132 200 260 200q34 0 67 -16t55.5 -35t54 -35t62.5 -16q68 0 158 112l25 -28q-140 -201 -256 -201q-33 0 -64.5 15.5t-53 34.5t-54.5 34.5t-68 15.5q-74 0 -164 -112z" />
    <glyph glyph-name="odieresis" unicode="&#xf6;" horiz-adv-x="790" 
d="M537 946q45 0 79.5 -13t66 -45.5t48.5 -97.5t17 -159q0 -108 -33.5 -212.5t-87.5 -184t-118.5 -141t-129.5 -94t-119 -32.5q-112 0 -164.5 75t-52.5 234q0 137 49.5 265t124.5 214.5t160.5 138.5t159.5 52zM532 860q-61 0 -127 -85t-114 -201t-79.5 -232.5t-31.5 -183.5
q0 -103 90 -103q66 0 132.5 90.5t111 213.5t72.5 241.5t28 183.5q0 76 -82 76zM449 1364q40 0 60.5 -34.5t8.5 -84.5q-12 -49 -50.5 -85t-78.5 -36q-39 0 -58.5 35.5t-8.5 85.5q12 50 49.5 84.5t77.5 34.5zM836 1364q41 0 60 -34t7 -85q-10 -49 -49 -85t-80 -36
q-40 0 -59 35t-8 86q12 51 49 85t80 34z" />
    <glyph glyph-name="divide" unicode="&#xf7;" horiz-adv-x="1030" 
d="M627 850q42 0 64.5 -31.5t13.5 -73.5q-10 -43 -49.5 -73.5t-82.5 -30.5t-65.5 30.5t-11.5 73.5q11 42 50 73.5t81 31.5zM475 238q40 0 62 -29t10 -68q-9 -40 -45 -69t-76 -29t-62 29t-12 69t46.5 68.5t76.5 28.5zM111 502h860l-29 -117h-860z" />
    <glyph glyph-name="oslash" unicode="&#xf8;" horiz-adv-x="790" 
d="M721 819q27 -76 27 -188q0 -108 -33.5 -212.5t-87.5 -184t-118.5 -141t-129.5 -94t-119 -32.5q-116 0 -168 84l-51 -61h-86l104 129q-16 69 -16 157q0 137 49.5 265t124.5 214.5t160.5 138.5t159.5 52q97 0 149 -63l43 53h86zM600 674l-420 -512q0 -52 20.5 -79.5
t69.5 -27.5q55 0 111 64t98.5 161.5t73.5 200t47 193.5zM614 795q-8 65 -82 65q-50 0 -104 -57.5t-97.5 -146.5t-78 -185.5t-53.5 -185.5z" />
    <glyph glyph-name="ugrave" unicode="&#xf9;" horiz-adv-x="1081" 
d="M813 637l-22 6q-121 -173 -222.5 -300t-169.5 -198t-126 -112.5t-92.5 -53.5t-67.5 -12q-36 0 -50 14.5t-14 49.5q0 55 42.5 168.5t94 220.5t94 205t42.5 125q0 12 -7 19t-16 7q-12 0 -25 -4t-28 -13.5t-26.5 -17.5t-29 -24t-26.5 -24.5t-28 -27t-25 -24.5q-8 -4 -13 -4
q-7 0 -14.5 9t-7.5 16q0 14 32.5 58.5t81 95.5t117.5 90.5t131 39.5q50 0 66 -17t16 -59q0 -47 -67.5 -196t-135 -299.5t-67.5 -202.5q0 -16 4.5 -22.5t17.5 -6.5q50 0 267 275q95 119 174.5 224t115.5 155.5t65 89t41.5 49t27.5 10.5q28 0 53.5 -13.5t25.5 -37.5
q0 -5 -143 -362.5t-143 -403.5q0 -27 24 -27q28 0 94.5 60t96.5 104q5 8 12 8q12 0 19.5 -8.5t7.5 -19.5q0 -18 -37.5 -64t-90 -94t-115 -84.5t-105.5 -36.5q-35 0 -51.5 15t-16.5 57q0 58 74 253t145 345zM512 1366q-29 23 -29 47q0 15 17.5 25t46.5 10q71 0 92 -35
l209 -319l-45 -17z" />
    <glyph glyph-name="uacute" unicode="&#xfa;" horiz-adv-x="1081" 
d="M813 637l-22 6q-121 -173 -222.5 -300t-169.5 -198t-126 -112.5t-92.5 -53.5t-67.5 -12q-36 0 -50 14.5t-14 49.5q0 55 42.5 168.5t94 220.5t94 205t42.5 125q0 12 -7 19t-16 7q-12 0 -25 -4t-28 -13.5t-26.5 -17.5t-29 -24t-26.5 -24.5t-28 -27t-25 -24.5q-8 -4 -13 -4
q-7 0 -14.5 9t-7.5 16q0 14 32.5 58.5t81 95.5t117.5 90.5t131 39.5q50 0 66 -17t16 -59q0 -47 -67.5 -196t-135 -299.5t-67.5 -202.5q0 -16 4.5 -22.5t17.5 -6.5q50 0 267 275q95 119 174.5 224t115.5 155.5t65 89t41.5 49t27.5 10.5q28 0 53.5 -13.5t25.5 -37.5
q0 -5 -143 -362.5t-143 -403.5q0 -27 24 -27q28 0 94.5 60t96.5 104q5 8 12 8q12 0 19.5 -8.5t7.5 -19.5q0 -18 -37.5 -64t-90 -94t-115 -84.5t-105.5 -36.5q-35 0 -51.5 15t-16.5 57q0 58 74 253t145 345zM1042 1354l-411 -326l-41 19l325 360q32 41 115 41q30 0 44 -11
t11 -30q-9 -27 -43 -53z" />
    <glyph glyph-name="ucircumflex" unicode="&#xfb;" horiz-adv-x="1081" 
d="M813 637l-22 6q-121 -173 -222.5 -300t-169.5 -198t-126 -112.5t-92.5 -53.5t-67.5 -12q-36 0 -50 14.5t-14 49.5q0 55 42.5 168.5t94 220.5t94 205t42.5 125q0 12 -7 19t-16 7q-12 0 -25 -4t-28 -13.5t-26.5 -17.5t-29 -24t-26.5 -24.5t-28 -27t-25 -24.5q-8 -4 -13 -4
q-7 0 -14.5 9t-7.5 16q0 14 32.5 58.5t81 95.5t117.5 90.5t131 39.5q50 0 66 -17t16 -59q0 -47 -67.5 -196t-135 -299.5t-67.5 -202.5q0 -16 4.5 -22.5t17.5 -6.5q50 0 267 275q95 119 174.5 224t115.5 155.5t65 89t41.5 49t27.5 10.5q28 0 53.5 -13.5t25.5 -37.5
q0 -5 -143 -362.5t-143 -403.5q0 -27 24 -27q28 0 94.5 60t96.5 104q5 8 12 8q12 0 19.5 -8.5t7.5 -19.5q0 -18 -37.5 -64t-90 -94t-115 -84.5t-105.5 -36.5q-35 0 -51.5 15t-16.5 57q0 58 74 253t145 345zM770 1268l-281 -226l-32 19l315 364q16 23 43 23q24 0 37 -23
l135 -364l-41 -19z" />
    <glyph glyph-name="udieresis" unicode="&#xfc;" horiz-adv-x="1081" 
d="M813 637l-22 6q-121 -173 -222.5 -300t-169.5 -198t-126 -112.5t-92.5 -53.5t-67.5 -12q-36 0 -50 14.5t-14 49.5q0 55 42.5 168.5t94 220.5t94 205t42.5 125q0 12 -7 19t-16 7q-12 0 -25 -4t-28 -13.5t-26.5 -17.5t-29 -24t-26.5 -24.5t-28 -27t-25 -24.5q-8 -4 -13 -4
q-7 0 -14.5 9t-7.5 16q0 14 32.5 58.5t81 95.5t117.5 90.5t131 39.5q50 0 66 -17t16 -59q0 -47 -67.5 -196t-135 -299.5t-67.5 -202.5q0 -16 4.5 -22.5t17.5 -6.5q50 0 267 275q95 119 174.5 224t115.5 155.5t65 89t41.5 49t27.5 10.5q28 0 53.5 -13.5t25.5 -37.5
q0 -5 -143 -362.5t-143 -403.5q0 -27 24 -27q28 0 94.5 60t96.5 104q5 8 12 8q12 0 19.5 -8.5t7.5 -19.5q0 -18 -37.5 -64t-90 -94t-115 -84.5t-105.5 -36.5q-35 0 -51.5 15t-16.5 57q0 58 74 253t145 345zM627 1364q40 0 60.5 -34.5t8.5 -84.5q-12 -49 -50.5 -85t-78.5 -36
q-39 0 -58.5 35.5t-8.5 85.5q12 50 49.5 84.5t77.5 34.5zM1014 1364q41 0 60 -34t7 -85q-10 -49 -49 -85t-80 -36q-40 0 -59 35t-8 86q12 51 49 85t80 34z" />
    <glyph glyph-name="yacute" unicode="&#xfd;" horiz-adv-x="901" 
d="M-328 -377q0 46 27.5 77.5t71.5 31.5q36 0 56 -17.5t28 -42.5t16.5 -50t31.5 -42.5t64 -17.5q150 0 303 166q154 164 154 450q0 156 -25 291.5t-73.5 220t-108.5 84.5q-51 0 -70.5 -60.5t-19.5 -183.5q0 -16 -23 -16q-27 0 -38 29.5t-11 111.5q0 120 56.5 205.5
t146.5 85.5q62 0 116 -42.5t97 -126.5t67.5 -223.5t24.5 -320.5q0 -120 -20 -198l16 -2q148 294 148 622q0 42 -9.5 109.5t-9.5 93.5q0 39 18.5 63.5t53.5 24.5q41 0 58.5 -29t17.5 -90q0 -327 -102.5 -595.5t-276.5 -467.5q-132 -150 -277.5 -227.5t-267.5 -77.5t-181 44.5
t-59 119.5zM868 1354l-411 -326l-41 19l325 360q32 41 115 41q30 0 44 -11t11 -30q-9 -27 -43 -53z" />
    <glyph glyph-name="thorn" unicode="&#xfe;" horiz-adv-x="915" 
d="M483 946q190 0 285.5 -87t95.5 -273q0 -87 -21.5 -173.5t-64.5 -163.5t-101.5 -136.5t-139 -94t-170.5 -34.5q-86 0 -138 20q-98 -361 -98 -412q0 -26 33 -26h201v-64h-566v64h99q41 0 55 51q12 40 168.5 585.5t187.5 643.5q-47 -5 -108 -15t-84 -10q-19 0 -19 23
t16.5 50.5t41.5 27.5q23 0 80 3.5t92 4.5q118 440 118 475q0 43 -49 51l-63 12q-6 0 -6 17q0 13 4.5 24t11.5 11q69 6 150.5 30.5t140.5 57.5q27 0 27 -23q0 -11 -21.5 -89.5t-75.5 -265t-82 -284.5zM461 860q-176 -603 -176 -715q0 -46 14.5 -67t56.5 -21q90 0 170 93
t125 228t45 265q0 125 -49 171t-186 46z" />
    <glyph glyph-name="ydieresis" unicode="&#xff;" horiz-adv-x="901" 
d="M-328 -377q0 46 27.5 77.5t71.5 31.5q36 0 56 -17.5t28 -42.5t16.5 -50t31.5 -42.5t64 -17.5q150 0 303 166q154 164 154 450q0 156 -25 291.5t-73.5 220t-108.5 84.5q-51 0 -70.5 -60.5t-19.5 -183.5q0 -16 -23 -16q-27 0 -38 29.5t-11 111.5q0 120 56.5 205.5
t146.5 85.5q62 0 116 -42.5t97 -126.5t67.5 -223.5t24.5 -320.5q0 -120 -20 -198l16 -2q148 294 148 622q0 42 -9.5 109.5t-9.5 93.5q0 39 18.5 63.5t53.5 24.5q41 0 58.5 -29t17.5 -90q0 -327 -102.5 -595.5t-276.5 -467.5q-132 -150 -277.5 -227.5t-267.5 -77.5t-181 44.5
t-59 119.5zM371 1364q40 0 60.5 -34.5t8.5 -84.5q-12 -49 -50.5 -85t-78.5 -36q-39 0 -58.5 35.5t-8.5 85.5q12 50 49.5 84.5t77.5 34.5zM758 1364q41 0 60 -34t7 -85q-10 -49 -49 -85t-80 -36q-40 0 -59 35t-8 86q12 51 49 85t80 34z" />
    <glyph glyph-name="Amacron" unicode="&#x100;" horiz-adv-x="1265" 
d="M418 598h446l-69 594zM870 522h-499l-238 -372q-26 -44 -19 -65.5t38 -21.5h94v-63h-430v63h61q34 0 78 62q178 246 441 633.5t448 683.5h114q10 -144 77 -663.5t95 -678.5q3 -17 11.5 -27t19.5 -10h74v-63h-477v63h114q19 0 32 16t9 50zM664 1694h505l-26 -107h-504z
" />
    <glyph glyph-name="amacron" unicode="&#x101;" horiz-adv-x="1009" 
d="M829 915q28 62 38 75.5t28 13.5q29 0 48.5 -12.5t19.5 -28.5q0 -30 -139.5 -388.5t-139.5 -396.5q0 -18 18 -18q34 0 102 62.5t142 174.5q5 13 15 13q8 0 14 -9.5t6 -19.5q0 -13 -20 -55.5t-58 -100.5t-84.5 -112t-108 -91.5t-120.5 -37.5q-35 0 -49.5 17t-14.5 60
q0 73 103 297l-21 4q-107 -174 -245 -284.5t-240 -110.5q-64 0 -93.5 32t-29.5 97q0 145 74 297t186 266.5t250 187.5t262 73q17 0 57 -5zM745 778q0 31 -12 43.5t-41 12.5q-82 0 -177 -70t-167.5 -168.5t-121 -206t-48.5 -180.5q0 -37 15.5 -52.5t50.5 -15.5
q79 0 200 117.5t211 271t90 248.5zM575 1270h504l-24 -107h-506z" />
    <glyph glyph-name="Abreve" unicode="&#x102;" horiz-adv-x="1265" 
d="M418 598h446l-69 594zM870 522h-499l-238 -372q-26 -44 -19 -65.5t38 -21.5h94v-63h-430v63h61q34 0 78 62q178 246 441 633.5t448 683.5h114q10 -144 77 -663.5t95 -678.5q3 -17 11.5 -27t19.5 -10h74v-63h-477v63h114q19 0 32 16t9 50zM1174 1772
q-29 -116 -108.5 -189.5t-170.5 -73.5q-90 0 -133 73.5t-14 189.5h45q-19 -76 23.5 -117t105.5 -41q61 0 123.5 41t82.5 117h46z" />
    <glyph glyph-name="abreve" unicode="&#x103;" horiz-adv-x="1009" 
d="M829 915q28 62 38 75.5t28 13.5q29 0 48.5 -12.5t19.5 -28.5q0 -30 -139.5 -388.5t-139.5 -396.5q0 -18 18 -18q34 0 102 62.5t142 174.5q5 13 15 13q8 0 14 -9.5t6 -19.5q0 -13 -20 -55.5t-58 -100.5t-84.5 -112t-108 -91.5t-120.5 -37.5q-35 0 -49.5 17t-14.5 60
q0 73 103 297l-21 4q-107 -174 -245 -284.5t-240 -110.5q-64 0 -93.5 32t-29.5 97q0 145 74 297t186 266.5t250 187.5t262 73q17 0 57 -5zM745 778q0 31 -12 43.5t-41 12.5q-82 0 -177 -70t-167.5 -168.5t-121 -206t-48.5 -180.5q0 -37 15.5 -52.5t50.5 -15.5
q79 0 200 117.5t211 271t90 248.5zM1030 1362q-28 -121 -107 -194.5t-169 -73.5q-92 0 -135.5 73t-14.5 195h47q-9 -45 -2.5 -75.5t28.5 -49t47.5 -27t53.5 -8.5q39 0 79 14t77.5 52t50.5 94h45z" />
    <glyph glyph-name="Aogonek" unicode="&#x104;" horiz-adv-x="1265" 
d="M870 522h-499l-238 -372q-26 -44 -19 -65.5t38 -21.5h94v-63h-430v63h61q34 0 78 62q178 246 441 633.5t448 683.5h114q10 -144 77 -663.5t95 -678.5q3 -17 11.5 -27t19.5 -10h74v-63h-61q-119 -42 -206 -121.5t-87 -169.5q0 -86 110 -86q42 0 103 17q8 -3 8 -15
q0 -13 -11 -28.5t-32 -31t-60.5 -26t-89.5 -10.5q-86 0 -128 33t-42 88q0 63 34.5 122t89.5 103t115.5 75.5t121.5 49.5h-342v63h114q19 0 32 16t9 50zM418 598h446l-69 594z" />
    <glyph glyph-name="aogonek" unicode="&#x105;" horiz-adv-x="1009" 
d="M829 915q28 62 38 75.5t28 13.5q29 0 48.5 -12.5t19.5 -28.5q0 -30 -139.5 -388.5t-139.5 -396.5q0 -18 18 -18q34 0 102 62.5t142 174.5q5 13 15 13q8 0 14 -9.5t6 -19.5q0 -15 -29 -70.5t-74.5 -122.5t-114 -125.5t-134.5 -72.5q-97 -48 -159 -116.5t-62 -145.5
q0 -86 110 -86q46 0 103 16q8 -3 8 -14q0 -18 -17.5 -39t-64 -39.5t-111.5 -18.5q-86 0 -128 33t-42 88q0 71 44 137t105.5 110.5t135.5 76.5q-25 14 -25 69q0 73 103 297l-21 4q-107 -174 -245 -284.5t-240 -110.5q-64 0 -93.5 32t-29.5 97q0 145 74 297t186 266.5
t250 187.5t262 73q17 0 57 -5zM745 778q0 31 -12 43.5t-41 12.5q-82 0 -177 -70t-167.5 -168.5t-121 -206t-48.5 -180.5q0 -37 15.5 -52.5t50.5 -15.5q79 0 200 117.5t211 271t90 248.5z" />
    <glyph glyph-name="Cacute" unicode="&#x106;" horiz-adv-x="1382" 
d="M1319 383q0 -21 -10 -70.5t-25 -112t-20 -85.5q-7 -33 -54 -58q-65 -35 -193 -62.5t-253 -27.5q-138 0 -256.5 45t-202 124.5t-131 193.5t-47.5 248q0 179 85 342.5t223 278t317.5 182t365.5 67.5q157 0 289 -31q34 -10 31 -47q0 -3 -1.5 -75.5t-5 -128.5t-8.5 -81
q-5 -24 -55 -24q-6 157 -75 226t-218 69q-103 0 -207 -35t-199 -106.5t-168.5 -170t-117 -236t-43.5 -294.5q0 -198 124 -327.5t316 -129.5q168 0 297.5 87.5t192.5 267.5q49 0 49 -29zM1366 1733l-401 -258l-41 12l307 289q38 34 119 34q29 0 43.5 -9.5t9.5 -24.5
q-2 -15 -37 -43z" />
    <glyph glyph-name="cacute" unicode="&#x107;" horiz-adv-x="692" 
d="M631 946q74 0 108.5 -28t34.5 -76q0 -56 -33 -92.5t-82 -36.5q-26 0 -45.5 16.5t-29.5 35.5t-28.5 35.5t-43.5 16.5q-56 0 -114 -58t-100 -143t-68.5 -181.5t-26.5 -172.5q0 -71 24.5 -99t73.5 -28q109 0 229 166q7 12 21 12t24.5 -9t10.5 -21q0 -6 -17 -38.5
t-50.5 -79.5t-76 -91.5t-101.5 -75.5t-118 -31q-93 0 -138.5 64t-45.5 172q0 87 28.5 188t83.5 198.5t126 178t164 129.5t190 49zM879 1354l-412 -326l-41 19l326 360q32 41 114 41q30 0 44.5 -11t11.5 -30q-9 -27 -43 -53z" />
    <glyph glyph-name="Ccircumflex" unicode="&#x108;" horiz-adv-x="1382" 
d="M1319 383q0 -21 -10 -70.5t-25 -112t-20 -85.5q-7 -33 -54 -58q-65 -35 -193 -62.5t-253 -27.5q-138 0 -256.5 45t-202 124.5t-131 193.5t-47.5 248q0 179 85 342.5t223 278t317.5 182t365.5 67.5q157 0 289 -31q34 -10 31 -47q0 -3 -1.5 -75.5t-5 -128.5t-8.5 -81
q-5 -24 -55 -24q-6 157 -75 226t-218 69q-103 0 -207 -35t-199 -106.5t-168.5 -170t-117 -236t-43.5 -294.5q0 -198 124 -327.5t316 -129.5q168 0 297.5 87.5t192.5 267.5q49 0 49 -29zM1116 1653l-272 -180l-29 18l293 287q20 20 43 20q32 0 35 -20l155 -287l-41 -18z" />
    <glyph glyph-name="ccircumflex" unicode="&#x109;" horiz-adv-x="692" 
d="M631 946q74 0 108.5 -28t34.5 -76q0 -56 -33 -92.5t-82 -36.5q-26 0 -45.5 16.5t-29.5 35.5t-28.5 35.5t-43.5 16.5q-56 0 -114 -58t-100 -143t-68.5 -181.5t-26.5 -172.5q0 -71 24.5 -99t73.5 -28q109 0 229 166q7 12 21 12t24.5 -9t10.5 -21q0 -6 -17 -38.5
t-50.5 -79.5t-76 -91.5t-101.5 -75.5t-118 -31q-93 0 -138.5 64t-45.5 172q0 87 28.5 188t83.5 198.5t126 178t164 129.5t190 49zM637 1268l-281 -226l-32 19l315 364q16 23 43 23q24 0 37 -23l135 -364l-41 -19z" />
    <glyph glyph-name="Cdotaccent" unicode="&#x10a;" horiz-adv-x="1382" 
d="M1319 383q0 -21 -10 -70.5t-25 -112t-20 -85.5q-7 -33 -54 -58q-65 -35 -193 -62.5t-253 -27.5q-138 0 -256.5 45t-202 124.5t-131 193.5t-47.5 248q0 179 85 342.5t223 278t317.5 182t365.5 67.5q157 0 289 -31q34 -10 31 -47q0 -3 -1.5 -75.5t-5 -128.5t-8.5 -81
q-5 -24 -55 -24q-6 157 -75 226t-218 69q-103 0 -207 -35t-199 -106.5t-168.5 -170t-117 -236t-43.5 -294.5q0 -198 124 -327.5t316 -129.5q168 0 297.5 87.5t192.5 267.5q49 0 49 -29zM1147 1735q45 0 69.5 -32t12.5 -77q-10 -42 -50 -72t-85 -30q-42 0 -66 30t-14 72
q10 45 50.5 77t82.5 32z" />
    <glyph glyph-name="cdotaccent" unicode="&#x10b;" horiz-adv-x="692" 
d="M631 946q74 0 108.5 -28t34.5 -76q0 -56 -33 -92.5t-82 -36.5q-26 0 -45.5 16.5t-29.5 35.5t-28.5 35.5t-43.5 16.5q-56 0 -114 -58t-100 -143t-68.5 -181.5t-26.5 -172.5q0 -71 24.5 -99t73.5 -28q109 0 229 166q7 12 21 12t24.5 -9t10.5 -21q0 -6 -17 -38.5
t-50.5 -79.5t-76 -91.5t-101.5 -75.5t-118 -31q-93 0 -138.5 64t-45.5 172q0 87 28.5 188t83.5 198.5t126 178t164 129.5t190 49zM694 1378q42 0 64.5 -31t11.5 -73q-11 -43 -50 -76t-81 -33q-44 0 -68.5 33t-13.5 76q11 41 52 72.5t85 31.5z" />
    <glyph glyph-name="Ccaron" unicode="&#x10c;" horiz-adv-x="1382" 
d="M1319 383q0 -21 -10 -70.5t-25 -112t-20 -85.5q-7 -33 -54 -58q-65 -35 -193 -62.5t-253 -27.5q-138 0 -256.5 45t-202 124.5t-131 193.5t-47.5 248q0 179 85 342.5t223 278t317.5 182t365.5 67.5q157 0 289 -31q34 -10 31 -47q0 -3 -1.5 -75.5t-5 -128.5t-8.5 -81
q-5 -24 -55 -24q-6 157 -75 226t-218 69q-103 0 -207 -35t-199 -106.5t-168.5 -170t-117 -236t-43.5 -294.5q0 -198 124 -327.5t316 -129.5q168 0 297.5 87.5t192.5 267.5q49 0 49 -29zM1141 1630l272 182l27 -20l-291 -287q-21 -18 -45 -18q-32 0 -35 18l-156 287l41 20z
" />
    <glyph glyph-name="ccaron" unicode="&#x10d;" horiz-adv-x="692" 
d="M631 946q74 0 108.5 -28t34.5 -76q0 -56 -33 -92.5t-82 -36.5q-26 0 -45.5 16.5t-29.5 35.5t-28.5 35.5t-43.5 16.5q-56 0 -114 -58t-100 -143t-68.5 -181.5t-26.5 -172.5q0 -71 24.5 -99t73.5 -28q109 0 229 166q7 12 21 12t24.5 -9t10.5 -21q0 -6 -17 -38.5
t-50.5 -79.5t-76 -91.5t-101.5 -75.5t-118 -31q-93 0 -138.5 64t-45.5 172q0 87 28.5 188t83.5 198.5t126 178t164 129.5t190 49zM649 1221l281 225l33 -19l-316 -364q-20 -23 -43 -23q-28 0 -35 23l-137 364l41 19z" />
    <glyph glyph-name="Dcaron" unicode="&#x10e;" horiz-adv-x="1499" 
d="M500 0h-500v63h125q29 0 35 35l309 1217q5 19 1 26t-19 7h-125v65h526q321 0 484 -155t163 -429q0 -91 -28.5 -186t-82 -188t-139.5 -175t-193.5 -144.5t-251 -99t-304.5 -36.5zM674 1335l-324 -1263q235 2 416.5 64.5t293 171t168 248.5t56.5 306q0 239 -146.5 356
t-463.5 117zM918 1614l272 182l27 -20l-291 -287q-22 -19 -45 -19q-32 0 -35 19l-156 287l41 20z" />
    <glyph glyph-name="dcaron" unicode="&#x10f;" horiz-adv-x="1019" 
d="M1087 1585q0 -18 -225 -825q-27 -97 -72.5 -253t-66.5 -230.5t-21 -86.5q0 -20 25 -20q31 0 105 72t114 153q6 11 15 11t22.5 -11t13.5 -18q0 -41 -77.5 -134.5t-180 -173t-161.5 -79.5q-25 0 -33 13t-8 42q0 88 108 373l-20 4q-111 -219 -237 -337t-238 -118
q-117 0 -117 180q0 109 36.5 226.5t97 217.5t134 181t154 127.5t149.5 46.5q99 0 139 -82q39 137 70.5 265.5t46 196.5t14.5 79q0 43 -51 51l-63 12q-6 0 -6 17q0 13 4.5 24t11.5 11q69 6 150.5 30.5t140.5 57.5q26 0 26 -23zM616 858q-90 0 -190 -105t-164.5 -254.5
t-64.5 -275.5q0 -50 14.5 -68t52.5 -18q69 0 175 115.5t184.5 265.5t78.5 242q0 98 -86 98zM1186 1589q5 10 31 10q92 0 135 -36q-116 -243 -256 -412q-12 -12 -35 -12q-10 0 -15 3t-2 9q113 269 142 438z" />
    <glyph glyph-name="Dcroat" unicode="&#x110;" horiz-adv-x="1519" 
d="M500 0h-500v63h125q29 0 35 35l157 625h-145l27 90h141l129 502q5 19 1 26t-19 7h-125v65h526q321 0 484 -155t163 -429q0 -91 -28.5 -186t-82 -188t-139.5 -175t-193.5 -144.5t-251 -99t-304.5 -36.5zM674 1335l-133 -522h256l-25 -90h-256l-166 -651q235 2 416.5 64.5
t293 171t168 248.5t56.5 306q0 239 -146.5 356t-463.5 117z" />
    <glyph glyph-name="dcroat" unicode="&#x111;" horiz-adv-x="1019" 
d="M610 1262h236q28 128 28 143q0 43 -51 51l-63 12q-6 0 -6 17q0 13 4.5 24t11.5 11q69 6 150.5 30.5t140.5 57.5q26 0 26 -23q0 -11 -86 -323h105l-25 -91h-104q-31 -114 -115 -411q-27 -97 -72.5 -253t-66.5 -230.5t-21 -86.5q0 -20 25 -20q31 0 105 72t114 153
q6 11 15 11t22.5 -11t13.5 -18q0 -41 -77.5 -134.5t-180 -173t-161.5 -79.5q-25 0 -33 13t-8 42q0 88 108 373l-20 4q-111 -219 -237 -337t-238 -118q-117 0 -117 180q0 109 36.5 226.5t97 217.5t134 181t154 127.5t149.5 46.5q99 0 139 -82q49 174 80 307h-239zM616 858
q-90 0 -190 -105t-164.5 -254.5t-64.5 -275.5q0 -50 14.5 -68t52.5 -18q69 0 175 115.5t184.5 265.5t78.5 242q0 98 -86 98z" />
    <glyph glyph-name="Emacron" unicode="&#x112;" horiz-adv-x="1181" 
d="M668 1329l-144 -559q278 6 336 18t78 66l23 72q53 0 53 -21q0 -17 -5.5 -45t-16.5 -70t-15 -61q-5 -29 -14.5 -86.5t-16.5 -91.5q-5 -23 -65 -23l6 64q-1 12 1 22.5t-2 19t-7.5 15.5t-14.5 13t-23.5 10.5t-35.5 7.5t-49 5.5t-64 4t-82 2.5t-102 2l-152 -602
q113 2 186.5 5t143.5 8.5t112 16t80 25t62 37.5t43.5 51.5t36.5 69.5q45 0 45 -29q0 -19 -12 -62t-31 -98.5t-23 -70.5q-6 -22 -20 -35.5t-31 -13.5q-7 0 -411.5 2t-536.5 2v63h125q27 0 35 35l307 1217q5 19 1 26t-19 7h-121v65q60 0 165.5 0.5t214.5 1.5t208.5 2t165 1.5
t67.5 0.5q17 0 26 -6t10 -11.5t1 -15.5q0 -18 -12 -80t-21 -147q-3 -22 -53 -22q0 45 -3 70t-19 49.5t-40.5 35t-76.5 20t-119 12.5t-174 5zM584 1694h506l-27 -107h-504z" />
    <glyph glyph-name="emacron" unicode="&#x113;" horiz-adv-x="770" 
d="M252 483q-55 -116 -55 -223q0 -79 32 -112t99 -33q61 0 138 45.5t140 122.5q6 6 15 6q10 0 20 -11.5t10 -23.5q0 -11 -16 -41t-50 -72.5t-80 -81t-115 -65.5t-144 -27q-98 0 -150.5 65.5t-52.5 172.5q0 127 58 262.5t147 240t202.5 171.5t219.5 67q129 0 129 -115
q0 -107 -81 -187t-202.5 -119t-263.5 -42zM272 535q81 17 161.5 54.5t137.5 80t93 85.5t36 72q0 33 -38 33q-48 0 -119.5 -39.5t-148 -117t-122.5 -168.5zM401 1270h504l-24 -107h-506z" />
    <glyph glyph-name="Ebreve" unicode="&#x114;" horiz-adv-x="1181" 
d="M668 1329l-144 -559q278 6 336 18t78 66l23 72q53 0 53 -21q0 -17 -5.5 -45t-16.5 -70t-15 -61q-5 -29 -14.5 -86.5t-16.5 -91.5q-5 -23 -65 -23l6 64q-1 12 1 22.5t-2 19t-7.5 15.5t-14.5 13t-23.5 10.5t-35.5 7.5t-49 5.5t-64 4t-82 2.5t-102 2l-152 -602
q113 2 186.5 5t143.5 8.5t112 16t80 25t62 37.5t43.5 51.5t36.5 69.5q45 0 45 -29q0 -19 -12 -62t-31 -98.5t-23 -70.5q-6 -22 -20 -35.5t-31 -13.5q-7 0 -411.5 2t-536.5 2v63h125q27 0 35 35l307 1217q5 19 1 26t-19 7h-121v65q60 0 165.5 0.5t214.5 1.5t208.5 2t165 1.5
t67.5 0.5q17 0 26 -6t10 -11.5t1 -15.5q0 -18 -12 -80t-21 -147q-3 -22 -53 -22q0 45 -3 70t-19 49.5t-40.5 35t-76.5 20t-119 12.5t-174 5zM1053 1772q-29 -116 -108.5 -189.5t-170.5 -73.5q-90 0 -133 73.5t-14 189.5h45q-19 -76 23.5 -117t105.5 -41q61 0 124 41t83 117
h45z" />
    <glyph glyph-name="ebreve" unicode="&#x115;" horiz-adv-x="770" 
d="M252 483q-55 -116 -55 -223q0 -79 32 -112t99 -33q61 0 138 45.5t140 122.5q6 6 15 6q10 0 20 -11.5t10 -23.5q0 -11 -16 -41t-50 -72.5t-80 -81t-115 -65.5t-144 -27q-98 0 -150.5 65.5t-52.5 172.5q0 127 58 262.5t147 240t202.5 171.5t219.5 67q129 0 129 -115
q0 -107 -81 -187t-202.5 -119t-263.5 -42zM272 535q81 17 161.5 54.5t137.5 80t93 85.5t36 72q0 33 -38 33q-48 0 -119.5 -39.5t-148 -117t-122.5 -168.5zM920 1362q-28 -121 -107 -194.5t-170 -73.5t-134.5 73t-14.5 195h47q-9 -45 -2.5 -75.5t28.5 -49t47.5 -27t53.5 -8.5
q39 0 78.5 14t77 52t50.5 94h46z" />
    <glyph glyph-name="Edotaccent" unicode="&#x116;" horiz-adv-x="1181" 
d="M668 1329l-144 -559q278 6 336 18t78 66l23 72q53 0 53 -21q0 -17 -5.5 -45t-16.5 -70t-15 -61q-5 -29 -14.5 -86.5t-16.5 -91.5q-5 -23 -65 -23l6 64q-1 12 1 22.5t-2 19t-7.5 15.5t-14.5 13t-23.5 10.5t-35.5 7.5t-49 5.5t-64 4t-82 2.5t-102 2l-152 -602
q113 2 186.5 5t143.5 8.5t112 16t80 25t62 37.5t43.5 51.5t36.5 69.5q45 0 45 -29q0 -19 -12 -62t-31 -98.5t-23 -70.5q-6 -22 -20 -35.5t-31 -13.5q-7 0 -411.5 2t-536.5 2v63h125q27 0 35 35l307 1217q5 19 1 26t-19 7h-121v65q60 0 165.5 0.5t214.5 1.5t208.5 2t165 1.5
t67.5 0.5q17 0 26 -6t10 -11.5t1 -15.5q0 -18 -12 -80t-21 -147q-3 -22 -53 -22q0 45 -3 70t-19 49.5t-40.5 35t-76.5 20t-119 12.5t-174 5zM870 1735q45 0 69.5 -32t12.5 -77q-10 -42 -50 -72t-85 -30q-42 0 -66 30t-14 72q10 45 50.5 77t82.5 32z" />
    <glyph glyph-name="edotaccent" unicode="&#x117;" horiz-adv-x="770" 
d="M252 483q-55 -116 -55 -223q0 -79 32 -112t99 -33q61 0 138 45.5t140 122.5q6 6 15 6q10 0 20 -11.5t10 -23.5q0 -11 -16 -41t-50 -72.5t-80 -81t-115 -65.5t-144 -27q-98 0 -150.5 65.5t-52.5 172.5q0 127 58 262.5t147 240t202.5 171.5t219.5 67q129 0 129 -115
q0 -107 -81 -187t-202.5 -119t-263.5 -42zM272 535q81 17 161.5 54.5t137.5 80t93 85.5t36 72q0 33 -38 33q-48 0 -119.5 -39.5t-148 -117t-122.5 -168.5zM762 1378q42 0 64.5 -31t11.5 -73q-11 -43 -50 -76t-81 -33q-44 0 -68.5 33t-13.5 76q11 41 52 72.5t85 31.5z" />
    <glyph glyph-name="Eogonek" unicode="&#x118;" horiz-adv-x="1181" 
d="M668 1329l-144 -559q278 6 336 18t78 66l23 72q53 0 53 -21q0 -17 -5.5 -45t-16.5 -70t-15 -61q-5 -29 -14.5 -86.5t-16.5 -91.5q-5 -23 -65 -23l6 64q-1 12 1 22.5t-2 19t-7.5 15.5t-14.5 13t-23.5 10.5t-35.5 7.5t-49 5.5t-64 4t-82 2.5t-102 2l-152 -602
q113 2 186.5 5t143.5 8.5t112 16t80 25t62 37.5t43.5 51.5t36.5 69.5q45 0 45 -29q0 -19 -12 -62t-31 -98.5t-23 -70.5q-6 -22 -20 -35.5t-31 -13.5h-88q-116 -44 -198 -121t-82 -166q0 -86 110 -86q42 0 103 17q8 -3 8 -15q0 -13 -11 -28.5t-32 -31t-60.5 -26t-89.5 -10.5
q-86 0 -128 33t-42 88q0 61 32.5 119t85 101.5t111.5 76t119 51.5q-122 0 -417.5 1t-368.5 1v63h125q27 0 35 35l307 1217q5 19 1 26t-19 7h-121v65q60 0 165.5 0.5t214.5 1.5t208.5 2t165 1.5t67.5 0.5q17 0 26 -6t10 -11.5t1 -15.5q0 -18 -12 -80t-21 -147q-3 -22 -53 -22
q0 45 -3 70t-19 49.5t-40.5 35t-76.5 20t-119 12.5t-174 5z" />
    <glyph glyph-name="eogonek" unicode="&#x119;" horiz-adv-x="770" 
d="M252 483q-55 -116 -55 -223q0 -79 32 -112t99 -33q61 0 138 45.5t140 122.5q6 6 15 6q10 0 20 -11.5t10 -23.5q0 -13 -21 -49t-57.5 -81.5t-100.5 -88t-136 -58.5q-102 -47 -170 -117.5t-68 -150.5q0 -86 111 -86q41 0 102 17q8 -3 8 -15q0 -13 -10.5 -28.5t-32 -31
t-60.5 -26t-89 -10.5q-86 0 -128 33t-42 88q0 101 80 184t194 133q-92 6 -140 70.5t-48 167.5q0 127 58 262.5t147 240t202.5 171.5t219.5 67q129 0 129 -115q0 -107 -81 -187t-202.5 -119t-263.5 -42zM272 535q81 17 161.5 54.5t137.5 80t93 85.5t36 72q0 33 -38 33
q-48 0 -119.5 -39.5t-148 -117t-122.5 -168.5z" />
    <glyph glyph-name="Ecaron" unicode="&#x11a;" horiz-adv-x="1181" 
d="M668 1329l-144 -559q278 6 336 18t78 66l23 72q53 0 53 -21q0 -17 -5.5 -45t-16.5 -70t-15 -61q-5 -29 -14.5 -86.5t-16.5 -91.5q-5 -23 -65 -23l6 64q-1 12 1 22.5t-2 19t-7.5 15.5t-14.5 13t-23.5 10.5t-35.5 7.5t-49 5.5t-64 4t-82 2.5t-102 2l-152 -602
q113 2 186.5 5t143.5 8.5t112 16t80 25t62 37.5t43.5 51.5t36.5 69.5q45 0 45 -29q0 -19 -12 -62t-31 -98.5t-23 -70.5q-6 -22 -20 -35.5t-31 -13.5q-7 0 -411.5 2t-536.5 2v63h125q27 0 35 35l307 1217q5 19 1 26t-19 7h-121v65q60 0 165.5 0.5t214.5 1.5t208.5 2t165 1.5
t67.5 0.5q17 0 26 -6t10 -11.5t1 -15.5q0 -18 -12 -80t-21 -147q-3 -22 -53 -22q0 45 -3 70t-19 49.5t-40.5 35t-76.5 20t-119 12.5t-174 5zM848 1614l272 182l27 -20l-291 -287q-22 -19 -45 -19q-32 0 -35 19l-155 287l41 20z" />
    <glyph glyph-name="ecaron" unicode="&#x11b;" horiz-adv-x="770" 
d="M252 483q-55 -116 -55 -223q0 -79 32 -112t99 -33q61 0 138 45.5t140 122.5q6 6 15 6q10 0 20 -11.5t10 -23.5q0 -11 -16 -41t-50 -72.5t-80 -81t-115 -65.5t-144 -27q-98 0 -150.5 65.5t-52.5 172.5q0 127 58 262.5t147 240t202.5 171.5t219.5 67q129 0 129 -115
q0 -107 -81 -187t-202.5 -119t-263.5 -42zM272 535q81 17 161.5 54.5t137.5 80t93 85.5t36 72q0 33 -38 33q-48 0 -119.5 -39.5t-148 -117t-122.5 -168.5zM702 1221l281 225l33 -19l-316 -364q-20 -23 -43 -23q-27 0 -34 23l-138 364l41 19z" />
    <glyph glyph-name="Gcircumflex" unicode="&#x11c;" horiz-adv-x="1548" 
d="M748 -33q-187 0 -329 78t-217 216.5t-75 316.5q0 144 56.5 279t155 240.5t225.5 185.5t275 122.5t296 42.5q154 0 290 -31q32 -11 29 -47q0 -7 -1.5 -76.5t-4.5 -126.5t-8 -82q-5 -24 -56 -24q-6 157 -74.5 226t-215.5 69q-104 0 -210 -35t-203.5 -106.5t-173.5 -169.5
t-121.5 -235.5t-45.5 -293.5q0 -141 60 -247t159 -159t221 -53q132 0 213.5 44t102.5 122l63 254q7 35 -20 35h-185v63h570v-63h-123q-28 0 -35 -35l-94 -377q-254 -133 -524 -133zM1155 1653l-272 -180l-29 18l293 287q20 20 43 20q32 0 35 -20l155 -287l-41 -18z" />
    <glyph glyph-name="gcircumflex" unicode="&#x11d;" horiz-adv-x="821" 
d="M203 -20q-128 -52 -189 -110t-61 -126q0 -95 86.5 -147t208.5 -52q100 0 166.5 40t66.5 114q0 41 -21 75.5t-77 75.5q-49 36 -104 75t-76 55zM162 6q-111 79 -111 156q0 17 14 31.5t42 25.5t53 18.5t63 17t56 15.5q-132 54 -132 219q0 114 51 219t142 171.5t197 66.5
q85 0 133 -39l225 33q7 1 12.5 -8.5t8 -21.5t2.5 -25q0 -23 -7.5 -45t-19.5 -23l-180 -6q22 -46 22 -131q0 -167 -91.5 -280.5t-260.5 -149.5q-84 -19 -113.5 -39.5t-29.5 -46.5q0 -24 38.5 -59t147.5 -101q136 -85 179.5 -144.5t43.5 -133.5q0 -88 -59 -150t-146 -89.5
t-190 -27.5q-111 0 -212 30t-168 89.5t-67 136.5q0 98 86 165t271 126zM535 877q-44 0 -91.5 -59t-80.5 -139t-54.5 -157t-21.5 -116q0 -51 14 -71t49 -20q58 0 118 97t95 210.5t35 180.5q0 43 -14 58.5t-49 15.5zM614 1268l-280 -226l-33 19l315 364q16 23 43 23
q24 0 37 -23l135 -364l-40 -19z" />
    <glyph glyph-name="Gbreve" unicode="&#x11e;" horiz-adv-x="1548" 
d="M748 -33q-187 0 -329 78t-217 216.5t-75 316.5q0 144 56.5 279t155 240.5t225.5 185.5t275 122.5t296 42.5q154 0 290 -31q32 -11 29 -47q0 -7 -1.5 -76.5t-4.5 -126.5t-8 -82q-5 -24 -56 -24q-6 157 -74.5 226t-215.5 69q-104 0 -210 -35t-203.5 -106.5t-173.5 -169.5
t-121.5 -235.5t-45.5 -293.5q0 -141 60 -247t159 -159t221 -53q132 0 213.5 44t102.5 122l63 254q7 35 -20 35h-185v63h570v-63h-123q-28 0 -35 -35l-94 -377q-254 -133 -524 -133zM1343 1772q-29 -117 -108 -190t-170 -73q-90 0 -133 73.5t-14 189.5h45q-19 -76 23.5 -117
t105.5 -41q61 0 123.5 41t82.5 117h45z" />
    <glyph glyph-name="gbreve" unicode="&#x11f;" horiz-adv-x="821" 
d="M203 -20q-128 -52 -189 -110t-61 -126q0 -95 86.5 -147t208.5 -52q100 0 166.5 40t66.5 114q0 41 -21 75.5t-77 75.5q-49 36 -104 75t-76 55zM162 6q-111 79 -111 156q0 17 14 31.5t42 25.5t53 18.5t63 17t56 15.5q-132 54 -132 219q0 114 51 219t142 171.5t197 66.5
q85 0 133 -39l225 33q7 1 12.5 -8.5t8 -21.5t2.5 -25q0 -23 -7.5 -45t-19.5 -23l-180 -6q22 -46 22 -131q0 -167 -91.5 -280.5t-260.5 -149.5q-84 -19 -113.5 -39.5t-29.5 -46.5q0 -24 38.5 -59t147.5 -101q136 -85 179.5 -144.5t43.5 -133.5q0 -88 -59 -150t-146 -89.5
t-190 -27.5q-111 0 -212 30t-168 89.5t-67 136.5q0 98 86 165t271 126zM535 877q-44 0 -91.5 -59t-80.5 -139t-54.5 -157t-21.5 -116q0 -51 14 -71t49 -20q58 0 118 97t95 210.5t35 180.5q0 43 -14 58.5t-49 15.5zM834 1362q-28 -121 -107 -194.5t-170 -73.5t-134.5 73
t-14.5 195h47q-9 -45 -2.5 -75.5t28.5 -49t47.5 -27t53.5 -8.5q39 0 78.5 14t77 52t50.5 94h46z" />
    <glyph glyph-name="Gdotaccent" unicode="&#x120;" horiz-adv-x="1548" 
d="M748 -33q-187 0 -329 78t-217 216.5t-75 316.5q0 144 56.5 279t155 240.5t225.5 185.5t275 122.5t296 42.5q154 0 290 -31q32 -11 29 -47q0 -7 -1.5 -76.5t-4.5 -126.5t-8 -82q-5 -24 -56 -24q-6 157 -74.5 226t-215.5 69q-104 0 -210 -35t-203.5 -106.5t-173.5 -169.5
t-121.5 -235.5t-45.5 -293.5q0 -141 60 -247t159 -159t221 -53q132 0 213.5 44t102.5 122l63 254q7 35 -20 35h-185v63h570v-63h-123q-28 0 -35 -35l-94 -377q-254 -133 -524 -133zM1128 1735q45 0 69.5 -32t12.5 -77q-10 -42 -50 -72t-85 -30q-42 0 -66 30t-14 72
q10 45 50.5 77t82.5 32z" />
    <glyph glyph-name="gdotaccent" unicode="&#x121;" horiz-adv-x="821" 
d="M203 -20q-128 -52 -189 -110t-61 -126q0 -95 86.5 -147t208.5 -52q100 0 166.5 40t66.5 114q0 41 -21 75.5t-77 75.5q-49 36 -104 75t-76 55zM162 6q-111 79 -111 156q0 17 14 31.5t42 25.5t53 18.5t63 17t56 15.5q-132 54 -132 219q0 114 51 219t142 171.5t197 66.5
q85 0 133 -39l225 33q7 1 12.5 -8.5t8 -21.5t2.5 -25q0 -23 -7.5 -45t-19.5 -23l-180 -6q22 -46 22 -131q0 -167 -91.5 -280.5t-260.5 -149.5q-84 -19 -113.5 -39.5t-29.5 -46.5q0 -24 38.5 -59t147.5 -101q136 -85 179.5 -144.5t43.5 -133.5q0 -88 -59 -150t-146 -89.5
t-190 -27.5q-111 0 -212 30t-168 89.5t-67 136.5q0 98 86 165t271 126zM535 877q-44 0 -91.5 -59t-80.5 -139t-54.5 -157t-21.5 -116q0 -51 14 -71t49 -20q58 0 118 97t95 210.5t35 180.5q0 43 -14 58.5t-49 15.5zM623 1378q42 0 64 -31t11 -73q-11 -43 -50 -76t-81 -33
q-44 0 -68.5 33t-13.5 76q11 41 52.5 72.5t85.5 31.5z" />
    <glyph glyph-name="Gcommaaccent" unicode="&#x122;" horiz-adv-x="1548" 
d="M748 -33q-187 0 -329 78t-217 216.5t-75 316.5q0 144 56.5 279t155 240.5t225.5 185.5t275 122.5t296 42.5q154 0 290 -31q32 -11 29 -47q0 -7 -1.5 -76.5t-4.5 -126.5t-8 -82q-5 -24 -56 -24q-6 157 -74.5 226t-215.5 69q-104 0 -210 -35t-203.5 -106.5t-173.5 -169.5
t-121.5 -235.5t-45.5 -293.5q0 -141 60 -247t159 -159t221 -53q132 0 213.5 44t102.5 122l63 254q7 35 -20 35h-185v63h570v-63h-123q-28 0 -35 -35l-94 -377q-254 -133 -524 -133zM477 -582q-10 3 -10 29q0 19 16 29q87 8 148 58.5t61 119.5q0 26 -13.5 40.5t-33.5 14.5
q-37 0 -57.5 17t-20.5 49q0 40 38 82.5t87 42.5q53 0 88 -39t35 -101q0 -33 -9 -70.5t-33.5 -82t-61 -81.5t-97.5 -67t-137 -41z" />
    <glyph glyph-name="gcommaaccent" unicode="&#x123;" horiz-adv-x="821" 
d="M203 -20q-128 -52 -189 -110t-61 -126q0 -95 86.5 -147t208.5 -52q100 0 166.5 40t66.5 114q0 41 -21 75.5t-77 75.5q-49 36 -104 75t-76 55zM162 6q-111 79 -111 156q0 17 14 31.5t42 25.5t53 18.5t63 17t56 15.5q-132 54 -132 219q0 114 51 219t142 171.5t197 66.5
q85 0 133 -39l225 33q7 1 12.5 -8.5t8 -21.5t2.5 -25q0 -23 -7.5 -45t-19.5 -23l-180 -6q22 -46 22 -131q0 -167 -91.5 -280.5t-260.5 -149.5q-84 -19 -113.5 -39.5t-29.5 -46.5q0 -24 38.5 -59t147.5 -101q136 -85 179.5 -144.5t43.5 -133.5q0 -88 -59 -150t-146 -89.5
t-190 -27.5q-111 0 -212 30t-168 89.5t-67 136.5q0 98 86 165t271 126zM535 877q-44 0 -91.5 -59t-80.5 -139t-54.5 -157t-21.5 -116q0 -51 14 -71t49 -20q58 0 118 97t95 210.5t35 180.5q0 43 -14 58.5t-49 15.5zM827 1528q11 -4 11 -29q0 -19 -17 -29q-87 -8 -148 -58.5
t-61 -119.5q0 -26 13.5 -40.5t33.5 -14.5q37 0 57.5 -17t20.5 -49q0 -40 -38 -82t-87 -42q-53 0 -88 38.5t-35 100.5q0 33 9 70.5t33.5 82t61 81.5t97.5 67t137 41z" />
    <glyph glyph-name="Hcircumflex" unicode="&#x124;" horiz-adv-x="1636" 
d="M1266 702h-758l-152 -604q-6 -35 19 -35h125v-63h-500v63h125q29 0 35 35l305 1217q8 33 -19 33h-124v65h499v-65h-125q-26 0 -37 -33l-133 -537h758l135 537q8 33 -18 33h-125v65h500v-65h-125q-27 0 -35 -33l-303 -1217q-3 -19 0 -27t16 -8h125v-63h-500v63h125
q29 0 35 35zM1094 1653l-273 -180l-28 18l292 287q20 20 43 20q32 0 35 -20l156 -287l-41 -18z" />
    <glyph glyph-name="hcircumflex" unicode="&#x125;" horiz-adv-x="954" 
d="M242 432l22 -4q25 44 40 70.5t53 87.5t67.5 101.5t75 94t85.5 86t87.5 55.5t91.5 23q73 0 113.5 -49t40.5 -131q0 -133 -32.5 -259t-86.5 -221.5t-120.5 -168.5t-137.5 -111.5t-135 -38.5q-42 0 -68.5 20.5t-26.5 63.5q0 44 19 71.5t53 27.5q26 0 38 -15t13.5 -32.5
t8.5 -32.5t24 -15q46 0 114 98.5t119.5 242t51.5 255.5q0 65 -14.5 92t-53.5 27q-93 0 -230.5 -180.5t-281.5 -478.5q-7 -14 -17 -37.5t-17 -40t-15.5 -33t-16.5 -25t-16 -8.5q-27 0 -53.5 12.5t-26.5 36.5t19 87.5t70 232.5t104 366q164 625 164 703q0 43 -50 51l-63 12
q-6 0 -6 17q0 13 4.5 24t11.5 11q69 6 150.5 30.5t138.5 57.5q29 0 29 -23q0 -34 -139 -508.5t-201 -644.5zM616 1776l-272 -181l-29 19l293 287q20 20 43 20q32 0 35 -20l156 -287l-41 -19z" />
    <glyph glyph-name="Hbar" unicode="&#x126;" horiz-adv-x="1636" 
d="M291 1139h129l45 176q8 33 -19 33h-124v65h499v-65h-125q-26 0 -37 -33l-45 -176h760l45 176q8 33 -18 33h-125v65h500v-65h-125q-27 0 -35 -33l-45 -176h139l-27 -97h-135l-235 -944q-3 -19 0 -27t16 -8h125v-63h-500v63h125q29 0 35 35l152 604h-758l-152 -604
q-6 -35 19 -35h125v-63h-500v63h125q29 0 35 35l235 944h-137zM526 778h758l66 264h-758z" />
    <glyph glyph-name="hbar" unicode="&#x127;" horiz-adv-x="954" 
d="M211 1262h133q23 112 23 143q0 43 -50 51l-63 12q-6 0 -6 17q0 13 4.5 24t11.5 11q69 6 150.5 30.5t138.5 57.5q29 0 29 -23q0 -35 -84 -323h217l-23 -91h-223q-146 -515 -227 -739l22 -4q25 44 40 70.5t53 87.5t67.5 101.5t75 94t85.5 86t87.5 55.5t91.5 23
q73 0 113.5 -49t40.5 -131q0 -133 -32.5 -259t-86.5 -221.5t-120.5 -168.5t-137.5 -111.5t-135 -38.5q-42 0 -68.5 20.5t-26.5 63.5q0 44 19 71.5t53 27.5q26 0 38 -15t13.5 -32.5t8.5 -32.5t24 -15q46 0 114 98.5t119.5 242t51.5 255.5q0 65 -14.5 92t-53.5 27
q-93 0 -230.5 -180.5t-281.5 -478.5q-7 -14 -17 -37.5t-17 -40t-15.5 -33t-16.5 -25t-16 -8.5q-27 0 -53.5 12.5t-26.5 36.5t19 87.5t70 232.5t104 366q79 298 119 469h-136z" />
    <glyph glyph-name="Itilde" unicode="&#x128;" horiz-adv-x="686" 
d="M500 0h-500v63h125q29 0 35 35l309 1217q5 19 1 26t-19 7h-125v65h501v-65h-127q-24 0 -32 -33l-310 -1217q-6 -35 17 -35h125v-63zM322 1524l-23 28q126 183 236 183q31 0 61 -15t50.5 -32.5t49 -32.5t56.5 -15q63 0 141 103l20 -29q-125 -180 -229 -180
q-30 0 -58.5 14.5t-47.5 31.5t-48.5 31.5t-60.5 14.5q-68 0 -147 -102z" />
    <glyph glyph-name="itilde" unicode="&#x129;" horiz-adv-x="567" 
d="M461 946q71 0 71 -80q0 -55 -75 -216t-149.5 -313t-74.5 -185q0 -23 25 -23q28 0 88 47t88 82q8 8 12 8q10 0 19.5 -7t9.5 -15q0 -35 -62 -101.5t-147 -121t-141 -54.5q-70 0 -70 86q0 61 70.5 220t140.5 304.5t70 174.5q0 28 -23 28q-29 0 -83.5 -42t-98.5 -89
q-6 -4 -12 -4q-9 0 -19 9t-10 18q0 25 66 91t157 124.5t148 58.5zM143 1102l-22 31q132 200 260 200q34 0 67 -16t56 -35t54.5 -35t62.5 -16q67 0 157 112l25 -28q-140 -201 -256 -201q-33 0 -64.5 15.5t-53 34.5t-54.5 34.5t-68 15.5q-74 0 -164 -112z" />
    <glyph glyph-name="Imacron" unicode="&#x12a;" horiz-adv-x="686" 
d="M500 0h-500v63h125q29 0 35 35l309 1217q5 19 1 26t-19 7h-125v65h501v-65h-127q-24 0 -32 -33l-310 -1217q-6 -35 17 -35h125v-63zM393 1694h506l-27 -107h-503z" />
    <glyph glyph-name="imacron" unicode="&#x12b;" horiz-adv-x="567" 
d="M461 946q71 0 71 -80q0 -55 -75 -216t-149.5 -313t-74.5 -185q0 -23 25 -23q28 0 88 47t88 82q8 8 12 8q10 0 19.5 -7t9.5 -15q0 -35 -62 -101.5t-147 -121t-141 -54.5q-70 0 -70 86q0 61 70.5 220t140.5 304.5t70 174.5q0 28 -23 28q-29 0 -83.5 -42t-98.5 -89
q-6 -4 -12 -4q-9 0 -19 9t-10 18q0 25 66 91t157 124.5t148 58.5zM248 1270h504l-25 -107h-506z" />
    <glyph glyph-name="Ibreve" unicode="&#x12c;" horiz-adv-x="686" 
d="M500 0h-500v63h125q29 0 35 35l309 1217q5 19 1 26t-19 7h-125v65h501v-65h-127q-24 0 -32 -33l-310 -1217q-6 -35 17 -35h125v-63zM860 1772q-29 -117 -108 -190t-170 -73q-90 0 -133.5 73.5t-14.5 189.5h45q-19 -76 23.5 -117t105.5 -41q61 0 124 41t83 117h45z" />
    <glyph glyph-name="ibreve" unicode="&#x12d;" horiz-adv-x="567" 
d="M461 946q71 0 71 -80q0 -55 -75 -216t-149.5 -313t-74.5 -185q0 -23 25 -23q28 0 88 47t88 82q8 8 12 8q10 0 19.5 -7t9.5 -15q0 -35 -62 -101.5t-147 -121t-141 -54.5q-70 0 -70 86q0 61 70.5 220t140.5 304.5t70 174.5q0 28 -23 28q-29 0 -83.5 -42t-98.5 -89
q-6 -4 -12 -4q-9 0 -19 9t-10 18q0 25 66 91t157 124.5t148 58.5zM729 1362q-28 -121 -107 -194.5t-169 -73.5q-92 0 -135.5 73t-14.5 195h47q-9 -45 -2.5 -75.5t28.5 -49t47.5 -27t53.5 -8.5q39 0 79 14t77.5 52t50.5 94h45z" />
    <glyph glyph-name="Iogonek" unicode="&#x12e;" horiz-adv-x="686" 
d="M500 0h-103q-119 -42 -206 -121.5t-87 -169.5q0 -86 111 -86q41 0 102 17q9 -3 9 -15q0 -13 -11 -28.5t-32 -31t-60.5 -26t-89.5 -10.5q-86 0 -128 33t-42 88q0 63 34.5 122t89.5 103t115.5 75.5t121.5 49.5h-324v63h125q29 0 35 35l309 1217q5 19 1 26t-19 7h-125v65
h501v-65h-127q-24 0 -32 -33l-310 -1217q-6 -35 17 -35h125v-63z" />
    <glyph glyph-name="iogonek" unicode="&#x12f;" horiz-adv-x="567" 
d="M461 946q71 0 71 -80q0 -55 -75 -216t-149.5 -313t-74.5 -185q0 -23 25 -23q28 0 88 47t88 82q8 8 12 8q10 0 19.5 -7t9.5 -15q0 -32 -55 -93.5t-133.5 -115.5t-136.5 -66q-84 -46 -137.5 -109.5t-53.5 -133.5q0 -86 111 -86q45 0 102 16q8 -3 8 -14q0 -13 -10.5 -28.5
t-32 -31.5t-60.5 -26.5t-89 -10.5q-86 0 -128 33t-42 88q0 98 76.5 180t187.5 134q-27 18 -27 73q0 61 70.5 220t140.5 304.5t70 174.5q0 28 -23 28q-29 0 -83.5 -42t-98.5 -89q-6 -4 -12 -4q-9 0 -19 9t-10 18q0 25 66 91t157 124.5t148 58.5zM502 1378q44 0 74 -31t30 -73
q0 -44 -30.5 -76.5t-73.5 -32.5t-76 33t-33 76q0 41 33 72.5t76 31.5z" />
    <glyph glyph-name="Idotaccent" unicode="&#x130;" horiz-adv-x="686" 
d="M500 0h-500v63h125q29 0 35 35l309 1217q5 19 1 26t-19 7h-125v65h501v-65h-127q-24 0 -32 -33l-310 -1217q-6 -35 17 -35h125v-63zM649 1735q45 0 69.5 -32t12.5 -77q-10 -42 -50 -72t-85 -30q-42 0 -66 30t-14 72q10 45 50.5 77t82.5 32z" />
    <glyph glyph-name="dotlessi" unicode="&#x131;" horiz-adv-x="567" 
d="M461 946q71 0 71 -80q0 -55 -75 -216t-149.5 -313t-74.5 -185q0 -23 25 -23q28 0 88 47t88 82q8 8 12 8q10 0 19.5 -7t9.5 -15q0 -35 -62 -101.5t-147 -121t-141 -54.5q-70 0 -70 86q0 61 70.5 220t140.5 304.5t70 174.5q0 28 -23 28q-29 0 -83.5 -42t-98.5 -89
q-6 -4 -12 -4q-9 0 -19 9t-10 18q0 25 66 91t157 124.5t148 58.5z" />
    <glyph glyph-name="IJ" unicode="&#x132;" horiz-adv-x="1372" 
d="M500 0h-500v63h125q29 0 35 35l309 1217q5 19 1 26t-19 7h-125v65h501v-65h-127q-24 0 -32 -33l-310 -1217q-6 -35 17 -35h125v-63zM999 98q-27 -106 -90.5 -205t-145.5 -172.5t-180.5 -118t-193.5 -44.5q-59 0 -91 32t-32 84q0 57 30 93t81 36q31 0 53 -17t33.5 -37
t34 -37t53.5 -17q147 0 250 403l309 1217q5 19 1 26t-19 7h-125v65h499v-65h-125q-26 0 -34 -33z" />
    <glyph glyph-name="ij" unicode="&#x133;" horiz-adv-x="1134" 
d="M461 946q71 0 71 -80q0 -55 -75 -216t-149.5 -313t-74.5 -185q0 -23 25 -23q28 0 88 47t88 82q8 8 12 8q10 0 19.5 -7t9.5 -15q0 -35 -62 -101.5t-147 -121t-141 -54.5q-70 0 -70 86q0 61 70.5 220t140.5 304.5t70 174.5q0 28 -23 28q-29 0 -83.5 -42t-98.5 -89
q-6 -4 -12 -4q-9 0 -19 9t-10 18q0 25 66 91t157 124.5t148 58.5zM502 1378q44 0 74 -31t30 -73q0 -44 -30.5 -76.5t-73.5 -32.5t-76 33t-33 76q0 41 33 72.5t76 31.5zM750 193q68 174 119 345.5t51 213.5q0 28 -25 28q-28 0 -83.5 -42.5t-98.5 -88.5q-4 -4 -13 -4
q-8 0 -18 9t-10 18q0 25 66 91t157 124.5t147 58.5q74 0 74 -80q0 -92 -91.5 -356.5t-236.5 -599.5q-37 -84 -69.5 -145t-77 -122t-92.5 -99t-111 -61.5t-137 -23.5q-62 0 -100.5 34.5t-38.5 74.5q0 46 22 71t58 25q37 0 54.5 -19t19.5 -41.5t15 -41.5t42 -19q127 0 377 650
zM1116 1378q42 0 73.5 -31t31.5 -73q0 -43 -31.5 -76t-73.5 -33q-43 0 -75.5 33t-32.5 76q0 41 32.5 72.5t75.5 31.5z" />
    <glyph glyph-name="Jcircumflex" unicode="&#x134;" horiz-adv-x="663" 
d="M350 98q-27 -106 -90.5 -205t-145.5 -172.5t-180.5 -118t-193.5 -44.5q-59 0 -91 32t-32 84q0 57 30 93t81 36q31 0 53 -17t33.5 -37t34 -37t53.5 -17q147 0 250 403l309 1217q4 19 0 26t-19 7h-125v65h500v-65h-125q-27 0 -35 -33zM602 1653l-272 -180l-29 18l293 287
q20 20 43 20q32 0 35 -20l155 -287l-41 -18z" />
    <glyph glyph-name="jcircumflex" unicode="&#x135;" horiz-adv-x="577" 
d="M168 193q68 174 119 345.5t51 213.5q0 28 -25 28q-28 0 -83.5 -42.5t-98.5 -88.5q-4 -4 -12 -4t-18.5 9t-10.5 18q0 25 66.5 91t157.5 124.5t147 58.5q74 0 74 -80q0 -92 -91.5 -356.5t-236.5 -599.5q-37 -83 -69.5 -144.5t-77.5 -122.5t-92.5 -99t-111 -61.5
t-137.5 -23.5q-62 0 -100.5 34.5t-38.5 74.5q0 46 22 71t58 25q37 0 54.5 -19t19.5 -41.5t15 -41.5t42 -19q127 0 377 650zM487 1268l-280 -226l-33 19l315 364q16 23 43 23q24 0 37 -23l136 -364l-41 -19z" />
    <glyph glyph-name="Kcommaaccent" unicode="&#x136;" horiz-adv-x="1333" 
d="M514 715l-156 -617q-8 -35 17 -35h125v-63h-500v63h125q29 0 35 35l309 1217q5 19 1 26t-19 7h-125v65h501v-65h-127q-24 0 -32 -33l-146 -559q134 84 342.5 252.5t313.5 273.5q21 20 12.5 43t-39.5 23h-98v65h540v-65h-67q-56 0 -105 -35q-26 -19 -151 -112
t-195.5 -144.5t-182 -130t-198.5 -135.5q270 -341 488 -699q16 -29 53 -29h94v-63h-547v63h109q80 0 43 66q-75 129 -212.5 324.5t-207.5 261.5zM385 -582q-10 3 -10 29q0 19 16 29q87 8 148 58.5t61 119.5q0 26 -13.5 40.5t-33.5 14.5q-37 0 -57.5 17t-20.5 49
q0 40 38 82.5t87 42.5q53 0 88 -39t35 -101q0 -33 -9 -70.5t-33.5 -82t-61 -81.5t-97.5 -67t-137 -41z" />
    <glyph glyph-name="kcommaaccent" unicode="&#x137;" horiz-adv-x="952" 
d="M588 1585q0 -35 -127.5 -451t-179.5 -542l18 -2q219 356 489 356q72 0 116 -40t44 -103q0 -44 -21 -85.5t-71 -82.5t-123 -71.5t-186 -49t-252 -18.5q43 -50 96.5 -118t89.5 -114.5t75 -90.5t71.5 -66.5t60.5 -22.5q45 0 45 66q0 71 62 71q31 0 51 -21.5t20 -56.5
q0 -61 -48.5 -118.5t-133.5 -57.5q-157 0 -265.5 128.5t-150.5 350.5h-16q-87 -357 -117 -450q-13 -29 -37 -29q-31 0 -59.5 12.5t-28.5 32.5q0 25 181.5 685t181.5 708q0 43 -49 51l-64 12q-6 0 -6 17q0 13 4.5 24t11.5 11q69 6 150.5 30.5t140.5 57.5q27 0 27 -23z
M309 543q222 25 346.5 86t124.5 125q0 63 -67 63q-82 0 -185.5 -70t-218.5 -204zM115 -582q-11 4 -11 29q0 19 17 29q87 8 148 58.5t61 119.5q0 26 -13.5 40.5t-33.5 14.5q-37 0 -57.5 17t-20.5 49q0 40 38 82.5t87 42.5q53 0 88 -39t35 -101q0 -33 -9 -70.5t-33.5 -82
t-61 -81.5t-97.5 -67t-137 -41z" />
    <glyph glyph-name="Lacute" unicode="&#x139;" horiz-adv-x="1093" 
d="M358 92q106 1 185.5 6.5t159.5 20.5t136.5 40t102.5 67t72 100q43 0 43 -27q0 -19 -11 -59.5t-28.5 -98.5t-26.5 -96q-13 -49 -53 -49q-7 0 -407 2t-531 2v63h125q29 0 35 35l305 1217q4 19 0 26t-19 7h-124v65h509v-65h-135q-23 0 -34 -33zM987 1724l-401 -258l-41 13
l307 288q39 35 119 35q29 0 43.5 -10t9.5 -25q-2 -15 -37 -43z" />
    <glyph glyph-name="lacute" unicode="&#x13a;" horiz-adv-x="512" 
d="M575 1585q0 -26 -191 -702t-191 -705q0 -22 22 -22q32 0 101 63t141 164q3 6 12 6q7 0 18 -9.5t11 -19.5q0 -26 -48 -91t-112 -132t-136 -118.5t-114 -51.5q-70 0 -70 76q0 60 85.5 388.5t171 640.5t85.5 333q0 43 -49 51l-63 12q-6 0 -6 17q0 13 4.5 24t11.5 11
q69 6 150.5 30.5t138.5 57.5q28 0 28 -23zM705 1849l-402 -258l-41 13l307 288q39 35 119 35q29 0 43.5 -10t9.5 -25q-2 -16 -36 -43z" />
    <glyph glyph-name="Lcommaaccent" unicode="&#x13b;" horiz-adv-x="1093" 
d="M358 92q106 1 185.5 6.5t159.5 20.5t136.5 40t102.5 67t72 100q43 0 43 -27q0 -19 -11 -59.5t-28.5 -98.5t-26.5 -96q-13 -49 -53 -49q-7 0 -407 2t-531 2v63h125q29 0 35 35l305 1217q4 19 0 26t-19 7h-124v65h509v-65h-135q-23 0 -34 -33zM272 -582q-10 3 -10 29
q0 19 17 29q86 8 147 58.5t61 119.5q0 26 -13.5 40.5t-33.5 14.5q-37 0 -57.5 17t-20.5 49q0 40 38 82.5t87 42.5q53 0 88 -39t35 -101q0 -33 -9 -70.5t-33.5 -82t-61 -81.5t-97.5 -67t-137 -41z" />
    <glyph glyph-name="lcommaaccent" unicode="&#x13c;" horiz-adv-x="512" 
d="M575 1585q0 -26 -191 -702t-191 -705q0 -22 22 -22q32 0 101 63t141 164q3 6 12 6q7 0 18 -9.5t11 -19.5q0 -26 -48 -91t-112 -132t-136 -118.5t-114 -51.5q-70 0 -70 76q0 60 85.5 388.5t171 640.5t85.5 333q0 43 -49 51l-63 12q-6 0 -6 17q0 13 4.5 24t11.5 11
q69 6 150.5 30.5t138.5 57.5q28 0 28 -23zM-111 -582q-10 3 -10 29q0 19 17 29q86 8 147 58.5t61 119.5q0 26 -13.5 40.5t-33.5 14.5q-77 0 -77 66q0 41 37.5 83t86.5 42q53 0 88 -39t35 -101q0 -33 -9 -70.5t-33.5 -82t-61 -81.5t-97.5 -67t-137 -41z" />
    <glyph glyph-name="Lcaron" unicode="&#x13d;" horiz-adv-x="1093" 
d="M358 92q106 1 185.5 6.5t159.5 20.5t136.5 40t102.5 67t72 100q43 0 43 -27q0 -19 -11 -59.5t-28.5 -98.5t-26.5 -96q-13 -49 -53 -49q-7 0 -407 2t-531 2v63h125q29 0 35 35l305 1217q4 19 0 26t-19 7h-124v65h509v-65h-135q-23 0 -34 -33zM979 1481q5 27 31 45t67 18
q57 0 69.5 -23t-18.5 -83l-223 -357h-55z" />
    <glyph glyph-name="lcaron" unicode="&#x13e;" horiz-adv-x="512" 
d="M575 1585q0 -26 -191 -702t-191 -705q0 -22 22 -22q32 0 101 63t141 164q3 6 12 6q7 0 18 -9.5t11 -19.5q0 -26 -48 -91t-112 -132t-136 -118.5t-114 -51.5q-70 0 -70 76q0 60 85.5 388.5t171 640.5t85.5 333q0 43 -49 51l-63 12q-6 0 -6 17q0 13 4.5 24t11.5 11
q69 6 150.5 30.5t138.5 57.5q28 0 28 -23zM698 1589q5 10 31 10q92 0 135 -36q-116 -243 -256 -412q-12 -12 -35 -12q-9 0 -14 3t-2 9q112 265 141 438z" />
    <glyph glyph-name="ldotaccent" unicode="&#x140;" horiz-adv-x="0" 
 />
    <glyph glyph-name="Lslash" unicode="&#x141;" horiz-adv-x="1114" 
d="M285 514l-203 -113l29 117l204 113l170 684q4 19 1 26t-17 7h-127v65h510v-65h-135q-25 0 -33 -33l-141 -561l395 217l-31 -117l-391 -217l-137 -545q106 1 185.5 6.5t159.5 20.5t136.5 40t102.5 67t71 100q43 0 43 -27q0 -19 -11 -59.5t-28 -98.5t-26 -96
q-11 -49 -54 -49q-6 0 -405.5 2t-532.5 2v63h127q27 0 33 35z" />
    <glyph glyph-name="lslash" unicode="&#x142;" horiz-adv-x="534" 
d="M195 649l-195 -160l31 117l194 162q166 615 166 637q0 43 -49 51l-63 12q-7 0 -7 17q0 13 5 24t12 11q69 6 150.5 30.5t140.5 57.5q26 0 26 -23q0 -30 -174 -643l186 154l-30 -119l-191 -158q-174 -601 -174 -641q0 -22 25 -22q31 0 99 63t140 164q3 6 13 6q8 0 19 -9.5
t11 -19.5q0 -35 -77 -130.5t-178 -179t-156 -83.5q-68 0 -68 76q0 84 144 606z" />
    <glyph glyph-name="Nacute" unicode="&#x143;" horiz-adv-x="1548" 
d="M1171 322q158 634 222 923q14 66 2 84.5t-68 18.5h-70v65h433v-65h-74q-45 0 -60.5 -18t-33.5 -83q-133 -482 -330 -1270h-84l-551 1278q-211 -867 -262 -1089q-15 -66 -2.5 -84.5t69.5 -18.5h70v-63h-432v63h63q46 0 67 20t38 81q112 407 297 1151q8 33 -16 33h-127v65
h393zM1339 1724l-401 -258l-41 13l307 288q39 35 119 35q29 0 43.5 -10t9.5 -25q-2 -15 -37 -43z" />
    <glyph glyph-name="nacute" unicode="&#x144;" horiz-adv-x="1062" 
d="M365 426q60 109 114 191t122 162t141.5 123.5t146.5 43.5q131 0 131 -129q0 -70 -66.5 -219t-133 -281.5t-66.5 -160.5q0 -27 24 -27t81.5 42t103.5 83q9 6 12 6q10 0 20.5 -10t10.5 -19q0 -28 -61.5 -91.5t-147 -118t-140.5 -54.5q-36 0 -51.5 19t-15.5 65
q0 63 62.5 217.5t125 297.5t62.5 177q0 48 -41 48q-37 0 -89 -36.5t-119 -111.5t-152 -213t-171 -319q-8 -16 -27 -60t-31.5 -64t-25.5 -20q-26 0 -52 12.5t-26 36.5t66 226q139 419 139 510q0 28 -26 28q-28 0 -97.5 -58t-97.5 -99q-7 -7 -14 -7q-9 0 -20 9t-11 18
q0 26 61.5 98.5t151 138.5t152.5 66q65 0 65 -80q0 -76 -34.5 -182t-96.5 -254zM1016 1354l-412 -326l-41 19l326 360q32 41 115 41q30 0 44 -11t11 -30q-9 -27 -43 -53z" />
    <glyph glyph-name="Ncommaaccent" unicode="&#x145;" horiz-adv-x="1548" 
d="M1171 322q158 634 222 923q14 66 2 84.5t-68 18.5h-70v65h433v-65h-74q-45 0 -60.5 -18t-33.5 -83q-133 -482 -330 -1270h-84l-551 1278q-211 -867 -262 -1089q-15 -66 -2.5 -84.5t69.5 -18.5h70v-63h-432v63h63q46 0 67 20t38 81q112 407 297 1151q8 33 -16 33h-127v65
h393zM430 -582q-10 3 -10 29q0 19 16 29q87 8 148 58.5t61 119.5q0 26 -13.5 40.5t-33.5 14.5q-37 0 -57.5 17t-20.5 49q0 40 38 82.5t87 42.5q53 0 88 -39t35 -101q0 -33 -9 -70.5t-33.5 -82t-61 -81.5t-97.5 -67t-137 -41z" />
    <glyph glyph-name="ncommaaccent" unicode="&#x146;" horiz-adv-x="1062" 
d="M365 426q60 109 114 191t122 162t141.5 123.5t146.5 43.5q131 0 131 -129q0 -70 -66.5 -219t-133 -281.5t-66.5 -160.5q0 -27 24 -27t81.5 42t103.5 83q9 6 12 6q10 0 20.5 -10t10.5 -19q0 -28 -61.5 -91.5t-147 -118t-140.5 -54.5q-36 0 -51.5 19t-15.5 65
q0 63 62.5 217.5t125 297.5t62.5 177q0 48 -41 48q-37 0 -89 -36.5t-119 -111.5t-152 -213t-171 -319q-8 -16 -27 -60t-31.5 -64t-25.5 -20q-26 0 -52 12.5t-26 36.5t66 226q139 419 139 510q0 28 -26 28q-28 0 -97.5 -58t-97.5 -99q-7 -7 -14 -7q-9 0 -20 9t-11 18
q0 26 61.5 98.5t151 138.5t152.5 66q65 0 65 -80q0 -76 -34.5 -182t-96.5 -254zM154 -582q-11 4 -11 29q0 19 17 29q87 8 148 58.5t61 119.5q0 26 -13.5 40.5t-33.5 14.5q-37 0 -57.5 17t-20.5 49q0 40 38 82.5t87 42.5q53 0 88 -39t35 -101q0 -33 -9 -70.5t-33.5 -82
t-61 -81.5t-97.5 -67t-137 -41z" />
    <glyph glyph-name="Ncaron" unicode="&#x147;" horiz-adv-x="1548" 
d="M1171 322q158 634 222 923q14 66 2 84.5t-68 18.5h-70v65h433v-65h-74q-45 0 -60.5 -18t-33.5 -83q-133 -482 -330 -1270h-84l-551 1278q-211 -867 -262 -1089q-15 -66 -2.5 -84.5t69.5 -18.5h70v-63h-432v63h63q46 0 67 20t38 81q112 407 297 1151q8 33 -16 33h-127v65
h393zM1038 1614l273 182l26 -20l-290 -287q-22 -19 -46 -19q-31 0 -34 19l-156 287l41 20z" />
    <glyph glyph-name="ncaron" unicode="&#x148;" horiz-adv-x="1062" 
d="M365 426q60 109 114 191t122 162t141.5 123.5t146.5 43.5q131 0 131 -129q0 -70 -66.5 -219t-133 -281.5t-66.5 -160.5q0 -27 24 -27t81.5 42t103.5 83q9 6 12 6q10 0 20.5 -10t10.5 -19q0 -28 -61.5 -91.5t-147 -118t-140.5 -54.5q-36 0 -51.5 19t-15.5 65
q0 63 62.5 217.5t125 297.5t62.5 177q0 48 -41 48q-37 0 -89 -36.5t-119 -111.5t-152 -213t-171 -319q-8 -16 -27 -60t-31.5 -64t-25.5 -20q-26 0 -52 12.5t-26 36.5t66 226q139 419 139 510q0 28 -26 28q-28 0 -97.5 -58t-97.5 -99q-7 -7 -14 -7q-9 0 -20 9t-11 18
q0 26 61.5 98.5t151 138.5t152.5 66q65 0 65 -80q0 -76 -34.5 -182t-96.5 -254zM721 1221l280 225l33 -19l-315 -364q-20 -23 -43 -23q-28 0 -35 23l-137 364l41 19z" />
    <glyph glyph-name="napostrophe" unicode="&#x149;" horiz-adv-x="1062" 
d="M365 426q60 109 114 191t122 162t141.5 123.5t146.5 43.5q131 0 131 -129q0 -70 -66.5 -219t-133 -281.5t-66.5 -160.5q0 -27 24 -27t81.5 42t103.5 83q9 6 12 6q10 0 20.5 -10t10.5 -19q0 -28 -61.5 -91.5t-147 -118t-140.5 -54.5q-36 0 -51.5 19t-15.5 65
q0 63 62.5 217.5t125 297.5t62.5 177q0 48 -41 48q-37 0 -89 -36.5t-119 -111.5t-152 -213t-171 -319q-8 -16 -27 -60t-31.5 -64t-25.5 -20q-26 0 -52 12.5t-26 36.5t66 226q139 419 139 510q0 28 -26 28q-28 0 -97.5 -58t-97.5 -99q-7 -7 -14 -7q-9 0 -20 9t-11 18
q0 26 61.5 98.5t151 138.5t152.5 66q65 0 65 -80q0 -76 -34.5 -182t-96.5 -254zM442 1475q5 27 31.5 45t67.5 18q57 0 68.5 -23t-19.5 -83l-193 -357h-55z" />
    <glyph glyph-name="Eng" unicode="&#x14a;" horiz-adv-x="1548" 
d="M756 -387q-13 3 -13 29q0 21 21 30q72 4 127.5 25t89.5 52t55 71.5t28 83t5 87t-11.5 83t-23.5 71.5l-477 1110q-211 -867 -262 -1089q-15 -66 -2.5 -84.5t69.5 -18.5h70v-63h-432v63h63q46 0 67 20t38 81q112 407 297 1151q8 33 -16 33h-127v65h393l456 -1091
q158 634 222 923q14 66 2 84.5t-68 18.5h-70v65h433v-65h-74q-45 0 -60.5 -18t-33.5 -83q-23 -84 -76 -272.5t-83 -297t-68.5 -263t-63.5 -277.5q-5 -23 -11.5 -66t-12 -76t-19 -78.5t-32 -80t-53 -73t-79.5 -66t-114 -50.5t-154 -34z" />
    <glyph glyph-name="eng" unicode="&#x14b;" horiz-adv-x="1030" 
d="M238 -315q-13 3 -13 28q0 22 21 31q46 6 84 18.5t65.5 28.5t52 41.5t40 47.5t32.5 56t27.5 59.5t26.5 65.5t28 66q238 530 238 616q0 48 -41 48q-37 0 -89 -36.5t-119 -111.5t-152 -213t-171 -319q-8 -16 -27 -60t-31.5 -64t-25.5 -20q-26 0 -52 12.5t-26 36.5t66 226
q139 419 139 510q0 28 -26 28q-28 0 -97.5 -58t-97.5 -99q-7 -7 -14 -7q-9 0 -20 9t-11 18q0 26 61.5 98.5t151 138.5t152.5 66q65 0 65 -80q0 -76 -34.5 -182t-96.5 -254l21 -4q60 109 114 191t122 162t141.5 123.5t146.5 43.5q131 0 131 -129q0 -72 -64.5 -235
t-146 -333.5t-82.5 -172.5q-38 -97 -99.5 -173.5t-129.5 -121.5t-134.5 -69.5t-125.5 -26.5z" />
    <glyph glyph-name="Omacron" unicode="&#x14c;" horiz-adv-x="1431" 
d="M1432 887q0 -106 -30 -217t-83 -212t-128.5 -191.5t-163 -156.5t-191.5 -104.5t-209 -38.5q-230 0 -365 152t-135 405q0 127 42 260t118 250.5t174.5 211t221 148t247.5 54.5q241 0 371.5 -154.5t130.5 -406.5zM340 498q0 -216 77 -329.5t224 -113.5q113 0 221.5 79.5
t185.5 203.5t124 277t47 298q0 223 -69 332t-230 109q-113 0 -222 -79t-186 -202t-124.5 -276.5t-47.5 -298.5zM752 1694h505l-26 -107h-504z" />
    <glyph glyph-name="omacron" unicode="&#x14d;" horiz-adv-x="790" 
d="M537 946q45 0 79.5 -13t66 -45.5t48.5 -97.5t17 -159q0 -108 -33.5 -212.5t-87.5 -184t-118.5 -141t-129.5 -94t-119 -32.5q-112 0 -164.5 75t-52.5 234q0 137 49.5 265t124.5 214.5t160.5 138.5t159.5 52zM532 860q-61 0 -127 -85t-114 -201t-79.5 -232.5t-31.5 -183.5
q0 -103 90 -103q66 0 132.5 90.5t111 213.5t72.5 241.5t28 183.5q0 76 -82 76zM362 1270h504l-24 -107h-506z" />
    <glyph glyph-name="Obreve" unicode="&#x14e;" horiz-adv-x="1431" 
d="M1432 887q0 -106 -30 -217t-83 -212t-128.5 -191.5t-163 -156.5t-191.5 -104.5t-209 -38.5q-230 0 -365 152t-135 405q0 127 42 260t118 250.5t174.5 211t221 148t247.5 54.5q241 0 371.5 -154.5t130.5 -406.5zM340 498q0 -216 77 -329.5t224 -113.5q113 0 221.5 79.5
t185.5 203.5t124 277t47 298q0 223 -69 332t-230 109q-113 0 -222 -79t-186 -202t-124.5 -276.5t-47.5 -298.5zM1237 1772q-29 -116 -108.5 -189.5t-170.5 -73.5q-90 0 -133 73.5t-14 189.5h45q-19 -76 23.5 -117t105.5 -41q61 0 124 41t83 117h45z" />
    <glyph glyph-name="obreve" unicode="&#x14f;" horiz-adv-x="790" 
d="M537 946q45 0 79.5 -13t66 -45.5t48.5 -97.5t17 -159q0 -108 -33.5 -212.5t-87.5 -184t-118.5 -141t-129.5 -94t-119 -32.5q-112 0 -164.5 75t-52.5 234q0 137 49.5 265t124.5 214.5t160.5 138.5t159.5 52zM532 860q-61 0 -127 -85t-114 -201t-79.5 -232.5t-31.5 -183.5
q0 -103 90 -103q66 0 132.5 90.5t111 213.5t72.5 241.5t28 183.5q0 76 -82 76zM827 1362q-28 -121 -107 -194.5t-169 -73.5q-92 0 -135.5 73t-14.5 195h48q-20 -81 21.5 -120.5t104.5 -39.5q39 0 79 14t77.5 52t50.5 94h45z" />
    <glyph glyph-name="Ohungarumlaut" unicode="&#x150;" horiz-adv-x="1431" 
d="M1432 887q0 -106 -30 -217t-83 -212t-128.5 -191.5t-163 -156.5t-191.5 -104.5t-209 -38.5q-230 0 -365 152t-135 405q0 127 42 260t118 250.5t174.5 211t221 148t247.5 54.5q241 0 371.5 -154.5t130.5 -406.5zM340 498q0 -216 77 -329.5t224 -113.5q113 0 221.5 79.5
t185.5 203.5t124 277t47 298q0 223 -69 332t-230 109q-113 0 -222 -79t-186 -202t-124.5 -276.5t-47.5 -298.5zM1106 1741l-342 -258l-33 12l266 289q31 35 97 35q24 0 35 -10t6 -25q-2 -16 -29 -43zM1366 1741l-340 -258l-33 12l267 289q27 35 94 35q25 0 36.5 -9.5
t6.5 -25.5q-2 -17 -31 -43z" />
    <glyph glyph-name="ohungarumlaut" unicode="&#x151;" horiz-adv-x="790" 
d="M537 946q45 0 79.5 -13t66 -45.5t48.5 -97.5t17 -159q0 -108 -33.5 -212.5t-87.5 -184t-118.5 -141t-129.5 -94t-119 -32.5q-112 0 -164.5 75t-52.5 234q0 137 49.5 265t124.5 214.5t160.5 138.5t159.5 52zM532 860q-61 0 -127 -85t-114 -201t-79.5 -232.5t-31.5 -183.5
q0 -103 90 -103q66 0 132.5 90.5t111 213.5t72.5 241.5t28 183.5q0 76 -82 76zM985 1354l-352 -326l-33 19l283 360q29 41 96 41q24 0 36 -11t9 -30q-8 -18 -39 -53zM735 1354l-350 -326l-33 19l281 360q32 41 96 41q26 0 37 -11t8 -30q-7 -21 -39 -53z" />
    <glyph glyph-name="OE" unicode="&#x152;" horiz-adv-x="2043" 
d="M813 0q-97 -33 -186 -33q-230 0 -365 152t-135 405q0 127 42 260t118 250.5t174.5 211t221 148t247.5 54.5q110 0 200 -35q71 0 186.5 0.5t231.5 1.5t221 2t173 1.5t69 0.5q17 0 26 -6t10 -11.5t1 -15.5q0 -18 -12 -80t-21 -147q-3 -22 -53 -22q0 34 -2.5 54.5t-13 43.5
t-29.5 35.5t-54.5 26t-85.5 20t-125.5 12t-171.5 7t-225 1.5q87 -73 132 -188.5t45 -261.5q0 -55 -11 -117q93 2 144.5 4t97.5 6t65 8t36 15t22.5 21t13.5 30l23 72q53 0 53 -21q0 -17 -6 -46t-15.5 -68t-13.5 -62q-8 -38 -18.5 -98.5t-14.5 -79.5q-5 -23 -65 -23l6 64
q2 28 -1.5 41.5t-18.5 27t-55 18.5t-101.5 9t-167.5 6q-42 -182 -155.5 -347t-268.5 -265q146 2 247.5 5t192.5 9.5t149 13.5t108.5 20t79 27.5t54 38t40 48t30.5 61.5q45 0 45 -29q0 -19 -12 -62t-30.5 -99t-22.5 -70q-6 -22 -20.5 -35.5t-31.5 -13.5q-15 0 -209.5 1
t-431.5 2t-356 1zM340 498q0 -216 77 -329.5t224 -113.5q113 0 221.5 79.5t185.5 203.5t124 277t47 298q0 223 -69 332t-230 109q-113 0 -222 -79t-186 -202t-124.5 -276.5t-47.5 -298.5z" />
    <glyph glyph-name="oe" unicode="&#x153;" horiz-adv-x="1212" 
d="M502 90q-61 -58 -125 -90.5t-117 -32.5q-112 0 -164.5 75t-52.5 234q0 137 49.5 265t124.5 214.5t160.5 138.5t159.5 52q75 0 127 -40.5t73 -145.5q88 87 184.5 136.5t188.5 49.5q129 0 129 -115q0 -104 -78.5 -184t-201 -120.5t-267.5 -43.5q-49 -112 -49 -219
q0 -83 32.5 -114t100.5 -31q60 0 134 44t139 120q6 6 12 6q11 0 22 -11.5t11 -23.5q0 -11 -16 -41t-51 -72.5t-81 -81t-115.5 -65.5t-144.5 -27q-134 0 -184 123zM532 860q-61 0 -127 -85t-114 -201t-79.5 -232.5t-31.5 -183.5q0 -103 90 -103q66 0 132.5 90.5t111 213.5
t72.5 241.5t28 183.5q0 76 -82 76zM713 535q164 33 296 129.5t132 162.5q0 33 -41 33q-75 0 -196.5 -95t-190.5 -230z" />
    <glyph glyph-name="Racute" unicode="&#x154;" horiz-adv-x="1310" 
d="M504 698q273 1 389.5 95t116.5 305q0 122 -86.5 180.5t-259.5 58.5zM0 0v63h121q27 0 35 35l305 1217q7 33 -19 33h-120v65h432q236 0 352.5 -93.5t116.5 -250.5q0 -162 -116.5 -270t-299.5 -140q88 -177 237 -391q64 -92 135 -148.5t111 -56.5q0 -63 -22 -63h-232
q-34 0 -110 101.5t-157.5 244.5t-150.5 287q-90 -4 -131 -4l-133 -531q-8 -35 15 -35h151v-63h-520zM1053 1724l-402 -258l-41 13l308 288q39 35 118 35q29 0 44 -10t10 -25q-2 -15 -37 -43z" />
    <glyph glyph-name="racute" unicode="&#x155;" horiz-adv-x="808" 
d="M344 436l21 -6q143 285 238.5 400.5t184.5 115.5q111 0 111 -129q0 -58 -30 -96.5t-72 -38.5q-30 0 -45 15.5t-17 33.5t-10 33.5t-27 15.5q-51 0 -200.5 -241t-259.5 -494q-5 -12 -12 -29t-9.5 -23.5t-7.5 -14t-10.5 -9.5t-14.5 -2q-26 0 -52 12.5t-26 36.5q0 22 66 224
q52 158 95.5 315.5t43.5 196.5q0 28 -26 28q-28 0 -97.5 -58t-97.5 -99q-7 -7 -14 -7q-9 0 -20 9t-11 18q0 27 63 100t150.5 138t142.5 65q70 0 70 -80q0 -103 -127 -430zM934 1354l-412 -326l-41 19l326 360q32 41 115 41q30 0 44 -11t11 -30q-9 -27 -43 -53z" />
    <glyph glyph-name="Rcommaaccent" unicode="&#x156;" horiz-adv-x="1310" 
d="M504 698q273 1 389.5 95t116.5 305q0 122 -86.5 180.5t-259.5 58.5zM0 0v63h121q27 0 35 35l305 1217q7 33 -19 33h-120v65h432q236 0 352.5 -93.5t116.5 -250.5q0 -162 -116.5 -270t-299.5 -140q88 -177 237 -391q64 -92 135 -148.5t111 -56.5q0 -63 -22 -63h-232
q-34 0 -110 101.5t-157.5 244.5t-150.5 287q-90 -4 -131 -4l-133 -531q-8 -35 15 -35h151v-63h-520zM377 -582q-10 3 -10 29q0 19 16 29q87 8 148 58.5t61 119.5q0 26 -13.5 40.5t-33.5 14.5q-37 0 -57.5 17t-20.5 49q0 40 38 82.5t87 42.5q53 0 88 -39t35 -101
q0 -33 -9 -70.5t-33.5 -82t-61 -81.5t-97.5 -67t-137 -41z" />
    <glyph glyph-name="rcommaaccent" unicode="&#x157;" horiz-adv-x="808" 
d="M344 436l21 -6q143 285 238.5 400.5t184.5 115.5q111 0 111 -129q0 -58 -30 -96.5t-72 -38.5q-30 0 -45 15.5t-17 33.5t-10 33.5t-27 15.5q-51 0 -200.5 -241t-259.5 -494q-5 -12 -12 -29t-9.5 -23.5t-7.5 -14t-10.5 -9.5t-14.5 -2q-26 0 -52 12.5t-26 36.5q0 22 66 224
q52 158 95.5 315.5t43.5 196.5q0 28 -26 28q-28 0 -97.5 -58t-97.5 -99q-7 -7 -14 -7q-9 0 -20 9t-11 18q0 27 63 100t150.5 138t142.5 65q70 0 70 -80q0 -103 -127 -430zM-106 -582q-11 4 -11 29q0 19 17 29q87 8 148 58.5t61 119.5q0 26 -14 40.5t-34 14.5q-77 0 -77 66
q0 40 38 82.5t87 42.5q53 0 87.5 -39t34.5 -101q0 -33 -9 -70.5t-33.5 -82t-60.5 -81.5t-97 -67t-137 -41z" />
    <glyph glyph-name="Rcaron" unicode="&#x158;" horiz-adv-x="1310" 
d="M504 698q273 1 389.5 95t116.5 305q0 122 -86.5 180.5t-259.5 58.5zM0 0v63h121q27 0 35 35l305 1217q7 33 -19 33h-120v65h432q236 0 352.5 -93.5t116.5 -250.5q0 -162 -116.5 -270t-299.5 -140q88 -177 237 -391q64 -92 135 -148.5t111 -56.5q0 -63 -22 -63h-232
q-34 0 -110 101.5t-157.5 244.5t-150.5 287q-90 -4 -131 -4l-133 -531q-8 -35 15 -35h151v-63h-520zM813 1614l272 182l27 -20l-291 -287q-22 -19 -45 -19q-32 0 -35 19l-155 287l41 20z" />
    <glyph glyph-name="rcaron" unicode="&#x159;" horiz-adv-x="808" 
d="M344 436l21 -6q143 285 238.5 400.5t184.5 115.5q111 0 111 -129q0 -58 -30 -96.5t-72 -38.5q-30 0 -45 15.5t-17 33.5t-10 33.5t-27 15.5q-51 0 -200.5 -241t-259.5 -494q-5 -12 -12 -29t-9.5 -23.5t-7.5 -14t-10.5 -9.5t-14.5 -2q-26 0 -52 12.5t-26 36.5q0 22 66 224
q52 158 95.5 315.5t43.5 196.5q0 28 -26 28q-28 0 -97.5 -58t-97.5 -99q-7 -7 -14 -7q-9 0 -20 9t-11 18q0 27 63 100t150.5 138t142.5 65q70 0 70 -80q0 -103 -127 -430zM618 1221l281 225l33 -19l-316 -364q-20 -23 -43 -23q-27 0 -34 23l-138 364l41 19z" />
    <glyph glyph-name="Sacute" unicode="&#x15a;" horiz-adv-x="972" 
d="M1030 1303l-18 -218q-6 -32 -58 -32q-36 297 -258 297q-102 0 -165.5 -62.5t-63.5 -163.5q0 -66 37 -136.5t137 -172.5q145 -146 192.5 -233t47.5 -205q0 -74 -31.5 -145.5t-90 -131.5t-153 -96.5t-209.5 -36.5q-81 0 -148.5 13.5t-110 35t-71 49t-39.5 53.5t-8 50
l27 190q3 31 59 31q23 -161 99 -242t198 -81q125 0 204 75t79 201q0 74 -35.5 141t-128.5 158q-138 134 -187.5 220t-49.5 194q0 110 58 201t155 141.5t211 50.5q84 0 150.5 -15.5t102 -39t53 -47t15.5 -43.5zM1020 1735l-402 -258l-40 12l307 289q38 34 119 34
q29 0 43.5 -9.5t9.5 -24.5q-2 -15 -37 -43z" />
    <glyph glyph-name="sacute" unicode="&#x15b;" horiz-adv-x="571" 
d="M440 262q0 -142 -86 -218.5t-217 -76.5q-88 0 -144 40.5t-56 113.5q0 84 81 84q26 0 42.5 -15t25.5 -37t19.5 -44t32.5 -37t57 -15q94 0 94 121q0 54 -17 116t-37.5 110t-37.5 111.5t-17 119.5q0 77 26 138.5t67.5 98t89 55.5t94.5 19q77 0 118 -34.5t41 -94.5
q0 -82 -81 -82q-28 0 -46 16.5t-26.5 37t-29 37t-52.5 16.5q-31 0 -49.5 -22.5t-18.5 -57.5q0 -48 20 -109t43.5 -112.5t43.5 -127.5t20 -151zM788 1354l-411 -326l-41 19l326 360q32 41 114 41q30 0 44 -11t11 -30q-9 -27 -43 -53z" />
    <glyph glyph-name="Scircumflex" unicode="&#x15c;" horiz-adv-x="972" 
d="M1030 1303l-18 -218q-6 -32 -58 -32q-36 297 -258 297q-102 0 -165.5 -62.5t-63.5 -163.5q0 -66 37 -136.5t137 -172.5q145 -146 192.5 -233t47.5 -205q0 -74 -31.5 -145.5t-90 -131.5t-153 -96.5t-209.5 -36.5q-81 0 -148.5 13.5t-110 35t-71 49t-39.5 53.5t-8 50
l27 190q3 31 59 31q23 -161 99 -242t198 -81q125 0 204 75t79 201q0 74 -35.5 141t-128.5 158q-138 134 -187.5 220t-49.5 194q0 110 58 201t155 141.5t211 50.5q84 0 150.5 -15.5t102 -39t53 -47t15.5 -43.5zM768 1653l-272 -180l-29 18l293 287q20 20 43 20q32 0 35 -20
l155 -287l-41 -18z" />
    <glyph glyph-name="scircumflex" unicode="&#x15d;" horiz-adv-x="571" 
d="M440 262q0 -142 -86 -218.5t-217 -76.5q-88 0 -144 40.5t-56 113.5q0 84 81 84q26 0 42.5 -15t25.5 -37t19.5 -44t32.5 -37t57 -15q94 0 94 121q0 54 -17 116t-37.5 110t-37.5 111.5t-17 119.5q0 77 26 138.5t67.5 98t89 55.5t94.5 19q77 0 118 -34.5t41 -94.5
q0 -82 -81 -82q-28 0 -46 16.5t-26.5 37t-29 37t-52.5 16.5q-31 0 -49.5 -22.5t-18.5 -57.5q0 -48 20 -109t43.5 -112.5t43.5 -127.5t20 -151zM518 1268l-280 -226l-33 19l315 364q16 23 43 23q24 0 37 -23l135 -364l-41 -19z" />
    <glyph glyph-name="Scedilla" unicode="&#x15e;" horiz-adv-x="972" 
d="M303 -123q101 0 152 -39t51 -110q0 -67 -33 -118t-86 -78t-108.5 -39.5t-110.5 -12.5q-69 0 -105 23t-36 55q0 20 16 30q49 -22 123 -22q81 0 133.5 39t52.5 119q0 86 -106 86q-37 0 -76 -17q-20 0 -20 25q0 12 14 22l201 129q-92 3 -163.5 24t-110.5 51t-57 62.5
t-14 61.5l27 190q3 31 59 31q23 -161 99 -242t198 -81q125 0 204 75t79 201q0 74 -35.5 141t-128.5 158q-138 134 -187.5 220t-49.5 194q0 110 58 201t155 141.5t211 50.5q84 0 150.5 -15.5t102 -39t53 -47t15.5 -43.5l-18 -218q-6 -32 -58 -32q-36 297 -258 297
q-102 0 -165.5 -62.5t-63.5 -163.5q0 -66 37 -136.5t137 -172.5q145 -146 192.5 -233t47.5 -205q0 -69 -27.5 -136t-78.5 -125t-133 -97.5t-183 -49.5z" />
    <glyph glyph-name="scedilla" unicode="&#x15f;" horiz-adv-x="571" 
d="M70 -123q101 0 151.5 -39t50.5 -110q0 -67 -33 -118t-86 -78t-108.5 -39.5t-110.5 -12.5q-69 0 -105 23t-36 55q0 20 17 30q49 -22 122 -22q82 0 134.5 39t52.5 119q0 86 -107 86q-36 0 -75 -17q-21 0 -21 25q0 12 14 22l201 127q-86 2 -140 42.5t-54 111.5q0 84 81 84
q26 0 42.5 -15t25.5 -37t19.5 -44t32.5 -37t57 -15q94 0 94 121q0 54 -17 116t-37.5 110t-37.5 111.5t-17 119.5q0 77 26 138.5t67.5 98t89 55.5t94.5 19q77 0 118 -34.5t41 -94.5q0 -82 -81 -82q-28 0 -46 16.5t-26.5 37t-29 37t-52.5 16.5q-31 0 -49.5 -22.5t-18.5 -57.5
q0 -48 20 -109t43.5 -112.5t43.5 -127.5t20 -151q0 -108 -51.5 -178t-138.5 -98z" />
    <glyph glyph-name="Scaron" unicode="&#x160;" horiz-adv-x="972" 
d="M1030 1303l-18 -218q-6 -32 -58 -32q-36 297 -258 297q-102 0 -165.5 -62.5t-63.5 -163.5q0 -66 37 -136.5t137 -172.5q145 -146 192.5 -233t47.5 -205q0 -74 -31.5 -145.5t-90 -131.5t-153 -96.5t-209.5 -36.5q-81 0 -148.5 13.5t-110 35t-71 49t-39.5 53.5t-8 50
l27 190q3 31 59 31q23 -161 99 -242t198 -81q125 0 204 75t79 201q0 74 -35.5 141t-128.5 158q-138 134 -187.5 220t-49.5 194q0 110 58 201t155 141.5t211 50.5q84 0 150.5 -15.5t102 -39t53 -47t15.5 -43.5zM758 1634l272 183l27 -21l-291 -287q-21 -18 -45 -18
q-32 0 -35 18l-156 287l41 21z" />
    <glyph glyph-name="scaron" unicode="&#x161;" horiz-adv-x="571" 
d="M440 262q0 -142 -86 -218.5t-217 -76.5q-88 0 -144 40.5t-56 113.5q0 84 81 84q26 0 42.5 -15t25.5 -37t19.5 -44t32.5 -37t57 -15q94 0 94 121q0 54 -17 116t-37.5 110t-37.5 111.5t-17 119.5q0 77 26 138.5t67.5 98t89 55.5t94.5 19q77 0 118 -34.5t41 -94.5
q0 -82 -81 -82q-28 0 -46 16.5t-26.5 37t-29 37t-52.5 16.5q-31 0 -49.5 -22.5t-18.5 -57.5q0 -48 20 -109t43.5 -112.5t43.5 -127.5t20 -151zM506 1221l280 225l33 -19l-315 -364q-20 -23 -43 -23q-28 0 -35 23l-137 364l41 19z" />
    <glyph glyph-name="Tcommaaccent" unicode="&#x162;" horiz-adv-x="1179" 
d="M911 1337l-309 -1239q-8 -35 21 -35h153v-63h-540v63h137q27 0 35 35l307 1239q-94 -3 -158 -9t-120 -18.5t-92.5 -30.5t-68.5 -48t-54.5 -68t-45.5 -94q-39 0 -39 27q0 8 2.5 22t9 41t12.5 50.5t19 73.5t23 89q5 23 17 32t40 9h1153q35 0 35 -31q0 -24 -15.5 -119.5
t-19.5 -162.5q-3 -20 -15.5 -25.5t-35.5 -5.5q-7 51 -16 85t-22.5 64t-37 47.5t-53 31.5t-78.5 21.5t-104.5 11.5t-139.5 7zM258 -582q-10 3 -10 29q0 19 16 29q87 8 148 58.5t61 119.5q0 26 -13.5 40.5t-33.5 14.5q-37 0 -57.5 17t-20.5 49q0 40 38 82.5t87 42.5
q53 0 88 -39t35 -101q0 -33 -9 -70.5t-33.5 -82t-61 -81.5t-97.5 -67t-137 -41z" />
    <glyph glyph-name="tcommaaccent" unicode="&#x163;" horiz-adv-x="620" 
d="M256 178q0 -22 23 -22q32 0 100 63t141 164q3 6 12 6q7 0 19 -9.5t12 -19.5q0 -35 -77 -130.5t-178 -179t-156 -83.5q-68 0 -68 76q0 43 31.5 173t86.5 333t77 293h-125q-15 0 -15 24q0 34 17 37l143 10q25 116 63 254q4 19 41.5 34.5t71.5 15.5q57 0 57 -27
q0 -7 -12 -53.5t-31.5 -117.5t-25.5 -93l254 20q12 0 12 -39q0 -65 -18 -65h-273q-182 -602 -182 -664zM-43 -582q-10 3 -10 29q0 19 16 29q87 8 148 58.5t61 119.5q0 26 -13.5 40.5t-33.5 14.5q-37 0 -57.5 17t-20.5 49q0 40 38 82.5t87 42.5q53 0 88 -39t35 -101
q0 -33 -9 -70.5t-33.5 -82t-61 -81.5t-97.5 -67t-137 -41z" />
    <glyph glyph-name="Tcaron" unicode="&#x164;" horiz-adv-x="1179" 
d="M911 1337l-309 -1239q-8 -35 21 -35h153v-63h-540v63h137q27 0 35 35l307 1239q-94 -3 -158 -9t-120 -18.5t-92.5 -30.5t-68.5 -48t-54.5 -68t-45.5 -94q-39 0 -39 27q0 8 2.5 22t9 41t12.5 50.5t19 73.5t23 89q5 23 17 32t40 9h1153q35 0 35 -31q0 -24 -15.5 -119.5
t-19.5 -162.5q-3 -20 -15.5 -25.5t-35.5 -5.5q-7 51 -16 85t-22.5 64t-37 47.5t-53 31.5t-78.5 21.5t-104.5 11.5t-139.5 7zM866 1614l273 182l26 -20l-291 -287q-22 -19 -45 -19q-31 0 -34 19l-156 287l41 20z" />
    <glyph glyph-name="tcaron" unicode="&#x165;" horiz-adv-x="620" 
d="M256 178q0 -22 23 -22q32 0 100 63t141 164q3 6 12 6q7 0 19 -9.5t12 -19.5q0 -35 -77 -130.5t-178 -179t-156 -83.5q-68 0 -68 76q0 43 31.5 173t86.5 333t77 293h-125q-15 0 -15 24q0 34 17 37l143 10q25 116 63 254q4 19 41.5 34.5t71.5 15.5q57 0 57 -27
q0 -7 -12 -53.5t-31.5 -117.5t-25.5 -93l254 20q12 0 12 -39q0 -65 -18 -65h-273q-182 -602 -182 -664zM795 1589q5 10 30 10q93 0 136 -36q-116 -243 -256 -412q-12 -12 -35 -12q-10 0 -15 3t-2 9q113 269 142 438z" />
    <glyph glyph-name="Tbar" unicode="&#x166;" horiz-adv-x="1179" 
d="M319 674h230l166 663q-94 -3 -158 -9t-120 -18.5t-92.5 -30.5t-68.5 -48t-54.5 -68t-45.5 -94q-39 0 -39 27q0 8 2.5 22t9 41t12.5 50.5t19 73.5t23 89q5 23 17 32t40 9h1153q35 0 35 -31q0 -24 -15.5 -119.5t-19.5 -162.5q-3 -20 -15.5 -25.5t-35.5 -5.5q-7 51 -16 85
t-22.5 64t-37 47.5t-53 31.5t-78.5 21.5t-104.5 11.5t-139.5 7l-166 -663h224l-17 -80h-227l-123 -496q-8 -35 21 -35h153v-63h-540v63h137q27 0 35 35l120 496h-225z" />
    <glyph glyph-name="tbar" unicode="&#x167;" horiz-adv-x="620" 
d="M72 625h151q43 164 56 217h-125q-15 0 -15 24q0 34 17 37l143 10q25 116 63 254q4 19 41.5 34.5t71.5 15.5q57 0 57 -27q0 -7 -12 -53.5t-31.5 -117.5t-25.5 -93l254 20q12 0 12 -39q0 -65 -18 -65h-273l-65 -217h227l-18 -82h-232q-94 -321 -94 -365q0 -22 23 -22
q32 0 100 63t141 164q3 6 12 6q7 0 19 -9.5t12 -19.5q0 -35 -77 -130.5t-178 -179t-156 -83.5q-68 0 -68 76q0 66 117 500h-150z" />
    <glyph glyph-name="Utilde" unicode="&#x168;" horiz-adv-x="1583" 
d="M1438 1247q12 57 -2 79t-68 22h-88v65h467v-65h-61q-55 0 -79.5 -22t-37.5 -71l-189 -759q-33 -128 -106 -232.5t-168 -170.5t-202.5 -101t-215.5 -35t-198.5 33t-155.5 99.5t-85.5 168t11.5 238.5l205 819q4 18 -1 25.5t-20 7.5h-125v65h535v-65h-162q-22 0 -33 -33
l-202 -819q-26 -113 -16.5 -192.5t55.5 -130t111 -74t149 -23.5q170 0 305.5 107.5t187.5 312.5zM805 1524l-23 28q126 183 236 183q31 0 61 -15t50.5 -32.5t49 -32.5t56.5 -15q63 0 141 103l21 -29q-125 -180 -230 -180q-30 0 -58.5 14.5t-47.5 31.5t-48.5 31.5t-60.5 14.5
q-68 0 -147 -102z" />
    <glyph glyph-name="utilde" unicode="&#x169;" horiz-adv-x="1081" 
d="M813 637l-22 6q-121 -173 -222.5 -300t-169.5 -198t-126 -112.5t-92.5 -53.5t-67.5 -12q-36 0 -50 14.5t-14 49.5q0 55 42.5 168.5t94 220.5t94 205t42.5 125q0 12 -7 19t-16 7q-12 0 -25 -4t-28 -13.5t-26.5 -17.5t-29 -24t-26.5 -24.5t-28 -27t-25 -24.5q-8 -4 -13 -4
q-7 0 -14.5 9t-7.5 16q0 14 32.5 58.5t81 95.5t117.5 90.5t131 39.5q50 0 66 -17t16 -59q0 -47 -67.5 -196t-135 -299.5t-67.5 -202.5q0 -16 4.5 -22.5t17.5 -6.5q50 0 267 275q95 119 174.5 224t115.5 155.5t65 89t41.5 49t27.5 10.5q28 0 53.5 -13.5t25.5 -37.5
q0 -5 -143 -362.5t-143 -403.5q0 -27 24 -27q28 0 94.5 60t96.5 104q5 8 12 8q12 0 19.5 -8.5t7.5 -19.5q0 -18 -37.5 -64t-90 -94t-115 -84.5t-105.5 -36.5q-35 0 -51.5 15t-16.5 57q0 58 74 253t145 345zM424 1102l-23 31q132 200 261 200q34 0 67 -16t55.5 -35t54 -35
t62.5 -16q68 0 158 112l24 -28q-140 -201 -256 -201q-33 0 -64.5 15.5t-52.5 34.5t-54 34.5t-68 15.5q-74 0 -164 -112z" />
    <glyph glyph-name="Umacron" unicode="&#x16a;" horiz-adv-x="1583" 
d="M1438 1247q12 57 -2 79t-68 22h-88v65h467v-65h-61q-55 0 -79.5 -22t-37.5 -71l-189 -759q-33 -128 -106 -232.5t-168 -170.5t-202.5 -101t-215.5 -35t-198.5 33t-155.5 99.5t-85.5 168t11.5 238.5l205 819q4 18 -1 25.5t-20 7.5h-125v65h535v-65h-162q-22 0 -33 -33
l-202 -819q-26 -113 -16.5 -192.5t55.5 -130t111 -74t149 -23.5q170 0 305.5 107.5t187.5 312.5zM864 1694h506l-27 -107h-503z" />
    <glyph glyph-name="umacron" unicode="&#x16b;" horiz-adv-x="1081" 
d="M813 637l-22 6q-121 -173 -222.5 -300t-169.5 -198t-126 -112.5t-92.5 -53.5t-67.5 -12q-36 0 -50 14.5t-14 49.5q0 55 42.5 168.5t94 220.5t94 205t42.5 125q0 12 -7 19t-16 7q-12 0 -25 -4t-28 -13.5t-26.5 -17.5t-29 -24t-26.5 -24.5t-28 -27t-25 -24.5q-8 -4 -13 -4
q-7 0 -14.5 9t-7.5 16q0 14 32.5 58.5t81 95.5t117.5 90.5t131 39.5q50 0 66 -17t16 -59q0 -47 -67.5 -196t-135 -299.5t-67.5 -202.5q0 -16 4.5 -22.5t17.5 -6.5q50 0 267 275q95 119 174.5 224t115.5 155.5t65 89t41.5 49t27.5 10.5q28 0 53.5 -13.5t25.5 -37.5
q0 -5 -143 -362.5t-143 -403.5q0 -27 24 -27q28 0 94.5 60t96.5 104q5 8 12 8q12 0 19.5 -8.5t7.5 -19.5q0 -18 -37.5 -64t-90 -94t-115 -84.5t-105.5 -36.5q-35 0 -51.5 15t-16.5 57q0 58 74 253t145 345zM547 1270h504l-25 -107h-506z" />
    <glyph glyph-name="Ubreve" unicode="&#x16c;" horiz-adv-x="1583" 
d="M1438 1247q12 57 -2 79t-68 22h-88v65h467v-65h-61q-55 0 -79.5 -22t-37.5 -71l-189 -759q-33 -128 -106 -232.5t-168 -170.5t-202.5 -101t-215.5 -35t-198.5 33t-155.5 99.5t-85.5 168t11.5 238.5l205 819q4 18 -1 25.5t-20 7.5h-125v65h535v-65h-162q-22 0 -33 -33
l-202 -819q-26 -113 -16.5 -192.5t55.5 -130t111 -74t149 -23.5q170 0 305.5 107.5t187.5 312.5zM1348 1772q-29 -116 -108.5 -189.5t-170.5 -73.5q-90 0 -133 73.5t-14 189.5h45q-19 -76 23.5 -117t105.5 -41q61 0 124 41t83 117h45z" />
    <glyph glyph-name="ubreve" unicode="&#x16d;" horiz-adv-x="1081" 
d="M813 637l-22 6q-121 -173 -222.5 -300t-169.5 -198t-126 -112.5t-92.5 -53.5t-67.5 -12q-36 0 -50 14.5t-14 49.5q0 55 42.5 168.5t94 220.5t94 205t42.5 125q0 12 -7 19t-16 7q-12 0 -25 -4t-28 -13.5t-26.5 -17.5t-29 -24t-26.5 -24.5t-28 -27t-25 -24.5q-8 -4 -13 -4
q-7 0 -14.5 9t-7.5 16q0 14 32.5 58.5t81 95.5t117.5 90.5t131 39.5q50 0 66 -17t16 -59q0 -47 -67.5 -196t-135 -299.5t-67.5 -202.5q0 -16 4.5 -22.5t17.5 -6.5q50 0 267 275q95 119 174.5 224t115.5 155.5t65 89t41.5 49t27.5 10.5q28 0 53.5 -13.5t25.5 -37.5
q0 -5 -143 -362.5t-143 -403.5q0 -27 24 -27q28 0 94.5 60t96.5 104q5 8 12 8q12 0 19.5 -8.5t7.5 -19.5q0 -18 -37.5 -64t-90 -94t-115 -84.5t-105.5 -36.5q-35 0 -51.5 15t-16.5 57q0 58 74 253t145 345zM985 1362q-28 -121 -107 -194.5t-169 -73.5q-92 0 -135.5 73
t-14.5 195h47q-9 -45 -2.5 -75.5t28.5 -49t47.5 -27t53.5 -8.5q39 0 79 14t77.5 52t50.5 94h45z" />
    <glyph glyph-name="Uring" unicode="&#x16e;" horiz-adv-x="1583" 
d="M1438 1247q12 57 -2 79t-68 22h-88v65h467v-65h-61q-55 0 -79.5 -22t-37.5 -71l-189 -759q-33 -128 -106 -232.5t-168 -170.5t-202.5 -101t-215.5 -35t-198.5 33t-155.5 99.5t-85.5 168t11.5 238.5l205 819q4 18 -1 25.5t-20 7.5h-125v65h535v-65h-162q-22 0 -33 -33
l-202 -819q-26 -113 -16.5 -192.5t55.5 -130t111 -74t149 -23.5q170 0 305.5 107.5t187.5 312.5zM1120 1862q88 0 137 -59t27 -140q-20 -83 -97 -140t-165 -57t-136 57t-28 140q22 82 98.5 140.5t163.5 58.5zM1100 1776q-54 0 -100 -34t-58 -85q-12 -50 16 -84.5t82 -34.5
q53 0 99.5 35t58.5 84q12 51 -16.5 85t-81.5 34z" />
    <glyph glyph-name="uring" unicode="&#x16f;" horiz-adv-x="1081" 
d="M813 637l-22 6q-121 -173 -222.5 -300t-169.5 -198t-126 -112.5t-92.5 -53.5t-67.5 -12q-36 0 -50 14.5t-14 49.5q0 55 42.5 168.5t94 220.5t94 205t42.5 125q0 12 -7 19t-16 7q-12 0 -25 -4t-28 -13.5t-26.5 -17.5t-29 -24t-26.5 -24.5t-28 -27t-25 -24.5q-8 -4 -13 -4
q-7 0 -14.5 9t-7.5 16q0 14 32.5 58.5t81 95.5t117.5 90.5t131 39.5q50 0 66 -17t16 -59q0 -47 -67.5 -196t-135 -299.5t-67.5 -202.5q0 -16 4.5 -22.5t17.5 -6.5q50 0 267 275q95 119 174.5 224t115.5 155.5t65 89t41.5 49t27.5 10.5q28 0 53.5 -13.5t25.5 -37.5
q0 -5 -143 -362.5t-143 -403.5q0 -27 24 -27q28 0 94.5 60t96.5 104q5 8 12 8q12 0 19.5 -8.5t7.5 -19.5q0 -18 -37.5 -64t-90 -94t-115 -84.5t-105.5 -36.5q-35 0 -51.5 15t-16.5 57q0 58 74 253t145 345zM809 1485q88 0 136.5 -62t25.5 -149q-22 -88 -99 -149.5
t-165 -61.5t-136 62t-26 149q23 88 100 149.5t164 61.5zM788 1395q-54 0 -100 -36.5t-59 -90.5t15.5 -91.5t82.5 -37.5q53 0 99 37.5t59 91.5q13 53 -15.5 90t-81.5 37z" />
    <glyph glyph-name="Uhungarumlaut" unicode="&#x170;" horiz-adv-x="1583" 
d="M1438 1247q12 57 -2 79t-68 22h-88v65h467v-65h-61q-55 0 -79.5 -22t-37.5 -71l-189 -759q-33 -128 -106 -232.5t-168 -170.5t-202.5 -101t-215.5 -35t-198.5 33t-155.5 99.5t-85.5 168t11.5 238.5l205 819q4 18 -1 25.5t-20 7.5h-125v65h535v-65h-162q-22 0 -33 -33
l-202 -819q-26 -113 -16.5 -192.5t55.5 -130t111 -74t149 -23.5q170 0 305.5 107.5t187.5 312.5zM1196 1724l-342 -258l-33 13l266 288q31 35 97 35q24 0 35 -10t6 -25q-2 -16 -29 -43zM1456 1724l-340 -258l-33 13l267 288q27 35 94 35q25 0 36.5 -9.5t6.5 -25.5
q-2 -17 -31 -43z" />
    <glyph glyph-name="uhungarumlaut" unicode="&#x171;" horiz-adv-x="1081" 
d="M813 637l-22 6q-121 -173 -222.5 -300t-169.5 -198t-126 -112.5t-92.5 -53.5t-67.5 -12q-36 0 -50 14.5t-14 49.5q0 55 42.5 168.5t94 220.5t94 205t42.5 125q0 12 -7 19t-16 7q-12 0 -25 -4t-28 -13.5t-26.5 -17.5t-29 -24t-26.5 -24.5t-28 -27t-25 -24.5q-8 -4 -13 -4
q-7 0 -14.5 9t-7.5 16q0 14 32.5 58.5t81 95.5t117.5 90.5t131 39.5q50 0 66 -17t16 -59q0 -47 -67.5 -196t-135 -299.5t-67.5 -202.5q0 -16 4.5 -22.5t17.5 -6.5q50 0 267 275q95 119 174.5 224t115.5 155.5t65 89t41.5 49t27.5 10.5q28 0 53.5 -13.5t25.5 -37.5
q0 -5 -143 -362.5t-143 -403.5q0 -27 24 -27q28 0 94.5 60t96.5 104q5 8 12 8q12 0 19.5 -8.5t7.5 -19.5q0 -18 -37.5 -64t-90 -94t-115 -84.5t-105.5 -36.5q-35 0 -51.5 15t-16.5 57q0 58 74 253t145 345zM1126 1354l-352 -326l-33 19l283 360q29 41 96 41q24 0 36 -11
t9 -30q-8 -18 -39 -53zM877 1354l-351 -326l-32 19l280 360q32 41 96 41q26 0 37 -11t8 -30q-8 -23 -38 -53z" />
    <glyph glyph-name="Uogonek" unicode="&#x172;" horiz-adv-x="1583" 
d="M1438 1247q12 57 -2 79t-68 22h-88v65h467v-65h-61q-55 0 -79.5 -22t-37.5 -71l-189 -759q-56 -215 -211 -352.5t-350 -174.5q-106 -45 -179 -118.5t-73 -155.5q0 -86 111 -86q45 0 102 16q8 -3 8 -14q0 -13 -10.5 -28.5t-32 -31t-60.5 -26t-89 -10.5q-86 0 -128 33
t-42 87q0 102 82.5 186.5t198.5 135.5h-19q-108 0 -198.5 33t-155.5 99.5t-85.5 168t11.5 238.5l205 819q4 18 -1 25.5t-20 7.5h-125v65h535v-65h-162q-22 0 -33 -33l-202 -819q-26 -113 -16.5 -192.5t55.5 -130t111 -74t149 -23.5q170 0 305.5 107.5t187.5 312.5z" />
    <glyph glyph-name="uogonek" unicode="&#x173;" horiz-adv-x="1081" 
d="M813 637l-22 6q-121 -173 -222.5 -300t-169.5 -198t-126 -112.5t-92.5 -53.5t-67.5 -12q-36 0 -50 14.5t-14 49.5q0 55 42.5 168.5t94 220.5t94 205t42.5 125q0 12 -7 19t-16 7q-12 0 -25 -4t-28 -13.5t-26.5 -17.5t-29 -24t-26.5 -24.5t-28 -27t-25 -24.5q-8 -4 -13 -4
q-7 0 -14.5 9t-7.5 16q0 14 32.5 58.5t81 95.5t117.5 90.5t131 39.5q50 0 66 -17t16 -59q0 -47 -67.5 -196t-135 -299.5t-67.5 -202.5q0 -16 4.5 -22.5t17.5 -6.5q50 0 267 275q95 119 174.5 224t115.5 155.5t65 89t41.5 49t27.5 10.5q28 0 53.5 -13.5t25.5 -37.5
q0 -5 -143 -362.5t-143 -403.5q0 -27 24 -27q28 0 94.5 60t96.5 104q5 8 12 8q12 0 19.5 -8.5t7.5 -19.5q0 -24 -54 -85t-133.5 -119.5t-138.5 -70.5q-92 -48 -150.5 -115t-58.5 -141q0 -86 111 -86q41 0 102 17q8 -3 8 -15q0 -13 -10.5 -28.5t-32 -31t-60.5 -26t-89 -10.5
q-86 0 -128 33t-42 88q0 102 82 186t198 135q-20 14 -20 62q0 58 74 253t145 345z" />
    <glyph glyph-name="Wcircumflex" unicode="&#x174;" horiz-adv-x="1849" 
d="M1090 805l77 -586l660 1045q27 44 21 64t-38 20h-94v65h426v-65h-61q-36 0 -78 -62q-172 -236 -436.5 -626.5t-452.5 -690.5h-115q0 124 -59 623q-238 -345 -410 -623h-114q-10 144 -77 664.5t-95 679.5q-10 35 -31 35h-74v65h482v-65h-117q-17 0 -30 -16t-9 -50
l119 -1063l338 498q-53 412 -84 596q-3 15 -12 25t-19 10h-84v65h852v-65h-55q-23 0 -41.5 -14.5t-42.5 -47.5q-250 -344 -346 -481zM1067 928l227 336q28 44 22 64t-38 20h-219q-18 0 -31.5 -16t-9.5 -50zM1180 1653l-273 -180l-28 18l292 287q20 20 43 20q32 0 35 -20
l156 -287l-41 -18z" />
    <glyph glyph-name="wcircumflex" unicode="&#x175;" horiz-adv-x="1380" 
d="M512 846q0 -61 -35.5 -160.5t-78 -187.5t-78 -176.5t-35.5 -128.5q0 -33 21 -52.5t65 -19.5q48 0 98 19t129 63q-16 72 -16 137q0 97 22.5 197.5t63 184.5t103 137.5t134.5 53.5q53 0 83 -41t30 -114q0 -113 -76.5 -258.5t-218.5 -270.5q29 -53 75.5 -82.5t100.5 -29.5
q99 0 174.5 64.5t113.5 167.5t38 226q0 58 -15 103t-33.5 68.5t-33.5 52.5t-15 57q0 40 24 65t60 25q121 0 121 -258q0 -185 -61.5 -350t-172 -268t-241.5 -103q-86 0 -145 50.5t-90 127.5q-210 -178 -357 -178q-71 0 -110 41t-39 117q0 48 32.5 141t72 180t72 177.5
t32.5 134.5q0 19 -6 26t-19 7q-30 0 -90 -47t-119 -109q-4 -4 -10 -4q-10 0 -17.5 9t-7.5 17q0 10 21 42t59 73.5t83 80.5t100.5 66t103.5 27q41 0 64.5 -26.5t23.5 -73.5zM698 291q87 102 140 208.5t53 188.5q0 41 -11 57.5t-44 16.5q-42 0 -79 -46.5t-59 -121.5t-22 -156
q0 -82 22 -147zM909 1268l-280 -226l-33 19l315 364q16 23 43 23q24 0 37 -23l135 -364l-41 -19z" />
    <glyph glyph-name="Ycircumflex" unicode="&#x176;" horiz-adv-x="1284" 
d="M799 725l-158 -627q-6 -35 16 -35h127v-63h-501v63h127q26 0 32 35l150 588l-342 606q-16 27 -36 41.5t-34 14.5h-74v65h498v-65h-115q-10 0 -17.5 -6.5t-7.5 -22.5t13 -37l275 -489q339 300 510 471q36 38 30 61t-43 23h-61v65h434v-65h-43q-60 0 -135 -62
q-101 -83 -208.5 -176t-239 -210t-197.5 -175zM922 1653l-273 -180l-28 18l292 287q20 20 43 20q32 0 35 -20l156 -287l-41 -18z" />
    <glyph glyph-name="ycircumflex" unicode="&#x177;" horiz-adv-x="901" 
d="M-328 -377q0 46 27.5 77.5t71.5 31.5q36 0 56 -17.5t28 -42.5t16.5 -50t31.5 -42.5t64 -17.5q150 0 303 166q154 164 154 450q0 156 -25 291.5t-73.5 220t-108.5 84.5q-51 0 -70.5 -60.5t-19.5 -183.5q0 -16 -23 -16q-27 0 -38 29.5t-11 111.5q0 120 56.5 205.5
t146.5 85.5q62 0 116 -42.5t97 -126.5t67.5 -223.5t24.5 -320.5q0 -120 -20 -198l16 -2q148 294 148 622q0 42 -9.5 109.5t-9.5 93.5q0 39 18.5 63.5t53.5 24.5q41 0 58.5 -29t17.5 -90q0 -327 -102.5 -595.5t-276.5 -467.5q-132 -150 -277.5 -227.5t-267.5 -77.5t-181 44.5
t-59 119.5zM541 1268l-281 -226l-33 19l316 364q16 23 43 23q24 0 37 -23l135 -364l-41 -19z" />
    <glyph glyph-name="Ydieresis" unicode="&#x178;" horiz-adv-x="1284" 
d="M799 725l-158 -627q-6 -35 16 -35h127v-63h-501v63h127q26 0 32 35l150 588l-342 606q-16 27 -36 41.5t-34 14.5h-74v65h498v-65h-115q-10 0 -17.5 -6.5t-7.5 -22.5t13 -37l275 -489q339 300 510 471q36 38 30 61t-43 23h-61v65h434v-65h-43q-60 0 -135 -62
q-101 -83 -208.5 -176t-239 -210t-197.5 -175zM762 1702q37 0 57.5 -27t11.5 -65q-11 -36 -43.5 -61t-68.5 -25t-56.5 25.5t-11.5 60.5q9 38 41.5 65t69.5 27zM1104 1702q38 0 58.5 -27t11.5 -65q-9 -35 -42 -60.5t-71 -25.5q-36 0 -57 25.5t-11 60.5q9 38 42 65t69 27z" />
    <glyph glyph-name="Zacute" unicode="&#x179;" horiz-adv-x="1353" 
d="M1249 334q0 -34 -50 -147t-58 -142q-4 -21 -19.5 -34t-34.5 -13q-14 0 -235.5 0.5t-497.5 1t-422 0.5l-6 37l1266 1282q-137 0 -232 -1.5t-179.5 -8.5t-137 -13.5t-101.5 -24t-76 -33t-58 -48t-50.5 -60t-50.5 -77.5q-41 0 -41 26q0 19 51.5 138t59.5 153q4 19 19.5 32
t31.5 13q7 0 474.5 -1t598.5 -1l8 -39l-1261 -1280q202 0 327 2.5t228 17t154 27t103 50.5t77 69.5t73 101.5q39 0 39 -28zM1262 1724l-402 -258l-41 13l307 288q39 35 119 35q29 0 43.5 -10t9.5 -25q-2 -16 -36 -43z" />
    <glyph glyph-name="zacute" unicode="&#x17a;" horiz-adv-x="792" 
d="M152 172q283 347 499 551q-81 0 -209.5 31.5t-181.5 31.5q-43 0 -65.5 -20t-22.5 -53q0 -30 23 -47t65 -17q55 0 55 -57q0 -29 -18 -48.5t-49 -19.5q-70 0 -111 44.5t-41 129.5q0 104 65.5 176t178.5 72q66 0 127 -24t98.5 -52.5t77.5 -52.5t70 -24q1 79 34 116t84 37
q48 0 70.5 -25.5t22.5 -66.5q0 -46 -44.5 -79.5t-131.5 -43.5q-130 -169 -266.5 -316t-239.5 -237q180 0 247 -328q36 -166 65.5 -221t84.5 -55q57 0 57 53q0 16 -8 28t-17.5 18.5t-17.5 22t-8 38.5q0 32 23 54t55 22q98 0 98 -119q0 -90 -60.5 -140.5t-158.5 -50.5
q-128 0 -192.5 73t-79.5 247q-14 174 -41 231.5t-101 57.5q-13 -73 -54.5 -107.5t-94.5 -34.5q-80 0 -80 74q0 55 54 93t139 38zM903 1354l-411 -326l-41 19l325 360q32 41 115 41q30 0 44 -11t11 -30q-9 -27 -43 -53z" />
    <glyph glyph-name="Zdotaccent" unicode="&#x17b;" horiz-adv-x="1353" 
d="M1249 334q0 -34 -50 -147t-58 -142q-4 -21 -19.5 -34t-34.5 -13q-14 0 -235.5 0.5t-497.5 1t-422 0.5l-6 37l1266 1282q-137 0 -232 -1.5t-179.5 -8.5t-137 -13.5t-101.5 -24t-76 -33t-58 -48t-50.5 -60t-50.5 -77.5q-41 0 -41 26q0 19 51.5 138t59.5 153q4 19 19.5 32
t31.5 13q7 0 474.5 -1t598.5 -1l8 -39l-1261 -1280q202 0 327 2.5t228 17t154 27t103 50.5t77 69.5t73 101.5q39 0 39 -28zM967 1735q45 0 69.5 -32t12.5 -77q-10 -42 -50.5 -72t-85.5 -30q-42 0 -65.5 30t-13.5 72q10 45 50.5 77t82.5 32z" />
    <glyph glyph-name="zdotaccent" unicode="&#x17c;" horiz-adv-x="792" 
d="M152 172q283 347 499 551q-81 0 -209.5 31.5t-181.5 31.5q-43 0 -65.5 -20t-22.5 -53q0 -30 23 -47t65 -17q55 0 55 -57q0 -29 -18 -48.5t-49 -19.5q-70 0 -111 44.5t-41 129.5q0 104 65.5 176t178.5 72q66 0 127 -24t98.5 -52.5t77.5 -52.5t70 -24q1 79 34 116t84 37
q48 0 70.5 -25.5t22.5 -66.5q0 -46 -44.5 -79.5t-131.5 -43.5q-130 -169 -266.5 -316t-239.5 -237q180 0 247 -328q36 -166 65.5 -221t84.5 -55q57 0 57 53q0 16 -8 28t-17.5 18.5t-17.5 22t-8 38.5q0 32 23 54t55 22q98 0 98 -119q0 -90 -60.5 -140.5t-158.5 -50.5
q-128 0 -192.5 73t-79.5 247q-14 174 -41 231.5t-101 57.5q-13 -73 -54.5 -107.5t-94.5 -34.5q-80 0 -80 74q0 55 54 93t139 38zM641 1378q42 0 64.5 -31t11.5 -73q-11 -43 -50 -76t-81 -33q-44 0 -68.5 33t-13.5 76q11 41 52 72.5t85 31.5z" />
    <glyph glyph-name="Zcaron" unicode="&#x17d;" horiz-adv-x="1353" 
d="M1249 334q0 -34 -50 -147t-58 -142q-4 -21 -19.5 -34t-34.5 -13q-14 0 -235.5 0.5t-497.5 1t-422 0.5l-6 37l1266 1282q-137 0 -232 -1.5t-179.5 -8.5t-137 -13.5t-101.5 -24t-76 -33t-58 -48t-50.5 -60t-50.5 -77.5q-41 0 -41 26q0 19 51.5 138t59.5 153q4 19 19.5 32
t31.5 13q7 0 474.5 -1t598.5 -1l8 -39l-1261 -1280q202 0 327 2.5t228 17t154 27t103 50.5t77 69.5t73 101.5q39 0 39 -28zM977 1614l272 182l27 -20l-291 -287q-22 -19 -45 -19q-32 0 -35 19l-155 287l41 20z" />
    <glyph glyph-name="zcaron" unicode="&#x17e;" horiz-adv-x="792" 
d="M152 172q283 347 499 551q-81 0 -209.5 31.5t-181.5 31.5q-43 0 -65.5 -20t-22.5 -53q0 -30 23 -47t65 -17q55 0 55 -57q0 -29 -18 -48.5t-49 -19.5q-70 0 -111 44.5t-41 129.5q0 104 65.5 176t178.5 72q66 0 127 -24t98.5 -52.5t77.5 -52.5t70 -24q1 79 34 116t84 37
q48 0 70.5 -25.5t22.5 -66.5q0 -46 -44.5 -79.5t-131.5 -43.5q-130 -169 -266.5 -316t-239.5 -237q180 0 247 -328q36 -166 65.5 -221t84.5 -55q57 0 57 53q0 16 -8 28t-17.5 18.5t-17.5 22t-8 38.5q0 32 23 54t55 22q98 0 98 -119q0 -90 -60.5 -140.5t-158.5 -50.5
q-128 0 -192.5 73t-79.5 247q-14 174 -41 231.5t-101 57.5q-13 -73 -54.5 -107.5t-94.5 -34.5q-80 0 -80 74q0 55 54 93t139 38zM588 1221l280 225l33 -19l-315 -364q-20 -23 -43 -23q-28 0 -35 23l-137 364l41 19z" />
    <glyph glyph-name="longs" unicode="&#x17f;" horiz-adv-x="454" 
d="M430 934q-10 -34 -51.5 -208.5t-90.5 -385.5t-63 -270q-33 -137 -78.5 -245.5t-105.5 -192t-139 -128.5t-172 -45q-144 0 -144 107q0 37 21.5 58.5t54.5 21.5q32 0 48 -17.5t18.5 -39t15 -39t39.5 -17.5q34 0 67 25.5t61.5 74t52.5 102t47 127t39 130t34 129.5
q44 175 110.5 480t69.5 317q78 329 209.5 476.5t351.5 147.5q125 0 188.5 -44t63.5 -114q0 -40 -26 -69t-66 -29q-37 0 -57 16.5t-27.5 40.5l-15 48t-26.5 40.5t-54 16.5q-127 0 -213 -122t-162 -392z" />
    <glyph glyph-name="florin" unicode="&#x192;" horiz-adv-x="540" 
d="M250 842h-129q-15 0 -15 24q0 34 17 37l147 15q25 112 56.5 201t79 170t106.5 135t141 86t181 32q221 0 221 -158q0 -39 -25 -66.5t-65 -27.5t-58 26t-20 57t-17.5 57t-50.5 26q-133 0 -223 -125t-166 -397l256 12q10 0 10 -39q0 -65 -16 -65h-272q-36 -154 -199 -768
q-29 -111 -62.5 -200t-78 -167.5t-95.5 -131t-116 -82.5t-140 -30q-143 0 -143 107q0 37 21.5 58.5t54.5 21.5q32 0 48 -17.5t18.5 -39t15 -39t39.5 -17.5q34 0 66.5 25t60.5 75t50.5 101t46 127.5t38 129.5t33.5 130q29 114 71.5 280.5t70.5 276.5t42 160z" />
    <glyph glyph-name="gacute" unicode="&#x1f5;" horiz-adv-x="821" 
d="M203 -20q-128 -52 -189 -110t-61 -126q0 -95 86.5 -147t208.5 -52q100 0 166.5 40t66.5 114q0 41 -21 75.5t-77 75.5q-49 36 -104 75t-76 55zM162 6q-111 79 -111 156q0 17 14 31.5t42 25.5t53 18.5t63 17t56 15.5q-132 54 -132 219q0 114 51 219t142 171.5t197 66.5
q85 0 133 -39l225 33q7 1 12.5 -8.5t8 -21.5t2.5 -25q0 -23 -7.5 -45t-19.5 -23l-180 -6q22 -46 22 -131q0 -167 -91.5 -280.5t-260.5 -149.5q-84 -19 -113.5 -39.5t-29.5 -46.5q0 -24 38.5 -59t147.5 -101q136 -85 179.5 -144.5t43.5 -133.5q0 -88 -59 -150t-146 -89.5
t-190 -27.5q-111 0 -212 30t-168 89.5t-67 136.5q0 98 86 165t271 126zM535 877q-44 0 -91.5 -59t-80.5 -139t-54.5 -157t-21.5 -116q0 -51 14 -71t49 -20q58 0 118 97t95 210.5t35 180.5q0 43 -14 58.5t-49 15.5zM842 1354l-412 -326l-41 19l326 360q32 41 114 41
q30 0 44.5 -11t11.5 -30q-9 -27 -43 -53z" />
    <glyph glyph-name="AEacute" unicode="&#x1fc;" horiz-adv-x="1955" 
d="M1208 1188l-583 -590h434zM1239 1341q-7 7 -16 7h-121v65q60 0 165.5 0.5t214.5 1.5t208 2t164.5 1.5t66.5 0.5q18 0 27 -6t10.5 -11.5t1.5 -15.5q0 -17 -13 -79t-22 -148q-3 -22 -53 -22q0 34 -1.5 54t-8.5 42t-18 33.5t-34.5 24t-52.5 17.5t-77 10.5t-103.5 7.5
t-136.5 3l-144 -559q156 3 221 5.5t114 13t58.5 23t20.5 42.5l25 72q53 0 53 -21q0 -17 -6.5 -46t-16.5 -67.5t-14 -62.5q-29 -162 -33 -178q-5 -23 -65 -23l6 64q-1 12 1 22.5t-2 19t-7.5 15.5t-14.5 13t-23.5 10.5t-35.5 7.5t-49 5.5t-64 4t-82 2.5t-102 2l-152 -602
q113 2 186.5 5t143.5 8.5t112.5 16t80.5 25t62 37.5t43.5 51.5t37.5 69.5q45 0 45 -29q0 -15 -8.5 -48.5t-17.5 -60.5l-23.5 -70.5t-17.5 -51.5q-14 -49 -52 -49q-6 0 -410 2t-536 2v63h125q24 0 35 35l106 424h-489l-369 -372q-39 -44 -30.5 -65.5t43.5 -21.5h92v-63h-463
v63h61q33 0 101 62q765 718 1253 1216zM1751 1724l-401 -258l-41 13l307 288q39 35 119 35q29 0 43.5 -10t9.5 -25q-2 -15 -37 -43z" />
    <glyph glyph-name="aeacute" unicode="&#x1fd;" horiz-adv-x="1300" 
d="M897 823q155 123 301 123q129 0 129 -115q0 -104 -78 -184t-200.5 -120.5t-268.5 -43.5q-51 -116 -51 -219q0 -145 133 -145q60 0 135 44t140 120q6 6 12 6q11 0 22 -11.5t11 -23.5q0 -11 -16 -41t-51 -72.5t-81 -81t-115.5 -65.5t-144.5 -27q-98 0 -150.5 65.5
t-52.5 172.5q0 28 13 108q-98 -144 -227 -245t-246 -101q-111 0 -111 129q0 126 48 246t126.5 211.5t175 161.5t197.5 106.5t190 36.5q30 0 54 -4q14 30 32 84.5t30.5 84.5t23.5 30q38 0 69 -7.5t31 -23.5q0 -13 -10.5 -40.5t-35.5 -82t-34 -76.5zM713 709q0 67 -64 67
q-58 0 -126.5 -41t-127.5 -105.5t-109 -138.5t-79 -146.5t-29 -123.5q0 -43 15 -63.5t53 -20.5q78 0 190 100.5t194.5 238t82.5 233.5zM801 535q164 33 296 129.5t132 162.5q0 33 -41 33q-44 0 -114.5 -39.5t-148.5 -117t-124 -168.5zM1171 1354l-411 -326l-41 19l325 360
q32 41 115 41q30 0 44 -11t11 -30q-9 -27 -43 -53z" />
    <glyph glyph-name="Oslashacute" unicode="&#x1fe;" horiz-adv-x="1431" 
d="M252 129l-127 -129h-117l197 201q-78 137 -78 323q0 127 42 260t118 250.5t174.5 211t221 148t247.5 54.5q227 0 358 -141l107 106h118l-172 -176q91 -145 91 -350q0 -106 -30 -217t-83 -212t-128.5 -191.5t-163 -156.5t-191.5 -104.5t-209 -38.5q-238 0 -375 162z
M352 350l826 842q-35 81 -97 121.5t-161 40.5q-113 0 -222 -79t-186 -202t-124.5 -276.5t-47.5 -298.5q0 -84 12 -148zM377 254q68 -199 264 -199q113 0 221.5 79.5t185.5 203.5t124 277t47 298q0 105 -15 185zM1198 1724l-401 -258l-41 13l307 288q39 35 119 35
q29 0 43.5 -10t9.5 -25q-2 -15 -37 -43z" />
    <glyph glyph-name="oslashacute" unicode="&#x1ff;" horiz-adv-x="790" 
d="M721 819q27 -76 27 -188q0 -108 -33.5 -212.5t-87.5 -184t-118.5 -141t-129.5 -94t-119 -32.5q-116 0 -168 84l-51 -61h-86l104 129q-16 69 -16 157q0 137 49.5 265t124.5 214.5t160.5 138.5t159.5 52q97 0 149 -63l43 53h86zM600 674l-420 -512q0 -52 20.5 -79.5
t69.5 -27.5q55 0 111 64t98.5 161.5t73.5 200t47 193.5zM614 795q-8 65 -82 65q-50 0 -104 -57.5t-97.5 -146.5t-78 -185.5t-53.5 -185.5zM858 1354l-412 -326l-40 19l325 360q32 41 115 41q30 0 44 -11t11 -30q-9 -27 -43 -53z" />
    <glyph glyph-name="Scommaaccent" unicode="&#x218;" horiz-adv-x="972" 
d="M1030 1303l-18 -218q-6 -32 -58 -32q-36 297 -258 297q-102 0 -165.5 -62.5t-63.5 -163.5q0 -66 37 -136.5t137 -172.5q145 -146 192.5 -233t47.5 -205q0 -74 -31.5 -145.5t-90 -131.5t-153 -96.5t-209.5 -36.5q-81 0 -148.5 13.5t-110 35t-71 49t-39.5 53.5t-8 50
l27 190q3 31 59 31q23 -161 99 -242t198 -81q125 0 204 75t79 201q0 74 -35.5 141t-128.5 158q-138 134 -187.5 220t-49.5 194q0 110 58 201t155 141.5t211 50.5q84 0 150.5 -15.5t102 -39t53 -47t15.5 -43.5zM96 -588q-10 3 -10 29q0 19 16 29q87 8 148 58.5t61 119.5
q0 26 -13.5 40.5t-33.5 14.5q-37 0 -57.5 17t-20.5 49q0 40 38 82.5t87 42.5q53 0 88 -39t35 -101q0 -33 -9 -70.5t-33.5 -82t-61 -81.5t-97.5 -67t-137 -41z" />
    <glyph glyph-name="scommaaccent" unicode="&#x219;" horiz-adv-x="571" 
d="M440 262q0 -142 -86 -218.5t-217 -76.5q-88 0 -144 40.5t-56 113.5q0 84 81 84q26 0 42.5 -15t25.5 -37t19.5 -44t32.5 -37t57 -15q94 0 94 121q0 54 -17 116t-37.5 110t-37.5 111.5t-17 119.5q0 77 26 138.5t67.5 98t89 55.5t94.5 19q77 0 118 -34.5t41 -94.5
q0 -82 -81 -82q-28 0 -46 16.5t-26.5 37t-29 37t-52.5 16.5q-31 0 -49.5 -22.5t-18.5 -57.5q0 -48 20 -109t43.5 -112.5t43.5 -127.5t20 -151zM-154 -584q-10 3 -10 29q0 19 17 29q86 8 147 58.5t61 119.5q0 26 -13.5 40.5t-33.5 14.5q-77 0 -77 66q0 41 37.5 83t86.5 42
q53 0 88 -39t35 -101q0 -33 -9 -70.5t-33.5 -82t-61 -81.5t-97.5 -67t-137 -41z" />
    <glyph glyph-name="dotlessj" unicode="&#x237;" horiz-adv-x="577" 
d="M168 193q68 174 119 345.5t51 213.5q0 28 -25 28q-28 0 -83.5 -42.5t-98.5 -88.5q-4 -4 -12 -4t-18.5 9t-10.5 18q0 25 66.5 91t157.5 124.5t147 58.5q74 0 74 -80q0 -92 -91.5 -356.5t-236.5 -599.5q-37 -83 -69.5 -144.5t-77.5 -122.5t-92.5 -99t-111 -61.5
t-137.5 -23.5q-62 0 -100.5 34.5t-38.5 74.5q0 46 22 71t58 25q37 0 54.5 -19t19.5 -41.5t15 -41.5t42 -19q127 0 377 650z" />
    <glyph glyph-name="circumflex" unicode="&#x2c6;" horiz-adv-x="913" 
d="M588 1268l-281 -226l-33 19l316 364q16 23 43 23q24 0 37 -23l135 -364l-41 -19z" />
    <glyph glyph-name="caron" unicode="&#x2c7;" horiz-adv-x="913" 
d="M592 1221l280 225l33 -19l-315 -364q-20 -23 -43 -23q-28 0 -35 23l-137 364l41 19z" />
    <glyph glyph-name="breve" unicode="&#x2d8;" horiz-adv-x="876" 
d="M846 1362q-28 -121 -107 -194.5t-170 -73.5t-134.5 73t-14.5 195h47q-9 -45 -2.5 -75.5t28.5 -49t47.5 -27t53.5 -8.5q39 0 79 14t77.5 52t50.5 94h45z" />
    <glyph glyph-name="dotaccent" unicode="&#x2d9;" horiz-adv-x="595" 
d="M510 1378q42 0 64.5 -31t11.5 -73q-11 -43 -50 -76t-81 -33q-44 0 -68.5 33t-13.5 76q11 41 52 72.5t85 31.5z" />
    <glyph glyph-name="ring" unicode="&#x2da;" horiz-adv-x="808" 
d="M594 1485q88 0 136.5 -62t25.5 -149q-22 -88 -99 -149.5t-165 -61.5t-136 62t-26 149q23 88 100 149.5t164 61.5zM573 1395q-54 0 -100 -36.5t-59 -90.5t15.5 -91.5t82.5 -37.5q53 0 99 37.5t59 91.5q13 53 -15.5 90t-81.5 37z" />
    <glyph glyph-name="ogonek" unicode="&#x2db;" horiz-adv-x="776" 
d="M432 0q-119 -42 -206 -121.5t-87 -169.5q0 -86 111 -86q41 0 102 17q8 -3 8 -15q0 -13 -10.5 -28.5t-32 -31t-60.5 -26t-89 -10.5q-86 0 -128 33t-42 88q0 63 34.5 122t89.5 103t115 75.5t121 49.5h74z" />
    <glyph glyph-name="tilde" unicode="&#x2dc;" horiz-adv-x="1019" 
d="M332 1102l-23 31q132 200 260 200q34 0 67 -16t56 -35t54.5 -35t62.5 -16q68 0 158 112l24 -28q-140 -201 -256 -201q-33 0 -64.5 15.5t-52.5 34.5t-54 34.5t-68 15.5q-74 0 -164 -112z" />
    <glyph glyph-name="hungarumlaut" unicode="&#x2dd;" horiz-adv-x="964" 
d="M948 1354l-352 -326l-33 19l283 360q29 41 96 41q24 0 36 -11t9 -30q-8 -18 -39 -53zM698 1354l-350 -326l-33 19l281 360q32 41 96 41q26 0 37 -11t8 -30q-7 -21 -39 -53z" />
    <glyph glyph-name="tonos" unicode="&#x384;" horiz-adv-x="907" 
d="M510 1483q5 10 31 10q86 0 141 -37q-108 -227 -262 -412q-12 -12 -35 -12q-9 0 -14 3t-2 9q111 265 141 439z" />
    <glyph glyph-name="dieresistonos" unicode="&#x385;" horiz-adv-x="980" 
d="M942 1274q-6 -40 -40.5 -69t-74.5 -29q-38 0 -62.5 27.5t-14.5 74.5q6 38 41.5 67t74.5 29q37 0 61 -28t15 -72zM467 1274q-6 -40 -40.5 -69t-74.5 -29q-38 0 -63 27.5t-15 74.5q6 38 41.5 67t75.5 29q37 0 61 -28t15 -72zM598 1483q5 10 31 10q86 0 141 -37
q-108 -227 -262 -412q-12 -12 -35 -12q-9 0 -14 3t-2 9q111 265 141 439z" />
    <glyph glyph-name="Alphatonos" unicode="&#x386;" horiz-adv-x="1265" 
d="M418 598h446l-69 594zM870 522h-499l-238 -372q-26 -44 -19 -65.5t38 -21.5h94v-63h-430v63h61q34 0 78 62q178 246 441 633.5t448 683.5h114q10 -144 77 -663.5t95 -678.5q3 -17 11.5 -27t19.5 -10h74v-63h-477v63h114q19 0 32 16t9 50zM492 1483q5 10 30 10
q87 0 142 -37q-50 -106 -120.5 -216t-142.5 -196q-12 -12 -34 -12q-10 0 -15 3t-2 9q113 269 142 439z" />
    <glyph glyph-name="anoteleia" unicode="&#x387;" horiz-adv-x="636" 
d="M303 686q57 0 95 -38t38 -95q0 -56 -38 -94.5t-95 -38.5t-95 38.5t-38 94.5q0 57 38 95t95 38z" />
    <glyph glyph-name="Epsilontonos" unicode="&#x388;" horiz-adv-x="1181" 
d="M668 1329l-144 -559q278 6 336 18t78 66l23 72q53 0 53 -21q0 -17 -5.5 -45t-16.5 -70t-15 -61q-5 -29 -14.5 -86.5t-16.5 -91.5q-5 -23 -65 -23l6 64q-1 12 1 22.5t-2 19t-7.5 15.5t-14.5 13t-23.5 10.5t-35.5 7.5t-49 5.5t-64 4t-82 2.5t-102 2l-152 -602
q113 2 186.5 5t143.5 8.5t112 16t80 25t62 37.5t43.5 51.5t36.5 69.5q45 0 45 -29q0 -19 -12 -62t-31 -98.5t-23 -70.5q-6 -22 -20 -35.5t-31 -13.5q-7 0 -411.5 2t-536.5 2v63h125q27 0 35 35l307 1217q5 19 1 26t-19 7h-121v65q60 0 165.5 0.5t214.5 1.5t208.5 2t165 1.5
t67.5 0.5q17 0 26 -6t10 -11.5t1 -15.5q0 -18 -12 -80t-21 -147q-3 -22 -53 -22q0 45 -3 70t-19 49.5t-40.5 35t-76.5 20t-119 12.5t-174 5zM121 1483q5 10 31 10q86 0 141 -37q-108 -227 -262 -412q-12 -12 -35 -12q-10 0 -14.5 3t-1.5 9q111 265 141 439z" />
    <glyph glyph-name="Etatonos" unicode="&#x389;" horiz-adv-x="1636" 
d="M1266 702h-758l-152 -604q-6 -35 19 -35h125v-63h-500v63h125q29 0 35 35l305 1217q8 33 -19 33h-124v65h499v-65h-125q-26 0 -37 -33l-133 -537h758l135 537q8 33 -18 33h-125v65h500v-65h-125q-27 0 -35 -33l-303 -1217q-3 -19 0 -27t16 -8h125v-63h-500v63h125
q29 0 35 35zM121 1483q5 10 31 10q86 0 141 -37q-108 -227 -262 -412q-12 -12 -35 -12q-10 0 -14.5 3t-1.5 9q111 265 141 439z" />
    <glyph glyph-name="Iotatonos" unicode="&#x38a;" horiz-adv-x="686" 
d="M500 0h-500v63h125q29 0 35 35l309 1217q5 19 1 26t-19 7h-125v65h501v-65h-127q-24 0 -32 -33l-310 -1217q-6 -35 17 -35h125v-63zM141 1483q5 10 31 10q86 0 141 -37q-108 -227 -262 -412q-12 -12 -35 -12q-10 0 -14.5 3t-1.5 9q111 265 141 439z" />
    <glyph glyph-name="Omicrontonos" unicode="&#x38c;" horiz-adv-x="1431" 
d="M1432 887q0 -106 -30 -217t-83 -212t-128.5 -191.5t-163 -156.5t-191.5 -104.5t-209 -38.5q-230 0 -365 152t-135 405q0 127 42 260t118 250.5t174.5 211t221 148t247.5 54.5q241 0 371.5 -154.5t130.5 -406.5zM340 498q0 -216 77 -329.5t224 -113.5q113 0 221.5 79.5
t185.5 203.5t124 277t47 298q0 223 -69 332t-230 109q-113 0 -222 -79t-186 -202t-124.5 -276.5t-47.5 -298.5zM203 1483q5 10 30 10q87 0 142 -37q-108 -227 -262 -412q-12 -12 -35 -12q-10 0 -15 3t-2 9q113 269 142 439z" />
    <glyph glyph-name="Upsilontonos" unicode="&#x38e;" horiz-adv-x="1284" 
d="M-23 1483q5 10 31 10q87 0 142 -37q-10 -18 -21 -43h475v-65h-115q-10 0 -17.5 -6.5t-7.5 -22.5t13 -37l275 -489q339 300 510 471q36 38 30 61t-43 23h-61v65h434v-65h-43q-60 0 -135 -62q-101 -83 -208.5 -176t-239 -210t-197.5 -175l-158 -627q-6 -35 16 -35h127v-63
h-501v63h127q26 0 32 35l150 588l-342 606q-16 27 -36 41.5t-34 14.5h-74v22q-99 -184 -219 -326q-12 -12 -34 -12q-10 0 -15 3t-2 9q111 265 141 439z" />
    <glyph glyph-name="Omegatonos" unicode="&#x38f;" horiz-adv-x="1665" 
d="M1104 1448q126 0 227 -37t165.5 -102.5t99 -153t34.5 -190.5q0 -255 -146 -467.5t-394 -356.5q76 0 121.5 0.5t92.5 4t70 6t51 14t39.5 19.5t31 30t29.5 38.5t31 51.5q41 0 41 -18v-6q-5 -19 -43.5 -112.5t-46.5 -123.5q-6 -21 -21.5 -35t-33.5 -14q-7 0 -233.5 2
t-356.5 2l-2 55q261 153 405 389.5t144 536.5q0 177 -84.5 287t-239.5 110q-103 0 -195 -41t-160.5 -110.5t-123.5 -159.5t-89.5 -190.5t-52.5 -201.5t-18 -194q0 -261 199 -426l-2 -55q-130 0 -367.5 -2t-244.5 -2q-14 0 -23.5 10t-9.5 25q0 8 2 14q7 28 15 121.5t14 114.5
q6 24 53 24q3 -34 5.5 -52t11 -38.5t16.5 -29.5t31 -19.5t46 -13.5t68.5 -6.5t91 -4t121.5 -0.5q-225 169 -225 457q0 168 64.5 323t176 271.5t272.5 186t343 69.5zM346 1483q5 10 31 10q86 0 141 -37q-108 -227 -262 -412q-12 -12 -35 -12q-9 0 -14 3t-2 9q111 265 141 439
z" />
    <glyph glyph-name="iotadieresistonos" unicode="&#x390;" horiz-adv-x="487" 
d="M47 160l197 735q6 21 46.5 36t84.5 15q32 0 48.5 -4.5t19.5 -10.5t1 -16q-31 -84 -116 -336.5t-115 -347.5q-18 -67 -18 -84q0 -41 45 -41q31 0 89 57t83 105q8 14 22 -7q14 -18 8 -30q-20 -41 -47.5 -82t-64.5 -84.5t-82 -70.5t-88 -27q-60 0 -89.5 37t-29.5 96
q0 30 6 60zM784 1274q-6 -40 -40 -69t-74 -29q-38 0 -63 27.5t-15 74.5q6 38 42 67t75 29q37 0 60.5 -28t14.5 -72zM309 1274q-6 -40 -40 -69t-74 -29q-38 0 -63 27.5t-15 74.5q6 38 41 67t75 29q37 0 61 -28t15 -72zM440 1483q5 10 31 10q86 0 141 -37q-108 -227 -262 -412
q-12 -12 -35 -12q-9 0 -14 3t-2 9q111 265 141 439z" />
    <glyph glyph-name="Alpha" unicode="&#x391;" horiz-adv-x="1265" 
d="M418 598h446l-69 594zM870 522h-499l-238 -372q-26 -44 -19 -65.5t38 -21.5h94v-63h-430v63h61q34 0 78 62q178 246 441 633.5t448 683.5h114q10 -144 77 -663.5t95 -678.5q3 -17 11.5 -27t19.5 -10h74v-63h-477v63h114q19 0 32 16t9 50z" />
    <glyph glyph-name="Beta" unicode="&#x392;" horiz-adv-x="1241" 
d="M674 1339l-150 -583q249 4 373.5 94t124.5 250q0 117 -78.5 176.5t-269.5 62.5zM510 690l-156 -608q135 0 238 17.5t170.5 49t110 78t60 100t17.5 119.5q0 47 -10.5 82t-39.5 67t-77.5 52t-127 31.5t-185.5 11.5zM465 0h-465v63h125q29 0 35 35l309 1217q5 19 1 26t-19 7
h-125v65h454q227 0 340 -82t113 -221q0 -140 -114.5 -242t-301.5 -131q173 -17 263.5 -90t90.5 -196q0 -60 -21 -119.5t-72.5 -120.5t-129.5 -107t-202.5 -75t-280.5 -29z" />
    <glyph glyph-name="Gamma" unicode="&#x393;" horiz-adv-x="1179" 
d="M326 1413h950q35 0 35 -31q0 -9 -15 -103.5t-20 -178.5q-3 -20 -15.5 -25.5t-35.5 -5.5q-7 47 -12.5 76t-18.5 59t-28 46t-46 32.5t-66 24t-94 15t-125 10.5t-163 5l-310 -1239q-8 -35 21 -35h154v-63h-541v63h137q27 0 35 35l301 1217q5 19 1 26t-19 7h-125v65z" />
    <glyph glyph-name="Delta" unicode="&#x394;" horiz-adv-x="1265" 
d="M795 1192l-662 -1042q-26 -44 -19 -65.5t38 -21.5h720q19 0 32 16t9 50zM1235 0h-1419v63h61q34 0 78 62q178 246 441 633.5t448 683.5h114q10 -144 77 -663.5t95 -678.5q3 -17 11.5 -27t19.5 -10h74v-63z" />
    <glyph glyph-name="Delta" unicode="&#x2206;" horiz-adv-x="1265" 
d="M795 1192l-662 -1042q-26 -44 -19 -65.5t38 -21.5h720q19 0 32 16t9 50zM1235 0h-1419v63h61q34 0 78 62q178 246 441 633.5t448 683.5h114q10 -144 77 -663.5t95 -678.5q3 -17 11.5 -27t19.5 -10h74v-63z" />
    <glyph glyph-name="Epsilon" unicode="&#x395;" horiz-adv-x="1181" 
d="M668 1329l-144 -559q278 6 336 18t78 66l23 72q53 0 53 -21q0 -17 -5.5 -45t-16.5 -70t-15 -61q-5 -29 -14.5 -86.5t-16.5 -91.5q-5 -23 -65 -23l6 64q-1 12 1 22.5t-2 19t-7.5 15.5t-14.5 13t-23.5 10.5t-35.5 7.5t-49 5.5t-64 4t-82 2.5t-102 2l-152 -602
q113 2 186.5 5t143.5 8.5t112 16t80 25t62 37.5t43.5 51.5t36.5 69.5q45 0 45 -29q0 -19 -12 -62t-31 -98.5t-23 -70.5q-6 -22 -20 -35.5t-31 -13.5q-7 0 -411.5 2t-536.5 2v63h125q27 0 35 35l307 1217q5 19 1 26t-19 7h-121v65q60 0 165.5 0.5t214.5 1.5t208.5 2t165 1.5
t67.5 0.5q17 0 26 -6t10 -11.5t1 -15.5q0 -18 -12 -80t-21 -147q-3 -22 -53 -22q0 45 -3 70t-19 49.5t-40.5 35t-76.5 20t-119 12.5t-174 5z" />
    <glyph glyph-name="Zeta" unicode="&#x396;" horiz-adv-x="1353" 
d="M1249 334q0 -34 -50 -147t-58 -142q-4 -21 -19.5 -34t-34.5 -13q-14 0 -235.5 0.5t-497.5 1t-422 0.5l-6 37l1266 1282q-137 0 -232 -1.5t-179.5 -8.5t-137 -13.5t-101.5 -24t-76 -33t-58 -48t-50.5 -60t-50.5 -77.5q-41 0 -41 26q0 19 51.5 138t59.5 153q4 19 19.5 32
t31.5 13q7 0 474.5 -1t598.5 -1l8 -39l-1261 -1280q202 0 327 2.5t228 17t154 27t103 50.5t77 69.5t73 101.5q39 0 39 -28z" />
    <glyph glyph-name="Eta" unicode="&#x397;" horiz-adv-x="1636" 
d="M1266 702h-758l-152 -604q-6 -35 19 -35h125v-63h-500v63h125q29 0 35 35l305 1217q8 33 -19 33h-124v65h499v-65h-125q-26 0 -37 -33l-133 -537h758l135 537q8 33 -18 33h-125v65h500v-65h-125q-27 0 -35 -33l-303 -1217q-3 -19 0 -27t16 -8h125v-63h-500v63h125
q29 0 35 35z" />
    <glyph glyph-name="Theta" unicode="&#x398;" horiz-adv-x="1431" 
d="M471 811h662l-31 -117h-662zM1432 887q0 -106 -30 -217t-83 -212t-128.5 -191.5t-163 -156.5t-191.5 -104.5t-209 -38.5q-230 0 -365 152t-135 405q0 127 42 260t118 250.5t174.5 211t221 148t247.5 54.5q241 0 371.5 -154.5t130.5 -406.5zM340 498q0 -216 77 -329.5
t224 -113.5q113 0 221.5 79.5t185.5 203.5t124 277t47 298q0 223 -69 332t-230 109q-113 0 -222 -79t-186 -202t-124.5 -276.5t-47.5 -298.5z" />
    <glyph glyph-name="Iota" unicode="&#x399;" horiz-adv-x="686" 
d="M500 0h-500v63h125q29 0 35 35l309 1217q5 19 1 26t-19 7h-125v65h501v-65h-127q-24 0 -32 -33l-310 -1217q-6 -35 17 -35h125v-63z" />
    <glyph glyph-name="Kappa" unicode="&#x39a;" horiz-adv-x="1333" 
d="M514 715l-156 -617q-8 -35 17 -35h125v-63h-500v63h125q29 0 35 35l309 1217q5 19 1 26t-19 7h-125v65h501v-65h-127q-24 0 -32 -33l-146 -559q134 84 342.5 252.5t313.5 273.5q21 20 12.5 43t-39.5 23h-98v65h540v-65h-67q-56 0 -105 -35q-26 -19 -151 -112
t-195.5 -144.5t-182 -130t-198.5 -135.5q270 -341 488 -699q16 -29 53 -29h94v-63h-547v63h109q80 0 43 66q-75 129 -212.5 324.5t-207.5 261.5z" />
    <glyph glyph-name="Lambda" unicode="&#x39b;" horiz-adv-x="1265" 
d="M913 129l-118 1063l-662 -1042q-26 -44 -19 -65.5t38 -21.5h94v-63h-430v63h61q34 0 78 62q178 246 441 633.5t448 683.5h114q10 -144 77 -663.5t95 -678.5q3 -17 11.5 -27t19.5 -10h74v-63h-477v63h114q19 0 32 16t9 50z" />
    <glyph glyph-name="Mu" unicode="&#x39c;" horiz-adv-x="1855" 
d="M846 29h-68l-262 1095q-125 -494 -231 -958q-13 -64 0.5 -83.5t66.5 -19.5h70v-63h-422v63h70q38 0 59.5 22t36.5 79q166 619 299 1151q8 33 -16 33h-127v65h321l258 -1143l780 1143h314v-65h-125q-24 0 -35 -33l-303 -1217q-6 -35 16 -35h125v-63h-508v63h133
q29 0 35 35l256 1018z" />
    <glyph glyph-name="Nu" unicode="&#x39d;" horiz-adv-x="1548" 
d="M1171 322q158 634 222 923q14 66 2 84.5t-68 18.5h-70v65h433v-65h-74q-45 0 -60.5 -18t-33.5 -83q-133 -482 -330 -1270h-84l-551 1278q-211 -867 -262 -1089q-15 -66 -2.5 -84.5t69.5 -18.5h70v-63h-432v63h63q46 0 67 20t38 81q112 407 297 1151q8 33 -16 33h-127v65
h393z" />
    <glyph glyph-name="Xi" unicode="&#x39e;" horiz-adv-x="1179" 
d="M260 1413h959q20 0 27 -8t7 -23q0 -25 -15 -131t-19 -172q-2 -14 -10.5 -21t-17 -8t-24.5 -1q-3 54 -8 85.5t-28 57t-45.5 36.5t-86 18t-120.5 8t-177 1q-89 0 -141 -0.5t-108 -4.5t-84.5 -8.5t-60.5 -16.5t-47 -25t-32.5 -37t-28 -49t-24.5 -65q-39 0 -39 26
q0 39 66 297q5 23 17 32t40 9zM928 0h-959q-35 0 -35 31q0 24 15.5 130.5t19.5 172.5q3 20 15.5 25.5t35.5 5.5q2 -40 5 -66.5t15 -50.5t23 -37t41.5 -24.5t56 -16t82 -8t104.5 -4t138 -0.5q88 0 141 0.5t108.5 4.5t84.5 9t61 17t47 24.5t32.5 37t28 49.5t24.5 65
q39 0 39 -27q0 -39 -66 -297q-5 -23 -17 -32t-40 -9zM287 811h692l-31 -117h-692z" />
    <glyph glyph-name="Omicron" unicode="&#x39f;" horiz-adv-x="1431" 
d="M1432 887q0 -106 -30 -217t-83 -212t-128.5 -191.5t-163 -156.5t-191.5 -104.5t-209 -38.5q-230 0 -365 152t-135 405q0 127 42 260t118 250.5t174.5 211t221 148t247.5 54.5q241 0 371.5 -154.5t130.5 -406.5zM340 498q0 -216 77 -329.5t224 -113.5q113 0 221.5 79.5
t185.5 203.5t124 277t47 298q0 223 -69 332t-230 109q-113 0 -222 -79t-186 -202t-124.5 -276.5t-47.5 -298.5z" />
    <glyph glyph-name="Pi" unicode="&#x3a0;" horiz-adv-x="1574" 
d="M1354 1296h2q8 33 -19 33h-643q-26 0 -37 -33l-301 -1198q-6 -35 19 -35h125v-63h-500v63h125q29 0 35 35l305 1217q8 33 -19 33h-124v65h1392v-65h-125q-27 0 -35 -33l-303 -1217q-3 -19 0.5 -27t16.5 -8h125v-63h-500v63h125q29 0 35 35z" />
    <glyph glyph-name="Rho" unicode="&#x3a1;" horiz-adv-x="1128" 
d="M674 1339l-170 -661q27 -2 78 -2q205 0 325.5 105t120.5 292q0 128 -94.5 195.5t-259.5 70.5zM485 604l-127 -506q-8 -35 17 -35h149v-63h-524v63h125q29 0 35 35l309 1217q5 19 1 26t-19 7h-125v65h417q242 0 370 -95.5t128 -285.5q0 -67 -25 -129t-78.5 -117.5
t-129.5 -96.5t-185 -65t-239 -24q-29 0 -99 4z" />
    <glyph glyph-name="Sigma" unicode="&#x3a3;" horiz-adv-x="1376" 
d="M854 715l-631 -621q161 0 272 1.5t208 8t156 13.5t113 23.5t84 33t63 47t56 60t57 77.5q1 1 1 2q46 0 43 -26q-6 -27 -52.5 -138t-56.5 -151q-4 -21 -20 -34t-35 -13q-14 0 -239.5 0.5t-505.5 1t-426 0.5l2 37l684 678l-340 659l18 39q131 0 609 1t485 1q17 0 25 -12.5
t3 -32.5q-8 -36 -18 -154.5t-16 -136.5q-7 -26 -56 -26q-9 50 -16 77.5t-24.5 60t-38.5 48t-63.5 33t-93.5 24t-135 13.5t-182 8.5t-239 1.5z" />
    <glyph glyph-name="Tau" unicode="&#x3a4;" horiz-adv-x="1179" 
d="M911 1337l-309 -1239q-8 -35 21 -35h153v-63h-540v63h137q27 0 35 35l307 1239q-94 -3 -158 -9t-120 -18.5t-92.5 -30.5t-68.5 -48t-54.5 -68t-45.5 -94q-39 0 -39 27q0 8 2.5 22t9 41t12.5 50.5t19 73.5t23 89q5 23 17 32t40 9h1153q35 0 35 -31q0 -24 -15.5 -119.5
t-19.5 -162.5q-3 -20 -15.5 -25.5t-35.5 -5.5q-7 51 -16 85t-22.5 64t-37 47.5t-53 31.5t-78.5 21.5t-104.5 11.5t-139.5 7z" />
    <glyph glyph-name="Upsilon" unicode="&#x3a5;" horiz-adv-x="1284" 
d="M799 725l-158 -627q-6 -35 16 -35h127v-63h-501v63h127q26 0 32 35l150 588l-342 606q-16 27 -36 41.5t-34 14.5h-74v65h498v-65h-115q-10 0 -17.5 -6.5t-7.5 -22.5t13 -37l275 -489q339 300 510 471q36 38 30 61t-43 23h-61v65h434v-65h-43q-60 0 -135 -62
q-101 -83 -208.5 -176t-239 -210t-197.5 -175z" />
    </font>
</defs>
</svg>
