<?xml version="1.0" standalone="no"?>
<!DOCTYPE svg PUBLIC "-//W3C//DTD SVG 1.1//EN" "http://www.w3.org/Graphics/SVG/1.1/DTD/svg11.dtd" >
<svg xmlns="http://www.w3.org/2000/svg" xmlns:xlink="http://www.w3.org/1999/xlink" version="1.1">
<metadata>
Created by FontForge 20170731 at Sun Jun  5 20:38:30 2022
 By Aleksey,,,
Copyright (c) 2010 by Frantisek Storm. All rights reserved.
</metadata>
<defs>
<font id="Jannon10Pro-Bold" horiz-adv-x="808" >
  <font-face 
    font-family="Jannon 10 Pro"
    font-weight="700"
    font-stretch="normal"
    units-per-em="2048"
    panose-1="2 0 5 3 8 0 0 2 0 3"
    ascent="1638"
    descent="-410"
    x-height="911"
    cap-height="1413"
    bbox="-557 -690.1 3086 2025"
    underline-thickness="116"
    underline-position="-353"
    unicode-range="U+0020-FB06"
  />
<missing-glyph horiz-adv-x="1024" 
 />
    <glyph glyph-name="f_f" unicode="ff" horiz-adv-x="1290" 
d="M975 1415q148 141 330 141q135 0 196.5 -50t61.5 -124q0 -58 -31.5 -92.5t-87.5 -34.5q-41 0 -65 20t-33.5 48.5t-18.5 56.5t-30.5 48t-59.5 20q-190 0 -190 -352v-191l225 6v-123h-225v-673q0 -52 40 -52h115v-63h-524v63h90q22 0 32.5 15t10.5 37v673h-397v-673
q0 -25 8 -38.5t33 -13.5h96v-63h-500v63h84q43 0 43 52v673h-145v43l145 25v150q0 146 69 271t190 199t265 74q204 0 273 -135zM811 1174q0 55 -3 91.5t-12 73t-25.5 57t-45 33.5t-68.5 13q-45 0 -86 -19t-77.5 -57.5t-58 -108t-21.5 -161.5v-226l397 21v283z" />
    <glyph glyph-name="f_i" unicode="fi" horiz-adv-x="1212" 
d="M813 788h-399v-673q0 -25 8 -38.5t33 -13.5h96v-63h-500v63h84q43 0 43 52v673h-145v43l145 27v148q0 101 45 201t123 179t195 128t250 49q288 0 288 -215q0 -62 -36 -102t-93 -40q-48 0 -79 22t-47 53t-32 62.5t-46.5 53.5t-77.5 22q-117 0 -185.5 -98t-68.5 -309v-146
l215 6q167 7 261.5 26t123.5 63q35 0 35 -13v-833q0 -52 41 -52h84v-63h-494v63h90q22 0 32.5 15t10.5 37v673z" />
    <glyph glyph-name="f_l" unicode="fl" horiz-adv-x="1204" 
d="M811 1255q0 105 -42 149t-122 44q-116 0 -174.5 -82.5t-58.5 -269.5v-185h223v-123h-223v-673q0 -25 8 -38.5t33 -13.5h96v-63h-500v63h84q43 0 43 52v673h-145v43l145 70v105q0 148 59 273t171.5 201t255.5 76q90 0 143 -17t96 -56q64 34 92 61t31 64q37 0 37 -13
q0 -4 -1.5 -25t-4 -62.5t-5 -101.5t-4 -161.5t-1.5 -224.5v-905q0 -52 40 -52h84v-63h-493v63h90q22 0 32.5 15t10.5 37v1140z" />
    <glyph glyph-name="f_f_i" unicode="ffi" horiz-adv-x="1841" 
d="M1169 0h-487v63h86q22 0 32.5 15t10.5 37v673h-397v-673q0 -25 8 -38.5t33 -13.5h82v-63h-486v63h84q43 0 43 52v673h-145v43l145 25v150q0 146 69 271t190 199t265 74q185 0 293 -151q84 80 192.5 122t217.5 42q154 0 229.5 -57t75.5 -158q0 -62 -36.5 -102t-94.5 -40
q-48 0 -79 22t-46.5 53t-31.5 62.5t-46.5 53.5t-77.5 22q-117 0 -185.5 -98t-68.5 -309v-140h168q175 0 273 18t155 71q37 0 37 -13v-833q0 -25 8 -38.5t33 -13.5h86v-63h-489v63h84q43 0 43 52v673h-398v-673q0 -52 41 -52h84v-63zM811 1174q0 67 -6.5 112t-23 82.5
t-49.5 55.5t-83 18q-45 0 -85 -18.5t-74.5 -57.5t-55 -108.5t-20.5 -161.5v-230l397 6v302z" />
    <glyph glyph-name="f_f_l" unicode="ffl" horiz-adv-x="1837" 
d="M1171 0h-489v63h86q22 0 32.5 15t10.5 37v673h-397v-673q0 -25 8 -38.5t33 -13.5h82v-63h-486v63h84q43 0 43 52v673h-145v43l145 25v150q0 146 69 271t190 199t265 74q198 0 267 -135q134 141 325 141q92 0 145.5 -17t96.5 -56q63 34 90.5 61t30.5 64q37 0 37 -13
q0 -4 -1.5 -25t-4 -62.5t-4.5 -101.5t-3.5 -161.5t-1.5 -224.5v-905q0 -25 8 -38.5t33 -13.5h86v-63h-489v63h84q43 0 43 52v1140q0 105 -43.5 149t-124.5 44q-116 0 -172.5 -82.5t-56.5 -269.5v-191l206 6v-123h-206v-673q0 -52 40 -52h84v-63zM811 1174q0 67 -6.5 112
t-23 82.5t-49.5 55.5t-83 18q-45 0 -85 -18.5t-74.5 -57.5t-55 -108.5t-20.5 -161.5v-226l397 21v283z" />
    <glyph glyph-name="f_j" unicode="fj" horiz-adv-x="1181" 
d="M1047 10q0 -92 -40 -190t-107.5 -178.5t-166 -132.5t-205.5 -52q-30 0 -46.5 18.5t-16.5 45.5q0 46 36 85.5t93 39.5q82 0 127.5 28t67.5 100.5t22 205.5v808h-397v-673q0 -25 8 -38.5t33 -13.5h98v-63h-502v63h84q43 0 43 52v673h-145v43l145 27v148q0 101 45 201
t123 179t195 128t250 49q288 0 288 -215q0 -62 -36 -102t-93 -40q-48 0 -79 22t-47 53t-32 62.5t-46.5 53.5t-77.5 22q-117 0 -185.5 -98t-68.5 -309v-146l215 6q163 5 259.5 25t123.5 64q35 0 35 -13v-938z" />
    <glyph glyph-name="f_f_j" unicode="ffj" horiz-adv-x="1804" 
d="M1679 10q0 -92 -40 -190t-107 -178.5t-165.5 -132.5t-205.5 -52q-30 0 -46.5 18.5t-16.5 45.5q0 46 36 85.5t93 39.5q82 0 127.5 28t67.5 100.5t22 205.5v808h-397v-673q0 -16 2 -26t11.5 -18t26.5 -8h99v-63h-502v63h84q43 0 43 52v673h-397v-673q0 -25 8 -38.5
t33 -13.5h96v-63h-500v63h84q43 0 43 52v673h-145v43l145 25v150q0 147 62 271t177 198.5t259 74.5q111 0 191 -43t116 -118q84 80 196.5 127t243.5 47q289 0 289 -215q0 -62 -36 -102t-93 -40q-48 0 -79 22t-47 53t-32 62.5t-47 53.5t-78 22q-117 0 -185 -97.5t-68 -309.5
v-146l215 6q163 5 259.5 25t123.5 64q34 0 34 -13v-938zM811 1174q0 136 -34 202t-130 66q-45 0 -84.5 -18.5t-74 -57.5t-54.5 -108.5t-20 -161.5v-226l397 21v283z" />
    <glyph glyph-name="f_f_k" unicode="ffk" horiz-adv-x="2400" 
d="M1696 1595q0 -4 -2 -25t-4 -61.5t-4.5 -99.5t-4.5 -158.5t-2 -218.5v-532q62 33 184 149.5t122 159.5q0 22 -9 30.5t-32 8.5h-78v63h491v-63h-43q-71 0 -133 -49q-163 -140 -280 -219q43 -38 179 -201.5t222 -286.5q19 -29 53 -29h45v-63h-508v63h58q30 0 30 29
q0 27 -136.5 202t-164.5 179v-358q0 -25 7.5 -38.5t31.5 -13.5h60v-63h-463v63h86q43 0 43 52v1161q-4 93 -46 132.5t-118 39.5q-116 0 -174.5 -82.5t-58.5 -269.5v-185h223v-123h-223v-673q0 -16 2 -26t11.5 -18t26.5 -8h97v-63h-500v63h84q43 0 43 52v673h-397v-673
q0 -25 8 -38.5t33 -13.5h96v-63h-500v63h84q43 0 43 52v673h-145v43l145 25v150q0 147 64.5 271t182 198.5t261.5 74.5q109 0 181 -36.5t104 -92.5q132 135 325 135q90 0 143.5 -17t96.5 -56q64 34 92 61t31 64q37 0 37 -13zM811 1174q0 134 -36.5 201t-133.5 67
q-45 0 -83.5 -18.5t-72 -57.5t-52.5 -108.5t-19 -161.5v-226l397 21v283z" />
    <glyph glyph-name="T_h" unicode="Th" horiz-adv-x="2334" 
d="M1300 1085q0 39 -3 66.5t-14 51.5t-24.5 38.5t-43 27t-60.5 18.5t-86 10.5t-110 6.5t-142 3v-1209q0 -35 29 -35h133v-63h-614v63h135q26 0 26 35v1209q-58 -2 -97 -4t-79 -6.5t-64.5 -8t-52 -14t-43 -19t-34.5 -27t-30 -34.5t-26.5 -45t-27 -55.5t-29.5 -69.5
q-23 0 -33 3.5t-10 16.5q0 9 3.5 57t7 122.5t3.5 148.5q0 23 9.5 32t37.5 9h1051q154 0 227.5 17t173.5 71q37 0 37 -12q0 -4 -1.5 -25t-3.5 -62.5t-4 -101.5t-3.5 -162t-1.5 -225v-143q70 91 164 138.5t188 47.5q131 0 206 -77.5t75 -227.5v-536q0 -52 41 -52h84v-63h-506
v63h102q43 0 43 52v460q0 107 -56 157t-138 50q-73 0 -138 -33t-65 -75v-559q0 -25 7.5 -38.5t31.5 -13.5h102v-63h-506v63h86q43 0 43 52v970z" />
    <glyph glyph-name="W_h" unicode="Wh" horiz-adv-x="3127" 
d="M2329 1020v-250q70 91 164 138.5t188 47.5q131 0 205.5 -77.5t74.5 -227.5v-536q0 -52 41 -52h84v-63h-506v63h103q43 0 43 52v460q0 107 -56.5 157t-138.5 50q-73 0 -137.5 -33t-64.5 -75v-559q0 -25 7 -38.5t31 -13.5h103v-63h-506v63h86q43 0 43 52v1124
q0 109 -57 109h-125q-15 0 -34.5 -16t-33.5 -46q-107 -226 -273 -617.5t-282 -699.5h-102q-37 153 -230 680q-180 -406 -282 -680h-103q-58 168 -256.5 684t-263.5 662q-15 33 -39 33h-75v65h563v-65h-78q-30 0 -41.5 -18t-1.5 -48l336 -938l188 442q-131 350 -223 529
q-6 13 -20 23t-25 10h-57v65h817v-65h-72q-37 0 -63 -62l-162 -342l223 -600l344 920q16 44 4.5 64t-41.5 20h-94v65h434q120 0 194.5 17t143.5 55q37 0 37 -12q0 -4 -1.5 -16.5t-3.5 -39.5t-4 -71.5t-3.5 -129.5t-1.5 -196zM1001 1348q-23 0 -31 -19t1 -47l69 -188l68 170
q33 84 -29 84h-78z" />
    <glyph glyph-name=".notdef" horiz-adv-x="1024" 
 />
    <glyph glyph-name=".null" horiz-adv-x="0" 
 />
    <glyph glyph-name="nonmarkingreturn" horiz-adv-x="682" 
 />
    <glyph glyph-name="space" unicode=" " horiz-adv-x="466" 
 />
    <glyph glyph-name="exclam" unicode="!" horiz-adv-x="591" 
d="M295 281q61 0 104 -42.5t43 -101.5q0 -63 -42.5 -106t-104.5 -43q-61 0 -103 43t-42 106q0 59 42 101.5t103 42.5zM319 362h-51l-125 898q-12 93 36.5 140.5t115.5 47.5q66 0 112.5 -47.5t34.5 -140.5z" />
    <glyph glyph-name="quotedbl" unicode="&#x22;" horiz-adv-x="761" 
d="M68 1313q-14 61 26.5 98t102.5 37q66 0 103.5 -31.5t16.5 -105.5l-102 -375h-55zM442 1313q-14 61 26.5 98t102.5 37q67 0 104.5 -31.5t16.5 -105.5l-102 -375h-55z" />
    <glyph glyph-name="numbersign" unicode="#" horiz-adv-x="1445" 
d="M842 549v235h-213v-235h213zM1016 383v-383h-174v383h-213v-383h-174v383h-320v166h320v235h-320v166h320v371h174v-371h213v371h174v-371h301v-166h-301v-235h301v-166h-301z" />
    <glyph glyph-name="dollar" unicode="$" horiz-adv-x="1034" 
d="M549 23l-17 -259h-100l17 254q-81 2 -148.5 17t-107.5 35.5t-61.5 42t-22.5 39.5l-11 219q-1 17 14.5 26t39.5 9q86 -275 303 -291l28 467q-169 85 -246 178.5t-77 230.5q0 157 104 268.5t271 133.5l16 243h100l-14 -237q129 -5 206.5 -40.5t78.5 -92.5l6 -205
q0 -15 -12.5 -24t-34.5 -9q-32 138 -97.5 204t-152.5 71l-31 -459q189 -98 276 -194t87 -226q0 -94 -33 -168t-91.5 -121.5t-131 -75t-158.5 -36.5zM504 891l24 397q-60 -15 -95.5 -70.5t-35.5 -130.5q0 -115 107 -196zM555 121q74 12 113 68t39 139q0 128 -125 204z" />
    <glyph glyph-name="percent" unicode="%" horiz-adv-x="1542" 
d="M758 1108q0 -139 -105 -236.5t-252 -97.5t-251.5 97.5t-104.5 236.5q0 136 105 234t251 98t251.5 -98t105.5 -234zM268 1108q0 -252 133 -252q134 0 134 252t-134 252q-64 0 -98.5 -65t-34.5 -187zM1421 1413l-1085 -1413h-217l1083 1413h219zM1497 309
q0 -139 -105 -236.5t-253 -97.5q-146 0 -250.5 97.5t-104.5 236.5q0 136 105 234t250 98q148 0 253 -97.5t105 -234.5zM1008 309q0 -123 33.5 -187.5t97.5 -64.5q135 0 135 252t-135 252q-63 0 -97 -65.5t-34 -186.5z" />
    <glyph glyph-name="ampersand" unicode="&#x26;" horiz-adv-x="1921" 
d="M741 950q65 46 89 104.5t24 135.5q0 79 -34.5 122.5t-94.5 43.5q-54 0 -93.5 -43t-39.5 -103q0 -125 149 -260zM1298 924q0 57 25 57q121 0 288 15.5t218 15.5q24 0 24 -58q-63 0 -143.5 -38t-134.5 -111q-173 -229 -315 -371q46 -58 71 -88t62.5 -70t73 -67.5
t75.5 -48.5q73 -39 176 -39q78 0 150 33q10 -10 10 -35q0 -23 -24 -48t-69 -49t-122 -39.5t-170 -15.5t-154 22.5t-118 75t-150 168.5q-94 -128 -221 -197t-305 -69q-195 0 -317 102.5t-122 274.5q0 81 27.5 154t69 125t96.5 95.5t104 69.5t97 43q-69 65 -103.5 131.5
t-34.5 153.5q0 59 26.5 117t74 106.5t123 78.5t164.5 30q139 0 227 -67t88 -167q0 -34 -10 -65t-23 -55t-38.5 -49.5t-44.5 -41t-54.5 -37.5t-54 -32.5t-56.5 -30.5q204 -161 430 -420q77 105 122 193.5t55 127t10 64.5q0 32 -21.5 44t-81.5 12zM1028 289q-73 89 -175 191
t-191 186t-117 116q-160 -116 -160 -297q0 -136 90.5 -218.5t229.5 -82.5q197 0 323 105z" />
    <glyph glyph-name="quotesingle" unicode="'" horiz-adv-x="387" 
d="M68 1313q-14 61 26.5 98t102.5 37q66 0 103.5 -31.5t16.5 -105.5l-102 -375h-55z" />
    <glyph glyph-name="parenleft" unicode="(" horiz-adv-x="872" 
d="M1026 -416q0 -21 -7.5 -37t-19.5 -16q-144 4 -273.5 52t-236.5 140t-184.5 220t-120.5 298.5t-43 368.5q0 241 66.5 444t182 340.5t272.5 215.5t337 82q27 0 27 -45q0 -50 -27 -50q-137 -4 -245.5 -84.5t-176 -216.5t-102.5 -310.5t-35 -375.5q0 -200 35 -374t102.5 -310
t176 -215.5t245.5 -83.5q27 0 27 -43z" />
    <glyph glyph-name="parenright" unicode=")" horiz-adv-x="872" 
d="M-154 1638q0 21 8 37.5t21 16.5q181 -5 337 -80.5t272 -211t182.5 -339.5t66.5 -451q0 -240 -66.5 -442.5t-182 -340t-272.5 -215t-337 -81.5q-29 0 -29 45q0 49 29 49q137 4 245 84t175.5 216t102 310t34.5 375q0 160 -21.5 303.5t-66.5 267.5t-110 214.5t-157 143.5
t-202 56q-29 0 -29 43z" />
    <glyph glyph-name="asterisk" unicode="*" horiz-adv-x="872" 
d="M504 1190l239 -10q44 -2 66.5 -22.5t21 -48.5t-9.5 -58q-15 -49 -53 -71.5t-86 1.5l-205 129l62 -233q18 -60 -14 -87.5t-87 -27.5q-50 0 -83.5 30.5t-22.5 81.5l57 236l-199 -133q-39 -27 -68 -20t-46 28t-27 55q-15 48 3.5 89.5t70.5 44.5l242 18l-189 149
q-91 75 14 154q24 19 54 25t57.5 -7.5t40.5 -46.5l92 -223l86 223q11 32 29 48t39 16.5t41 -7t41 -22.5q41 -28 49.5 -72t-31.5 -83z" />
    <glyph glyph-name="plus" unicode="+" horiz-adv-x="1220" 
d="M696 432v-418h-170v418h-420v158h420v420h170v-420h418v-158h-418z" />
    <glyph glyph-name="comma" unicode="," horiz-adv-x="595" 
d="M111 -356v73q112 18 177.5 77.5t65.5 150.5q0 58 -29.5 89.5t-64.5 31.5q-63 0 -103 34.5t-40 94.5q0 61 41 103t102 42q91 0 160 -81.5t69 -203.5q0 -173 -105 -279t-273 -132z" />
    <glyph glyph-name="hyphen" unicode="-" horiz-adv-x="630" 
d="M92 639l445 49q7 -38 7 -99t-7 -112l-445 -49q-14 117 0 211z" />
    <glyph glyph-name="period" unicode="." horiz-adv-x="550" 
d="M272 324q72 0 122 -49t50 -117q0 -72 -50 -122t-122 -50q-70 0 -118 50t-48 122q0 68 48 117t118 49z" />
    <glyph glyph-name="slash" unicode="/" horiz-adv-x="1300" 
d="M1300 1413l-1083 -1413h-217l1081 1413h219z" />
    <glyph glyph-name="zero" unicode="0" horiz-adv-x="1024" 
d="M512 1448q141 0 251.5 -97.5t171 -266.5t60.5 -379t-60.5 -378t-171 -264t-251.5 -96t-252 95.5t-172 264t-61 378.5t61 379.5t172 266.5t252 97zM512 1354q-106 0 -156.5 -171.5t-50.5 -477.5t50.5 -479t156.5 -173t158.5 174t52.5 478t-52 476.5t-159 172.5z" />
    <glyph glyph-name="one" unicode="1" horiz-adv-x="1024" 
d="M688 1386v-1271q0 -52 39 -52h170v-63h-690v63h172q41 0 41 52v966q0 41 -29 41q-13 0 -29 -8q-46 -23 -120 -44t-97 -21q-18 0 -18 34q0 26 12 29q105 28 255.5 116t244.5 185q49 0 49 -27z" />
    <glyph glyph-name="two" unicode="2" horiz-adv-x="1024" 
d="M956 0h-944l-4 49q385 279 542 485t157 418q0 127 -65 206t-191 79q-227 0 -281 -205q-20 0 -35.5 7t-15.5 18q0 40 11 86.5t42.5 102t79.5 99.5t130.5 73.5t186.5 29.5q187 0 287 -99.5t100 -295.5q0 -114 -47 -227t-135 -220t-186 -197.5t-228 -191.5h502
q54 0 74.5 23.5t34.5 97.5q43 0 43 -23q0 -14 -15.5 -132t-15.5 -152q0 -13 -8 -22t-19 -9z" />
    <glyph glyph-name="three" unicode="3" horiz-adv-x="1024" 
d="M512 795q111 0 199.5 -31.5t142 -83t81.5 -114.5t28 -130q0 -78 -22.5 -147.5t-72 -129t-121 -102.5t-175.5 -67.5t-230 -24.5q-154 0 -223.5 46t-69.5 114q0 46 28 76t68 30q31 0 51 -12.5t28 -31t19 -40.5t23.5 -40.5t43.5 -31t77 -12.5q141 0 221 91.5t80 222.5
q0 119 -70 189.5t-208 70.5q-96 0 -179 -43q-36 3 -36 39q0 21 18 39q218 118 310.5 219t92.5 201q0 81 -50 130.5t-156 49.5q-95 0 -169 -47t-112 -131q-22 0 -32.5 6t-10.5 24q0 11 8 36t25.5 63t51.5 76.5t79 72t115.5 55t154.5 21.5q181 0 272 -79.5t91 -203.5
q0 -125 -90 -213t-281 -157z" />
    <glyph glyph-name="four" unicode="4" horiz-adv-x="1024" 
d="M852 387v-387h-242v387h-622l-8 76l671 960l201 -6v-827h195v-203h-195zM610 590v563l-383 -563h383z" />
    <glyph glyph-name="five" unicode="5" horiz-adv-x="1024" 
d="M893 1176l-625 -23q-20 -2 -20 -53q0 -15 12 -15q304 -30 461.5 -163t157.5 -340q0 -96 -29 -180t-77.5 -145t-112.5 -111.5t-133 -83.5t-140.5 -55.5t-133 -32t-112.5 -9.5q-26 0 -34.5 17t-8.5 49q271 21 406 140.5t135 299.5q0 353 -520 379l114 551l601 22
q43 4 47 74h45q0 -45 -16.5 -164t-16.5 -157z" />
    <glyph glyph-name="six" unicode="6" horiz-adv-x="1024" 
d="M319 823l15 -6q109 113 270 113q176 0 285.5 -127.5t109.5 -337.5q0 -116 -40.5 -212t-109 -158t-157 -96t-186.5 -34q-66 0 -133 22.5t-130 69.5t-112 113t-78.5 160.5t-29.5 204.5q0 132 34.5 251t92.5 209t135 166.5t162.5 128.5t174.5 88t170.5 53t151.5 17
q11 0 21 -19t10 -32q-109 -16 -201 -54t-161.5 -89.5t-126.5 -121.5t-96.5 -145t-70.5 -164zM299 498q0 -122 18 -210.5t50.5 -136.5t70.5 -70t84 -22q199 0 199 369q0 89 -11 159.5t-35 125.5t-64 84.5t-95 29.5q-96 0 -156.5 -83.5t-60.5 -245.5z" />
    <glyph glyph-name="seven" unicode="7" horiz-adv-x="1024" 
d="M176 1413h821v-49l-688 -1473l-69 25l442 1258h-483q-59 0 -89.5 -34t-39.5 -104q-43 0 -43 23q0 27 22.5 205.5t22.5 208.5h47q0 -31 12.5 -45.5t44.5 -14.5z" />
    <glyph glyph-name="eight" unicode="8" horiz-adv-x="1024" 
d="M670 807q185 -113 251 -205t66 -231q0 -101 -41 -180t-112 -127t-161.5 -72.5t-195.5 -24.5q-210 0 -326 85t-116 229q0 116 74 213t243 190q-145 85 -202.5 170t-57.5 205q0 166 121 277.5t307 111.5q197 0 304.5 -85t107.5 -198q0 -111 -55.5 -191.5t-206.5 -166.5z
M436 631q-93 -56 -133.5 -137.5t-40.5 -198.5q0 -108 63 -174t162 -66q111 0 173.5 57t62.5 164q0 61 -21 113t-63.5 95.5t-88.5 76t-114 70.5zM580 856q82 49 116.5 119t34.5 172q0 43 -10 79.5t-32 69t-64 51.5t-99 19q-96 0 -149 -55.5t-53 -141.5q0 -92 67.5 -165.5
t188.5 -147.5z" />
    <glyph glyph-name="nine" unicode="9" horiz-adv-x="1024" 
d="M645 633q12 -2 12 -27q0 -28 -45.5 -47.5t-134.5 -19.5q-189 0 -312.5 126t-123.5 312q0 88 26.5 165t71 132t103.5 95t125.5 59.5t134.5 19.5q225 0 360 -148.5t135 -414.5q0 -118 -26 -223.5t-70 -187t-104.5 -152t-128 -121.5t-141.5 -92t-144 -67.5t-137.5 -44
t-119.5 -25t-91 -7.5q-11 0 -24 21t-13 34q168 28 297.5 91t209 144t130 185t69.5 205t19 213q0 240 -63.5 373t-159.5 133q-85 0 -138 -84t-53 -233q0 -186 70.5 -304t177.5 -118q64 0 88 8z" />
    <glyph glyph-name="colon" unicode=":" horiz-adv-x="575" 
d="M287 324q72 0 123 -49t51 -117q0 -72 -51 -122t-123 -50q-69 0 -117.5 50t-48.5 122q0 68 48.5 117t117.5 49zM287 956q72 0 123 -48.5t51 -116.5q0 -72 -51 -122.5t-123 -50.5q-69 0 -117.5 50.5t-48.5 122.5q0 68 48.5 116.5t117.5 48.5z" />
    <glyph glyph-name="semicolon" unicode=";" horiz-adv-x="608" 
d="M287 956q72 0 123 -48.5t51 -116.5q0 -72 -51 -122.5t-123 -50.5q-69 0 -117.5 50.5t-48.5 122.5q0 68 48.5 116.5t117.5 48.5zM111 -356v73q112 18 177.5 77.5t65.5 150.5q0 58 -29.5 89.5t-64.5 31.5q-63 0 -103 34.5t-40 94.5q0 61 41 103t102 42q91 0 160 -81.5
t69 -203.5q0 -173 -105 -279t-273 -132z" />
    <glyph glyph-name="less" unicode="&#x3c;" horiz-adv-x="1052" 
d="M928 993l39 -55l-480 -424l480 -432l-39 -59l-842 444v86z" />
    <glyph glyph-name="equal" unicode="=" horiz-adv-x="1206" 
d="M106 768h994v-160h-994v160zM106 412h994v-160h-994v160z" />
    <glyph glyph-name="greater" unicode="&#x3e;" horiz-adv-x="1052" 
d="M123 25l-37 57l479 422l-479 434l37 57l844 -444v-86z" />
    <glyph glyph-name="question" unicode="?" horiz-adv-x="747" 
d="M311 281q61 0 105.5 -42.5t44.5 -101.5q0 -63 -44 -106t-106 -43q-61 0 -103 43t-42 106q0 59 42 101.5t103 42.5zM334 362h-51l-45 230q-9 44 -9 67q0 56 19.5 98t51 67t69 45.5t75.5 40t69.5 42.5t51 61t19.5 89q0 67 -42 112.5t-122 45.5q-29 0 -51.5 -13t-38 -31
t-32 -36.5t-43 -31.5t-62.5 -13q-53 0 -88 38t-35 97q0 76 53.5 127t167.5 51q206 0 319 -126t113 -325q0 -83 -16.5 -143.5t-44.5 -94.5t-62 -58t-70 -41.5t-68 -35.5t-58 -49.5t-37 -76.5z" />
    <glyph glyph-name="at" unicode="@" horiz-adv-x="1802" 
d="M844 887q-97 0 -190.5 -46.5t-167.5 -128.5t-119 -206t-45 -268q0 -96 23 -174.5t69.5 -138.5t123.5 -93t179 -33q167 0 313 72.5t247.5 195t159.5 287t58 344.5q0 256 -119.5 391.5t-353.5 135.5q-47 0 -135 -15q-10 0 -15.5 9t-5.5 20q0 26 21 31q92 20 186 20
q145 0 261 -35.5t202 -106.5t133 -186t47 -266q0 -216 -79 -406t-215.5 -325.5t-328 -214t-407.5 -78.5q-149 0 -266 41t-188.5 112t-108.5 162t-37 197q0 146 66.5 291.5t178 259.5t268.5 185t325 71q96 0 159.5 -14.5t110 -52t67.5 -103t21 -166.5q0 -114 -35 -218.5
t-92 -180.5t-128.5 -132.5t-145.5 -85t-142 -28.5q-96 0 -143 42t-47 118q0 114 115 229.5t354 194.5v117q0 99 -33.5 137.5t-140.5 38.5zM1018 367v161q-209 -95 -209 -247q0 -42 22 -67.5t56 -25.5q50 0 90.5 47t40.5 132z" />
    <glyph glyph-name="A" unicode="A" horiz-adv-x="1325" 
d="M588 1114l-195 -516h385zM764 1442q54 -160 250.5 -677.5t261.5 -664.5q16 -37 39 -37h74v-63h-584v63h102q62 0 39 66l-135 371h-453l-116 -307q-52 -130 61 -130h53v-63h-419v63h26q41 0 65 20t50 77q98 208 262 594.5t278 687.5h146z" />
    <glyph glyph-name="B" unicode="B" horiz-adv-x="1386" 
d="M926 1049q0 68 -16 116.5t-56.5 88.5t-117 60.5t-189.5 20.5v-571q115 1 189 17.5t116 53.5t58 87t16 127zM547 76q246 0 354.5 75t108.5 228q0 38 -4.5 69t-17.5 64t-34.5 59t-57 50t-83 40t-115 25.5t-151.5 9.5v-620zM866 748q209 -17 334 -116t125 -251
q0 -81 -37.5 -149t-113 -120.5t-202 -82t-292.5 -29.5h-578v63h125q27 0 27 35v1217q0 19 -6 26t-21 7h-125v65h564q125 0 225 -21t162.5 -55t104 -79.5t58.5 -91t17 -93.5q0 -133 -102.5 -216.5t-264.5 -108.5z" />
    <glyph glyph-name="C" unicode="C" horiz-adv-x="1476" 
d="M1350 1366q26 -13 26 -39q0 -38 9.5 -179t9.5 -165q0 -25 -52 -25q-32 186 -156.5 292t-299.5 106q-158 0 -272 -87t-170 -234t-56 -337q0 -284 132 -462.5t353 -178.5q87 0 166.5 26.5t146 76.5t111.5 131t58 182h4q50 -4 53 -27q0 -23 -10 -168t-10 -184
q0 -14 -6.5 -23t-13 -13t-19.5 -9q-88 -37 -222.5 -59.5t-283.5 -22.5q-220 0 -400 93t-282.5 258t-102.5 370q0 150 64.5 289.5t175 243t265.5 165.5t327 62q281 0 455 -82z" />
    <glyph glyph-name="D" unicode="D" horiz-adv-x="1648" 
d="M547 72q713 0 713 637q0 294 -178.5 459.5t-534.5 166.5v-1263zM254 98v1217q0 33 -27 33h-125v65h611q194 0 358 -53.5t276.5 -147t175 -223.5t62.5 -280q0 -163 -65.5 -297.5t-181.5 -224t-276 -138.5t-349 -49h-611v63h125q27 0 27 35z" />
    <glyph glyph-name="E" unicode="E" horiz-adv-x="1290" 
d="M547 1329v-559q161 4 234.5 16t96.5 34t27 71l6 74q66 0 66 -21q0 -30 -2 -102.5t-2 -104.5t2 -110.5t2 -108.5q0 -31 -66 -31l-8 80q-6 51 -27 74t-96.5 37t-232.5 16v-602q104 5 177 11t136.5 16t104 20.5t75 31t53.5 40t35.5 54t25.5 68.5t20 87q57 0 57 -27
q0 -36 -18.5 -160t-18.5 -188q0 -21 -12 -35t-29 -14q-68 0 -500.5 2t-550.5 2v63h125q27 0 27 35v1217q0 19 -6 26t-21 7h-125v65q117 0 517.5 3t470.5 3q27 0 37 -11.5t10 -33.5q0 -48 9 -140t9 -157q0 -20 -53 -20q-11 63 -21 98t-34 69.5t-57 50.5t-95.5 30t-142.5 18
t-205 6z" />
    <glyph glyph-name="F" unicode="F" horiz-adv-x="1171" 
d="M547 98q0 -35 24 -35h164v-63h-633v63h125q27 0 27 35v1217q0 19 -6 26t-21 7h-125v65q117 0 517.5 3t470.5 3q27 0 37 -11.5t10 -33.5q0 -48 9 -140t9 -157q0 -20 -53 -20q-11 63 -21 98t-34 69.5t-57 50.5t-95.5 30t-142.5 18t-205 6v-577q160 3 234 15t97 33.5
t27 69.5l6 76q66 0 66 -22q0 -30 -2 -101.5t-2 -105.5q0 -31 2 -109t2 -110q0 -29 -66 -29l-8 78q-3 31 -10.5 48.5t-27 35t-58.5 25.5t-101.5 13.5t-158.5 6.5v-578z" />
    <glyph glyph-name="G" unicode="G" horiz-adv-x="1591" 
d="M891 59q145 0 201.5 41t56.5 123v254q0 15 -8 25t-21 10h-184v63h655v-63h-121q-28 0 -28 -35v-377q-301 -133 -594 -133q-178 0 -326.5 55t-248.5 151.5t-155 229t-55 285.5t67 294t179 242.5t265 162.5t317 61q254 0 463 -80q24 -8 24 -39q0 -38 9.5 -178t9.5 -164
t-51 -24q-24 128 -93.5 219t-163 132.5t-202.5 41.5q-156 0 -270.5 -88.5t-171 -236t-56.5 -333.5q0 -294 133.5 -466.5t368.5 -172.5z" />
    <glyph glyph-name="H" unicode="H" horiz-adv-x="1755" 
d="M1208 692h-661v-594q0 -35 28 -35h125v-63h-598v63h125q27 0 27 35v1217q0 33 -27 33h-125v65h598v-65h-125q-15 0 -21.5 -7.5t-6.5 -25.5v-527h661v527q0 33 -26 33h-125v65h596v-65h-125q-15 0 -21 -7t-6 -26v-1217q0 -35 27 -35h125v-63h-596v63h125q26 0 26 35v594z
" />
    <glyph glyph-name="I" unicode="I" horiz-adv-x="800" 
d="M698 0h-596v63h125q27 0 27 35v1217q0 19 -6 26t-21 7h-125v65h596v-65h-125q-26 0 -26 -33v-1217q0 -35 26 -35h125v-63z" />
    <glyph glyph-name="J" unicode="J" horiz-adv-x="798" 
d="M565 285q0 -229 -70.5 -401.5t-205.5 -267.5t-318 -95q-110 0 -168.5 55t-58.5 129q0 60 38.5 101.5t104.5 41.5q44 0 71 -15t39.5 -37t24 -43.5t35.5 -36.5t64 -15q65 0 108 84t43 260v1270q0 19 -5.5 26t-20.5 7h-142v65h613v-65h-125q-27 0 -27 -33v-1030z" />
    <glyph glyph-name="K" unicode="K" horiz-adv-x="1570" 
d="M1305 1313q-263 -240 -539 -461q110 -107 310 -332t364 -426q22 -31 63 -31h68v-63h-651v63h122q11 0 18 7.5t7 17.5q0 16 -18 39q-84 118 -248.5 303t-253.5 264v-596q0 -35 26 -35h125v-63h-596v63h125q27 0 27 35v1217q0 19 -6 26t-21 7h-125v65h596v-65h-125
q-26 0 -26 -33v-572q124 110 282.5 272.5t239.5 264.5q17 23 11 45.5t-29 22.5h-127v65h544v-65h-69q-49 0 -94 -35z" />
    <glyph glyph-name="L" unicode="L" horiz-adv-x="1228" 
d="M547 92q146 4 246.5 19t168 39.5t109 68.5t63 94.5t37.5 130.5q58 0 58 -26q0 -19 -19.5 -173.5t-19.5 -199.5q0 -22 -12 -35.5t-31 -13.5q-66 0 -496 2t-549 2v63h125q27 0 27 35v1217q0 19 -6 26t-21 7h-125v65h605v-65h-134q-26 0 -26 -33v-1223z" />
    <glyph glyph-name="M" unicode="M" horiz-adv-x="1984" 
d="M1008 406l446 1007h428v-65h-125q-24 0 -24 -33v-1217q0 -35 24 -35h125v-63h-604v63h135q25 0 25 35v1018l-482 -1087h-86l-505 1095q0 -553 10 -958q1 -64 20.5 -83.5t71.5 -19.5h70v-63h-435v63h70q38 0 54.5 22t17.5 79q10 645 10 1151q0 33 -25 33h-127v65h473z" />
    <glyph glyph-name="N" unicode="N" horiz-adv-x="1583" 
d="M1241 477q0 384 -10 768q-1 66 -18 84.5t-74 18.5h-70v65h432v-65h-71q-45 0 -56.5 -18t-13.5 -83q-12 -509 -12 -1270h-125l-861 1272q0 -668 9 -1083q1 -65 18.5 -84t75.5 -19h70v-63h-433v63h64q46 0 62.5 20t17.5 81q8 387 8 1151q0 33 -25 33h-127v65h510z" />
    <glyph glyph-name="O" unicode="O" horiz-adv-x="1665" 
d="M1602 698q0 -148 -61 -283t-163.5 -233t-245 -156.5t-298.5 -58.5q-208 0 -385.5 98.5t-281.5 267t-104 365.5q0 150 61.5 288t165 239.5t246.5 162t298 60.5q156 0 298.5 -60.5t245 -162t163.5 -239.5t61 -288zM389 698q0 -181 57 -327t159 -228t229 -82q126 0 227.5 82
t158 228t56.5 327q0 182 -56.5 330.5t-158 234t-227.5 85.5q-127 0 -229 -85.5t-159 -234t-57 -330.5z" />
    <glyph glyph-name="P" unicode="P" horiz-adv-x="1296" 
d="M547 662q192 0 297.5 75.5t105.5 251.5q0 164 -91.5 252t-311.5 88v-667zM102 0v63h125q27 0 27 35v1217q0 19 -6 26t-21 7h-125v65h580q142 0 253.5 -34t180 -92.5t104 -134t35.5 -163.5q0 -66 -19 -123t-62 -107.5t-107 -86.5t-160 -57t-215 -21q-85 0 -145 8v-504
q0 -35 24 -35h181v-63h-650z" />
    <glyph glyph-name="Q" unicode="Q" horiz-adv-x="1665" 
d="M659 -12q-256 55 -426 254t-170 456q0 150 61.5 288t165 239.5t246.5 162t298 60.5q156 0 298.5 -60.5t245 -162t163.5 -239.5t61 -288q0 -172 -81 -324.5t-222.5 -254.5t-315.5 -135q130 -90 255.5 -155.5t223 -101.5t198.5 -57t170 -26.5t150 -5.5q121 0 261 28
q8 -8 8 -39q0 -20 -29.5 -45t-78.5 -48.5t-124.5 -39.5t-156.5 -16q-101 0 -193.5 10t-216 42.5t-242.5 86.5t-262.5 148.5t-286.5 222.5zM389 698q0 -181 57 -327t159 -228t229 -82q126 0 227.5 82t158 228t56.5 327q0 182 -56.5 330.5t-158 234t-227.5 85.5
q-127 0 -229 -85.5t-159 -234t-57 -330.5z" />
    <glyph glyph-name="R" unicode="R" horiz-adv-x="1515" 
d="M547 698q96 0 163.5 13.5t120.5 47t79 95t26 152.5q0 81 -17 137.5t-59.5 100t-120 64.5t-192.5 21v-631zM102 0v63h125q27 0 27 35v1217q0 19 -6 26t-21 7h-125v65h609q135 0 242.5 -34t173 -90.5t99.5 -126t34 -144.5q0 -119 -81.5 -214.5t-228.5 -129.5
q157 -230 318 -402q193 -209 295 -209q0 -1 -1 -13t-2 -17.5t-3 -15t-6 -13.5t-9 -4h-377q-29 0 -79 46.5t-130.5 151.5t-130 174.5t-149.5 212.5q-24 34 -35 50q-30 -6 -94 -6v-531q0 -35 24 -35h127v-63h-596z" />
    <glyph glyph-name="S" unicode="S" horiz-adv-x="1069" 
d="M625 842q199 -103 284.5 -201t85.5 -238q0 -89 -28 -162.5t-76.5 -123.5t-114.5 -84.5t-140 -50t-155 -15.5q-105 0 -186.5 14t-126 36t-66.5 44t-24 43l-10 234q-1 19 15 28t42 9q99 -314 356 -314q116 0 174 65t58 165q0 94 -51.5 154.5t-178.5 125.5q-180 90 -264 191
t-84 248q0 193 130.5 315.5t350.5 122.5q153 0 244 -36t92 -99l6 -219q0 -35 -53 -35q-35 151 -109.5 222t-172.5 71q-105 0 -167.5 -65t-62.5 -165q0 -91 54.5 -154.5t177.5 -125.5z" />
    <glyph glyph-name="T" unicode="T" horiz-adv-x="1372" 
d="M817 1307v-1209q0 -35 29 -35h133v-63h-614v63h135q26 0 26 35v1209q-58 -2 -97 -4t-79 -6.5t-64.5 -8t-52 -14t-43 -19t-34.5 -27t-30 -34.5t-26.5 -45t-27 -55.5t-29.5 -69.5q-23 0 -33 3.5t-10 16.5q0 9 3.5 57t7 122.5t3.5 148.5q0 23 9.5 32t37.5 9h1250
q26 0 35.5 -9.5t9.5 -31.5q0 -74 4 -148.5t8 -122.5t4 -57q0 -20 -45 -20q-22 52 -36.5 84t-36 64.5t-37.5 49t-46 33.5t-57 24t-76 14t-96.5 9.5t-124.5 4.5z" />
    <glyph glyph-name="U" unicode="U" horiz-adv-x="1685" 
d="M1321 1247q0 57 -20 79t-76 22h-86v65h465v-65h-62q-54 0 -73 -22t-19 -71v-747q0 -104 -31 -192.5t-86 -152t-129.5 -108t-161.5 -66.5t-182 -22q-295 0 -459.5 133.5t-164.5 407.5v807q0 33 -29 33h-125v65h631v-65h-164q-23 0 -23 -33v-758q0 -211 112.5 -324.5
t293.5 -113.5q84 0 152 21t122.5 65.5t84.5 121.5t30 181v739z" />
    <glyph glyph-name="V" unicode="V" horiz-adv-x="1314" 
d="M715 344l346 920q15 44 3.5 64t-42.5 20h-94v65h450v-65h-71q-37 0 -66 -62q-126 -269 -292 -649t-275 -668h-103q-58 168 -256.5 684t-263.5 662q-15 33 -39 33h-75v65h593v-65h-108q-30 0 -41.5 -18t-1.5 -48z" />
    <glyph glyph-name="W" unicode="W" horiz-adv-x="1918" 
d="M578 1413h817v-65h-72q-37 0 -63 -62l-162 -342l223 -600l344 920q16 44 4.5 64t-41.5 20h-94v65h448v-65h-71q-15 0 -33 -16t-31 -46q-109 -229 -276.5 -621t-282.5 -696h-102q-37 153 -230 680q-180 -406 -282 -680h-103q-58 168 -256.5 684t-263.5 662q-15 33 -39 33
h-75v65h563v-65h-78q-30 0 -41.5 -18t-1.5 -48l336 -938l188 442q-131 350 -223 529q-6 13 -20 23t-25 10h-57v65zM1001 1348q-23 0 -31 -19t1 -47l69 -188l68 170q33 84 -29 84h-78z" />
    <glyph glyph-name="X" unicode="X" horiz-adv-x="1540" 
d="M891 778l508 -680q10 -12 31 -23.5t32 -11.5h78v-63h-639v63h109q29 0 33 20.5t-17 45.5l-324 438l-348 -417q-30 -37 -24 -62t37 -25h94v-63h-459v63h55q15 0 49.5 19.5t57.5 42.5l483 514l-497 672q-9 12 -35 24.5t-39 12.5h-76v65h639v-65h-109q-29 0 -33 -20t17 -46
l324 -432l348 414q30 37 24.5 60.5t-36.5 23.5h-95v65h459v-65h-55q-17 0 -51 -18.5t-56 -43.5z" />
    <glyph glyph-name="Y" unicode="Y" horiz-adv-x="1388" 
d="M543 645l-465 668q-8 11 -28 23t-34 12h-79v65h638v-65h-137q-14 0 -18.5 -12t6.5 -29l356 -525q96 129 197.5 277.5t146.5 226.5q19 32 11 47t-35 15h-119v65h469v-65h-63q-14 0 -36 -11.5t-34 -23.5q-243 -275 -481 -596v-619q0 -35 24 -35h135v-63h-614v63h135
q25 0 25 35v547z" />
    <glyph glyph-name="Z" unicode="Z" horiz-adv-x="1480" 
d="M1413 426q0 -27 -18.5 -184t-18.5 -197q0 -21 -12 -34t-31 -13q-14 0 -262 0.5t-550.5 1t-448.5 0.5l-11 37l943 1282q-132 -4 -222 -8t-171 -14t-130 -19t-93.5 -31t-68.5 -41.5t-49 -58.5t-39 -74t-36 -96q-22 0 -38 8.5t-16 20.5q0 14 19.5 169.5t19.5 194.5
q0 20 11.5 32.5t27.5 12.5q15 0 246 -0.5t515.5 -1t428.5 -0.5l10 -39l-940 -1278q115 2 200 4t163 8.5t131 11.5t102.5 19.5t79.5 25.5t60 35.5t46.5 43.5t36.5 56.5t32 67.5t32 83q21 0 36 -7.5t15 -17.5z" />
    <glyph glyph-name="bracketleft" unicode="[" horiz-adv-x="872" 
d="M197 -469v2161h694q22 0 22 -45q0 -56 -22 -56h-406v-1958h406q22 0 22 -55q0 -47 -22 -47h-694z" />
    <glyph glyph-name="backslash" unicode="\" horiz-adv-x="1300" 
d="M0 1413h219l1081 -1413h-217z" />
    <glyph glyph-name="bracketright" unicode="]" horiz-adv-x="872" 
d="M678 -469h-694q-25 0 -25 47q0 55 25 55h403v1958h-403q-25 0 -25 56q0 45 25 45h694v-2161z" />
    <glyph glyph-name="asciicircum" unicode="^" horiz-adv-x="1081" 
d="M954 678l-49 -33l-364 406l-365 -406l-49 33l375 735h78z" />
    <glyph glyph-name="underscore" unicode="_" horiz-adv-x="1308" 
d="M0 -199h1309v-133h-1309v133z" />
    <glyph glyph-name="grave" unicode="`" horiz-adv-x="819" 
d="M197 1343q-27 22 -27 56q0 20 21.5 34.5t66.5 14.5q74 0 119 -26t78 -74l194 -293l-59 -23z" />
    <glyph glyph-name="a" unicode="a" horiz-adv-x="976" 
d="M557 322v163q-118 -51 -173.5 -116t-55.5 -133q0 -45 20.5 -69t57.5 -24q53 0 102 47.5t49 131.5zM578 180q-40 -89 -117.5 -152t-181.5 -63q-189 0 -189 176q0 107 112 214t355 200v186q0 52 -20 80.5t-72 28.5q-66 0 -101 -38.5t-47 -115.5q-7 -42 -51 -72t-88 -30
q-76 0 -76 78q0 45 23.5 92.5t68.5 91.5t122.5 72t172.5 28q158 0 232 -51t74 -164q0 -85 -10.5 -247t-10.5 -246q0 -49 16.5 -69.5t53.5 -20.5q61 0 90 53q33 -7 33 -27q0 -25 -13.5 -58.5t-39.5 -68.5t-73.5 -58.5t-105.5 -23.5q-74 0 -115.5 57t-41.5 148z" />
    <glyph glyph-name="b" unicode="b" horiz-adv-x="1232" 
d="M633 -35q-72 0 -131 16.5t-89.5 36t-63.5 36t-58 16.5q-27 0 -47 -29t-41 -102l-53 8q18 104 23 227t5 404v763q0 52 -13 71.5t-44 29.5l-37 12q-33 11 -33 39q0 18 6 27q118 8 189.5 28.5t146.5 59.5q35 0 35 -13q0 -3 -1.5 -22.5t-3.5 -60t-4 -100t-3.5 -161.5
t-1.5 -225v-215q154 145 342 145q185 0 291 -126t106 -326q0 -234 -149 -386.5t-371 -152.5zM414 684v-342q0 -144 51 -215.5t160 -71.5q126 0 205 103.5t79 259.5q0 171 -81.5 275t-211.5 104q-85 0 -143.5 -33t-58.5 -80z" />
    <glyph glyph-name="c" unicode="c" horiz-adv-x="903" 
d="M860 303q0 -36 -9.5 -76.5t-35 -88t-64.5 -85t-106 -63t-151 -25.5q-186 0 -299 131.5t-113 337.5q0 109 44 208t114 166.5t157.5 107.5t173.5 40q145 0 217 -48t72 -138q0 -51 -27 -78.5t-73 -27.5q-28 0 -50.5 14.5t-40 35t-37 40.5t-50 34.5t-70.5 14.5
q-110 0 -175 -75t-65 -204q0 -153 80.5 -236t214.5 -83q71 0 139.5 34.5t116.5 98.5q37 0 37 -35z" />
    <glyph glyph-name="d" unicode="d" horiz-adv-x="1228" 
d="M1071 1595q0 -2 -1.5 -22.5t-3.5 -62t-4 -102t-3.5 -163t-1.5 -225.5v-850q0 -23 10.5 -37t30.5 -14h102v-51l-364 -86l-13 131q-74 -70 -165 -109t-181 -39q-101 0 -179 36.5t-124.5 99.5t-70 140t-23.5 165q0 156 66 281.5t186.5 197t273.5 71.5q97 0 215 -26v411
q0 52 -13 71.5t-44 29.5l-35 12q-35 10 -35 39q0 18 6 27q126 8 198 28.5t138 59.5q35 0 35 -13zM821 236v315q0 167 -57 241t-170 74q-68 0 -121.5 -31.5t-84.5 -84.5t-46.5 -116t-15.5 -132q0 -186 87.5 -281.5t223.5 -95.5q70 0 127 32.5t57 78.5z" />
    <glyph glyph-name="e" unicode="e" horiz-adv-x="944" 
d="M270 592q-6 -34 -6 -70q0 -153 81 -240t230 -87q86 0 157 30.5t106 89.5q16 0 29.5 -9t13.5 -23q0 -26 -10.5 -62.5t-38.5 -82t-69.5 -83.5t-112 -64t-156.5 -26q-80 0 -153 27.5t-134 82.5t-97 148t-36 213q0 140 67.5 260.5t180.5 190t241 69.5q170 0 251 -77t81 -211
q0 -76 -59 -76h-566zM291 662q169 6 253 17t108 26t24 43q0 42 -34.5 69t-96.5 27q-89 0 -155.5 -50t-98.5 -132z" />
    <glyph glyph-name="f" unicode="f" horiz-adv-x="661" 
d="M414 788v-673q0 -25 8 -38.5t33 -13.5h114v-63h-518v63h84q43 0 43 52v673h-145v54l145 59v105q0 147 62 272.5t177 201.5t259 76q135 0 196.5 -50t61.5 -124q0 -58 -31.5 -92.5t-89.5 -34.5q-40 0 -64 20t-33.5 48.5t-18.5 56.5t-30.5 48t-58.5 20q-194 0 -194 -352
v-185h223v-123h-223z" />
    <glyph glyph-name="g" unicode="g" horiz-adv-x="1069" 
d="M365 -84q-103 -79 -103 -178q0 -164 256 -164q140 0 239 68t99 176q0 55 -35.5 81.5t-113.5 26.5q-56 0 -175 -5t-167 -5zM291 -72q-68 6 -137.5 59t-69.5 113q0 97 254 213q-100 34 -155.5 117.5t-55.5 183.5q0 154 107 248t278 94q136 0 238 -47h301v-114h-217
q63 -78 63 -189q0 -147 -111.5 -238.5t-273.5 -91.5q-52 0 -111 9q-30 -14 -59 -40.5t-29 -58.5q0 -30 24 -45.5t60 -15.5q41 0 161 9t206 9q151 0 223 -68.5t72 -185.5q0 -190 -180.5 -311t-460.5 -121q-169 0 -274 58t-105 159q0 79 71 146t181 108zM512 870
q-141 0 -141 -243q0 -132 36 -202.5t105 -70.5q71 0 108 68.5t37 200.5q0 247 -145 247z" />
    <glyph glyph-name="h" unicode="h" horiz-adv-x="1202" 
d="M403 1020v-250q70 91 164 138.5t189 47.5q131 0 205.5 -77.5t74.5 -227.5v-536q0 -52 41 -52h84v-63h-506v63h103q43 0 43 52v460q0 107 -56.5 157t-138.5 50q-73 0 -138 -33t-65 -75v-559q0 -25 7.5 -38.5t31.5 -13.5h103v-63h-506v63h86q43 0 43 52v1226q0 52 -13.5 71
t-43.5 30l-37 12q-35 11 -35 39q0 19 8 27q117 8 188 28.5t146 59.5q37 0 37 -13q0 -4 -1.5 -25t-4 -62.5t-4.5 -101.5t-3.5 -161.5t-1.5 -224.5z" />
    <glyph glyph-name="i" unicode="i" horiz-adv-x="561" 
d="M397 948v-833q0 -25 7.5 -38.5t31.5 -13.5h88v-63h-491v63h86q43 0 43 52v575q0 25 -8 37t-33 18l-53 13q-19 5 -27 12t-8 23q0 13 8 18q124 18 204 58t115 92q37 0 37 -13zM283 1413q63 0 107 -44.5t44 -106.5q0 -63 -44 -107.5t-107 -44.5q-62 0 -107 44.5t-45 107.5
q0 61 45 106t107 45z" />
    <glyph glyph-name="j" unicode="j" horiz-adv-x="526" 
d="M162 -20v710q0 25 -8 37t-33 18l-53 13q-19 5 -27 12t-8 23q0 13 8 18q124 18 204 58t115 92q37 0 37 -13v-938q0 -92 -41 -190t-109 -178.5t-167 -132.5t-205 -52q-65 0 -65 70q0 54 37 86.5t100 32.5q82 0 127 28t66.5 100.5t21.5 205.5zM283 1413q63 0 107 -44.5
t44 -106.5q0 -63 -44 -107.5t-107 -44.5q-62 0 -107 44.5t-45 107.5q0 61 45 106t107 45z" />
    <glyph glyph-name="k" unicode="k" horiz-adv-x="1118" 
d="M412 1595q0 -4 -1.5 -25.5t-4 -63.5t-4.5 -104t-3.5 -168.5t-1.5 -234.5v-499q62 33 183.5 149.5t121.5 159.5q0 22 -8.5 30.5t-31.5 8.5h-78v63h491v-63h-43q-71 0 -133 -49q-159 -137 -281 -219q43 -38 179.5 -202t222.5 -286q19 -29 53 -29h45v-63h-508v63h58
q30 0 30 29q0 27 -136.5 202t-164.5 179v-358q0 -25 7.5 -38.5t31.5 -13.5h60v-63h-463v63h86q43 0 43 52v1226q0 52 -14 71t-44 30l-36 12q-35 11 -35 39q0 18 6 27q119 8 190 28.5t146 59.5q37 0 37 -13z" />
    <glyph glyph-name="l" unicode="l" horiz-adv-x="555" 
d="M412 1595q0 -4 -1.5 -25t-4 -62.5t-4.5 -101.5t-3.5 -161.5t-1.5 -224.5v-905q0 -25 7.5 -38.5t31.5 -13.5h88v-63h-491v63h86q43 0 43 52v1226q0 52 -14 71t-44 30l-36 12q-35 11 -35 39q0 18 6 27q122 8 193 28.5t143 59.5q37 0 37 -13z" />
    <glyph glyph-name="m" unicode="m" horiz-adv-x="1763" 
d="M987 752q50 96 152.5 150t206.5 54q115 0 184 -76t69 -229v-536q0 -52 41 -52h86v-63h-493v63h90q41 0 41 52v481q0 94 -49 139t-121 45q-67 0 -130 -37.5t-63 -87.5v-540q0 -52 41 -52h84v-63h-491v63h88q43 0 43 52v481q0 94 -51.5 139t-124.5 45q-69 0 -128 -34
t-59 -84v-547q0 -25 7.5 -38.5t31.5 -13.5h90v-63h-493v63h86q43 0 43 52v575q0 25 -8 37t-33 18l-53 13q-19 5 -27 12t-8 23q0 13 8 18q230 34 320 150q36 0 36 -13v-178q56 86 150 136t190 50q198 0 244 -204z" />
    <glyph glyph-name="n" unicode="n" horiz-adv-x="1202" 
d="M403 770q70 91 164 138.5t189 47.5q131 0 205.5 -77.5t74.5 -227.5v-536q0 -52 41 -52h84v-63h-506v63h103q43 0 43 52v460q0 107 -56.5 157t-138.5 50q-73 0 -138 -33t-65 -75v-559q0 -25 7.5 -38.5t31.5 -13.5h103v-63h-506v63h86q43 0 43 52v575q0 25 -8 37t-33 18
l-53 13q-19 5 -27 12t-8 23q0 13 8 18q230 34 320 150q36 0 36 -13v-178z" />
    <glyph glyph-name="o" unicode="o" horiz-adv-x="1175" 
d="M588 956q216 0 359 -144t143 -357q0 -214 -142 -352t-360 -138t-360 138t-142 352q0 213 143 357t359 144zM588 860q-108 0 -169 -107t-61 -298t60.5 -292.5t169.5 -101.5t169 101.5t60 292.5t-60.5 298t-168.5 107z" />
    <glyph glyph-name="p" unicode="p" horiz-adv-x="1222" 
d="M403 811q145 145 330 145q130 0 225.5 -62t141 -159.5t45.5 -214.5q0 -156 -66.5 -282t-189.5 -199.5t-279 -73.5q-101 0 -207 33v-381q0 -26 7.5 -38.5t31.5 -12.5h123v-64h-526v64h86q43 0 43 51v1073q0 25 -8 37t-33 18l-53 13q-19 5 -27 12t-8 23q0 13 8 18
q230 34 320 150q36 0 36 -13v-137zM403 686v-352q0 -279 211 -279q93 0 160 53.5t98 136t31 183.5q0 166 -80.5 268.5t-220.5 102.5q-83 0 -141 -33t-58 -80z" />
    <glyph glyph-name="q" unicode="q" horiz-adv-x="1234" 
d="M854 111q-156 -146 -328 -146q-102 0 -182 36.5t-129 99t-74.5 140.5t-25.5 167q0 237 146.5 392.5t377.5 155.5q75 0 135.5 -12.5t91.5 -27t63.5 -27t59.5 -12.5q28 0 44.5 27t29.5 100l53 -9q-17 -108 -21.5 -232.5t-4.5 -402.5v-743q0 -17 2 -26.5t11 -17t27 -7.5h87
v-64h-529v64h123q43 0 43 51v494zM854 231v326q0 161 -53.5 235t-163.5 74q-133 0 -207 -101.5t-74 -262.5q0 -187 87.5 -282t234.5 -95q69 0 122.5 30t53.5 76z" />
    <glyph glyph-name="r" unicode="r" horiz-adv-x="782" 
d="M49 811q226 34 320 150q37 0 37 -13v-200q41 59 75 99t87.5 74.5t107.5 34.5q70 0 104.5 -42.5t34.5 -106.5t-33 -115t-86 -51q-33 0 -52.5 17t-26 37.5t-22.5 37.5t-42 17q-60 0 -103.5 -47t-43.5 -130v-458q0 -16 2 -26t11.5 -18t26.5 -8h154v-63h-559v63h86
q43 0 43 52v575q0 25 -8 37t-33 18l-53 13q-19 5 -27 12t-8 23q0 13 8 18z" />
    <glyph glyph-name="s" unicode="s" horiz-adv-x="770" 
d="M420 956q105 0 176.5 -26t71.5 -60v-184q0 -24 -58 -24q-21 105 -73.5 153.5t-126.5 48.5q-61 0 -92 -32.5t-31 -79.5q0 -39 23 -71t60 -55t81.5 -45.5t89 -49t81.5 -58t60 -80t23 -108.5q0 -151 -101.5 -235.5t-255.5 -84.5q-132 0 -207 27.5t-75 62.5v187q0 28 57 28
q43 -213 239 -213q66 0 103 32.5t37 80.5q0 45 -23 81t-60 60.5t-82 47.5t-90 48.5t-82 57t-60 80t-23 110.5q0 126 92.5 213.5t245.5 87.5z" />
    <glyph glyph-name="t" unicode="t" horiz-adv-x="708" 
d="M164 788h-135v54q64 15 131.5 62t121.5 122t70 156q47 0 47 -19v-252h269v-123h-269v-446q0 -92 33.5 -135t102.5 -43q51 0 77 12t43 37q31 0 31 -25q0 -74 -39 -125.5t-97.5 -74.5t-129.5 -23q-115 0 -185.5 66.5t-70.5 210.5v546z" />
    <glyph glyph-name="u" unicode="u" horiz-adv-x="1206" 
d="M1024 170q0 -26 7.5 -38.5t31.5 -12.5h102v-51l-362 -86l-15 149q-64 -80 -156.5 -123t-187.5 -43q-131 0 -204.5 77.5t-73.5 227.5v527q0 51 -41 51h-86v63h362v-563q0 -108 51.5 -158.5t131.5 -50.5q72 0 138 34.5t66 76.5v547q0 16 -2 25.5t-11.5 17.5t-26.5 8h-103
v63h379v-741z" />
    <glyph glyph-name="v" unicode="v" horiz-adv-x="987" 
d="M573 229q36 117 95 285l96 268q23 64 -35 64h-80v65h369v-65h-51q-53 0 -74 -51l-352 -828h-101l-356 850q-14 29 -47 29h-70v65h531v-65h-105q-27 0 -33 -12t7 -52l104 -260q67 -165 102 -293z" />
    <glyph glyph-name="w" unicode="w" horiz-adv-x="1554" 
d="M786 545l-245 -578h-101l-356 850q-14 29 -47 29h-70v65h494v-65h-70q-27 0 -33 -12t7 -52l112 -276q58 -140 96 -266l97 258l67 174l-57 145q-14 29 -47 29h-74v65h512v-65h-104q-25 0 -31.5 -12t6.5 -52l109 -266q43 -102 96 -278q25 91 86 272l94 272q10 38 0.5 51
t-37.5 13h-78v65h375v-65h-51q-27 0 -45 -11.5t-31 -39.5l-350 -828h-100z" />
    <glyph glyph-name="x" unicode="x" horiz-adv-x="1136" 
d="M516 350l-176 -209q-28 -32 -18 -53.5t43 -21.5h63v-66h-416v66h25q29 0 53 8t36 16.5t34 26.5l307 291l-317 409q-23 29 -70 29h-68v65h553v-65h-84q-30 0 -34.5 -17.5t18.5 -46.5l156 -211l186 205q27 29 18.5 49.5t-45.5 20.5h-57v65h399v-65h-28q-60 0 -119 -51
l-305 -287l319 -414q8 -13 29.5 -20.5t40.5 -7.5h67v-66h-551v66h84q33 0 39.5 17t-16.5 46z" />
    <glyph glyph-name="y" unicode="y" horiz-adv-x="976" 
d="M649 911h369v-65h-51q-53 0 -74 -51l-391 -916q-30 -70 -54 -119.5t-54.5 -101t-60.5 -85.5t-66 -62t-78 -41t-91 -13q-94 0 -142 43.5t-48 116.5q0 47 27.5 83t80.5 36q33 0 53.5 -12.5t30 -30t18.5 -35.5t28 -30.5t49 -12.5q51 0 115.5 93t129.5 259l-356 850
q-14 29 -47 29h-70v65h531v-65h-105q-27 0 -33 -12t7 -52l104 -260q67 -165 102 -293q36 117 95 285l96 268q23 64 -35 64h-80v65z" />
    <glyph glyph-name="z" unicode="z" horiz-adv-x="948" 
d="M866 371q15 0 31 -6.5t16 -16.5q0 -23 -15 -137.5t-15 -151.5q0 -26 -16 -42.5t-40 -16.5h-792v55l555 766q-106 -3 -169.5 -9t-119 -19.5t-86.5 -40.5t-53.5 -67t-38.5 -103q-18 0 -29 2t-19 10.5t-5 23.5l55 353h55q0 -21 2 -32t13.5 -19.5t33.5 -8.5h660v-55
l-549 -762q259 6 371.5 63.5t154.5 213.5z" />
    <glyph glyph-name="braceleft" unicode="{" horiz-adv-x="872" 
d="M59 563q-14 0 -21 14t-7 31q0 20 7 34.5t21 14.5h50q29 0 53 5t41 11t30.5 21t22 25.5t14.5 34.5t9 37.5t4.5 44.5t1.5 46v52q0 40 -5.5 133.5t-5.5 140.5q0 95 39 180t115 154t203.5 109.5t290.5 40.5q26 0 26 -45q0 -50 -26 -50q-74 0 -131.5 -11t-97 -28t-67 -46
t-43 -58t-24 -72t-10.5 -78.5t-2 -86.5t9 -159.5t9 -158.5q0 -109 -55.5 -187t-161.5 -102q106 -24 160.5 -100.5t54.5 -185.5q0 -50 -9 -157t-9 -159q0 -51 2 -86.5t10.5 -79t24 -72t43.5 -58t67.5 -46.5t97.5 -28t132 -11q26 0 26 -43q0 -21 -7 -37t-19 -16
q-162 0 -289 40t-203 108.5t-115 153t-39 179.5q0 48 5.5 142t5.5 135v5q0 44 -0.5 65.5t-3.5 56t-10 51.5t-19.5 39t-31.5 32t-47.5 17.5t-65.5 7.5h-50z" />
    <glyph glyph-name="bar" unicode="|" horiz-adv-x="552" 
d="M383 1532v-1983h-213v1983h213z" />
    <glyph glyph-name="braceright" unicode="}" horiz-adv-x="872" 
d="M813 659q16 0 23.5 -13.5t7.5 -31.5q0 -49 -31 -49h-49q-29 0 -52.5 -4.5t-41 -11t-30.5 -20.5t-22 -25t-14.5 -33.5t-9 -36.5t-5 -43t-1.5 -46v-51v-5q0 -40 5 -134t5 -141q0 -75 -23.5 -144.5t-74.5 -131.5t-125 -108t-183 -72.5t-241 -26.5q-25 0 -25 45q0 49 25 49
q74 0 132 11t97 28t67 46.5t43 58t23.5 72t10.5 78.5t2 87q0 51 -8.5 159.5t-8.5 158.5q0 110 54.5 187t162.5 99q-108 25 -161.5 102t-53.5 187q0 49 8.5 156t8.5 159t-2 87t-10.5 78.5t-23.5 72t-43 58t-67.5 46.5t-97.5 28t-133 11q-25 0 -25 43q0 21 7.5 37.5t17.5 16.5
q131 0 239.5 -26.5t182.5 -72t125 -107.5t74.5 -131.5t23.5 -144.5q0 -48 -5 -141.5t-5 -134.5v-52t1.5 -46.5t4.5 -44.5t9 -36.5t14.5 -34t22 -25t31.5 -20.5t41.5 -11t53.5 -5h49z" />
    <glyph glyph-name="asciitilde" unicode="~" horiz-adv-x="1044" 
d="M193 324l-66 20q4 94 29.5 162t68 105t89.5 54t102 17q30 0 95 -4t99 -4q10 0 36 -0.5t35 0t31 2t30.5 4.5t26 9t25 14.5t19.5 21.5t18.5 30.5t13.5 40.5t11 52l59 -17q-2 -94 -26 -162t-63.5 -105.5t-85.5 -54.5t-101 -17q-31 0 -97.5 4t-101.5 4h-27q-31 1 -46 0.5
t-40 -3.5t-38.5 -9.5t-31.5 -19t-28.5 -31.5t-20 -47.5t-15.5 -65.5z" />
    <glyph glyph-name="nbspace" unicode="&#xa0;" horiz-adv-x="466" 
 />
    <glyph glyph-name="exclamdown" unicode="&#xa1;" horiz-adv-x="591" 
d="M299 678q-63 0 -106 42t-43 101q0 63 43 106.5t106 43.5q60 0 101.5 -43.5t41.5 -106.5q0 -59 -41.5 -101t-101.5 -42zM272 596h52l125 -897q12 -92 -36 -140t-114 -48q-68 0 -114.5 47.5t-34.5 140.5z" />
    <glyph glyph-name="cent" unicode="&#xa2;" horiz-adv-x="919" 
d="M553 467l-14 -256h-121l16 258q-166 19 -268.5 147.5t-102.5 317.5q0 105 35.5 197t95 156t134 106t155.5 55l17 260h123l-17 -256q118 -7 184 -56t66 -126q0 -51 -27.5 -79t-72.5 -28q-28 0 -50 14t-38 34.5t-34.5 40.5t-48 34t-69.5 14q-111 0 -175.5 -74.5
t-64.5 -203.5q0 -143 84.5 -224t202.5 -81q71 0 139.5 34.5t116.5 98.5q37 0 37 -35q0 -33 -8 -71t-29.5 -84.5t-54 -85t-87.5 -68.5t-124 -39z" />
    <glyph glyph-name="sterling" unicode="&#xa3;" horiz-adv-x="1208" 
d="M299 713h-223v114h192q-30 118 -30 207q0 83 34.5 157t99.5 132t168 91.5t230 33.5q193 0 283 -68.5t90 -171.5q0 -67 -42 -95t-138 -28q-22 265 -201 265q-96 0 -156.5 -63t-60.5 -177q0 -140 41 -283h340v-114h-316q29 -106 29 -244q0 -123 -86 -225t-197 -142
q78 -4 166 -4q289 0 422 74.5t166 269.5q22 0 40.5 -5t18.5 -15q0 -40 -21.5 -183t-21.5 -200q0 -21 -11.5 -34t-27.5 -13q-135 0 -436.5 10t-431.5 10q-63 -35 -123 -35q-41 0 -63.5 21.5t-22.5 52.5q0 34 26 59t73 25q50 0 108 -16q68 0 116 62t48 171q0 41 -5 82.5
t-16 83.5t-19 69t-23 70t-19 56z" />
    <glyph glyph-name="currency" unicode="&#xa4;" horiz-adv-x="1247" 
d="M981 457l160 -160l-107 -107l-160 160q-113 -82 -249 -82q-128 0 -250 76l-160 -156l-109 109l158 158q-80 113 -80 250q0 135 80 256l-158 157l109 105l158 -158q110 78 252 78t249 -78l158 158l109 -109l-158 -158q80 -110 80 -251q0 -137 -82 -248zM625 938
q-96 0 -162 -68.5t-66 -164.5q0 -95 66 -162.5t162 -67.5q93 0 159 68t66 162q0 96 -66 164.5t-159 68.5z" />
    <glyph glyph-name="yen" unicode="&#xa5;" horiz-adv-x="1388" 
d="M543 254h-213v113h213v133h-254v112h254v33l-465 668q-8 11 -28 23t-34 12h-79v65h638v-65h-137q-14 0 -18.5 -12t6.5 -29l356 -525q96 129 197.5 277.5t146.5 226.5q19 32 11 47t-35 15h-119v65h469v-65h-63q-14 0 -36 -11.5t-34 -23.5q-243 -275 -481 -596v-105h264
v-112h-264v-133h223v-113h-223v-156q0 -35 24 -35h135v-63h-614v63h135q25 0 25 35v156z" />
    <glyph glyph-name="brokenbar" unicode="&#xa6;" horiz-adv-x="552" 
d="M170 279h213v-730h-213v730zM383 909h-213v623h213v-623z" />
    <glyph glyph-name="section" unicode="&#xa7;" horiz-adv-x="1216" 
d="M471 -498q-184 0 -275.5 63t-91.5 148q0 39 27 68t74 29q36 0 60 -8.5t36.5 -27.5t17 -34t9.5 -43q5 -26 9.5 -40.5t16 -31t33 -24t53.5 -7.5q131 0 131 222q0 71 -28 140t-73 128.5t-99 121t-108 129t-99 140.5t-73 168.5t-28 200.5q0 173 86 311t241.5 215.5
t354.5 77.5q184 0 274.5 -63.5t90.5 -149.5q0 -56 -30 -88.5t-87 -32.5q-106 0 -106 139q0 101 -101 101q-68 0 -105.5 -59t-37.5 -173q0 -81 28 -156t73 -136t99.5 -122.5t109 -128t99.5 -138.5t73 -168t28 -203q0 -117 -50.5 -221.5t-139.5 -181t-217 -121t-275 -44.5z
M438 1004q0 215 162 350q-145 -51 -227 -159t-82 -247q0 -98 27 -187.5t70.5 -158t96.5 -132.5t105.5 -123.5t96 -118t70.5 -129.5t27 -146q0 -122 -47 -220.5t-123 -138.5q161 45 235.5 152t74.5 256q0 95 -27 175.5t-69.5 140t-94.5 114.5t-104 112t-94.5 119.5t-69.5 150
t-27 190.5z" />
    <glyph glyph-name="dieresis" unicode="&#xa8;" horiz-adv-x="1028" 
d="M299 1395q52 0 89.5 -40.5t37.5 -97.5t-37.5 -98t-89.5 -41q-54 0 -91.5 41t-37.5 98t37.5 97.5t91.5 40.5zM733 1395q52 0 88.5 -40.5t36.5 -97.5q0 -58 -35.5 -99.5t-87.5 -41.5q-55 0 -93 41.5t-38 99.5t37 98t92 40z" />
    <glyph glyph-name="copyright" unicode="&#xa9;" horiz-adv-x="1789" 
d="M1683 762q0 -128 -40 -248t-113 -216.5t-170 -169t-217 -112t-248 -39.5t-248.5 39.5t-217.5 112t-170 169t-113 216.5t-40 248t40 248t113 217t170 170t217.5 113t248.5 40q160 0 306 -62.5t251.5 -168t168 -251.5t62.5 -306zM1227 1253q18 -9 18 -26q0 -27 6 -132.5
t6 -123.5q0 -19 -34 -19q-20 135 -104.5 212t-203.5 77q-155 0 -241 -132.5t-86 -340.5q0 -203 87.5 -332t235.5 -129q120 0 212 78t110 221q35 0 35 -18q0 -17 -5.5 -125t-5.5 -135q0 -21 -24 -35q-124 -57 -340 -57q-224 0 -374 150.5t-150 373.5q0 144 72.5 271
t200.5 204.5t280 77.5q194 0 305 -60zM233 762q0 -187 89 -343.5t241 -246.5t332 -90t332.5 90t242 246.5t89.5 343.5t-89.5 345t-242 249.5t-332.5 91.5q-134 0 -256 -54t-211 -145.5t-142 -219t-53 -267.5z" />
    <glyph glyph-name="ordfeminine" unicode="&#xaa;" horiz-adv-x="761" 
d="M438 1012v110q-143 -66 -143 -170q0 -31 14 -48t39 -17q34 0 62 32t28 93zM459 913q-28 -62 -84 -106.5t-129 -44.5q-135 0 -135 123q0 154 327 286v125q0 78 -53 78q-50 0 -74 -26t-32 -80q-6 -31 -37.5 -52.5t-63.5 -21.5q-53 0 -53 55q0 70 72 134.5t200 64.5
q221 0 221 -152q0 -60 -8 -169t-8 -169q0 -33 12 -47t37 -14q45 0 64 37q24 -7 24 -19q0 -25 -16.5 -57.5t-56.5 -61t-93 -28.5q-54 0 -84 40.5t-30 104.5z" />
    <glyph glyph-name="guillemotleft" unicode="&#xab;" horiz-adv-x="1269" 
d="M674 913l26 -49l-321 -381l321 -389l-26 -53l-602 399v78zM1174 913l24 -49l-321 -381l321 -389l-24 -53l-605 399v78z" />
    <glyph glyph-name="logicalnot" unicode="&#xac;" horiz-adv-x="1134" 
d="M66 616h942v-718h-195v548h-747v170z" />
    <glyph glyph-name="registered" unicode="&#xae;" horiz-adv-x="1142" 
d="M1053 1116q0 -122 -64 -224.5t-174.5 -162t-241.5 -59.5t-241.5 59.5t-175 162t-64.5 224.5q0 187 140.5 318t340.5 131t340 -131t140 -318zM748 819q-25 0 -61.5 62t-70.5 131t-47 78h-45v-213q0 -13 8 -13h58v-37h-260v37h49q10 0 10 13v471q0 14 -10 14h-49v39h243
q134 0 191 -37t57 -115q0 -107 -151 -135q33 -19 75.5 -83t74 -118.5t42.5 -56.5q101 98 101 260q0 159 -113 266t-277 107t-276.5 -107t-112.5 -266q0 -157 112.5 -262.5t276.5 -105.5q156 0 256 79q-5 0 -35 -4t-46 -4zM670 1249q0 54 -40 83.5t-106 29.5v-227
q146 0 146 114z" />
    <glyph glyph-name="macron" unicode="&#xaf;" horiz-adv-x="845" 
d="M170 1294h506v-153h-506v153z" />
    <glyph glyph-name="degree" unicode="&#xb0;" horiz-adv-x="980" 
d="M489 1448q179 0 293.5 -118t114.5 -298q0 -182 -116 -298t-292 -116q-172 0 -287.5 116.5t-115.5 297.5q0 179 117 297.5t286 118.5zM489 1372q-78 0 -121.5 -87.5t-43.5 -252.5t42 -251.5t123 -86.5q80 0 123 87t43 251q0 169 -40 254.5t-126 85.5z" />
    <glyph glyph-name="plusminus" unicode="&#xb1;" horiz-adv-x="1263" 
d="M127 160h1008v-160h-1008v160zM717 686v-418h-170v418h-420v158h420v420h170v-420h418v-158h-418z" />
    <glyph glyph-name="twosuperior" unicode="&#xb2;" 
d="M684 901h-645l-10 43q260 185 360 301t100 238q0 184 -172 184q-84 0 -127 -41t-57 -119q-15 0 -31 4t-16 11q0 40 21 90.5t60 101t108 85t153 34.5q124 0 194 -64t70 -190q0 -144 -108 -271.5t-277 -222.5h273q40 0 66 19.5t42 75.5q18 0 32.5 -4.5t14.5 -10.5
q0 -4 -15 -100t-15 -143q0 -8 -7 -14.5t-14 -6.5z" />
    <glyph glyph-name="threesuperior" unicode="&#xb3;" 
d="M455 1427q72 0 127 -21.5t86 -57.5t46 -77.5t15 -86.5q0 -129 -121 -216t-325 -87q-107 0 -169.5 35.5t-62.5 93.5q0 43 23.5 69.5t70.5 26.5q32 0 52 -15.5t30.5 -37.5t21.5 -44t33 -37.5t58 -15.5q82 0 122 51t40 136q0 75 -40.5 119.5t-115.5 44.5q-77 0 -135 -29
q-7 0 -16 14.5t-9 26.5q0 15 11 22q146 79 201 132.5t55 115.5q0 50 -29.5 79.5t-91.5 29.5t-113 -36t-78 -103q-14 0 -31.5 8.5t-17.5 19.5q0 14 10.5 40.5t36.5 62.5t62 67.5t95 53.5t128 22q117 0 185.5 -50t68.5 -134q0 -82 -49.5 -130.5t-173.5 -91.5z" />
    <glyph glyph-name="acute" unicode="&#xb4;" horiz-adv-x="819" 
d="M625 1343l-396 -311l-59 23l197 293q33 48 77.5 74t118.5 26q45 0 65.5 -14.5t20.5 -34.5q0 -35 -24 -56z" />
    <glyph glyph-name="mu" unicode="&#xb5;" horiz-adv-x="1183" 
d="M680 905q32 23 118 37t134 14q24 0 24 -10q-2 -78 -25 -218.5t-59 -262.5q2 -67 12.5 -116t24.5 -75.5t35.5 -42.5t39.5 -20t42 -4q61 0 123 33l29 -41q-38 -83 -121 -158.5t-170 -75.5q-69 0 -112.5 65.5t-57.5 231.5q-32 -147 -97.5 -222t-140.5 -75q-98 0 -174 127
q-5 -248 41 -543q-38 -16 -124 -28.5t-144 -12.5q6 184 36 405.5t72 371.5q-77 299 -53 645q31 12 117.5 19t140.5 7q7 -273 -72 -589q22 -62 57 -100t73.5 -48.5t79.5 -3t75.5 32t61.5 62.5t39 83q-25 200 -25 512z" />
    <glyph glyph-name="mu" unicode="&#x3bc;" horiz-adv-x="1183" 
d="M680 905q32 23 118 37t134 14q24 0 24 -10q-2 -78 -25 -218.5t-59 -262.5q2 -67 12.5 -116t24.5 -75.5t35.5 -42.5t39.5 -20t42 -4q61 0 123 33l29 -41q-38 -83 -121 -158.5t-170 -75.5q-69 0 -112.5 65.5t-57.5 231.5q-32 -147 -97.5 -222t-140.5 -75q-98 0 -174 127
q-5 -248 41 -543q-38 -16 -124 -28.5t-144 -12.5q6 184 36 405.5t72 371.5q-77 299 -53 645q31 12 117.5 19t140.5 7q7 -273 -72 -589q22 -62 57 -100t73.5 -48.5t79.5 -3t75.5 32t61.5 62.5t39 83q-25 200 -25 512z" />
    <glyph glyph-name="paragraph" unicode="&#xb6;" horiz-adv-x="1261" 
d="M1233 1413v-65h-125q-27 0 -27 -33v-1094q0 -229 -70.5 -401.5t-205.5 -267.5t-318 -95q-110 0 -168.5 55.5t-58.5 129.5q0 60 38.5 101.5t104.5 41.5q44 0 71 -15t39.5 -37t24 -43.5t35.5 -36.5t64 -15q65 0 109.5 84t44.5 260v391q-83 -13 -146 -13q-126 0 -227.5 41.5
t-164.5 111.5t-96.5 158t-33.5 185q0 104 39 202t112.5 178t193.5 128.5t269 48.5h496z" />
    <glyph glyph-name="periodcentered" unicode="&#xb7;" horiz-adv-x="550" 
d="M272 655q72 0 122 -49t50 -117q0 -72 -50 -122t-122 -50q-70 0 -118 50t-48 122q0 68 48 117t118 49z" />
    <glyph glyph-name="cedilla" unicode="&#xb8;" horiz-adv-x="815" 
d="M418 -123q110 0 168.5 -49t58.5 -119q0 -91 -84.5 -160t-230.5 -69q-85 0 -122.5 25t-37.5 59q0 15 6 24q60 -22 131 -22q59 0 90 38.5t31 90.5q0 46 -24 80.5t-62 34.5t-72 -17q-13 0 -19.5 8.5t-6.5 20.5q0 10 8 18l231 160h113z" />
    <glyph glyph-name="onesuperior" unicode="&#xb9;" 
d="M535 1802v-807q0 -32 26 -32h111v-62h-500v62h111q26 0 26 32v592q0 38 -37 23q-29 -16 -78 -29.5t-65 -13.5q-11 0 -13.5 27.5t9.5 29.5q74 17 176.5 73.5t181.5 123.5q18 0 35 -5t17 -14z" />
    <glyph glyph-name="ordmasculine" unicode="&#xba;" horiz-adv-x="868" 
d="M434 1448q153 0 259 -101.5t106 -248.5q0 -149 -105.5 -245.5t-259.5 -96.5t-259 96.5t-105 245.5q0 147 105.5 248.5t258.5 101.5zM434 1382q-75 0 -116.5 -74.5t-41.5 -209.5t41 -206t117 -71t117 71t41 206t-41.5 209.5t-116.5 74.5z" />
    <glyph glyph-name="guillemotright" unicode="&#xbb;" horiz-adv-x="1269" 
d="M596 43l-27 51l322 379l-322 391l27 51l602 -399v-78zM96 43l-24 51l319 379l-319 391l24 51l604 -399v-78z" />
    <glyph glyph-name="onequarter" unicode="&#xbc;" horiz-adv-x="1847" 
d="M1282 1501q13 21 80 21q38 0 68 -9.5t30 -25.5q0 -6 -4 -14l-921 -1479q-13 -21 -80 -21q-39 0 -69 9.5t-30 25.5q0 7 4 15zM487 1536v-807q0 -33 27 -33h111v-61h-500v61h111q26 0 26 33v592q0 37 -37 22q-29 -16 -78 -29.5t-65 -13.5q-11 0 -13.5 28t9.5 30
q74 17 176.5 73t181.5 123q51 0 51 -18zM1628 221v-221h-198v221h-404l-4 76l436 629l170 -4v-533h125v-168h-125zM1430 389v350l-230 -350h230z" />
    <glyph glyph-name="onehalf" unicode="&#xbd;" horiz-adv-x="1847" 
d="M1294 1501q13 21 80 21q39 0 69 -9.5t30 -25.5q0 -4 -5 -14l-921 -1479q-13 -21 -80 -21q-38 0 -68 9.5t-30 25.5q0 7 4 15zM500 1536v-807q0 -33 26 -33h111v-61h-500v61h111q26 0 26 33v592q0 20 -8.5 25t-27.5 -3q-29 -16 -78.5 -29.5t-65.5 -13.5q-11 0 -13.5 28
t9.5 30q74 17 177 73t182 123q51 0 51 -18zM1708 0h-645l-10 43q260 185 360 301t100 238q0 184 -172 184q-84 0 -127 -41t-57 -119q-15 0 -31 4t-16 11q0 40 21 90.5t60 101t108 85t153 34.5q124 0 194 -64t70 -190q0 -144 -108 -271.5t-277 -222.5h273q40 0 66 19.5
t42 75.5q18 0 32.5 -4.5t14.5 -10.5q0 -4 -15 -100.5t-15 -143.5q0 -8 -7 -14t-14 -6z" />
    <glyph glyph-name="threequarters" unicode="&#xbe;" horiz-adv-x="1847" 
d="M1305 1501q13 21 79 21q39 0 69 -9.5t30 -25.5q0 -6 -4 -14l-922 -1479q-13 -21 -80 -21q-38 0 -68 9.5t-30 25.5q0 7 4 15zM442 1161q72 0 127 -21.5t86.5 -57.5t46.5 -77.5t15 -86.5q0 -129 -121.5 -216.5t-325.5 -87.5q-107 0 -169 35.5t-62 93.5q0 43 23.5 70
t70.5 27q32 0 52 -15.5t30.5 -37.5t21.5 -44t33 -37.5t58 -15.5q82 0 121.5 51t39.5 136q0 75 -40 119t-115 44q-79 0 -135 -28q-7 0 -16 14.5t-9 26.5q0 16 10 22q146 79 201 132.5t55 115.5q0 50 -29.5 79.5t-91.5 29.5t-112 -36.5t-78 -103.5q-14 0 -31.5 9t-17.5 20
q0 14 10.5 40.5t36.5 62.5t62 67.5t95 53.5t128 22q116 0 185 -50.5t69 -134.5q0 -82 -49.5 -130t-174.5 -91zM1630 221v-221h-198v221h-404l-4 76l436 629l170 -4v-533h125v-168h-125zM1432 389v350l-230 -350h230z" />
    <glyph glyph-name="questiondown" unicode="&#xbf;" horiz-adv-x="747" 
d="M481 678q-61 0 -105 42t-44 101q0 63 43.5 106.5t105.5 43.5q61 0 103.5 -43.5t42.5 -106.5q0 -59 -42.5 -101t-103.5 -42zM459 596h51l45 -229q8 -39 8 -68q0 -56 -19.5 -98t-50.5 -67t-69 -45t-76 -39.5t-69 -42.5t-50.5 -61t-19.5 -89q0 -67 42 -112.5t122 -45.5
q29 0 51.5 13t38 31.5t32 36.5t43 31t62.5 13q53 0 88 -38t35 -97q0 -76 -53.5 -127t-167.5 -51q-207 0 -319.5 126t-112.5 324q0 83 16.5 143.5t44.5 95t62 58t70 41t68 36t58 50t37 76.5z" />
    <glyph glyph-name="Agrave" unicode="&#xc0;" horiz-adv-x="1325" 
d="M588 1114l-195 -516h385zM764 1442q54 -160 250.5 -677.5t261.5 -664.5q16 -37 39 -37h74v-63h-584v63h102q62 0 39 66l-135 371h-453l-116 -307q-52 -130 61 -130h53v-63h-419v63h26q41 0 65 20t50 77q98 208 262 594.5t278 687.5h146zM375 1737q-27 16 -27 49
q0 15 21.5 27t66.5 12q73 0 111.5 -20.5t70.5 -63.5l197 -252l-47 -19z" />
    <glyph glyph-name="Aacute" unicode="&#xc1;" horiz-adv-x="1325" 
d="M588 1114l-195 -516h385zM764 1442q54 -160 250.5 -677.5t261.5 -664.5q16 -37 39 -37h74v-63h-584v63h102q62 0 39 66l-135 371h-453l-116 -307q-52 -130 61 -130h53v-63h-419v63h26q41 0 65 20t50 77q98 208 262 594.5t278 687.5h146zM961 1737l-394 -267l-47 19
l197 252q34 43 71.5 63.5t110.5 20.5q46 0 67 -12t21 -27q0 -33 -26 -49z" />
    <glyph glyph-name="Acircumflex" unicode="&#xc2;" horiz-adv-x="1325" 
d="M588 1114l-195 -516h385zM764 1442q54 -160 250.5 -677.5t261.5 -664.5q16 -37 39 -37h74v-63h-584v63h102q62 0 39 66l-135 371h-453l-116 -307q-52 -130 61 -130h53v-63h-419v63h26q41 0 65 20t50 77q98 208 262 594.5t278 687.5h146zM680 1618l-248 -148l-37 17
l228 313q19 19 57 19q34 0 53 -19l228 -313l-37 -17z" />
    <glyph glyph-name="Atilde" unicode="&#xc3;" horiz-adv-x="1325" 
d="M588 1114l-195 -516h385zM764 1442q54 -160 250.5 -677.5t261.5 -664.5q16 -37 39 -37h74v-63h-584v63h102q62 0 39 66l-135 371h-453l-116 -307q-52 -130 61 -130h53v-63h-419v63h26q41 0 65 20t50 77q98 208 262 594.5t278 687.5h146zM414 1520l-43 16q65 219 227 219
q44 0 83 -15.5t63.5 -34.5t58.5 -34.5t69 -15.5q38 0 65 20t52 66l41 -17q-50 -229 -207 -229q-42 0 -82.5 15.5t-67.5 34.5t-65 34.5t-76 15.5t-64.5 -16t-53.5 -59z" />
    <glyph glyph-name="Adieresis" unicode="&#xc4;" horiz-adv-x="1325" 
d="M588 1114l-195 -516h385zM764 1442q54 -160 250.5 -677.5t261.5 -664.5q16 -37 39 -37h74v-63h-584v63h102q62 0 39 66l-135 371h-453l-116 -307q-52 -130 61 -130h53v-63h-419v63h26q41 0 65 20t50 77q98 208 262 594.5t278 687.5h146zM500 1722q47 0 79.5 -34t32.5 -82
t-32.5 -82.5t-79.5 -34.5t-81 35t-34 82t34 81.5t81 34.5zM887 1722q47 0 79.5 -34t32.5 -82t-32.5 -82.5t-79.5 -34.5q-49 0 -82 34.5t-33 82.5t33 82t82 34z" />
    <glyph glyph-name="Aring" unicode="&#xc5;" horiz-adv-x="1325" 
d="M588 1114l-195 -516h385zM764 1442q54 -160 250.5 -677.5t261.5 -664.5q16 -37 39 -37h74v-63h-584v63h102q62 0 39 66l-135 371h-453l-116 -307q-52 -130 61 -130h53v-63h-419v63h26q41 0 65 20t50 77q98 208 262 594.5t278 687.5h146zM688 1896q96 0 167 -63.5
t71 -153.5t-71 -154.5t-167 -64.5q-97 0 -168 64.5t-71 154.5t71 153.5t168 63.5zM688 1802q-55 0 -92 -36t-37 -87q0 -53 37 -88t92 -35q54 0 90.5 35.5t36.5 87.5q0 51 -36.5 87t-90.5 36z" />
    <glyph glyph-name="AE" unicode="&#xc6;" horiz-adv-x="1923" 
d="M883 598v514l-381 -514h381zM883 500h-451l-229 -307q-48 -66 -44 -98t58 -32h53v-63h-430v63h29q41 0 70 19.5t77 77.5q157 188 405.5 502.5t461.5 599.5v53q0 33 -27 33h-121v65q117 0 515 3t468 3q27 0 37 -11.5t10 -33.5q0 -48 8.5 -140t8.5 -157q0 -20 -53 -20
q-8 47 -14.5 76t-20 59.5t-30 47.5t-46.5 34t-66 25.5t-92.5 15.5t-123.5 10t-160 4v-559q161 4 234.5 16t96.5 34t27 71l6 74q66 0 66 -21q0 -30 -2 -102.5t-2 -104.5t2 -110.5t2 -108.5q0 -31 -66 -31l-8 80q-6 51 -27 74t-96.5 37t-232.5 16v-602q104 5 177 11t136.5 16
t103.5 20.5t74.5 31t53.5 40t35.5 54.5t25.5 68.5t20 86.5q58 0 58 -27q0 -36 -18.5 -160t-18.5 -188q0 -22 -12 -35.5t-31 -13.5q-66 0 -496.5 2t-548.5 2v63h121q27 0 27 35v402z" />
    <glyph glyph-name="Ccedilla" unicode="&#xc7;" horiz-adv-x="1476" 
d="M829 -123q110 0 169 -49t59 -119q0 -91 -85 -160t-231 -69q-85 0 -122 25t-37 59q0 15 6 24q60 -22 131 -22q59 0 90 38.5t31 90.5q0 46 -24 80.5t-62 34.5t-72 -17q-13 0 -20 8.5t-7 20.5q0 9 9 18l184 127q-220 0 -400 93t-282.5 258t-102.5 370q0 150 64.5 289.5
t175 243t265.5 165.5t327 62q281 0 455 -82q26 -13 26 -39q0 -38 9.5 -179t9.5 -165q0 -25 -52 -25q-32 186 -156.5 292t-299.5 106q-158 0 -272 -87t-170 -234t-56 -337q0 -284 132 -462.5t353 -178.5q87 0 166.5 26.5t146 76.5t111.5 131t58 182h4q50 -4 53 -27
q0 -23 -10 -168t-10 -184q0 -14 -6.5 -23t-13 -13t-19.5 -9q-148 -63 -389 -78z" />
    <glyph glyph-name="Egrave" unicode="&#xc8;" horiz-adv-x="1290" 
d="M547 1329v-559q161 4 234.5 16t96.5 34t27 71l6 74q66 0 66 -21q0 -30 -2 -102.5t-2 -104.5t2 -110.5t2 -108.5q0 -31 -66 -31l-8 80q-6 51 -27 74t-96.5 37t-232.5 16v-602q104 5 177 11t136.5 16t104 20.5t75 31t53.5 40t35.5 54t25.5 68.5t20 87q57 0 57 -27
q0 -36 -18.5 -160t-18.5 -188q0 -21 -12 -35t-29 -14q-68 0 -500.5 2t-550.5 2v63h125q27 0 27 35v1217q0 19 -6 26t-21 7h-125v65q117 0 517.5 3t470.5 3q27 0 37 -11.5t10 -33.5q0 -48 9 -140t9 -157q0 -20 -53 -20q-11 63 -21 98t-34 69.5t-57 50.5t-95.5 30t-142.5 18
t-205 6zM432 1737q-26 16 -26 49q0 15 21.5 27t66.5 12q73 0 111.5 -20.5t70.5 -63.5l196 -252l-47 -19z" />
    <glyph glyph-name="Eacute" unicode="&#xc9;" horiz-adv-x="1290" 
d="M547 1329v-559q161 4 234.5 16t96.5 34t27 71l6 74q66 0 66 -21q0 -30 -2 -102.5t-2 -104.5t2 -110.5t2 -108.5q0 -31 -66 -31l-8 80q-6 51 -27 74t-96.5 37t-232.5 16v-602q104 5 177 11t136.5 16t104 20.5t75 31t53.5 40t35.5 54t25.5 68.5t20 87q57 0 57 -27
q0 -36 -18.5 -160t-18.5 -188q0 -21 -12 -35t-29 -14q-68 0 -500.5 2t-550.5 2v63h125q27 0 27 35v1217q0 19 -6 26t-21 7h-125v65q117 0 517.5 3t470.5 3q27 0 37 -11.5t10 -33.5q0 -48 9 -140t9 -157q0 -20 -53 -20q-11 63 -21 98t-34 69.5t-57 50.5t-95.5 30t-142.5 18
t-205 6zM952 1737l-393 -267l-47 19l197 252q34 43 71.5 63.5t110.5 20.5q46 0 67 -12t21 -27q0 -33 -27 -49z" />
    <glyph glyph-name="Ecircumflex" unicode="&#xca;" horiz-adv-x="1290" 
d="M547 1329v-559q161 4 234.5 16t96.5 34t27 71l6 74q66 0 66 -21q0 -30 -2 -102.5t-2 -104.5t2 -110.5t2 -108.5q0 -31 -66 -31l-8 80q-6 51 -27 74t-96.5 37t-232.5 16v-602q104 5 177 11t136.5 16t104 20.5t75 31t53.5 40t35.5 54t25.5 68.5t20 87q57 0 57 -27
q0 -36 -18.5 -160t-18.5 -188q0 -21 -12 -35t-29 -14q-68 0 -500.5 2t-550.5 2v63h125q27 0 27 35v1217q0 19 -6 26t-21 7h-125v65q117 0 517.5 3t470.5 3q27 0 37 -11.5t10 -33.5q0 -48 9 -140t9 -157q0 -20 -53 -20q-11 63 -21 98t-34 69.5t-57 50.5t-95.5 30t-142.5 18
t-205 6zM688 1618l-248 -148l-37 17l228 313q19 19 57 19q34 0 53 -19l228 -313l-37 -17z" />
    <glyph glyph-name="Edieresis" unicode="&#xcb;" horiz-adv-x="1290" 
d="M547 1329v-559q161 4 234.5 16t96.5 34t27 71l6 74q66 0 66 -21q0 -30 -2 -102.5t-2 -104.5t2 -110.5t2 -108.5q0 -31 -66 -31l-8 80q-6 51 -27 74t-96.5 37t-232.5 16v-602q104 5 177 11t136.5 16t104 20.5t75 31t53.5 40t35.5 54t25.5 68.5t20 87q57 0 57 -27
q0 -36 -18.5 -160t-18.5 -188q0 -21 -12 -35t-29 -14q-68 0 -500.5 2t-550.5 2v63h125q27 0 27 35v1217q0 19 -6 26t-21 7h-125v65q117 0 517.5 3t470.5 3q27 0 37 -11.5t10 -33.5q0 -48 9 -140t9 -157q0 -20 -53 -20q-11 63 -21 98t-34 69.5t-57 50.5t-95.5 30t-142.5 18
t-205 6zM496 1722q47 0 79.5 -34t32.5 -82t-32.5 -82.5t-79.5 -34.5t-81 35t-34 82t34 81.5t81 34.5zM883 1722q47 0 79.5 -34t32.5 -82t-32.5 -82.5t-79.5 -34.5q-49 0 -82 34.5t-33 82.5t33 82t82 34z" />
    <glyph glyph-name="Igrave" unicode="&#xcc;" horiz-adv-x="800" 
d="M698 0h-596v63h125q27 0 27 35v1217q0 19 -6 26t-21 7h-125v65h596v-65h-125q-26 0 -26 -33v-1217q0 -35 26 -35h125v-63zM156 1737q-27 16 -27 49q0 15 21.5 27t66.5 12q73 0 111.5 -20.5t70.5 -63.5l197 -252l-47 -19z" />
    <glyph glyph-name="Iacute" unicode="&#xcd;" horiz-adv-x="800" 
d="M698 0h-596v63h125q27 0 27 35v1217q0 19 -6 26t-21 7h-125v65h596v-65h-125q-26 0 -26 -33v-1217q0 -35 26 -35h125v-63zM684 1737l-393 -267l-47 19l196 252q34 43 72 63.5t111 20.5q46 0 67 -12t21 -27q0 -33 -27 -49z" />
    <glyph glyph-name="Icircumflex" unicode="&#xce;" horiz-adv-x="800" 
d="M698 0h-596v63h125q27 0 27 35v1217q0 19 -6 26t-21 7h-125v65h596v-65h-125q-26 0 -26 -33v-1217q0 -35 26 -35h125v-63zM401 1618l-247 -148l-37 17l227 313q19 19 57 19q35 0 54 -19l227 -313l-37 -17z" />
    <glyph glyph-name="Idieresis" unicode="&#xcf;" horiz-adv-x="819" 
d="M709 0h-596v63h125q15 0 20.5 8t5.5 27v1217q0 19 -5.5 26t-20.5 7h-125v65h596v-65h-125q-27 0 -27 -33v-1217q0 -35 27 -35h125v-63zM217 1722q47 0 80 -34t33 -82t-33 -82.5t-80 -34.5t-81 35t-34 82t34 81.5t81 34.5zM604 1722q47 0 80 -34t33 -82t-33 -82.5
t-80 -34.5q-49 0 -82 34.5t-33 82.5t33 82t82 34z" />
    <glyph glyph-name="Eth" unicode="&#xd0;" horiz-adv-x="1654" 
d="M553 770h330v-106h-330v-592q713 0 713 637q0 294 -178.5 459.5t-534.5 166.5v-565zM260 664h-158v106h158v545q0 33 -27 33h-124v65h610q194 0 358 -53.5t276.5 -147t175 -223.5t62.5 -280q0 -163 -65.5 -297.5t-181.5 -224t-276 -138.5t-349 -49h-610v63h124
q27 0 27 35v566z" />
    <glyph glyph-name="Ntilde" unicode="&#xd1;" horiz-adv-x="1583" 
d="M1241 477q0 384 -10 768q-1 66 -18 84.5t-74 18.5h-70v65h432v-65h-71q-45 0 -56.5 -18t-13.5 -83q-12 -509 -12 -1270h-125l-861 1272q0 -668 9 -1083q1 -65 18.5 -84t75.5 -19h70v-63h-433v63h64q46 0 62.5 20t17.5 81q8 387 8 1151q0 33 -25 33h-127v65h510zM543 1520
l-43 16q65 219 227 219q44 0 83 -15.5t63.5 -34.5t58.5 -34.5t69 -15.5q38 0 65 20t52 66l41 -17q-50 -229 -207 -229q-42 0 -82.5 15.5t-67 34.5t-64.5 34.5t-76 15.5t-65 -16t-54 -59z" />
    <glyph glyph-name="Ograve" unicode="&#xd2;" horiz-adv-x="1665" 
d="M1602 698q0 -148 -61 -283t-163.5 -233t-245 -156.5t-298.5 -58.5q-208 0 -385.5 98.5t-281.5 267t-104 365.5q0 150 61.5 288t165 239.5t246.5 162t298 60.5q156 0 298.5 -60.5t245 -162t163.5 -239.5t61 -288zM389 698q0 -181 57 -327t159 -228t229 -82q126 0 227.5 82
t158 228t56.5 327q0 182 -56.5 330.5t-158 234t-227.5 85.5q-127 0 -229 -85.5t-159 -234t-57 -330.5zM600 1747q-27 16 -27 49q0 15 22 27t67 12q73 0 111.5 -20.5t70.5 -63.5l196 -252l-47 -18z" />
    <glyph glyph-name="Oacute" unicode="&#xd3;" horiz-adv-x="1665" 
d="M1602 698q0 -148 -61 -283t-163.5 -233t-245 -156.5t-298.5 -58.5q-208 0 -385.5 98.5t-281.5 267t-104 365.5q0 150 61.5 288t165 239.5t246.5 162t298 60.5q156 0 298.5 -60.5t245 -162t163.5 -239.5t61 -288zM389 698q0 -181 57 -327t159 -228t229 -82q126 0 227.5 82
t158 228t56.5 327q0 182 -56.5 330.5t-158 234t-227.5 85.5q-127 0 -229 -85.5t-159 -234t-57 -330.5zM1077 1737l-393 -267l-47 19l197 252q34 43 71.5 63.5t110.5 20.5q46 0 67 -12t21 -27q0 -33 -27 -49z" />
    <glyph glyph-name="Ocircumflex" unicode="&#xd4;" horiz-adv-x="1665" 
d="M1602 698q0 -148 -61 -283t-163.5 -233t-245 -156.5t-298.5 -58.5q-208 0 -385.5 98.5t-281.5 267t-104 365.5q0 150 61.5 288t165 239.5t246.5 162t298 60.5q156 0 298.5 -60.5t245 -162t163.5 -239.5t61 -288zM389 698q0 -181 57 -327t159 -228t229 -82q126 0 227.5 82
t158 228t56.5 327q0 182 -56.5 330.5t-158 234t-227.5 85.5q-127 0 -229 -85.5t-159 -234t-57 -330.5zM834 1618l-248 -148l-37 17l227 313q19 19 58 19q34 0 53 -19l227 -313l-37 -17z" />
    <glyph glyph-name="Otilde" unicode="&#xd5;" horiz-adv-x="1665" 
d="M1602 698q0 -148 -61 -283t-163.5 -233t-245 -156.5t-298.5 -58.5q-208 0 -385.5 98.5t-281.5 267t-104 365.5q0 150 61.5 288t165 239.5t246.5 162t298 60.5q156 0 298.5 -60.5t245 -162t163.5 -239.5t61 -288zM389 698q0 -181 57 -327t159 -228t229 -82q126 0 227.5 82
t158 228t56.5 327q0 182 -56.5 330.5t-158 234t-227.5 85.5q-127 0 -229 -85.5t-159 -234t-57 -330.5zM561 1520l-43 16q65 219 227 219q44 0 83.5 -15.5t63.5 -34.5t58.5 -34.5t69.5 -15.5q38 0 65 20t52 66l41 -17q-50 -229 -207 -229q-42 0 -82.5 15.5t-67.5 34.5
t-65 34.5t-76 15.5t-65 -16t-54 -59z" />
    <glyph glyph-name="Odieresis" unicode="&#xd6;" horiz-adv-x="1665" 
d="M1602 698q0 -148 -61 -283t-163.5 -233t-245 -156.5t-298.5 -58.5q-208 0 -385.5 98.5t-281.5 267t-104 365.5q0 150 61.5 288t165 239.5t246.5 162t298 60.5q156 0 298.5 -60.5t245 -162t163.5 -239.5t61 -288zM389 698q0 -181 57 -327t159 -228t229 -82q126 0 227.5 82
t158 228t56.5 327q0 182 -56.5 330.5t-158 234t-227.5 85.5q-127 0 -229 -85.5t-159 -234t-57 -330.5zM639 1722q47 0 80 -34t33 -82t-33 -82.5t-80 -34.5t-81 35t-34 82t34 81.5t81 34.5zM1026 1722q47 0 80 -34t33 -82t-33 -82.5t-80 -34.5q-49 0 -82 34.5t-33 82.5t33 82
t82 34z" />
    <glyph glyph-name="multiply" unicode="&#xd7;" horiz-adv-x="1226" 
d="M723 516l295 -295l-121 -121l-295 295l-297 -295l-110 111l294 297l-294 295l120 121l295 -295l295 293l113 -111z" />
    <glyph glyph-name="Oslash" unicode="&#xd8;" horiz-adv-x="1665" 
d="M1313 1282l135 131h219l-244 -237q179 -208 179 -478q0 -148 -61 -283t-163.5 -233t-245 -156.5t-298.5 -58.5q-270 0 -482 162l-137 -129h-217l244 233q-179 201 -179 465q0 150 61.5 288t165 239.5t246.5 162t298 60.5q264 0 479 -166zM1233 991l-737 -721
q61 -99 147.5 -154t190.5 -55q126 0 227.5 82t158 228t56.5 327q0 160 -43 293zM430 420l735 717q-61 101 -145.5 156t-185.5 55q-127 0 -229 -85.5t-159 -234t-57 -330.5q0 -140 41 -278z" />
    <glyph glyph-name="Ugrave" unicode="&#xd9;" horiz-adv-x="1685" 
d="M1321 1247q0 57 -20 79t-76 22h-86v65h465v-65h-62q-54 0 -73 -22t-19 -71v-747q0 -104 -31 -192.5t-86 -152t-129.5 -108t-161.5 -66.5t-182 -22q-295 0 -459.5 133.5t-164.5 407.5v807q0 33 -29 33h-125v65h631v-65h-164q-23 0 -23 -33v-758q0 -211 112.5 -324.5
t293.5 -113.5q84 0 152 21t122.5 65.5t84.5 121.5t30 181v739zM590 1737q-27 16 -27 49q0 15 21.5 27t66.5 12q73 0 112 -21t71 -63l196 -252l-47 -19z" />
    <glyph glyph-name="Uacute" unicode="&#xda;" horiz-adv-x="1607" 
d="M1276 1247q0 57 -20 79t-76 22h-86v65h465v-65h-62q-54 0 -73 -22t-19 -71v-747q0 -104 -31 -192.5t-86 -152t-129.5 -108t-161.5 -66.5t-182 -22q-295 0 -460 133.5t-165 407.5v807q0 33 -28 33h-125v65h631v-65h-164q-23 0 -23 -33v-758q0 -211 112.5 -324.5
t293.5 -113.5q84 0 152 21t122.5 65.5t84.5 121.5t30 181v739zM1169 1737l-393 -267l-47 19l197 252q34 43 71.5 63.5t110.5 20.5q46 0 67 -12t21 -27q0 -33 -27 -49z" />
    <glyph glyph-name="Ucircumflex" unicode="&#xdb;" horiz-adv-x="1685" 
d="M1321 1247q0 57 -20 79t-76 22h-86v65h465v-65h-62q-54 0 -73 -22t-19 -71v-747q0 -104 -31 -192.5t-86 -152t-129.5 -108t-161.5 -66.5t-182 -22q-295 0 -459.5 133.5t-164.5 407.5v807q0 33 -29 33h-125v65h631v-65h-164q-23 0 -23 -33v-758q0 -211 112.5 -324.5
t293.5 -113.5q84 0 152 21t122.5 65.5t84.5 121.5t30 181v739zM915 1618l-247 -148l-37 17l227 313q19 19 57 19q35 0 54 -19l227 -313l-37 -17z" />
    <glyph glyph-name="Udieresis" unicode="&#xdc;" horiz-adv-x="1685" 
d="M1321 1247q0 57 -20 79t-76 22h-86v65h465v-65h-62q-54 0 -73 -22t-19 -71v-747q0 -104 -31 -192.5t-86 -152t-129.5 -108t-161.5 -66.5t-182 -22q-295 0 -459.5 133.5t-164.5 407.5v807q0 33 -29 33h-125v65h631v-65h-164q-23 0 -23 -33v-758q0 -211 112.5 -324.5
t293.5 -113.5q84 0 152 21t122.5 65.5t84.5 121.5t30 181v739zM705 1722q47 0 79.5 -34t32.5 -82t-32.5 -82.5t-79.5 -34.5t-81 35t-34 82t34 81.5t81 34.5zM1092 1722q47 0 79.5 -34t32.5 -82t-32.5 -82.5t-79.5 -34.5q-49 0 -82 34.5t-33 82.5t33 82t82 34z" />
    <glyph glyph-name="Yacute" unicode="&#xdd;" horiz-adv-x="1388" 
d="M543 645l-465 668q-8 11 -28 23t-34 12h-79v65h638v-65h-137q-14 0 -18.5 -12t6.5 -29l356 -525q96 129 197.5 277.5t146.5 226.5q19 32 11 47t-35 15h-119v65h469v-65h-63q-14 0 -36 -11.5t-34 -23.5q-243 -275 -481 -596v-619q0 -35 24 -35h135v-63h-614v63h135
q25 0 25 35v547zM1069 1737l-393 -267l-47 19l196 252q34 43 72 63.5t111 20.5q46 0 67 -12t21 -27q0 -33 -27 -49z" />
    <glyph glyph-name="Thorn" unicode="&#xde;" horiz-adv-x="1296" 
d="M547 1159h135q142 0 253.5 -34t180 -92.5t104 -134t35.5 -163.5q0 -66 -19 -123t-62 -107.5t-107 -86.5t-160 -57t-215 -21q-89 0 -145 10v-252q0 -35 26 -35h125v-63h-596v63h125q27 0 27 35v1217q0 19 -6 26t-21 7h-125v65h596v-65h-125q-26 0 -26 -33v-156zM547 410
q93 0 164 16.5t126 53t84 100.5t29 155q0 80 -20 140t-65 106.5t-125 70t-193 23.5v-665z" />
    <glyph glyph-name="germandbls" unicode="&#xdf;" horiz-adv-x="1271" 
d="M674 1440q-113 0 -183.5 -82t-70.5 -262v-1096h-363v63h84q43 0 43 52v673h-145v43l145 70v105q0 145 72.5 272t197 202.5t269.5 75.5q149 0 236.5 -62t87.5 -155q0 -47 -18.5 -87.5t-46.5 -68t-60 -57t-60 -54.5t-46.5 -60.5t-18.5 -75.5q0 -52 23 -95.5t60 -75.5
t81 -63.5t88.5 -66t81.5 -75t60 -99t23 -129.5q0 -94 -34.5 -167.5t-93 -116t-128 -64t-147.5 -21.5q-118 0 -195 35t-77 78v155q0 39 47 39q23 -98 85 -153.5t140 -55.5q73 0 122.5 45.5t49.5 131.5q0 51 -21 92.5t-54.5 71t-74.5 57.5t-81.5 59t-74 68t-54.5 93t-21 126
q0 58 20.5 115.5t50 104t58.5 91t49.5 94.5t20.5 97q0 66 -27.5 99.5t-99.5 33.5z" />
    <glyph glyph-name="agrave" unicode="&#xe0;" horiz-adv-x="976" 
d="M557 322v163q-118 -51 -173.5 -116t-55.5 -133q0 -45 20.5 -69t57.5 -24q53 0 102 47.5t49 131.5zM578 180q-40 -89 -117.5 -152t-181.5 -63q-189 0 -189 176q0 107 112 214t355 200v186q0 52 -20 80.5t-72 28.5q-66 0 -101 -38.5t-47 -115.5q-7 -42 -51 -72t-88 -30
q-76 0 -76 78q0 45 23.5 92.5t68.5 91.5t122.5 72t172.5 28q158 0 232 -51t74 -164q0 -85 -10.5 -247t-10.5 -246q0 -49 16.5 -69.5t53.5 -20.5q61 0 90 53q33 -7 33 -27q0 -25 -13.5 -58.5t-39.5 -68.5t-73.5 -58.5t-105.5 -23.5q-74 0 -115.5 57t-41.5 148zM274 1343
q-26 21 -26 56q0 20 21.5 34.5t66.5 14.5q74 0 118.5 -26t77.5 -74l195 -293l-59 -23z" />
    <glyph glyph-name="aacute" unicode="&#xe1;" horiz-adv-x="976" 
d="M557 322v163q-118 -51 -173.5 -116t-55.5 -133q0 -45 20.5 -69t57.5 -24q53 0 102 47.5t49 131.5zM578 180q-40 -89 -117.5 -152t-181.5 -63q-189 0 -189 176q0 107 112 214t355 200v186q0 52 -20 80.5t-72 28.5q-66 0 -101 -38.5t-47 -115.5q-7 -42 -51 -72t-88 -30
q-76 0 -76 78q0 45 23.5 92.5t68.5 91.5t122.5 72t172.5 28q158 0 232 -51t74 -164q0 -85 -10.5 -247t-10.5 -246q0 -49 16.5 -69.5t53.5 -20.5q61 0 90 53q33 -7 33 -27q0 -25 -13.5 -58.5t-39.5 -68.5t-73.5 -58.5t-105.5 -23.5q-74 0 -115.5 57t-41.5 148zM764 1343
l-395 -311l-60 23l197 293q33 48 77.5 74t118.5 26q45 0 65.5 -14.5t20.5 -34.5q0 -35 -24 -56z" />
    <glyph glyph-name="acircumflex" unicode="&#xe2;" horiz-adv-x="976" 
d="M557 322v163q-118 -51 -173.5 -116t-55.5 -133q0 -45 20.5 -69t57.5 -24q53 0 102 47.5t49 131.5zM578 180q-40 -89 -117.5 -152t-181.5 -63q-189 0 -189 176q0 107 112 214t355 200v186q0 52 -20 80.5t-72 28.5q-66 0 -101 -38.5t-47 -115.5q-7 -42 -51 -72t-88 -30
q-76 0 -76 78q0 45 23.5 92.5t68.5 91.5t122.5 72t172.5 28q158 0 232 -51t74 -164q0 -85 -10.5 -247t-10.5 -246q0 -49 16.5 -69.5t53.5 -20.5q61 0 90 53q33 -7 33 -27q0 -25 -13.5 -58.5t-39.5 -68.5t-73.5 -58.5t-105.5 -23.5q-74 0 -115.5 57t-41.5 148zM489 1214
l-247 -172l-37 19l227 364q16 23 57 23q38 0 54 -23l227 -364l-37 -19z" />
    <glyph glyph-name="atilde" unicode="&#xe3;" horiz-adv-x="976" 
d="M557 322v163q-118 -51 -173.5 -116t-55.5 -133q0 -45 20.5 -69t57.5 -24q53 0 102 47.5t49 131.5zM578 180q-40 -89 -117.5 -152t-181.5 -63q-189 0 -189 176q0 107 112 214t355 200v186q0 52 -20 80.5t-72 28.5q-66 0 -101 -38.5t-47 -115.5q-7 -42 -51 -72t-88 -30
q-76 0 -76 78q0 45 23.5 92.5t68.5 91.5t122.5 72t172.5 28q158 0 232 -51t74 -164q0 -85 -10.5 -247t-10.5 -246q0 -49 16.5 -69.5t53.5 -20.5q61 0 90 53q33 -7 33 -27q0 -25 -13.5 -58.5t-39.5 -68.5t-73.5 -58.5t-105.5 -23.5q-74 0 -115.5 57t-41.5 148zM209 1120
l-43 19q65 241 227 241q44 0 83.5 -17t63.5 -38t58.5 -38t69.5 -17q39 0 65.5 21t50.5 73l41 -18q-49 -250 -207 -250q-42 0 -82.5 17t-67 37t-64.5 37t-76 17q-37 0 -64.5 -19t-54.5 -65z" />
    <glyph glyph-name="adieresis" unicode="&#xe4;" horiz-adv-x="976" 
d="M557 322v163q-118 -51 -173.5 -116t-55.5 -133q0 -45 20.5 -69t57.5 -24q53 0 102 47.5t49 131.5zM578 180q-40 -89 -117.5 -152t-181.5 -63q-189 0 -189 176q0 107 112 214t355 200v186q0 52 -20 80.5t-72 28.5q-66 0 -101 -38.5t-47 -115.5q-7 -42 -51 -72t-88 -30
q-76 0 -76 78q0 45 23.5 92.5t68.5 91.5t122.5 72t172.5 28q158 0 232 -51t74 -164q0 -85 -10.5 -247t-10.5 -246q0 -49 16.5 -69.5t53.5 -20.5q61 0 90 53q33 -7 33 -27q0 -25 -13.5 -58.5t-39.5 -68.5t-73.5 -58.5t-105.5 -23.5q-74 0 -115.5 57t-41.5 148zM281 1395
q52 0 89.5 -40.5t37.5 -97.5t-37.5 -98t-89.5 -41q-54 0 -91.5 41t-37.5 98t37.5 97.5t91.5 40.5zM715 1395q52 0 88.5 -40.5t36.5 -97.5q0 -58 -35.5 -99.5t-87.5 -41.5q-55 0 -93 41.5t-38 99.5t37 98t92 40z" />
    <glyph glyph-name="aring" unicode="&#xe5;" horiz-adv-x="976" 
d="M557 322v163q-118 -51 -173.5 -116t-55.5 -133q0 -45 20.5 -69t57.5 -24q53 0 102 47.5t49 131.5zM578 180q-40 -89 -117.5 -152t-181.5 -63q-189 0 -189 176q0 107 112 214t355 200v186q0 52 -20 80.5t-72 28.5q-66 0 -101 -38.5t-47 -115.5q-7 -42 -51 -72t-88 -30
q-76 0 -76 78q0 45 23.5 92.5t68.5 91.5t122.5 72t172.5 28q158 0 232 -51t74 -164q0 -85 -10.5 -247t-10.5 -246q0 -49 16.5 -69.5t53.5 -20.5q61 0 90 53q33 -7 33 -27q0 -25 -13.5 -58.5t-39.5 -68.5t-73.5 -58.5t-105.5 -23.5q-74 0 -115.5 57t-41.5 148zM489 1446
q100 0 172 -63.5t72 -159.5q0 -97 -71.5 -158t-172.5 -61q-103 0 -174 61t-71 158t71.5 160t173.5 63zM489 1341q-58 0 -95.5 -32t-37.5 -86q0 -56 37.5 -89.5t95.5 -33.5q57 0 94.5 33.5t37.5 89.5q0 54 -37.5 86t-94.5 32z" />
    <glyph glyph-name="ae" unicode="&#xe6;" horiz-adv-x="1439" 
d="M557 322v157q-119 -52 -176 -116.5t-57 -131.5q0 -41 24.5 -66.5t59.5 -25.5q52 0 100.5 49.5t48.5 133.5zM774 858q129 98 287 98q170 0 250 -77t80 -211q0 -42 -15 -59t-45 -17h-561q-4 -23 -4 -70q0 -144 80 -236.5t227 -92.5q86 0 156 30.5t104 89.5q18 0 30.5 -8.5
t12.5 -23.5q0 -26 -10 -62t-38 -81.5t-69 -83t-110.5 -63.5t-155.5 -26q-76 0 -146.5 24t-133 78t-99.5 132q-52 -106 -141.5 -170t-193.5 -64q-189 0 -189 176q0 104 113 209t354 199v182q0 53 -23.5 81t-62.5 28q-71 0 -105.5 -37.5t-48.5 -116.5q-7 -42 -51 -72t-88 -30
q-78 0 -78 78q0 45 23.5 92.5t68.5 91.5t122.5 72t172.5 28q217 0 287 -88zM791 662q126 1 205 7.5t117 18.5t49.5 25t11.5 35q0 41 -34.5 68.5t-95.5 27.5q-83 0 -152.5 -53.5t-100.5 -128.5z" />
    <glyph glyph-name="ccedilla" unicode="&#xe7;" horiz-adv-x="903" 
d="M444 -123q110 0 169 -49t59 -119q0 -91 -85 -160t-231 -69q-85 0 -122 25t-37 59q0 15 6 24q61 -22 131 -22q59 0 90 38.5t31 90.5q0 46 -24 80.5t-62 34.5t-72 -17q-13 0 -20 8.5t-7 20.5q0 9 9 18l182 127q-173 12 -276 141.5t-103 325.5q0 109 44 208t114 166.5
t157.5 107.5t173.5 40q145 0 217 -48t72 -138q0 -51 -27 -78.5t-73 -27.5q-28 0 -50.5 14.5t-40 35t-37 40.5t-50 34.5t-70.5 14.5q-110 0 -175 -75t-65 -204q0 -153 80.5 -236t214.5 -83q71 0 139.5 34.5t116.5 98.5q37 0 37 -35q0 -40 -13 -86.5t-42 -97.5t-86.5 -91.5
t-134.5 -54.5z" />
    <glyph glyph-name="egrave" unicode="&#xe8;" horiz-adv-x="944" 
d="M270 592q-6 -34 -6 -70q0 -153 81 -240t230 -87q86 0 157 30.5t106 89.5q16 0 29.5 -9t13.5 -23q0 -26 -10.5 -62.5t-38.5 -82t-69.5 -83.5t-112 -64t-156.5 -26q-80 0 -153 27.5t-134 82.5t-97 148t-36 213q0 140 67.5 260.5t180.5 190t241 69.5q170 0 251 -77t81 -211
q0 -76 -59 -76h-566zM291 662q169 6 253 17t108 26t24 43q0 42 -34.5 69t-96.5 27q-89 0 -155.5 -50t-98.5 -132zM246 1343q-27 22 -27 56q0 20 21.5 34.5t66.5 14.5q74 0 119 -26t78 -74l194 -293l-59 -23z" />
    <glyph glyph-name="eacute" unicode="&#xe9;" horiz-adv-x="944" 
d="M270 592q-6 -34 -6 -70q0 -153 81 -240t230 -87q86 0 157 30.5t106 89.5q16 0 29.5 -9t13.5 -23q0 -26 -10.5 -62.5t-38.5 -82t-69.5 -83.5t-112 -64t-156.5 -26q-80 0 -153 27.5t-134 82.5t-97 148t-36 213q0 140 67.5 260.5t180.5 190t241 69.5q170 0 251 -77t81 -211
q0 -76 -59 -76h-566zM291 662q169 6 253 17t108 26t24 43q0 42 -34.5 69t-96.5 27q-89 0 -155.5 -50t-98.5 -132zM801 1343l-395 -311l-60 23l197 293q33 48 77.5 74t118.5 26q45 0 65.5 -14.5t20.5 -34.5q0 -35 -24 -56z" />
    <glyph glyph-name="ecircumflex" unicode="&#xea;" horiz-adv-x="944" 
d="M270 592q-6 -34 -6 -70q0 -153 81 -240t230 -87q86 0 157 30.5t106 89.5q16 0 29.5 -9t13.5 -23q0 -26 -10.5 -62.5t-38.5 -82t-69.5 -83.5t-112 -64t-156.5 -26q-80 0 -153 27.5t-134 82.5t-97 148t-36 213q0 140 67.5 260.5t180.5 190t241 69.5q170 0 251 -77t81 -211
q0 -76 -59 -76h-566zM291 662q169 6 253 17t108 26t24 43q0 42 -34.5 69t-96.5 27q-89 0 -155.5 -50t-98.5 -132zM555 1214l-248 -172l-37 19l228 364q16 23 57 23q37 0 53 -23l228 -364l-37 -19z" />
    <glyph glyph-name="edieresis" unicode="&#xeb;" horiz-adv-x="944" 
d="M270 592q-6 -34 -6 -70q0 -153 81 -240t230 -87q86 0 157 30.5t106 89.5q16 0 29.5 -9t13.5 -23q0 -26 -10.5 -62.5t-38.5 -82t-69.5 -83.5t-112 -64t-156.5 -26q-80 0 -153 27.5t-134 82.5t-97 148t-36 213q0 140 67.5 260.5t180.5 190t241 69.5q170 0 251 -77t81 -211
q0 -76 -59 -76h-566zM291 662q169 6 253 17t108 26t24 43q0 42 -34.5 69t-96.5 27q-89 0 -155.5 -50t-98.5 -132zM307 1395q52 0 89.5 -40.5t37.5 -97.5t-37.5 -98t-89.5 -41q-54 0 -91.5 41t-37.5 98t37.5 97.5t91.5 40.5zM741 1395q52 0 88.5 -40.5t36.5 -97.5
q0 -58 -35.5 -99.5t-87.5 -41.5q-55 0 -93 41.5t-38 99.5t37 98t92 40z" />
    <glyph glyph-name="igrave" unicode="&#xec;" horiz-adv-x="561" 
d="M397 948v-833q0 -25 7.5 -38.5t31.5 -13.5h88v-63h-491v63h86q43 0 43 52v575q0 25 -8 37t-33 18l-53 13q-19 5 -27 12t-8 23q0 13 8 18q124 18 204 58t115 92q37 0 37 -13zM-23 1343q-26 21 -26 56q0 20 21.5 34.5t66.5 14.5q74 0 119 -26t78 -74l194 -293l-59 -23z" />
    <glyph glyph-name="iacute" unicode="&#xed;" horiz-adv-x="561" 
d="M397 948v-833q0 -25 7.5 -38.5t31.5 -13.5h88v-63h-491v63h86q43 0 43 52v575q0 25 -8 37t-33 18l-53 13q-19 5 -27 12t-8 23q0 13 8 18q124 18 204 58t115 92q37 0 37 -13zM565 1343l-395 -311l-59 23l196 293q33 48 78 74t119 26q45 0 65.5 -14.5t20.5 -34.5
q0 -34 -25 -56z" />
    <glyph glyph-name="icircumflex" unicode="&#xee;" horiz-adv-x="561" 
d="M397 948v-833q0 -25 7.5 -38.5t31.5 -13.5h88v-63h-491v63h86q43 0 43 52v575q0 25 -8 37t-33 18l-53 13q-19 5 -27 12t-8 23q0 13 8 18q124 18 204 58t115 92q37 0 37 -13zM266 1214l-248 -172l-36 19l227 364q16 23 57 23q37 0 53 -23l228 -364l-37 -19z" />
    <glyph glyph-name="idieresis" unicode="&#xef;" horiz-adv-x="561" 
d="M397 948v-833q0 -25 7.5 -38.5t31.5 -13.5h88v-63h-491v63h86q43 0 43 52v575q0 25 -8 37t-33 18l-53 13q-19 5 -27 12t-8 23q0 13 8 18q124 18 204 58t115 92q37 0 37 -13zM63 1395q52 0 89.5 -40.5t37.5 -97.5t-37.5 -98t-89.5 -41q-54 0 -91.5 41t-37.5 98t37.5 97.5
t91.5 40.5zM498 1395q52 0 88.5 -40.5t36.5 -97.5q0 -58 -35.5 -99.5t-87.5 -41.5q-55 0 -93 41.5t-38 99.5t37 98t92 40z" />
    <glyph glyph-name="eth" unicode="&#xf0;" horiz-adv-x="1105" 
d="M524 1196l-299 -106q-15 14 -30.5 46t-18.5 66l242 82q-138 92 -328 131q0 13 10 32t21 19q85 0 204 -32.5t240 -96.5l320 111q18 -16 35 -44t24 -56l-250 -91q340 -253 340 -722q0 -110 -29 -204.5t-77 -160.5t-111 -113t-131 -69.5t-137 -22.5q-129 0 -233 54.5
t-168 165t-64 259.5q0 100 26 185t77 151t134.5 104t190.5 38q67 0 107 -20.5t40 -47.5q0 -24 -10 -31q-23 13 -84 13q-59 0 -102 -36.5t-67 -102t-35 -145.5t-11 -179q0 -314 180 -314q87 0 159.5 140.5t72.5 365.5q0 174 -58.5 340.5t-179.5 290.5z" />
    <glyph glyph-name="ntilde" unicode="&#xf1;" horiz-adv-x="1202" 
d="M403 770q70 91 164 138.5t189 47.5q131 0 205.5 -77.5t74.5 -227.5v-536q0 -52 41 -52h84v-63h-506v63h103q43 0 43 52v460q0 107 -56.5 157t-138.5 50q-73 0 -138 -33t-65 -75v-559q0 -25 7.5 -38.5t31.5 -13.5h103v-63h-506v63h86q43 0 43 52v575q0 25 -8 37t-33 18
l-53 13q-19 5 -27 12t-8 23q0 13 8 18q230 34 320 150q36 0 36 -13v-178zM322 1120l-43 19q65 241 227 241q44 0 83 -17t63.5 -38t58.5 -38t69 -17q39 0 66 21t51 73l41 -18q-49 -250 -207 -250q-42 0 -82.5 17t-67.5 37t-65 37t-76 17q-37 0 -64 -18.5t-54 -65.5z" />
    <glyph glyph-name="ograve" unicode="&#xf2;" horiz-adv-x="1175" 
d="M588 956q216 0 359 -144t143 -357q0 -214 -142 -352t-360 -138t-360 138t-142 352q0 213 143 357t359 144zM588 860q-108 0 -169 -107t-61 -298t60.5 -292.5t169.5 -101.5t169 101.5t60 292.5t-60.5 298t-168.5 107zM346 1343q-27 22 -27 56q0 20 21.5 34.5t67.5 14.5
q74 0 118.5 -26t77.5 -74l195 -293l-60 -23z" />
    <glyph glyph-name="oacute" unicode="&#xf3;" horiz-adv-x="1175" 
d="M588 956q216 0 359 -144t143 -357q0 -214 -142 -352t-360 -138t-360 138t-142 352q0 213 143 357t359 144zM588 860q-108 0 -169 -107t-61 -298t60.5 -292.5t169.5 -101.5t169 101.5t60 292.5t-60.5 298t-168.5 107zM874 1343l-395 -311l-59 23l196 293q33 48 78 74
t119 26q45 0 65.5 -14.5t20.5 -34.5q0 -34 -25 -56z" />
    <glyph glyph-name="ocircumflex" unicode="&#xf4;" horiz-adv-x="1175" 
d="M588 956q216 0 359 -144t143 -357q0 -214 -142 -352t-360 -138t-360 138t-142 352q0 213 143 357t359 144zM588 860q-108 0 -169 -107t-61 -298t60.5 -292.5t169.5 -101.5t169 101.5t60 292.5t-60.5 298t-168.5 107zM590 1214l-248 -172l-37 19l227 364q16 23 58 23
q37 0 53 -23l227 -364l-36 -19z" />
    <glyph glyph-name="otilde" unicode="&#xf5;" horiz-adv-x="1175" 
d="M588 956q216 0 359 -144t143 -357q0 -214 -142 -352t-360 -138t-360 138t-142 352q0 213 143 357t359 144zM588 860q-108 0 -169 -107t-61 -298t60.5 -292.5t169.5 -101.5t169 101.5t60 292.5t-60.5 298t-168.5 107zM301 1120l-43 19q65 241 227 241q44 0 83.5 -17
t63.5 -38t58.5 -38t69.5 -17q39 0 66 21t51 73l41 -18q-49 -250 -207 -250q-42 0 -82.5 17t-67.5 37t-65 37t-76 17q-37 0 -64.5 -19t-54.5 -65z" />
    <glyph glyph-name="odieresis" unicode="&#xf6;" horiz-adv-x="1175" 
d="M588 956q216 0 359 -144t143 -357q0 -214 -142 -352t-360 -138t-360 138t-142 352q0 213 143 357t359 144zM588 860q-108 0 -169 -107t-61 -298t60.5 -292.5t169.5 -101.5t169 101.5t60 292.5t-60.5 298t-168.5 107zM373 1395q52 0 89.5 -40.5t37.5 -97.5t-37.5 -98
t-89.5 -41q-54 0 -91.5 41t-37.5 98t37.5 97.5t91.5 40.5zM807 1395q52 0 88.5 -40.5t36.5 -97.5q0 -58 -35.5 -99.5t-87.5 -41.5q-55 0 -93 41.5t-38 99.5t37 98t92 40z" />
    <glyph glyph-name="divide" unicode="&#xf7;" horiz-adv-x="1185" 
d="M594 981q51 0 89 -37.5t38 -89.5t-38 -90.5t-89 -38.5q-52 0 -89.5 38t-37.5 91q0 52 37.5 89.5t89.5 37.5zM594 287q51 0 89 -38t38 -89q0 -54 -37.5 -91.5t-89.5 -37.5q-53 0 -90 37.5t-37 91.5q0 51 37.5 89t89.5 38zM86 590h1016v-160h-1016v160z" />
    <glyph glyph-name="oslash" unicode="&#xf8;" horiz-adv-x="1175" 
d="M254 82l-94 -82h-162l184 154q-96 122 -96 301q0 213 144 357t360 144q184 0 334 -127l92 82h164l-189 -155q99 -129 99 -301q0 -214 -142 -352t-360 -138q-184 0 -334 117zM813 586l-416 -375q60 -150 191 -150q109 0 170 101.5t61 292.5q0 73 -6 131zM362 324l416 376
q-60 160 -190 160q-108 0 -170 -107t-62 -298q0 -73 6 -131z" />
    <glyph glyph-name="ugrave" unicode="&#xf9;" horiz-adv-x="1206" 
d="M1024 170q0 -26 7.5 -38.5t31.5 -12.5h102v-51l-362 -86l-15 149q-64 -80 -156.5 -123t-187.5 -43q-131 0 -204.5 77.5t-73.5 227.5v527q0 51 -41 51h-86v63h362v-563q0 -108 51.5 -158.5t131.5 -50.5q72 0 138 34.5t66 76.5v547q0 16 -2 25.5t-11.5 17.5t-26.5 8h-103
v63h379v-741zM324 1343q-27 22 -27 56q0 20 21.5 34.5t66.5 14.5q74 0 119 -26t78 -74l194 -293l-59 -23z" />
    <glyph glyph-name="uacute" unicode="&#xfa;" horiz-adv-x="1206" 
d="M1024 170q0 -26 7.5 -38.5t31.5 -12.5h102v-51l-362 -86l-15 149q-64 -80 -156.5 -123t-187.5 -43q-131 0 -204.5 77.5t-73.5 227.5v527q0 51 -41 51h-86v63h362v-563q0 -108 51.5 -158.5t131.5 -50.5q72 0 138 34.5t66 76.5v547q0 16 -2 25.5t-11.5 17.5t-26.5 8h-103
v63h379v-741zM903 1343l-395 -311l-59 23l196 293q33 48 78 74t119 26q45 0 65.5 -14.5t20.5 -34.5q0 -34 -25 -56z" />
    <glyph glyph-name="ucircumflex" unicode="&#xfb;" horiz-adv-x="1206" 
d="M1024 170q0 -26 7.5 -38.5t31.5 -12.5h102v-51l-362 -86l-15 149q-64 -80 -156.5 -123t-187.5 -43q-131 0 -204.5 77.5t-73.5 227.5v527q0 51 -41 51h-86v63h362v-563q0 -108 51.5 -158.5t131.5 -50.5q72 0 138 34.5t66 76.5v547q0 16 -2 25.5t-11.5 17.5t-26.5 8h-103
v63h379v-741zM594 1214l-248 -172l-37 19l228 364q16 23 57 23q37 0 53 -23l227 -364l-36 -19z" />
    <glyph glyph-name="udieresis" unicode="&#xfc;" horiz-adv-x="1206" 
d="M1024 170q0 -26 7.5 -38.5t31.5 -12.5h102v-51l-362 -86l-15 149q-64 -80 -156.5 -123t-187.5 -43q-131 0 -204.5 77.5t-73.5 227.5v527q0 51 -41 51h-86v63h362v-563q0 -108 51.5 -158.5t131.5 -50.5q72 0 138 34.5t66 76.5v547q0 16 -2 25.5t-11.5 17.5t-26.5 8h-103
v63h379v-741zM387 1395q52 0 89.5 -40.5t37.5 -97.5t-37.5 -98t-89.5 -41q-54 0 -91.5 41t-37.5 98t37.5 97.5t91.5 40.5zM821 1395q52 0 88.5 -40.5t36.5 -97.5q0 -58 -35.5 -99.5t-87.5 -41.5q-55 0 -93 41.5t-38 99.5t37 98t92 40z" />
    <glyph glyph-name="yacute" unicode="&#xfd;" horiz-adv-x="976" 
d="M649 911h369v-65h-51q-53 0 -74 -51l-391 -916q-30 -70 -54 -119.5t-54.5 -101t-60.5 -85.5t-66 -62t-78 -41t-91 -13q-94 0 -142 43.5t-48 116.5q0 47 27.5 83t80.5 36q33 0 53.5 -12.5t30 -30t18.5 -35.5t28 -30.5t49 -12.5q51 0 115.5 93t129.5 259l-356 850
q-14 29 -47 29h-70v65h531v-65h-105q-27 0 -33 -12t7 -52l104 -260q67 -165 102 -293q36 117 95 285l96 268q23 64 -35 64h-80v65zM860 1343l-395 -311l-59 23l196 293q33 48 78 74t119 26q45 0 65.5 -14.5t20.5 -34.5q0 -34 -25 -56z" />
    <glyph glyph-name="thorn" unicode="&#xfe;" horiz-adv-x="1222" 
d="M403 1020v-209q72 72 162 108.5t183 36.5q98 0 175 -35.5t124 -97t71.5 -138.5t24.5 -165q0 -156 -66 -282t-188.5 -199.5t-278.5 -73.5q-101 0 -207 33v-381q0 -26 7.5 -38.5t31.5 -12.5h123v-64h-526v64h86q43 0 43 51v1724q0 52 -13.5 71t-43.5 30l-37 12
q-35 11 -35 39q0 19 8 27q117 8 188 28.5t146 59.5q37 0 37 -13q0 -4 -1.5 -25t-4 -62.5t-4.5 -101.5t-3.5 -161.5t-1.5 -224.5zM403 686v-352q0 -279 211 -279q137 0 210 107t73 264q0 171 -74.5 271t-220.5 100q-87 0 -143 -31.5t-56 -79.5z" />
    <glyph glyph-name="ydieresis" unicode="&#xff;" horiz-adv-x="976" 
d="M649 911h369v-65h-51q-53 0 -74 -51l-391 -916q-30 -70 -54 -119.5t-54.5 -101t-60.5 -85.5t-66 -62t-78 -41t-91 -13q-94 0 -142 43.5t-48 116.5q0 47 27.5 83t80.5 36q33 0 53.5 -12.5t30 -30t18.5 -35.5t28 -30.5t49 -12.5q51 0 115.5 93t129.5 259l-356 850
q-14 29 -47 29h-70v65h531v-65h-105q-27 0 -33 -12t7 -52l104 -260q67 -165 102 -293q36 117 95 285l96 268q23 64 -35 64h-80v65zM328 1395q52 0 89.5 -40.5t37.5 -97.5t-37.5 -98t-89.5 -41q-54 0 -91.5 41t-37.5 98t37.5 97.5t91.5 40.5zM762 1395q52 0 88.5 -40.5
t36.5 -97.5q0 -58 -35.5 -99.5t-87.5 -41.5q-55 0 -93 41.5t-38 99.5t37 98t92 40z" />
    <glyph glyph-name="Amacron" unicode="&#x100;" horiz-adv-x="1325" 
d="M588 1114l-195 -516h385zM764 1442q54 -160 250.5 -677.5t261.5 -664.5q16 -37 39 -37h74v-63h-584v63h102q62 0 39 66l-135 371h-453l-116 -307q-52 -130 61 -130h53v-63h-419v63h26q41 0 65 20t50 77q98 208 262 594.5t278 687.5h146zM420 1716h506v-153h-506v153z" />
    <glyph glyph-name="amacron" unicode="&#x101;" horiz-adv-x="976" 
d="M557 322v163q-118 -51 -173.5 -116t-55.5 -133q0 -45 20.5 -69t57.5 -24q53 0 102 47.5t49 131.5zM578 180q-40 -89 -117.5 -152t-181.5 -63q-189 0 -189 176q0 107 112 214t355 200v186q0 52 -20 80.5t-72 28.5q-66 0 -101 -38.5t-47 -115.5q-7 -42 -51 -72t-88 -30
q-76 0 -76 78q0 45 23.5 92.5t68.5 91.5t122.5 72t172.5 28q158 0 232 -51t74 -164q0 -85 -10.5 -247t-10.5 -246q0 -49 16.5 -69.5t53.5 -20.5q61 0 90 53q33 -7 33 -27q0 -25 -13.5 -58.5t-39.5 -68.5t-73.5 -58.5t-105.5 -23.5q-74 0 -115.5 57t-41.5 148zM242 1294h506
v-153h-506v153z" />
    <glyph glyph-name="Abreve" unicode="&#x102;" horiz-adv-x="1325" 
d="M588 1114l-195 -516h385zM764 1442q54 -160 250.5 -677.5t261.5 -664.5q16 -37 39 -37h74v-63h-584v63h102q62 0 39 66l-135 371h-453l-116 -307q-52 -130 61 -130h53v-63h-419v63h26q41 0 65 20t50 77q98 208 262 594.5t278 687.5h146zM922 1792q-6 -142 -72 -223.5
t-158 -81.5q-94 0 -159.5 79.5t-71.5 225.5h55q4 -46 34 -75.5t65.5 -39.5t76.5 -10q40 0 75.5 10t66 39.5t34.5 75.5h54z" />
    <glyph glyph-name="abreve" unicode="&#x103;" horiz-adv-x="976" 
d="M557 322v163q-118 -51 -173.5 -116t-55.5 -133q0 -45 20.5 -69t57.5 -24q53 0 102 47.5t49 131.5zM578 180q-40 -89 -117.5 -152t-181.5 -63q-189 0 -189 176q0 107 112 214t355 200v186q0 52 -20 80.5t-72 28.5q-66 0 -101 -38.5t-47 -115.5q-7 -42 -51 -72t-88 -30
q-76 0 -76 78q0 45 23.5 92.5t68.5 91.5t122.5 72t172.5 28q158 0 232 -51t74 -164q0 -85 -10.5 -247t-10.5 -246q0 -49 16.5 -69.5t53.5 -20.5q61 0 90 53q33 -7 33 -27q0 -25 -13.5 -58.5t-39.5 -68.5t-73.5 -58.5t-105.5 -23.5q-74 0 -115.5 57t-41.5 148zM735 1386
q-6 -154 -71 -238.5t-158 -84.5q-95 0 -160.5 82.5t-71.5 240.5h56q3 -42 20.5 -71.5t44.5 -44t54 -21t57 -6.5q29 0 56 6.5t54.5 21t45 44t20.5 71.5h53z" />
    <glyph glyph-name="Aogonek" unicode="&#x104;" horiz-adv-x="1325" 
d="M764 1442q54 -160 250.5 -677.5t261.5 -664.5q16 -37 39 -37h74v-63h-105q-97 -33 -153 -107.5t-56 -150.5q0 -59 31.5 -89t87.5 -30q42 0 100 17q13 -3 13 -21q0 -14 -9.5 -28.5t-29.5 -29t-60 -23.5t-94 -9q-111 0 -172 50.5t-61 129.5q0 82 84 163t243 128h-403v63
h102q62 0 39 66l-135 371h-453l-116 -307q-52 -130 61 -130h53v-63h-419v63h26q41 0 65 20t50 77q98 208 262 594.5t278 687.5h146zM588 1114l-195 -516h385z" />
    <glyph glyph-name="aogonek" unicode="&#x105;" horiz-adv-x="976" 
d="M578 180q-40 -89 -117.5 -152t-181.5 -63q-189 0 -189 176q0 107 112 214t355 200v186q0 52 -20 80.5t-72 28.5q-66 0 -101 -38.5t-47 -115.5q-7 -42 -51 -72t-88 -30q-76 0 -76 78q0 45 23.5 92.5t68.5 91.5t122.5 72t172.5 28q158 0 232 -51t74 -164q0 -85 -10.5 -247
t-10.5 -246q0 -49 16.5 -69.5t53.5 -20.5q61 0 90 53q33 -7 33 -27q0 -33 -19 -75t-67 -83t-113 -49q-74 -40 -115 -105t-41 -130q0 -59 31.5 -89t87.5 -30q42 0 100 17q13 -3 13 -21q0 -14 -9.5 -28.5t-29.5 -29t-60 -23.5t-94 -9q-111 0 -172 50.5t-61 129.5
q0 74 70 149.5t202 123.5q-54 15 -83 68.5t-29 129.5zM557 322v163q-118 -51 -173.5 -116t-55.5 -133q0 -45 20.5 -69t57.5 -24q53 0 102 47.5t49 131.5z" />
    <glyph glyph-name="Cacute" unicode="&#x106;" horiz-adv-x="1476" 
d="M1350 1366q26 -13 26 -39q0 -38 9.5 -179t9.5 -165q0 -25 -52 -25q-32 186 -156.5 292t-299.5 106q-158 0 -272 -87t-170 -234t-56 -337q0 -284 132 -462.5t353 -178.5q87 0 166.5 26.5t146 76.5t111.5 131t58 182h4q50 -4 53 -27q0 -23 -10 -168t-10 -184
q0 -14 -6.5 -23t-13 -13t-19.5 -9q-88 -37 -222.5 -59.5t-283.5 -22.5q-220 0 -400 93t-282.5 258t-102.5 370q0 150 64.5 289.5t175 243t265.5 165.5t327 62q281 0 455 -82zM1145 1745l-393 -266l-47 18l196 252q34 43 71.5 63.5t110.5 20.5q46 0 67 -12t21 -27
q0 -33 -26 -49z" />
    <glyph glyph-name="cacute" unicode="&#x107;" horiz-adv-x="903" 
d="M860 303q0 -36 -9.5 -76.5t-35 -88t-64.5 -85t-106 -63t-151 -25.5q-186 0 -299 131.5t-113 337.5q0 109 44 208t114 166.5t157.5 107.5t173.5 40q145 0 217 -48t72 -138q0 -51 -27 -78.5t-73 -27.5q-28 0 -50.5 14.5t-40 35t-37 40.5t-50 34.5t-70.5 14.5
q-110 0 -175 -75t-65 -204q0 -153 80.5 -236t214.5 -83q71 0 139.5 34.5t116.5 98.5q37 0 37 -35zM823 1343l-395 -311l-59 23l196 293q33 48 78 74t119 26q45 0 65.5 -14.5t20.5 -34.5q0 -34 -25 -56z" />
    <glyph glyph-name="Ccircumflex" unicode="&#x108;" horiz-adv-x="1476" 
d="M1350 1366q26 -13 26 -39q0 -38 9.5 -179t9.5 -165q0 -25 -52 -25q-32 186 -156.5 292t-299.5 106q-158 0 -272 -87t-170 -234t-56 -337q0 -284 132 -462.5t353 -178.5q87 0 166.5 26.5t146 76.5t111.5 131t58 182h4q50 -4 53 -27q0 -23 -10 -168t-10 -184
q0 -14 -6.5 -23t-13 -13t-19.5 -9q-88 -37 -222.5 -59.5t-283.5 -22.5q-220 0 -400 93t-282.5 258t-102.5 370q0 150 64.5 289.5t175 243t265.5 165.5t327 62q281 0 455 -82zM879 1626l-248 -147l-37 16l227 313q19 19 58 19q34 0 53 -19l227 -313l-37 -16z" />
    <glyph glyph-name="ccircumflex" unicode="&#x109;" horiz-adv-x="903" 
d="M860 303q0 -36 -9.5 -76.5t-35 -88t-64.5 -85t-106 -63t-151 -25.5q-186 0 -299 131.5t-113 337.5q0 109 44 208t114 166.5t157.5 107.5t173.5 40q145 0 217 -48t72 -138q0 -51 -27 -78.5t-73 -27.5q-28 0 -50.5 14.5t-40 35t-37 40.5t-50 34.5t-70.5 14.5
q-110 0 -175 -75t-65 -204q0 -153 80.5 -236t214.5 -83q71 0 139.5 34.5t116.5 98.5q37 0 37 -35zM551 1214l-248 -172l-37 19l228 364q16 23 57 23q37 0 53 -23l227 -364l-36 -19z" />
    <glyph glyph-name="Cdotaccent" unicode="&#x10a;" horiz-adv-x="1476" 
d="M1350 1366q26 -13 26 -39q0 -38 9.5 -179t9.5 -165q0 -25 -52 -25q-32 186 -156.5 292t-299.5 106q-158 0 -272 -87t-170 -234t-56 -337q0 -284 132 -462.5t353 -178.5q87 0 166.5 26.5t146 76.5t111.5 131t58 182h4q50 -4 53 -27q0 -23 -10 -168t-10 -184
q0 -14 -6.5 -23t-13 -13t-19.5 -9q-88 -37 -222.5 -59.5t-283.5 -22.5q-220 0 -400 93t-282.5 258t-102.5 370q0 150 64.5 289.5t175 243t265.5 165.5t327 62q281 0 455 -82zM897 1778q51 0 88 -36.5t37 -88.5q0 -54 -37 -91.5t-88 -37.5q-54 0 -91.5 37.5t-37.5 91.5
q0 52 37.5 88.5t91.5 36.5z" />
    <glyph glyph-name="cdotaccent" unicode="&#x10b;" horiz-adv-x="903" 
d="M860 303q0 -36 -9.5 -76.5t-35 -88t-64.5 -85t-106 -63t-151 -25.5q-186 0 -299 131.5t-113 337.5q0 109 44 208t114 166.5t157.5 107.5t173.5 40q145 0 217 -48t72 -138q0 -51 -27 -78.5t-73 -27.5q-28 0 -50.5 14.5t-40 35t-37 40.5t-50 34.5t-70.5 14.5
q-110 0 -175 -75t-65 -204q0 -153 80.5 -236t214.5 -83q71 0 139.5 34.5t116.5 98.5q37 0 37 -35zM543 1391q51 0 88 -36.5t37 -88.5q0 -54 -37 -91.5t-88 -37.5q-54 0 -91.5 37.5t-37.5 91.5q0 52 37.5 88.5t91.5 36.5z" />
    <glyph glyph-name="Ccaron" unicode="&#x10c;" horiz-adv-x="1476" 
d="M1350 1366q26 -13 26 -39q0 -38 9.5 -179t9.5 -165q0 -25 -52 -25q-32 186 -156.5 292t-299.5 106q-158 0 -272 -87t-170 -234t-56 -337q0 -284 132 -462.5t353 -178.5q87 0 166.5 26.5t146 76.5t111.5 131t58 182h4q50 -4 53 -27q0 -23 -10 -168t-10 -184
q0 -14 -6.5 -23t-13 -13t-19.5 -9q-88 -37 -222.5 -59.5t-283.5 -22.5q-220 0 -400 93t-282.5 258t-102.5 370q0 150 64.5 289.5t175 243t265.5 165.5t327 62q281 0 455 -82zM901 1690l244 149l37 -16l-228 -314q-18 -18 -53 -18q-39 0 -57 18l-228 314l37 16z" />
    <glyph glyph-name="ccaron" unicode="&#x10d;" horiz-adv-x="903" 
d="M860 303q0 -36 -9.5 -76.5t-35 -88t-64.5 -85t-106 -63t-151 -25.5q-186 0 -299 131.5t-113 337.5q0 109 44 208t114 166.5t157.5 107.5t173.5 40q145 0 217 -48t72 -138q0 -51 -27 -78.5t-73 -27.5q-28 0 -50.5 14.5t-40 35t-37 40.5t-50 34.5t-70.5 14.5
q-110 0 -175 -75t-65 -204q0 -153 80.5 -236t214.5 -83q71 0 139.5 34.5t116.5 98.5q37 0 37 -35zM547 1274l244 172l36 -19l-227 -364q-16 -23 -53 -23q-42 0 -58 23l-227 364l37 19z" />
    <glyph glyph-name="Dcaron" unicode="&#x10e;" horiz-adv-x="1589" 
d="M487 72q713 0 713 637q0 294 -178.5 459.5t-534.5 166.5v-1263zM195 98v1217q0 33 -27 33h-125v65h610q194 0 358.5 -53.5t277 -147t175 -223.5t62.5 -280q0 -163 -65.5 -297.5t-182 -224t-276.5 -138.5t-349 -49h-610v63h125q27 0 27 35zM678 1669l244 150l36 -17
l-227 -313q-19 -19 -53 -19q-38 0 -57 19l-228 313l37 17z" />
    <glyph glyph-name="dcaron" unicode="&#x10f;" horiz-adv-x="1228" 
d="M1071 1595q0 -2 -1.5 -22.5t-3.5 -62t-4 -102t-3.5 -163t-1.5 -225.5v-850q0 -23 10.5 -37t30.5 -14h102v-51l-364 -86l-13 131q-74 -70 -165 -109t-181 -39q-101 0 -179 36.5t-124.5 99.5t-70 140t-23.5 165q0 156 66 281.5t186.5 197t273.5 71.5q97 0 215 -26v411
q0 52 -13 71.5t-44 29.5l-35 12q-35 10 -35 39q0 18 6 27q126 8 198 28.5t138 59.5q35 0 35 -13zM821 236v315q0 167 -57 241t-170 74q-68 0 -121.5 -31.5t-84.5 -84.5t-46.5 -116t-15.5 -132q0 -186 87.5 -281.5t223.5 -95.5q70 0 127 32.5t57 78.5zM1171 1556q0 28 27 46
t80 18q74 0 98.5 -24t1.5 -83l-145 -356h-62v399z" />
    <glyph glyph-name="Dcroat" unicode="&#x110;" horiz-adv-x="1654" 
d="M553 770h330v-106h-330v-592q713 0 713 637q0 294 -178.5 459.5t-534.5 166.5v-565zM260 664h-158v106h158v545q0 33 -27 33h-124v65h610q194 0 358 -53.5t276.5 -147t175 -223.5t62.5 -280q0 -163 -65.5 -297.5t-181.5 -224t-276 -138.5t-349 -49h-610v63h124
q27 0 27 35v566z" />
    <glyph glyph-name="dcroat" unicode="&#x111;" horiz-adv-x="1228" 
d="M1071 1595q0 -1 -2.5 -34.5t-6 -115.5t-5.5 -192h162v-94h-162v-139v-850q0 -23 10.5 -37t30.5 -14h102v-51l-364 -86l-13 131q-74 -70 -165 -109t-181 -39q-101 0 -179 36.5t-124.5 99.5t-70 140t-23.5 165q0 156 66 281.5t186.5 197t273.5 71.5q97 0 215 -26v229h-211
v94h211v88q0 52 -13 71.5t-44 29.5l-35 12q-35 10 -35 39q0 18 6 27q126 8 198 28.5t138 59.5q35 0 35 -13zM821 236v315q0 167 -57 241t-170 74q-68 0 -121.5 -31.5t-84.5 -84.5t-46.5 -116t-15.5 -132q0 -186 87.5 -281.5t223.5 -95.5q70 0 127 32.5t57 78.5z" />
    <glyph glyph-name="Emacron" unicode="&#x112;" horiz-adv-x="1290" 
d="M547 1329v-559q161 4 234.5 16t96.5 34t27 71l6 74q66 0 66 -21q0 -30 -2 -102.5t-2 -104.5t2 -110.5t2 -108.5q0 -31 -66 -31l-8 80q-6 51 -27 74t-96.5 37t-232.5 16v-602q104 5 177 11t136.5 16t104 20.5t75 31t53.5 40t35.5 54t25.5 68.5t20 87q57 0 57 -27
q0 -36 -18.5 -160t-18.5 -188q0 -21 -12 -35t-29 -14q-68 0 -500.5 2t-550.5 2v63h125q27 0 27 35v1217q0 19 -6 26t-21 7h-125v65q117 0 517.5 3t470.5 3q27 0 37 -11.5t10 -33.5q0 -48 9 -140t9 -157q0 -20 -53 -20q-11 63 -21 98t-34 69.5t-57 50.5t-95.5 30t-142.5 18
t-205 6zM442 1716h506v-153h-506v153z" />
    <glyph glyph-name="emacron" unicode="&#x113;" horiz-adv-x="944" 
d="M270 592q-6 -34 -6 -70q0 -153 81 -240t230 -87q86 0 157 30.5t106 89.5q16 0 29.5 -9t13.5 -23q0 -26 -10.5 -62.5t-38.5 -82t-69.5 -83.5t-112 -64t-156.5 -26q-80 0 -153 27.5t-134 82.5t-97 148t-36 213q0 140 67.5 260.5t180.5 190t241 69.5q170 0 251 -77t81 -211
q0 -76 -59 -76h-566zM291 662q169 6 253 17t108 26t24 43q0 42 -34.5 69t-96.5 27q-89 0 -155.5 -50t-98.5 -132zM283 1294h505v-153h-505v153z" />
    <glyph glyph-name="Ebreve" unicode="&#x114;" horiz-adv-x="1290" 
d="M547 1329v-559q161 4 234.5 16t96.5 34t27 71l6 74q66 0 66 -21q0 -30 -2 -102.5t-2 -104.5t2 -110.5t2 -108.5q0 -31 -66 -31l-8 80q-6 51 -27 74t-96.5 37t-232.5 16v-602q104 5 177 11t136.5 16t104 20.5t75 31t53.5 40t35.5 54t25.5 68.5t20 87q57 0 57 -27
q0 -36 -18.5 -160t-18.5 -188q0 -21 -12 -35t-29 -14q-68 0 -500.5 2t-550.5 2v63h125q27 0 27 35v1217q0 19 -6 26t-21 7h-125v65q117 0 517.5 3t470.5 3q27 0 37 -11.5t10 -33.5q0 -48 9 -140t9 -157q0 -20 -53 -20q-11 63 -21 98t-34 69.5t-57 50.5t-95.5 30t-142.5 18
t-205 6zM897 1792q-6 -142 -71.5 -223.5t-157.5 -81.5q-94 0 -160 79.5t-72 225.5h56q4 -46 34 -75.5t65.5 -39.5t76.5 -10q40 0 75.5 10t66 39.5t34.5 75.5h53z" />
    <glyph glyph-name="ebreve" unicode="&#x115;" horiz-adv-x="944" 
d="M270 592q-6 -34 -6 -70q0 -153 81 -240t230 -87q86 0 157 30.5t106 89.5q16 0 29.5 -9t13.5 -23q0 -26 -10.5 -62.5t-38.5 -82t-69.5 -83.5t-112 -64t-156.5 -26q-80 0 -153 27.5t-134 82.5t-97 148t-36 213q0 140 67.5 260.5t180.5 190t241 69.5q170 0 251 -77t81 -211
q0 -76 -59 -76h-566zM291 662q169 6 253 17t108 26t24 43q0 42 -34.5 69t-96.5 27q-89 0 -155.5 -50t-98.5 -132zM766 1386q-6 -154 -71 -238.5t-158 -84.5q-95 0 -160.5 82.5t-71.5 240.5h55q3 -42 20.5 -71.5t44.5 -44t54.5 -21t57.5 -6.5q29 0 56 6.5t54.5 21t45 44
t20.5 71.5h53z" />
    <glyph glyph-name="Edotaccent" unicode="&#x116;" horiz-adv-x="1290" 
d="M547 1329v-559q161 4 234.5 16t96.5 34t27 71l6 74q66 0 66 -21q0 -30 -2 -102.5t-2 -104.5t2 -110.5t2 -108.5q0 -31 -66 -31l-8 80q-6 51 -27 74t-96.5 37t-232.5 16v-602q104 5 177 11t136.5 16t104 20.5t75 31t53.5 40t35.5 54t25.5 68.5t20 87q57 0 57 -27
q0 -36 -18.5 -160t-18.5 -188q0 -21 -12 -35t-29 -14q-68 0 -500.5 2t-550.5 2v63h125q27 0 27 35v1217q0 19 -6 26t-21 7h-125v65q117 0 517.5 3t470.5 3q27 0 37 -11.5t10 -33.5q0 -48 9 -140t9 -157q0 -20 -53 -20q-11 63 -21 98t-34 69.5t-57 50.5t-95.5 30t-142.5 18
t-205 6zM692 1757q51 0 88 -36.5t37 -88.5q0 -54 -37 -91.5t-88 -37.5q-54 0 -91.5 37.5t-37.5 91.5q0 52 37.5 88.5t91.5 36.5z" />
    <glyph glyph-name="edotaccent" unicode="&#x117;" horiz-adv-x="944" 
d="M270 592q-6 -34 -6 -70q0 -153 81 -240t230 -87q86 0 157 30.5t106 89.5q16 0 29.5 -9t13.5 -23q0 -26 -10.5 -62.5t-38.5 -82t-69.5 -83.5t-112 -64t-156.5 -26q-80 0 -153 27.5t-134 82.5t-97 148t-36 213q0 140 67.5 260.5t180.5 190t241 69.5q170 0 251 -77t81 -211
q0 -76 -59 -76h-566zM291 662q169 6 253 17t108 26t24 43q0 42 -34.5 69t-96.5 27q-89 0 -155.5 -50t-98.5 -132zM526 1391q51 0 88 -36.5t37 -88.5q0 -54 -37 -91.5t-88 -37.5q-54 0 -91.5 37.5t-37.5 91.5q0 52 37.5 88.5t91.5 36.5z" />
    <glyph glyph-name="Eogonek" unicode="&#x118;" horiz-adv-x="1290" 
d="M547 1329v-559q161 4 234.5 16t96.5 34t27 71l6 74q66 0 66 -21q0 -30 -2 -102.5t-2 -104.5t2 -110.5t2 -108.5q0 -31 -66 -31l-8 80q-6 51 -27 74t-96.5 37t-232.5 16v-602q104 5 177 11t136.5 16t104 20.5t75 31t53.5 40t35.5 54t25.5 68.5t20 87q57 0 57 -27
q0 -36 -18.5 -160t-18.5 -188q0 -21 -12 -35t-29 -14h-98q-92 -35 -144.5 -107.5t-52.5 -146.5q0 -59 31.5 -89t87.5 -30q42 0 100 17q13 -3 13 -21q0 -14 -9.5 -28.5t-29.5 -29t-60 -23.5t-94 -9q-111 0 -172 50.5t-61 129.5q0 80 81 160t234 127q-528 4 -877 4v63h125
q27 0 27 35v1217q0 19 -6 26t-21 7h-125v65q117 0 517.5 3t470.5 3q27 0 37 -11.5t10 -33.5q0 -48 9 -140t9 -157q0 -20 -53 -20q-11 63 -21 98t-34 69.5t-57 50.5t-95.5 30t-142.5 18t-205 6z" />
    <glyph glyph-name="eogonek" unicode="&#x119;" horiz-adv-x="944" 
d="M270 592q-6 -34 -6 -70q0 -153 81 -240t230 -87q86 0 157 30.5t106 89.5q16 0 29.5 -9t13.5 -23q0 -27 -12.5 -65.5t-39.5 -84.5t-79.5 -86.5t-120.5 -60.5q-81 -39 -125.5 -107.5t-44.5 -136.5q0 -59 31.5 -89t87.5 -30q42 0 100 17q12 -3 12 -21q0 -14 -9 -28.5
t-29.5 -29t-60 -23.5t-93.5 -9q-111 0 -172.5 51t-61.5 129q0 67 58.5 136.5t171.5 119.5q-80 0 -153 27.5t-134 82.5t-97 148t-36 213q0 140 67.5 260.5t180.5 190t241 69.5q170 0 251 -77t81 -211q0 -76 -59 -76h-566zM291 662q169 6 253 17t108 26t24 43q0 42 -34.5 69
t-96.5 27q-89 0 -155.5 -50t-98.5 -132z" />
    <glyph glyph-name="Ecaron" unicode="&#x11a;" horiz-adv-x="1290" 
d="M547 1329v-559q161 4 234.5 16t96.5 34t27 71l6 74q66 0 66 -21q0 -30 -2 -102.5t-2 -104.5t2 -110.5t2 -108.5q0 -31 -66 -31l-8 80q-6 51 -27 74t-96.5 37t-232.5 16v-602q104 5 177 11t136.5 16t104 20.5t75 31t53.5 40t35.5 54t25.5 68.5t20 87q57 0 57 -27
q0 -36 -18.5 -160t-18.5 -188q0 -21 -12 -35t-29 -14q-68 0 -500.5 2t-550.5 2v63h125q27 0 27 35v1217q0 19 -6 26t-21 7h-125v65q117 0 517.5 3t470.5 3q27 0 37 -11.5t10 -33.5q0 -48 9 -140t9 -157q0 -20 -53 -20q-11 63 -21 98t-34 69.5t-57 50.5t-95.5 30t-142.5 18
t-205 6zM682 1669l244 150l37 -17l-228 -313q-19 -19 -53 -19q-38 0 -57 19l-228 313l37 17z" />
    <glyph glyph-name="ecaron" unicode="&#x11b;" horiz-adv-x="944" 
d="M270 592q-6 -34 -6 -70q0 -153 81 -240t230 -87q86 0 157 30.5t106 89.5q16 0 29.5 -9t13.5 -23q0 -26 -10.5 -62.5t-38.5 -82t-69.5 -83.5t-112 -64t-156.5 -26q-80 0 -153 27.5t-134 82.5t-97 148t-36 213q0 140 67.5 260.5t180.5 190t241 69.5q170 0 251 -77t81 -211
q0 -76 -59 -76h-566zM291 662q169 6 253 17t108 26t24 43q0 42 -34.5 69t-96.5 27q-89 0 -155.5 -50t-98.5 -132zM535 1274l243 172l37 -19l-227 -364q-16 -23 -53 -23q-42 0 -58 23l-227 364l37 19z" />
    <glyph glyph-name="Gcircumflex" unicode="&#x11c;" horiz-adv-x="1591" 
d="M891 59q145 0 201.5 41t56.5 123v254q0 15 -8 25t-21 10h-184v63h655v-63h-121q-28 0 -28 -35v-377q-301 -133 -594 -133q-178 0 -326.5 55t-248.5 151.5t-155 229t-55 285.5t67 294t179 242.5t265 162.5t317 61q254 0 463 -80q24 -8 24 -39q0 -38 9.5 -178t9.5 -164
t-51 -24q-24 128 -93.5 219t-163 132.5t-202.5 41.5q-156 0 -270.5 -88.5t-171 -236t-56.5 -333.5q0 -294 133.5 -466.5t368.5 -172.5zM893 1618l-248 -148l-37 17l228 313q19 19 57 19q34 0 53 -19l228 -313l-37 -17z" />
    <glyph glyph-name="gcircumflex" unicode="&#x11d;" horiz-adv-x="1069" 
d="M365 -84q-103 -79 -103 -178q0 -164 256 -164q140 0 239 68t99 176q0 55 -35.5 81.5t-113.5 26.5q-56 0 -175 -5t-167 -5zM291 -72q-68 6 -137.5 59t-69.5 113q0 97 254 213q-100 34 -155.5 117.5t-55.5 183.5q0 155 107 249.5t278 94.5q136 0 238 -47h301v-114h-217
q63 -78 63 -191q0 -147 -111.5 -238.5t-273.5 -91.5q-52 0 -111 9q-30 -14 -59 -40.5t-29 -58.5q0 -30 24 -45.5t60 -15.5q41 0 161 9t206 9q151 0 223 -68.5t72 -185.5q0 -190 -180.5 -311t-460.5 -121q-169 0 -274 58t-105 159q0 79 71 146t181 108zM512 872
q-141 0 -141 -245q0 -132 36 -202.5t105 -70.5q71 0 108 68.5t37 200.5q0 249 -145 249zM512 1214l-248 -172l-37 19l228 364q16 23 57 23q37 0 53 -23l228 -364l-37 -19z" />
    <glyph glyph-name="Gbreve" unicode="&#x11e;" horiz-adv-x="1630" 
d="M930 59q145 0 201.5 41t56.5 123v254q0 15 -8 25t-21 10h-184v63h655v-63h-121q-28 0 -28 -35v-377q-301 -133 -594 -133q-178 0 -326.5 55t-248.5 151.5t-155 229t-55 285.5t67 294t179 242.5t265 162.5t317 61q254 0 463 -80q24 -8 24 -39q0 -38 9.5 -178t9.5 -164
t-52 -24q-24 129 -93.5 219.5t-162.5 132t-202 41.5q-156 0 -270.5 -88.5t-171 -236t-56.5 -333.5q0 -294 133.5 -466.5t368.5 -172.5zM1153 1802q-6 -142 -71.5 -223.5t-157.5 -81.5q-94 0 -160 79.5t-72 225.5h56q4 -46 34 -75.5t65.5 -39.5t76.5 -10q40 0 75.5 10
t66 39.5t34.5 75.5h53z" />
    <glyph glyph-name="gbreve" unicode="&#x11f;" horiz-adv-x="1069" 
d="M365 -84q-103 -79 -103 -178q0 -164 256 -164q140 0 239 68t99 176q0 55 -35.5 81.5t-113.5 26.5q-56 0 -175 -5t-167 -5zM291 -72q-68 6 -137.5 59t-69.5 113q0 97 254 213q-100 34 -155.5 117.5t-55.5 183.5q0 155 107 249.5t278 94.5q136 0 238 -47h301v-114h-217
q63 -78 63 -191q0 -147 -111.5 -238.5t-273.5 -91.5q-52 0 -111 9q-30 -14 -59 -40.5t-29 -58.5q0 -30 24 -45.5t60 -15.5q41 0 161 9t206 9q151 0 223 -68.5t72 -185.5q0 -190 -180.5 -311t-460.5 -121q-169 0 -274 58t-105 159q0 79 71 146t181 108zM512 872
q-141 0 -141 -245q0 -132 36 -202.5t105 -70.5q71 0 108 68.5t37 200.5q0 249 -145 249zM743 1386q-6 -154 -71 -238.5t-158 -84.5q-95 0 -160 82.5t-71 240.5h55q3 -42 20.5 -71.5t44.5 -44t54 -21t57 -6.5q29 0 56 6.5t54.5 21t45 44t20.5 71.5h53z" />
    <glyph glyph-name="Gdotaccent" unicode="&#x120;" horiz-adv-x="1591" 
d="M891 59q145 0 201.5 41t56.5 123v254q0 15 -8 25t-21 10h-184v63h655v-63h-121q-28 0 -28 -35v-377q-301 -133 -594 -133q-178 0 -326.5 55t-248.5 151.5t-155 229t-55 285.5t67 294t179 242.5t265 162.5t317 61q254 0 463 -80q24 -8 24 -39q0 -38 9.5 -178t9.5 -164
t-51 -24q-24 128 -93.5 219t-163 132.5t-202.5 41.5q-156 0 -270.5 -88.5t-171 -236t-56.5 -333.5q0 -294 133.5 -466.5t368.5 -172.5zM899 1767q51 0 88 -36.5t37 -88.5q0 -54 -37 -91.5t-88 -37.5q-54 0 -91.5 37.5t-37.5 91.5q0 52 37.5 88.5t91.5 36.5z" />
    <glyph glyph-name="gdotaccent" unicode="&#x121;" horiz-adv-x="1069" 
d="M365 -84q-103 -79 -103 -178q0 -164 256 -164q140 0 239 68t99 176q0 55 -35.5 81.5t-113.5 26.5q-56 0 -175 -5t-167 -5zM291 -72q-68 6 -137.5 59t-69.5 113q0 97 254 213q-100 34 -155.5 117.5t-55.5 183.5q0 155 107 249.5t278 94.5q136 0 238 -47h301v-114h-217
q63 -78 63 -191q0 -147 -111.5 -238.5t-273.5 -91.5q-52 0 -111 9q-30 -14 -59 -40.5t-29 -58.5q0 -30 24 -45.5t60 -15.5q41 0 161 9t206 9q151 0 223 -68.5t72 -185.5q0 -190 -180.5 -311t-460.5 -121q-169 0 -274 58t-105 159q0 79 71 146t181 108zM512 872
q-141 0 -141 -245q0 -132 36 -202.5t105 -70.5q71 0 108 68.5t37 200.5q0 249 -145 249zM524 1391q51 0 88 -36.5t37 -88.5q0 -54 -37 -91.5t-88 -37.5q-54 0 -91.5 37.5t-37.5 91.5q0 52 37.5 88.5t91.5 36.5z" />
    <glyph glyph-name="Gcommaaccent" unicode="&#x122;" horiz-adv-x="1591" 
d="M891 59q145 0 201.5 41t56.5 123v254q0 15 -8 25t-21 10h-184v63h655v-63h-121q-28 0 -28 -35v-377q-301 -133 -594 -133q-178 0 -326.5 55t-248.5 151.5t-155 229t-55 285.5t67 294t179 242.5t265 162.5t317 61q254 0 463 -80q24 -8 24 -39q0 -38 9.5 -178t9.5 -164
t-51 -24q-24 128 -93.5 219t-163 132.5t-202.5 41.5q-156 0 -270.5 -88.5t-171 -236t-56.5 -333.5q0 -294 133.5 -466.5t368.5 -172.5zM731 -690v61q100 -7 160.5 39.5t60.5 126.5q0 50 -24 77.5t-60 27.5q-58 0 -94.5 29.5t-36.5 78.5q0 53 37.5 91t93.5 38q82 0 145.5 -70
t63.5 -174q0 -154 -97.5 -241t-248.5 -84z" />
    <glyph glyph-name="gcommaaccent" unicode="&#x123;" horiz-adv-x="1069" 
d="M365 -84q-103 -79 -103 -178q0 -164 256 -164q140 0 239 68t99 176q0 55 -35.5 81.5t-113.5 26.5q-56 0 -175 -5t-167 -5zM291 -72q-68 6 -137.5 59t-69.5 113q0 97 254 213q-100 34 -155.5 117.5t-55.5 183.5q0 155 107 249.5t278 94.5q136 0 238 -47h301v-114h-217
q63 -78 63 -191q0 -147 -111.5 -238.5t-273.5 -91.5q-52 0 -111 9q-30 -14 -59 -40.5t-29 -58.5q0 -30 24 -45.5t60 -15.5q41 0 161 9t206 9q151 0 223 -68.5t72 -185.5q0 -190 -180.5 -311t-460.5 -121q-169 0 -274 58t-105 159q0 79 71 146t181 108zM512 872
q-141 0 -141 -245q0 -132 36 -202.5t105 -70.5q71 0 108 68.5t37 200.5q0 249 -145 249zM686 1630v-61q-100 7 -160.5 -39.5t-60.5 -126.5q0 -50 24 -77.5t60 -27.5q58 0 94.5 -29.5t36.5 -78.5q0 -53 -37.5 -91t-93.5 -38q-82 0 -145.5 70t-63.5 174q0 154 97.5 241
t248.5 84z" />
    <glyph glyph-name="Hcircumflex" unicode="&#x124;" horiz-adv-x="1755" 
d="M1208 692h-661v-594q0 -35 28 -35h125v-63h-598v63h125q27 0 27 35v1217q0 33 -27 33h-125v65h598v-65h-125q-15 0 -21.5 -7.5t-6.5 -25.5v-527h661v527q0 33 -26 33h-125v65h596v-65h-125q-15 0 -21 -7t-6 -26v-1217q0 -35 27 -35h125v-63h-596v63h125q26 0 26 35v594z
M879 1618l-248 -148l-37 17l227 313q19 19 58 19q34 0 53 -19l227 -313l-37 -17z" />
    <glyph glyph-name="hcircumflex" unicode="&#x125;" horiz-adv-x="1202" 
d="M403 1020v-250q70 91 164 138.5t189 47.5q131 0 205.5 -77.5t74.5 -227.5v-536q0 -52 41 -52h84v-63h-506v63h103q43 0 43 52v460q0 107 -56.5 157t-138.5 50q-73 0 -138 -33t-65 -75v-559q0 -25 7.5 -38.5t31.5 -13.5h103v-63h-506v63h86q43 0 43 52v1226q0 52 -13.5 71
t-43.5 30l-37 12q-35 11 -35 39q0 19 8 27q117 8 188 28.5t146 59.5q37 0 37 -13q0 -4 -1.5 -25t-4 -62.5t-4.5 -101.5t-3.5 -161.5t-1.5 -224.5zM406 1753l-248 -147l-37 16l227 313q19 19 58 19q34 0 53 -19l227 -313l-37 -16z" />
    <glyph glyph-name="Hbar" unicode="&#x126;" horiz-adv-x="1755" 
d="M111 1157h143v158q0 33 -27 33h-125v65h598v-65h-125q-15 0 -21.5 -7.5t-6.5 -25.5v-158h661v158q0 33 -26 33h-125v65h596v-65h-125q-15 0 -21 -7t-6 -26v-158h150v-125h-150v-934q0 -35 27 -35h125v-63h-596v63h125q26 0 26 35v594h-661v-594q0 -35 28 -35h125v-63
h-598v63h125q27 0 27 35v934h-143v125zM547 788h661v244h-661v-244z" />
    <glyph glyph-name="hbar" unicode="&#x127;" horiz-adv-x="1202" 
d="M41 1253h127v88q0 52 -13.5 71t-43.5 30l-37 12q-35 11 -35 39q0 19 8 27q117 8 188 28.5t146 59.5q37 0 37 -13q0 -3 -2 -43.5t-5 -122t-5 -176.5h243v-94h-246v-389q70 91 164 138.5t189 47.5q131 0 205.5 -77.5t74.5 -227.5v-536q0 -52 41 -52h84v-63h-506v63h103
q43 0 43 52v460q0 107 -56.5 157t-138.5 50q-73 0 -138 -33t-65 -75v-559q0 -25 7.5 -38.5t31.5 -13.5h103v-63h-506v63h86q43 0 43 52v1044h-127v94z" />
    <glyph glyph-name="Itilde" unicode="&#x128;" horiz-adv-x="800" 
d="M700 0h-596v63h125q27 0 27 35v1217q0 19 -6 26t-21 7h-125v65h596v-65h-125q-26 0 -26 -33v-1217q0 -35 26 -35h125v-63zM115 1520l-43 16q65 219 227 219q44 0 83 -15.5t63.5 -34.5t58.5 -34.5t69 -15.5q38 0 65 20t52 66l41 -17q-50 -229 -207 -229q-42 0 -82.5 15.5
t-67.5 34.5t-65 34.5t-76 15.5t-64.5 -16t-53.5 -59z" />
    <glyph glyph-name="itilde" unicode="&#x129;" horiz-adv-x="561" 
d="M397 948v-833q0 -25 7.5 -38.5t31.5 -13.5h88v-63h-491v63h86q43 0 43 52v575q0 25 -8 37t-33 18l-53 13q-19 5 -27 12t-8 23q0 13 8 18q124 18 204 58t115 92q37 0 37 -13zM-8 1120l-43 19q65 241 227 241q44 0 83.5 -17t63.5 -38t58.5 -38t69.5 -17q39 0 65.5 21
t50.5 73l41 -18q-49 -250 -207 -250q-42 0 -82.5 17t-67 37t-64.5 37t-76 17q-37 0 -64.5 -19t-54.5 -65z" />
    <glyph glyph-name="Imacron" unicode="&#x12a;" horiz-adv-x="800" 
d="M698 0h-596v63h125q27 0 27 35v1217q0 19 -6 26t-21 7h-125v65h596v-65h-125q-26 0 -26 -33v-1217q0 -35 26 -35h125v-63zM147 1716h506v-153h-506v153z" />
    <glyph glyph-name="imacron" unicode="&#x12b;" horiz-adv-x="561" 
d="M397 948v-833q0 -25 7.5 -38.5t31.5 -13.5h88v-63h-491v63h86q43 0 43 52v575q0 25 -8 37t-33 18l-53 13q-19 5 -27 12t-8 23q0 13 8 18q124 18 204 58t115 92q37 0 37 -13zM6 1294h506v-153h-506v153z" />
    <glyph glyph-name="Ibreve" unicode="&#x12c;" horiz-adv-x="800" 
d="M698 0h-596v63h125q27 0 27 35v1217q0 19 -6 26t-21 7h-125v65h596v-65h-125q-26 0 -26 -33v-1217q0 -35 26 -35h125v-63zM631 1792q-6 -142 -72 -223.5t-158 -81.5q-94 0 -159.5 79.5t-71.5 225.5h55q4 -46 34 -75.5t65.5 -39.5t76.5 -10q40 0 76 10t66.5 39.5
t34.5 75.5h53z" />
    <glyph glyph-name="ibreve" unicode="&#x12d;" horiz-adv-x="561" 
d="M397 948v-833q0 -25 7.5 -38.5t31.5 -13.5h88v-63h-491v63h86q43 0 43 52v575q0 25 -8 37t-33 18l-53 13q-19 5 -27 12t-8 23q0 13 8 18q124 18 204 58t115 92q37 0 37 -13zM510 1386q-6 -154 -71 -238.5t-158 -84.5q-95 0 -160.5 82.5t-71.5 240.5h55q3 -42 20.5 -71.5
t44.5 -44t54.5 -21t57.5 -6.5q29 0 56 6.5t54.5 21t45 44t20.5 71.5h53z" />
    <glyph glyph-name="Iogonek" unicode="&#x12e;" horiz-adv-x="800" 
d="M698 0h-118q-97 -33 -153 -107.5t-56 -150.5q0 -59 31.5 -89t86.5 -30q43 0 101 17q12 -3 12 -21q0 -14 -9 -28.5t-29.5 -29t-60 -23.5t-93.5 -9q-111 0 -172.5 51t-61.5 129q0 81 84.5 162.5t243.5 128.5h-402v63h125q27 0 27 35v1217q0 19 -6 26t-21 7h-125v65h596v-65
h-125q-26 0 -26 -33v-1217q0 -35 26 -35h125v-63z" />
    <glyph glyph-name="iogonek" unicode="&#x12f;" horiz-adv-x="561" 
d="M397 948v-833q0 -25 7.5 -38.5t31.5 -13.5h88v-63h-63q-97 -33 -153 -107.5t-56 -150.5q0 -59 31.5 -89t87.5 -30q42 0 100 17q12 -3 12 -21q0 -14 -9 -28.5t-29.5 -29t-60 -23.5t-93.5 -9q-111 0 -172.5 51t-61.5 129q0 81 84.5 162.5t243.5 128.5h-352v63h86
q43 0 43 52v575q0 25 -8 37t-33 18l-53 13q-19 5 -27 12t-8 23q0 13 8 18q124 18 204 58t115 92q37 0 37 -13zM283 1413q63 0 107 -44.5t44 -106.5q0 -63 -44 -107.5t-107 -44.5q-62 0 -107 44.5t-45 107.5q0 61 45 106t107 45z" />
    <glyph glyph-name="Idotaccent" unicode="&#x130;" horiz-adv-x="800" 
d="M698 0h-596v63h125q27 0 27 35v1217q0 19 -6 26t-21 7h-125v65h596v-65h-125q-26 0 -26 -33v-1217q0 -35 26 -35h125v-63zM401 1757q51 0 88 -36.5t37 -88.5q0 -54 -37 -91.5t-88 -37.5q-54 0 -91.5 37.5t-37.5 91.5q0 52 37.5 88.5t91.5 36.5z" />
    <glyph glyph-name="dotlessi" unicode="&#x131;" horiz-adv-x="561" 
d="M397 948v-833q0 -25 7.5 -38.5t31.5 -13.5h88v-63h-491v63h86q43 0 43 52v575q0 25 -8 37t-33 18l-53 13q-19 5 -27 12t-8 23q0 13 8 18q124 18 204 58t115 92q37 0 37 -13z" />
    <glyph glyph-name="IJ" unicode="&#x132;" horiz-adv-x="1478" 
d="M698 0h-596v63h125q27 0 27 35v1217q0 19 -6 26t-21 7h-125v65h596v-65h-125q-26 0 -26 -33v-1217q0 -35 26 -35h125v-63zM1245 285q0 -229 -70.5 -401.5t-205.5 -267.5t-318 -95q-110 0 -168.5 55t-58.5 129q0 60 38.5 101.5t104.5 41.5q44 0 71 -15t39.5 -37t24 -43.5
t35.5 -36.5t64 -15q65 0 108 84t43 260v1270q0 19 -5.5 26t-20.5 7h-142v65h613v-65h-125q-27 0 -27 -33v-1030z" />
    <glyph glyph-name="ij" unicode="&#x133;" horiz-adv-x="1122" 
d="M397 948v-833q0 -25 7.5 -38.5t31.5 -13.5h88v-63h-491v63h86q43 0 43 52v575q0 25 -8 37t-33 18l-53 13q-19 5 -27 12t-8 23q0 13 8 18q124 18 204 58t115 92q37 0 37 -13zM283 1413q63 0 107 -44.5t44 -106.5q0 -63 -44 -107.5t-107 -44.5q-62 0 -107 44.5t-45 107.5
q0 61 45 106t107 45zM739 -20v710q0 25 -8 37t-33 18l-53 13q-19 5 -27 12t-8 23q0 13 8 18q124 18 204.5 58.5t115.5 91.5q37 0 37 -13v-938q0 -92 -41 -190t-109 -178.5t-167 -132.5t-205 -52q-33 0 -49.5 19t-16.5 51q0 54 37 86.5t100 32.5q82 0 127 28t66.5 100.5
t21.5 205.5zM860 1413q63 0 107.5 -44.5t44.5 -106.5q0 -63 -44.5 -107.5t-107.5 -44.5q-62 0 -106.5 44.5t-44.5 107.5q0 62 44.5 106.5t106.5 44.5z" />
    <glyph glyph-name="Jcircumflex" unicode="&#x134;" horiz-adv-x="798" 
d="M565 285q0 -229 -70.5 -401.5t-205.5 -267.5t-318 -95q-110 0 -168.5 55t-58.5 129q0 60 38.5 101.5t104.5 41.5q44 0 71 -15t39.5 -37t24 -43.5t35.5 -36.5t64 -15q65 0 108 84t43 260v1270q0 19 -5.5 26t-20.5 7h-142v65h613v-65h-125q-27 0 -27 -33v-1030zM416 1618
l-248 -148l-37 17l227 313q19 19 58 19q34 0 53 -19l227 -313l-37 -17z" />
    <glyph glyph-name="jcircumflex" unicode="&#x135;" horiz-adv-x="526" 
d="M162 -20v710q0 25 -8 37t-33 18l-53 13q-19 5 -27 12t-8 23q0 13 8 18q124 18 204 58t115 92q37 0 37 -13v-938q0 -92 -41 -190t-109 -178.5t-167 -132.5t-205 -52q-65 0 -65 70q0 54 37 86.5t100 32.5q82 0 127 28t66.5 100.5t21.5 205.5zM258 1214l-248 -172l-37 19
l228 364q16 23 57 23q37 0 53 -23l228 -364l-37 -19z" />
    <glyph glyph-name="Kcommaaccent" unicode="&#x136;" horiz-adv-x="1570" 
d="M1305 1313q-263 -240 -539 -461q110 -107 310 -332t364 -426q22 -31 63 -31h68v-63h-651v63h122q11 0 18 7.5t7 17.5q0 16 -18 39q-84 118 -248.5 303t-253.5 264v-596q0 -35 26 -35h125v-63h-596v63h125q27 0 27 35v1217q0 19 -6 26t-21 7h-125v65h596v-65h-125
q-26 0 -26 -33v-572q124 110 282.5 272.5t239.5 264.5q17 23 11 45.5t-29 22.5h-127v65h544v-65h-69q-49 0 -94 -35zM664 -690v61q100 -7 160.5 39.5t60.5 126.5q0 50 -24 77.5t-60 27.5q-58 0 -94.5 29.5t-36.5 78.5q0 53 37.5 91t93.5 38q82 0 145.5 -70t63.5 -174
q0 -154 -97.5 -241t-248.5 -84z" />
    <glyph glyph-name="kcommaaccent" unicode="&#x137;" horiz-adv-x="1118" 
d="M412 1595q0 -4 -1.5 -25.5t-4 -63.5t-4.5 -104t-3.5 -168.5t-1.5 -234.5v-499q62 33 183.5 149.5t121.5 159.5q0 22 -8.5 30.5t-31.5 8.5h-78v63h491v-63h-43q-71 0 -133 -49q-159 -137 -281 -219q43 -38 179.5 -202t222.5 -286q19 -29 53 -29h45v-63h-508v63h58
q30 0 30 29q0 27 -136.5 202t-164.5 179v-358q0 -25 7.5 -38.5t31.5 -13.5h60v-63h-463v63h86q43 0 43 52v1226q0 52 -14 71t-44 30l-36 12q-35 11 -35 39q0 18 6 27q119 8 190 28.5t146 59.5q37 0 37 -13zM393 -690v61q100 -7 160.5 39.5t60.5 126.5q0 50 -24 77.5
t-60 27.5q-58 0 -94.5 29.5t-36.5 78.5q0 53 37.5 91t93.5 38q82 0 145.5 -70t63.5 -174q0 -154 -97.5 -241t-248.5 -84z" />
    <glyph glyph-name="Lacute" unicode="&#x139;" horiz-adv-x="1169" 
d="M487 92q146 4 247 19t168 39.5t108.5 68t63.5 95t38 130.5q57 0 57 -26q0 -19 -19.5 -173.5t-19.5 -199.5q0 -22 -12 -35.5t-31 -13.5q-66 0 -495.5 2t-548.5 2v63h125q27 0 27 35v1217q0 19 -6 26t-21 7h-125v65h604v-65h-133q-27 0 -27 -33v-1223zM686 1737l-393 -267
l-47 19l196 252q34 43 72 63.5t111 20.5q46 0 67 -12t21 -27q0 -33 -27 -49z" />
    <glyph glyph-name="lacute" unicode="&#x13a;" horiz-adv-x="555" 
d="M412 1595q0 -4 -1.5 -25t-4 -62.5t-4.5 -101.5t-3.5 -161.5t-1.5 -224.5v-905q0 -25 7.5 -38.5t31.5 -13.5h88v-63h-491v63h86q43 0 43 52v1226q0 52 -14 71t-44 30l-36 12q-35 11 -35 39q0 18 6 27q122 8 193 28.5t143 59.5q37 0 37 -13zM551 1868l-393 -266l-47 18
l196 252q34 43 71.5 63.5t110.5 20.5q46 0 67.5 -12t21.5 -27q0 -33 -27 -49z" />
    <glyph glyph-name="Lcommaaccent" unicode="&#x13b;" horiz-adv-x="1228" 
d="M547 92q146 4 246.5 19t168 39.5t109 68.5t63 94.5t37.5 130.5q58 0 58 -26q0 -19 -19.5 -173.5t-19.5 -199.5q0 -22 -12 -35.5t-31 -13.5q-66 0 -496 2t-549 2v63h125q27 0 27 35v1217q0 19 -6 26t-21 7h-125v65h605v-65h-134q-26 0 -26 -33v-1223zM483 -690v61
q100 -7 161 39.5t61 126.5q0 50 -24 77.5t-60 27.5q-58 0 -95 29.5t-37 78.5q0 53 38 91t94 38q82 0 145 -70t63 -174q0 -154 -97.5 -241t-248.5 -84z" />
    <glyph glyph-name="lcommaaccent" unicode="&#x13c;" horiz-adv-x="555" 
d="M412 1595q0 -4 -1.5 -25t-4 -62.5t-4.5 -101.5t-3.5 -161.5t-1.5 -224.5v-905q0 -25 7.5 -38.5t31.5 -13.5h88v-63h-491v63h86q43 0 43 52v1226q0 52 -14 71t-44 30l-36 12q-35 11 -35 39q0 18 6 27q122 8 193 28.5t143 59.5q37 0 37 -13zM115 -690v61q100 -7 160.5 39.5
t60.5 126.5q0 50 -24 77.5t-60 27.5q-58 0 -94.5 29.5t-36.5 78.5q0 53 37.5 91t93.5 38q82 0 145.5 -70t63.5 -174q0 -154 -97.5 -241t-248.5 -84z" />
    <glyph glyph-name="Lcaron" unicode="&#x13d;" horiz-adv-x="1228" 
d="M547 92q146 4 246.5 19t168 39.5t109 68.5t63 94.5t37.5 130.5q58 0 58 -26q0 -19 -19.5 -173.5t-19.5 -199.5q0 -22 -12 -35.5t-31 -13.5q-66 0 -496 2t-549 2v63h125q27 0 27 35v1217q0 19 -6 26t-21 7h-125v65h605v-65h-134q-26 0 -26 -33v-1223zM823 1456q0 28 27 46
t80 18q74 0 98.5 -24t1.5 -83l-145 -356h-62v399z" />
    <glyph glyph-name="lcaron" unicode="&#x13e;" horiz-adv-x="555" 
d="M412 1595q0 -4 -1.5 -25t-4 -62.5t-4.5 -101.5t-3.5 -161.5t-1.5 -224.5v-905q0 -25 7.5 -38.5t31.5 -13.5h88v-63h-491v63h86q43 0 43 52v1226q0 52 -14 71t-44 30l-36 12q-35 11 -35 39q0 18 6 27q122 8 193 28.5t143 59.5q37 0 37 -13zM508 1556q0 28 26.5 46t79.5 18
q74 0 99 -24t2 -83l-146 -356h-61v399z" />
    <glyph glyph-name="Ldotaccent" unicode="&#x13f;" horiz-adv-x="0" 
 />
    <glyph glyph-name="ldotaccent" unicode="&#x140;" horiz-adv-x="0" 
 />
    <glyph glyph-name="Lslash" unicode="&#x141;" horiz-adv-x="1228" 
d="M254 498l-152 -101v119l152 100v699q0 19 -6 26t-21 7h-125v65h605v-65h-134q-26 0 -26 -33v-516l321 205v-117l-321 -205v-590q146 4 246.5 19t168 39.5t109 68.5t63 94.5t37.5 130.5q58 0 58 -26q0 -19 -19.5 -173.5t-19.5 -199.5q0 -22 -12 -35.5t-31 -13.5
q-66 0 -496 2t-549 2v63h125q27 0 27 35v400z" />
    <glyph glyph-name="lslash" unicode="&#x142;" horiz-adv-x="595" 
d="M182 666l-135 -125v145l135 125v530q0 52 -13 71.5t-44 29.5l-37 12q-33 11 -33 39q0 18 6 27q121 8 193 28.5t143 59.5q35 0 35 -13q0 -4 -1.5 -24.5t-3.5 -60t-4 -97t-3.5 -155t-1.5 -214.5l139 127v-145l-139 -127v-784q0 -25 8 -38.5t33 -13.5h86v-63h-490v63h84
q43 0 43 52v551z" />
    <glyph glyph-name="Nacute" unicode="&#x143;" horiz-adv-x="1550" 
d="M1241 477q0 384 -10 768q-1 66 -18 84.5t-74 18.5h-70v65h432v-65h-71q-45 0 -56.5 -18t-13.5 -83q-12 -509 -12 -1270h-125l-861 1272q0 -668 9 -1083q1 -65 18.5 -84t75.5 -19h70v-63h-433v63h64q46 0 62.5 20t17.5 81q8 387 8 1151q0 33 -25 33h-127v65h510z
M1157 1737l-393 -267l-47 19l196 252q34 43 72 63.5t111 20.5q46 0 67 -12t21 -27q0 -33 -27 -49z" />
    <glyph glyph-name="nacute" unicode="&#x144;" horiz-adv-x="1202" 
d="M403 770q70 91 164 138.5t189 47.5q131 0 205.5 -77.5t74.5 -227.5v-536q0 -52 41 -52h84v-63h-506v63h103q43 0 43 52v460q0 107 -56.5 157t-138.5 50q-73 0 -138 -33t-65 -75v-559q0 -25 7.5 -38.5t31.5 -13.5h103v-63h-506v63h86q43 0 43 52v575q0 25 -8 37t-33 18
l-53 13q-19 5 -27 12t-8 23q0 13 8 18q230 34 320 150q36 0 36 -13v-178zM905 1343l-395 -311l-59 23l196 293q33 48 78 74t119 26q45 0 65.5 -14.5t20.5 -34.5q0 -34 -25 -56z" />
    <glyph glyph-name="Ncommaaccent" unicode="&#x145;" horiz-adv-x="1583" 
d="M1241 477q0 384 -10 768q-1 66 -18 84.5t-74 18.5h-70v65h432v-65h-71q-45 0 -56.5 -18t-13.5 -83q-12 -509 -12 -1270h-125l-861 1272q0 -668 9 -1083q1 -65 18.5 -84t75.5 -19h70v-63h-433v63h64q46 0 62.5 20t17.5 81q8 387 8 1151q0 33 -25 33h-127v65h510zM670 -690
v61q100 -7 160.5 39.5t60.5 126.5q0 50 -24 77.5t-60 27.5q-58 0 -94.5 29.5t-36.5 78.5q0 53 37.5 91t93.5 38q82 0 145.5 -70t63.5 -174q0 -154 -97.5 -241t-248.5 -84z" />
    <glyph glyph-name="ncommaaccent" unicode="&#x146;" horiz-adv-x="1202" 
d="M403 770q70 91 164 138.5t189 47.5q131 0 205.5 -77.5t74.5 -227.5v-536q0 -52 41 -52h84v-63h-506v63h103q43 0 43 52v460q0 107 -56.5 157t-138.5 50q-73 0 -138 -33t-65 -75v-559q0 -25 7.5 -38.5t31.5 -13.5h103v-63h-506v63h86q43 0 43 52v575q0 25 -8 37t-33 18
l-53 13q-19 5 -27 12t-8 23q0 13 8 18q230 34 320 150q36 0 36 -13v-178zM455 -690v61q100 -7 160.5 39.5t60.5 126.5q0 50 -24 77.5t-60 27.5q-58 0 -94.5 29.5t-36.5 78.5q0 53 37.5 91t93.5 38q82 0 145.5 -70t63.5 -174q0 -154 -97.5 -241t-248.5 -84z" />
    <glyph glyph-name="Ncaron" unicode="&#x147;" horiz-adv-x="1550" 
d="M1241 477q0 384 -10 768q-1 66 -18 84.5t-74 18.5h-70v65h432v-65h-71q-45 0 -56.5 -18t-13.5 -83q-12 -509 -12 -1270h-125l-861 1272q0 -668 9 -1083q1 -65 18.5 -84t75.5 -19h70v-63h-433v63h64q46 0 62.5 20t17.5 81q8 387 8 1151q0 33 -25 33h-127v65h510zM809 1669
l244 150l37 -17l-228 -313q-19 -19 -53 -19q-38 0 -57 19l-228 313l37 17z" />
    <glyph glyph-name="ncaron" unicode="&#x148;" horiz-adv-x="1202" 
d="M403 770q70 91 164 138.5t189 47.5q131 0 205.5 -77.5t74.5 -227.5v-536q0 -52 41 -52h84v-63h-506v63h103q43 0 43 52v460q0 107 -56.5 157t-138.5 50q-73 0 -138 -33t-65 -75v-559q0 -25 7.5 -38.5t31.5 -13.5h103v-63h-506v63h86q43 0 43 52v575q0 25 -8 37t-33 18
l-53 13q-19 5 -27 12t-8 23q0 13 8 18q230 34 320 150q36 0 36 -13v-178zM604 1274l244 172l37 -19l-228 -364q-16 -23 -53 -23q-41 0 -57 23l-228 364l37 19z" />
    <glyph glyph-name="napostrophe" unicode="&#x149;" horiz-adv-x="1202" 
d="M403 770q70 91 164 138.5t189 47.5q131 0 205.5 -77.5t74.5 -227.5v-536q0 -52 41 -52h84v-63h-506v63h103q43 0 43 52v460q0 107 -56.5 157t-138.5 50q-73 0 -138 -33t-65 -75v-559q0 -25 7.5 -38.5t31.5 -13.5h103v-63h-506v63h86q43 0 43 52v575q0 25 -8 37t-33 18
l-53 13q-19 5 -27 12t-8 23q0 13 8 18q230 34 320 150q36 0 36 -13v-178zM170 1475q0 28 26.5 45.5t79.5 17.5q74 0 99 -24t2 -82l-146 -357h-61v400z" />
    <glyph glyph-name="Eng" unicode="&#x14a;" horiz-adv-x="1583" 
d="M973 -461v74q114 18 179 80.5t65 165.5v10q0 37 -1 57.5t-7 50t-19 48.5l-828 1224q0 -668 9 -1083q1 -65 18.5 -84t75.5 -19h70v-63h-433v63h64q46 0 62.5 20t17.5 81q8 387 8 1151q0 33 -25 33h-127v65h510l629 -936q0 384 -10 768q-1 66 -18 84.5t-74 18.5h-70v65h432
v-65h-71q-45 0 -56.5 -18t-13.5 -83q-7 -310 -12 -1241q-2 -193 -102.5 -319t-272.5 -148z" />
    <glyph glyph-name="eng" unicode="&#x14b;" horiz-adv-x="1202" 
d="M518 -426v74q47 8 84.5 20.5t76.5 39.5t64.5 66t41.5 102t16 144v555q0 107 -56.5 157t-138.5 50q-73 0 -138 -33t-65 -75v-559q0 -25 7.5 -38.5t31.5 -13.5h103v-63h-506v63h86q43 0 43 52v575q0 25 -8 37t-33 18l-53 13q-19 5 -27 12t-8 23q0 13 8 18q230 34 320 150
q36 0 36 -13v-178q70 91 164 138.5t189 47.5q131 0 205.5 -77.5t74.5 -227.5v-631q0 -99 -43.5 -181.5t-117 -137t-165 -87t-192.5 -40.5z" />
    <glyph glyph-name="Omacron" unicode="&#x14c;" horiz-adv-x="1665" 
d="M1602 698q0 -148 -61 -283t-163.5 -233t-245 -156.5t-298.5 -58.5q-208 0 -385.5 98.5t-281.5 267t-104 365.5q0 150 61.5 288t165 239.5t246.5 162t298 60.5q156 0 298.5 -60.5t245 -162t163.5 -239.5t61 -288zM389 698q0 -181 57 -327t159 -228t229 -82q126 0 227.5 82
t158 228t56.5 327q0 182 -56.5 330.5t-158 234t-227.5 85.5q-127 0 -229 -85.5t-159 -234t-57 -330.5zM580 1716h505v-153h-505v153z" />
    <glyph glyph-name="omacron" unicode="&#x14d;" horiz-adv-x="1175" 
d="M588 956q216 0 359 -144t143 -357q0 -214 -142 -352t-360 -138t-360 138t-142 352q0 213 143 357t359 144zM588 860q-108 0 -169 -107t-61 -298t60.5 -292.5t169.5 -101.5t169 101.5t60 292.5t-60.5 298t-168.5 107zM336 1294h506v-153h-506v153z" />
    <glyph glyph-name="Obreve" unicode="&#x14e;" horiz-adv-x="1665" 
d="M1602 698q0 -148 -61 -283t-163.5 -233t-245 -156.5t-298.5 -58.5q-208 0 -385.5 98.5t-281.5 267t-104 365.5q0 150 61.5 288t165 239.5t246.5 162t298 60.5q156 0 298.5 -60.5t245 -162t163.5 -239.5t61 -288zM389 698q0 -181 57 -327t159 -228t229 -82q126 0 227.5 82
t158 228t56.5 327q0 182 -56.5 330.5t-158 234t-227.5 85.5q-127 0 -229 -85.5t-159 -234t-57 -330.5zM1063 1792q-6 -142 -71.5 -223.5t-157.5 -81.5q-94 0 -160 79.5t-72 225.5h55q4 -46 34 -75.5t66 -39.5t77 -10q40 0 75.5 10t66 39.5t34.5 75.5h53z" />
    <glyph glyph-name="obreve" unicode="&#x14f;" horiz-adv-x="1175" 
d="M588 956q216 0 359 -144t143 -357q0 -214 -142 -352t-360 -138t-360 138t-142 352q0 213 143 357t359 144zM588 860q-108 0 -169 -107t-61 -298t60.5 -292.5t169.5 -101.5t169 101.5t60 292.5t-60.5 298t-168.5 107zM819 1386q-6 -154 -71 -238.5t-158 -84.5
q-95 0 -160.5 82.5t-71.5 240.5h56q3 -42 20.5 -71.5t44.5 -44t54 -21t57 -6.5q29 0 56 6.5t54.5 21t45 44t20.5 71.5h53z" />
    <glyph glyph-name="Ohungarumlaut" unicode="&#x150;" horiz-adv-x="1665" 
d="M1602 698q0 -148 -61 -283t-163.5 -233t-245 -156.5t-298.5 -58.5q-208 0 -385.5 98.5t-281.5 267t-104 365.5q0 150 61.5 288t165 239.5t246.5 162t298 60.5q156 0 298.5 -60.5t245 -162t163.5 -239.5t61 -288zM389 698q0 -181 57 -327t159 -228t229 -82q126 0 227.5 82
t158 228t56.5 327q0 182 -56.5 330.5t-158 234t-227.5 85.5q-127 0 -229 -85.5t-159 -234t-57 -330.5zM911 1753l-278 -268l-43 18l139 254q22 42 53.5 64t83.5 22q32 0 48 -12.5t16 -28.5q0 -30 -19 -49zM1208 1753l-278 -268l-43 18l137 254q24 42 55.5 64t83.5 22
q32 0 47 -12.5t15 -28.5q0 -29 -17 -49z" />
    <glyph glyph-name="ohungarumlaut" unicode="&#x151;" horiz-adv-x="1175" 
d="M588 956q216 0 359 -144t143 -357q0 -214 -142 -352t-360 -138t-360 138t-142 352q0 213 143 357t359 144zM588 860q-108 0 -169 -107t-61 -298t60.5 -292.5t169.5 -101.5t169 101.5t60 292.5t-60.5 298t-168.5 107zM655 1343l-278 -311l-43 23l139 293q23 48 54.5 74
t82.5 26q32 0 48 -14.5t16 -34.5q0 -31 -19 -56zM952 1343l-278 -311l-43 23l137 293q25 49 56.5 74.5t82.5 25.5q32 0 47 -14.5t15 -34.5q0 -33 -17 -56z" />
    <glyph glyph-name="OE" unicode="&#x152;" horiz-adv-x="2318" 
d="M1227 72q139 6 246 12t197.5 14t155.5 17.5t118 22t87.5 27t61 33t42 40.5t26.5 49t18 58t15 68q1 5 1 7q58 0 58 -27q0 -36 -17.5 -160t-17.5 -188q0 -21 -12.5 -35t-30.5 -14q-50 0 -501 2t-613 2q-128 -33 -227 -33q-208 0 -385.5 98.5t-281.5 267t-104 365.5
q0 150 61.5 288t165 239.5t246.5 162t298 60.5q120 0 233 -35q127 0 554 3t493 3q47 0 47 -45q0 -48 8 -140t8 -157q0 -20 -53 -20q-7 42 -12.5 65t-17 53.5t-25 45.5t-39.5 35t-57 28.5t-81.5 20t-109.5 15.5t-143 8.5t-180.5 5.5t-223.5 1q151 -90 248 -239.5t114 -325.5
q149 5 216.5 17.5t88.5 34t25 69.5l6 74q68 0 68 -21q0 -30 -3 -102.5t-3 -104.5t3 -110.5t3 -108.5q0 -31 -68 -31l-8 80q-3 30 -9.5 46.5t-24.5 33.5t-52.5 25t-92 14t-144.5 8q-1 -194 -102 -358t-273 -264zM389 698q0 -181 57 -327t159 -228t229 -82q126 0 227.5 82
t158 228t56.5 327q0 182 -56.5 330.5t-158 234t-227.5 85.5q-127 0 -229 -85.5t-159 -234t-57 -330.5z" />
    <glyph glyph-name="oe" unicode="&#x153;" horiz-adv-x="1710" 
d="M948 106q-72 -65 -165 -103t-195 -38q-218 0 -360 138t-142 352q0 213 143 357t359 144q217 0 375 -165q69 76 168 120.5t210 44.5q161 0 240.5 -77.5t79.5 -210.5q0 -76 -59 -76h-564q-4 -23 -4 -70q0 -67 18 -124.5t53.5 -104t96 -73.5t139.5 -27q86 0 157 30.5
t106 89.5q16 0 28.5 -9t12.5 -23q0 -26 -10 -62t-38 -81.5t-69 -83t-111.5 -63.5t-156.5 -26q-84 0 -167 37t-145 104zM588 860q-107 0 -169.5 -107.5t-62.5 -297.5t62 -292t170 -102q109 0 169 101.5t60 292.5t-60.5 298t-168.5 107zM1051 662q170 6 255 17t109.5 26
t24.5 43q0 42 -33.5 69t-95.5 27q-84 0 -156.5 -54t-103.5 -128z" />
    <glyph glyph-name="Racute" unicode="&#x154;" horiz-adv-x="1515" 
d="M547 698q96 0 163.5 13.5t120.5 47t79 95t26 152.5q0 81 -17 137.5t-59.5 100t-120 64.5t-192.5 21v-631zM102 0v63h125q27 0 27 35v1217q0 19 -6 26t-21 7h-125v65h609q135 0 242.5 -34t173 -90.5t99.5 -126t34 -144.5q0 -119 -81.5 -214.5t-228.5 -129.5
q157 -230 318 -402q193 -209 295 -209q0 -1 -1 -13t-2 -17.5t-3 -15t-6 -13.5t-9 -4h-377q-29 0 -79 46.5t-130.5 151.5t-130 174.5t-149.5 212.5q-24 34 -35 50q-30 -6 -94 -6v-531q0 -35 24 -35h127v-63h-596zM963 1737l-394 -267l-47 19l197 252q34 43 71.5 63.5
t110.5 20.5q46 0 67 -12t21 -27q0 -33 -26 -49z" />
    <glyph glyph-name="racute" unicode="&#x155;" horiz-adv-x="782" 
d="M49 811q226 34 320 150q37 0 37 -13v-200q41 59 75 99t87.5 74.5t107.5 34.5q70 0 104.5 -42.5t34.5 -106.5t-33 -115t-86 -51q-33 0 -52.5 17t-26 37.5t-22.5 37.5t-42 17q-60 0 -103.5 -47t-43.5 -130v-458q0 -16 2 -26t11.5 -18t26.5 -8h154v-63h-559v63h86
q43 0 43 52v575q0 25 -8 37t-33 18l-53 13q-19 5 -27 12t-8 23q0 13 8 18zM770 1343l-395 -311l-60 23l197 293q33 48 78 74t119 26q45 0 65.5 -14.5t20.5 -34.5q0 -34 -25 -56z" />
    <glyph glyph-name="Rcommaaccent" unicode="&#x156;" horiz-adv-x="1515" 
d="M547 698q96 0 163.5 13.5t120.5 47t79 95t26 152.5q0 81 -17 137.5t-59.5 100t-120 64.5t-192.5 21v-631zM102 0v63h125q27 0 27 35v1217q0 19 -6 26t-21 7h-125v65h609q135 0 242.5 -34t173 -90.5t99.5 -126t34 -144.5q0 -119 -81.5 -214.5t-228.5 -129.5
q157 -230 318 -402q193 -209 295 -209q0 -1 -1 -13t-2 -17.5t-3 -15t-6 -13.5t-9 -4h-377q-29 0 -79 46.5t-130.5 151.5t-130 174.5t-149.5 212.5q-24 34 -35 50q-30 -6 -94 -6v-531q0 -35 24 -35h127v-63h-596zM600 -690v61q100 -7 160.5 39.5t60.5 126.5q0 50 -24 77.5
t-60 27.5q-58 0 -94.5 29.5t-36.5 78.5q0 53 37.5 91t93.5 38q82 0 145.5 -70t63.5 -174q0 -154 -97.5 -241t-248.5 -84z" />
    <glyph glyph-name="rcommaaccent" unicode="&#x157;" horiz-adv-x="782" 
d="M49 811q226 34 320 150q37 0 37 -13v-200q41 59 75 99t87.5 74.5t107.5 34.5q70 0 104.5 -42.5t34.5 -106.5t-33 -115t-86 -51q-33 0 -52.5 17t-26 37.5t-22.5 37.5t-42 17q-60 0 -103.5 -47t-43.5 -130v-458q0 -16 2 -26t11.5 -18t26.5 -8h154v-63h-559v63h86
q43 0 43 52v575q0 25 -8 37t-33 18l-53 13q-19 5 -27 12t-8 23q0 13 8 18zM156 -690v61q100 -7 160.5 39.5t60.5 126.5q0 50 -24 77.5t-60 27.5q-58 0 -94.5 29.5t-36.5 78.5q0 53 37.5 91t93.5 38q82 0 145.5 -70t63.5 -174q0 -154 -97.5 -241t-248.5 -84z" />
    <glyph glyph-name="Rcaron" unicode="&#x158;" horiz-adv-x="1515" 
d="M547 698q96 0 163.5 13.5t120.5 47t79 95t26 152.5q0 81 -17 137.5t-59.5 100t-120 64.5t-192.5 21v-631zM102 0v63h125q27 0 27 35v1217q0 19 -6 26t-21 7h-125v65h609q135 0 242.5 -34t173 -90.5t99.5 -126t34 -144.5q0 -119 -81.5 -214.5t-228.5 -129.5
q157 -230 318 -402q193 -209 295 -209q0 -1 -1 -13t-2 -17.5t-3 -15t-6 -13.5t-9 -4h-377q-29 0 -79 46.5t-130.5 151.5t-130 174.5t-149.5 212.5q-24 34 -35 50q-30 -6 -94 -6v-531q0 -35 24 -35h127v-63h-596zM696 1669l244 150l37 -17l-227 -313q-19 -19 -54 -19
q-38 0 -57 19l-227 313l37 17z" />
    <glyph glyph-name="rcaron" unicode="&#x159;" horiz-adv-x="782" 
d="M49 811q226 34 320 150q37 0 37 -13v-200q41 59 75 99t87.5 74.5t107.5 34.5q70 0 104.5 -42.5t34.5 -106.5t-33 -115t-86 -51q-33 0 -52.5 17t-26 37.5t-22.5 37.5t-42 17q-60 0 -103.5 -47t-43.5 -130v-458q0 -16 2 -26t11.5 -18t26.5 -8h154v-63h-559v63h86
q43 0 43 52v575q0 25 -8 37t-33 18l-53 13q-19 5 -27 12t-8 23q0 13 8 18zM455 1274l243 172l37 -19l-227 -364q-16 -23 -53 -23q-42 0 -58 23l-227 364l37 19z" />
    <glyph glyph-name="Sacute" unicode="&#x15a;" horiz-adv-x="1069" 
d="M625 842q199 -103 284.5 -201t85.5 -238q0 -89 -28 -162.5t-76.5 -123.5t-114.5 -84.5t-140 -50t-155 -15.5q-105 0 -186.5 14t-126 36t-66.5 44t-24 43l-10 234q-1 19 15 28t42 9q99 -314 356 -314q116 0 174 65t58 165q0 94 -51.5 154.5t-178.5 125.5q-180 90 -264 191
t-84 248q0 193 130.5 315.5t350.5 122.5q153 0 244 -36t92 -99l6 -219q0 -35 -53 -35q-35 151 -109.5 222t-172.5 71q-105 0 -167.5 -65t-62.5 -165q0 -91 54.5 -154.5t177.5 -125.5zM862 1747l-393 -266l-47 18l196 252q34 43 72 63.5t111 20.5q46 0 67 -12t21 -27
q0 -33 -27 -49z" />
    <glyph glyph-name="sacute" unicode="&#x15b;" horiz-adv-x="770" 
d="M420 956q105 0 176.5 -26t71.5 -60v-184q0 -24 -58 -24q-21 105 -73.5 153.5t-126.5 48.5q-61 0 -92 -32.5t-31 -79.5q0 -39 23 -71t60 -55t81.5 -45.5t89 -49t81.5 -58t60 -80t23 -108.5q0 -151 -101.5 -235.5t-255.5 -84.5q-132 0 -207 27.5t-75 62.5v187q0 28 57 28
q43 -213 239 -213q66 0 103 32.5t37 80.5q0 45 -23 81t-60 60.5t-82 47.5t-90 48.5t-82 57t-60 80t-23 110.5q0 126 92.5 213.5t245.5 87.5zM686 1343l-395 -311l-60 23l197 293q33 48 78 74t119 26q45 0 65.5 -14.5t20.5 -34.5q0 -34 -25 -56z" />
    <glyph glyph-name="Scircumflex" unicode="&#x15c;" horiz-adv-x="1069" 
d="M625 842q199 -103 284.5 -201t85.5 -238q0 -89 -28 -162.5t-76.5 -123.5t-114.5 -84.5t-140 -50t-155 -15.5q-105 0 -186.5 14t-126 36t-66.5 44t-24 43l-10 234q-1 19 15 28t42 9q99 -314 356 -314q116 0 174 65t58 165q0 94 -51.5 154.5t-178.5 125.5q-180 90 -264 191
t-84 248q0 193 130.5 315.5t350.5 122.5q153 0 244 -36t92 -99l6 -219q0 -35 -53 -35q-35 151 -109.5 222t-172.5 71q-105 0 -167.5 -65t-62.5 -165q0 -91 54.5 -154.5t177.5 -125.5zM608 1618l-248 -148l-36 17l227 313q19 19 57 19q35 0 54 -19l227 -313l-37 -17z" />
    <glyph glyph-name="scircumflex" unicode="&#x15d;" horiz-adv-x="770" 
d="M420 956q105 0 176.5 -26t71.5 -60v-184q0 -24 -58 -24q-21 105 -73.5 153.5t-126.5 48.5q-61 0 -92 -32.5t-31 -79.5q0 -39 23 -71t60 -55t81.5 -45.5t89 -49t81.5 -58t60 -80t23 -108.5q0 -151 -101.5 -235.5t-255.5 -84.5q-132 0 -207 27.5t-75 62.5v187q0 28 57 28
q43 -213 239 -213q66 0 103 32.5t37 80.5q0 45 -23 81t-60 60.5t-82 47.5t-90 48.5t-82 57t-60 80t-23 110.5q0 126 92.5 213.5t245.5 87.5zM410 1214l-248 -172l-37 19l227 364q16 23 58 23q37 0 53 -23l227 -364l-37 -19z" />
    <glyph glyph-name="Scedilla" unicode="&#x15e;" horiz-adv-x="1069" 
d="M461 -133q110 0 168.5 -49t58.5 -119q0 -91 -84.5 -160t-230.5 -69q-85 0 -122.5 25t-37.5 59q0 15 6 24q60 -22 131 -22q59 0 90 38.5t31 90.5q0 46 -24 80t-62 34q-40 0 -72 -16q-13 0 -19.5 8.5t-6.5 20.5q0 10 8 18l199 137h-13q-105 0 -186.5 14t-126 36t-66.5 44
t-24 43l-10 234q-1 19 15 28t42 9q99 -314 356 -314q116 0 174 65t58 165q0 94 -51.5 154.5t-178.5 125.5q-180 90 -264 191t-84 248q0 193 130.5 315.5t350.5 122.5q153 0 244 -36t92 -99l6 -219q0 -35 -53 -35q-35 151 -109.5 222t-172.5 71q-105 0 -167.5 -65t-62.5 -165
q0 -91 54.5 -154.5t177.5 -125.5q199 -103 284.5 -201t85.5 -238q0 -177 -102 -282.5t-266 -138.5z" />
    <glyph glyph-name="scedilla" unicode="&#x15f;" horiz-adv-x="770" 
d="M340 -121q110 0 168.5 -49t58.5 -119q0 -91 -84.5 -160t-230.5 -69q-85 0 -122.5 25t-37.5 59q0 15 6 24q60 -22 131 -22q59 0 90 38.5t31 90.5q0 46 -24 80.5t-62 34.5q-37 0 -71 -17q-13 0 -20 9t-7 20q0 10 8 18l178 123h-4q-132 0 -207 27.5t-75 62.5v187q0 28 57 28
q43 -213 239 -213q66 0 103 32.5t37 80.5q0 45 -23 81t-60 60.5t-82 47.5t-90 48.5t-82 57t-60 80t-23 110.5q0 126 92.5 213.5t245.5 87.5q105 0 176.5 -26t71.5 -60v-184q0 -24 -58 -24q-21 105 -73.5 153.5t-126.5 48.5q-61 0 -92 -32.5t-31 -79.5q0 -39 23 -71t60 -55
t81.5 -45.5t89 -49t81.5 -58t60 -80t23 -108.5q0 -110 -55 -184.5t-148 -108.5z" />
    <glyph glyph-name="Scaron" unicode="&#x160;" horiz-adv-x="1069" 
d="M625 842q199 -103 284.5 -201t85.5 -238q0 -89 -28 -162.5t-76.5 -123.5t-114.5 -84.5t-140 -50t-155 -15.5q-105 0 -186.5 14t-126 36t-66.5 44t-24 43l-10 234q-1 19 15 28t42 9q99 -314 356 -314q116 0 174 65t58 165q0 94 -51.5 154.5t-178.5 125.5q-180 90 -264 191
t-84 248q0 193 130.5 315.5t350.5 122.5q153 0 244 -36t92 -99l6 -219q0 -35 -53 -35q-35 151 -109.5 222t-172.5 71q-105 0 -167.5 -65t-62.5 -165q0 -91 54.5 -154.5t177.5 -125.5zM610 1690l244 149l37 -16l-227 -314q-18 -18 -54 -18q-39 0 -57 18l-227 314l36 16z" />
    <glyph glyph-name="scaron" unicode="&#x161;" horiz-adv-x="770" 
d="M420 956q105 0 176.5 -26t71.5 -60v-184q0 -24 -58 -24q-21 105 -73.5 153.5t-126.5 48.5q-61 0 -92 -32.5t-31 -79.5q0 -39 23 -71t60 -55t81.5 -45.5t89 -49t81.5 -58t60 -80t23 -108.5q0 -151 -101.5 -235.5t-255.5 -84.5q-132 0 -207 27.5t-75 62.5v187q0 28 57 28
q43 -213 239 -213q66 0 103 32.5t37 80.5q0 45 -23 81t-60 60.5t-82 47.5t-90 48.5t-82 57t-60 80t-23 110.5q0 126 92.5 213.5t245.5 87.5zM420 1274l244 172l36 -19l-227 -364q-16 -23 -53 -23q-42 0 -58 23l-227 364l37 19z" />
    <glyph glyph-name="Tcommaaccent" unicode="&#x162;" horiz-adv-x="1372" 
d="M817 1307v-1209q0 -35 29 -35h133v-63h-614v63h135q26 0 26 35v1209q-58 -2 -97 -4t-79 -6.5t-64.5 -8t-52 -14t-43 -19t-34.5 -27t-30 -34.5t-26.5 -45t-27 -55.5t-29.5 -69.5q-23 0 -33 3.5t-10 16.5q0 9 3.5 57t7 122.5t3.5 148.5q0 23 9.5 32t37.5 9h1250
q26 0 35.5 -9.5t9.5 -31.5q0 -74 4 -148.5t8 -122.5t4 -57q0 -20 -45 -20q-22 52 -36.5 84t-36 64.5t-37.5 49t-46 33.5t-57 24t-76 14t-96.5 9.5t-124.5 4.5zM508 -690v61q100 -7 160.5 39.5t60.5 126.5q0 50 -24 77.5t-60 27.5q-58 0 -94.5 29.5t-36.5 78.5q0 53 37.5 91
t93.5 38q82 0 145.5 -70t63.5 -174q0 -154 -97.5 -241t-248.5 -84z" />
    <glyph glyph-name="tcommaaccent" unicode="&#x163;" horiz-adv-x="708" 
d="M164 788h-135v54q64 15 131.5 62t121.5 122t70 156q47 0 47 -19v-252h269v-123h-269v-446q0 -92 33.5 -135t102.5 -43q51 0 77 12t43 37q31 0 31 -25q0 -74 -39 -125.5t-97.5 -74.5t-129.5 -23q-115 0 -185.5 66.5t-70.5 210.5v546zM184 -690v61q100 -7 161 39.5
t61 126.5q0 50 -24 77.5t-60 27.5q-58 0 -95 29.5t-37 78.5q0 53 38 91t94 38q82 0 145 -70t63 -174q0 -154 -97.5 -241t-248.5 -84z" />
    <glyph glyph-name="Tcaron" unicode="&#x164;" horiz-adv-x="1372" 
d="M817 1307v-1209q0 -35 29 -35h133v-63h-614v63h135q26 0 26 35v1209q-58 -2 -97 -4t-79 -6.5t-64.5 -8t-52 -14t-43 -19t-34.5 -27t-30 -34.5t-26.5 -45t-27 -55.5t-29.5 -69.5q-23 0 -33 3.5t-10 16.5q0 9 3.5 57t7 122.5t3.5 148.5q0 23 9.5 32t37.5 9h1250
q26 0 35.5 -9.5t9.5 -31.5q0 -74 4 -148.5t8 -122.5t4 -57q0 -20 -45 -20q-22 52 -36.5 84t-36 64.5t-37.5 49t-46 33.5t-57 24t-76 14t-96.5 9.5t-124.5 4.5zM688 1669l244 150l37 -17l-228 -313q-19 -19 -53 -19q-38 0 -57 19l-228 313l37 17z" />
    <glyph glyph-name="tcaron" unicode="&#x165;" horiz-adv-x="708" 
d="M164 788h-135v54q64 15 131.5 62t121.5 122t70 156q47 0 47 -19v-252h269v-123h-269v-446q0 -92 33.5 -135t102.5 -43q51 0 77 12t43 37q31 0 31 -25q0 -74 -39 -125.5t-97.5 -74.5t-129.5 -23q-115 0 -185.5 66.5t-70.5 210.5v546zM541 1475q0 28 26.5 45.5t79.5 17.5
q74 0 99 -24t2 -82l-146 -357h-61v400z" />
    <glyph glyph-name="Tbar" unicode="&#x166;" horiz-adv-x="1372" 
d="M264 686h262v621q-58 -2 -97 -4t-79 -6.5t-64.5 -8t-52 -14t-43 -19t-34.5 -27t-30 -34.5t-26.5 -45t-27 -55.5t-29.5 -69.5q-23 0 -33 3.5t-10 16.5q0 9 3.5 57t7 122.5t3.5 148.5q0 23 9.5 32t37.5 9h1250q26 0 35.5 -9.5t9.5 -31.5q0 -74 4 -148.5t8 -122.5t4 -57
q0 -20 -45 -20q-22 52 -36.5 84t-36 64.5t-37.5 49t-46 33.5t-57 24t-76 14t-96.5 9.5t-124.5 4.5v-621h262v-100h-262v-488q0 -35 29 -35h133v-63h-614v63h135q26 0 26 35v488h-262v100z" />
    <glyph glyph-name="tbar" unicode="&#x167;" horiz-adv-x="708" 
d="M23 563h141v225h-135v54q64 15 131.5 62t121.5 122t70 156q47 0 47 -19v-252h269v-123h-269v-225h258v-133h-258v-88q0 -92 33.5 -135t102.5 -43q51 0 77 12t43 37q31 0 31 -25q0 -74 -39 -125.5t-97.5 -74.5t-129.5 -23q-115 0 -185.5 66.5t-70.5 210.5v188h-141v133z
" />
    <glyph glyph-name="Utilde" unicode="&#x168;" horiz-adv-x="1685" 
d="M1321 1247q0 57 -20 79t-76 22h-86v65h465v-65h-62q-54 0 -73 -22t-19 -71v-747q0 -104 -31 -192.5t-86 -152t-129.5 -108t-161.5 -66.5t-182 -22q-295 0 -459.5 133.5t-164.5 407.5v807q0 33 -29 33h-125v65h631v-65h-164q-23 0 -23 -33v-758q0 -211 112.5 -324.5
t293.5 -113.5q84 0 152 21t122.5 65.5t84.5 121.5t30 181v739zM598 1520l-43 16q65 219 227 219q44 0 83.5 -15.5t63.5 -34.5t58.5 -34.5t69.5 -15.5q38 0 65 20t52 66l40 -17q-50 -229 -206 -229q-42 0 -82.5 15.5t-67.5 34.5t-65 34.5t-76 15.5t-65 -16t-54 -59z" />
    <glyph glyph-name="utilde" unicode="&#x169;" horiz-adv-x="1206" 
d="M1024 170q0 -26 7.5 -38.5t31.5 -12.5h102v-51l-362 -86l-15 149q-64 -80 -156.5 -123t-187.5 -43q-131 0 -204.5 77.5t-73.5 227.5v527q0 51 -41 51h-86v63h362v-563q0 -108 51.5 -158.5t131.5 -50.5q72 0 138 34.5t66 76.5v547q0 16 -2 25.5t-11.5 17.5t-26.5 8h-103
v63h379v-741zM328 1120l-43 19q65 241 227 241q44 0 83 -17t63.5 -38t58.5 -38t69 -17q39 0 66 21t51 73l41 -18q-49 -250 -207 -250q-42 0 -82.5 17t-67.5 37t-65 37t-76 17q-37 0 -64 -18.5t-54 -65.5z" />
    <glyph glyph-name="Umacron" unicode="&#x16a;" horiz-adv-x="1685" 
d="M1321 1247q0 57 -20 79t-76 22h-86v65h465v-65h-62q-54 0 -73 -22t-19 -71v-747q0 -104 -31 -192.5t-86 -152t-129.5 -108t-161.5 -66.5t-182 -22q-295 0 -459.5 133.5t-164.5 407.5v807q0 33 -29 33h-125v65h631v-65h-164q-23 0 -23 -33v-758q0 -211 112.5 -324.5
t293.5 -113.5q84 0 152 21t122.5 65.5t84.5 121.5t30 181v739zM651 1716h506v-153h-506v153z" />
    <glyph glyph-name="umacron" unicode="&#x16b;" horiz-adv-x="1206" 
d="M1024 170q0 -26 7.5 -38.5t31.5 -12.5h102v-51l-362 -86l-15 149q-64 -80 -156.5 -123t-187.5 -43q-131 0 -204.5 77.5t-73.5 227.5v527q0 51 -41 51h-86v63h362v-563q0 -108 51.5 -158.5t131.5 -50.5q72 0 138 34.5t66 76.5v547q0 16 -2 25.5t-11.5 17.5t-26.5 8h-103
v63h379v-741zM350 1294h506v-153h-506v153z" />
    <glyph glyph-name="Ubreve" unicode="&#x16c;" horiz-adv-x="1685" 
d="M1321 1247q0 57 -20 79t-76 22h-86v65h465v-65h-62q-54 0 -73 -22t-19 -71v-747q0 -104 -31 -192.5t-86 -152t-129.5 -108t-161.5 -66.5t-182 -22q-295 0 -459.5 133.5t-164.5 407.5v807q0 33 -29 33h-125v65h631v-65h-164q-23 0 -23 -33v-758q0 -211 112.5 -324.5
t293.5 -113.5q84 0 152 21t122.5 65.5t84.5 121.5t30 181v739zM1133 1792q-6 -142 -72 -223.5t-158 -81.5q-94 0 -159.5 79.5t-71.5 225.5h55q4 -46 34 -75.5t65.5 -39.5t76.5 -10q40 0 75.5 10t66 39.5t34.5 75.5h54z" />
    <glyph glyph-name="ubreve" unicode="&#x16d;" horiz-adv-x="1206" 
d="M1024 170q0 -26 7.5 -38.5t31.5 -12.5h102v-51l-362 -86l-15 149q-64 -80 -156.5 -123t-187.5 -43q-131 0 -204.5 77.5t-73.5 227.5v527q0 51 -41 51h-86v63h362v-563q0 -108 51.5 -158.5t131.5 -50.5q72 0 138 34.5t66 76.5v547q0 16 -2 25.5t-11.5 17.5t-26.5 8h-103
v63h379v-741zM834 1386q-6 -154 -71.5 -238.5t-158.5 -84.5q-95 0 -160 82.5t-71 240.5h55q3 -42 20.5 -71.5t44.5 -44t54 -21t57 -6.5q29 0 56 6.5t54.5 21t45 44t20.5 71.5h54z" />
    <glyph glyph-name="Uring" unicode="&#x16e;" horiz-adv-x="1685" 
d="M1321 1247q0 57 -20 79t-76 22h-86v65h465v-65h-62q-54 0 -73 -22t-19 -71v-747q0 -104 -31 -192.5t-86 -152t-129.5 -108t-161.5 -66.5t-182 -22q-295 0 -459.5 133.5t-164.5 407.5v807q0 33 -29 33h-125v65h631v-65h-164q-23 0 -23 -33v-758q0 -211 112.5 -324.5
t293.5 -113.5q84 0 152 21t122.5 65.5t84.5 121.5t30 181v739zM913 1896q96 0 167 -63.5t71 -153.5t-71 -154.5t-167 -64.5q-97 0 -168 64.5t-71 154.5t71 153.5t168 63.5zM913 1802q-55 0 -92 -36t-37 -87q0 -53 37 -88t92 -35q54 0 90.5 35.5t36.5 87.5q0 51 -36.5 87
t-90.5 36z" />
    <glyph glyph-name="uring" unicode="&#x16f;" horiz-adv-x="1206" 
d="M1024 170q0 -26 7.5 -38.5t31.5 -12.5h102v-51l-362 -86l-15 149q-64 -80 -156.5 -123t-187.5 -43q-131 0 -204.5 77.5t-73.5 227.5v527q0 51 -41 51h-86v63h362v-563q0 -108 51.5 -158.5t131.5 -50.5q72 0 138 34.5t66 76.5v547q0 16 -2 25.5t-11.5 17.5t-26.5 8h-103
v63h379v-741zM592 1446q99 0 171.5 -70t72.5 -168q0 -99 -72.5 -169t-171.5 -70q-100 0 -173 70t-73 169q0 98 73 168t173 70zM592 1341q-57 0 -95 -38.5t-38 -94.5q0 -57 38 -96t95 -39q55 0 93 39t38 96q0 56 -38 94.5t-93 38.5z" />
    <glyph glyph-name="Uhungarumlaut" unicode="&#x170;" horiz-adv-x="1685" 
d="M1321 1247q0 57 -20 79t-76 22h-86v65h465v-65h-62q-54 0 -73 -22t-19 -71v-747q0 -104 -31 -192.5t-86 -152t-129.5 -108t-161.5 -66.5t-182 -22q-295 0 -459.5 133.5t-164.5 407.5v807q0 33 -29 33h-125v65h631v-65h-164q-23 0 -23 -33v-758q0 -211 112.5 -324.5
t293.5 -113.5q84 0 152 21t122.5 65.5t84.5 121.5t30 181v739zM1001 1737l-278 -269l-43 19l139 254q22 42 53.5 64t83.5 22q32 0 48 -12.5t16 -28.5q0 -30 -19 -49zM1298 1737l-278 -269l-43 19l137 254q24 42 55.5 64t83.5 22q32 0 47 -12.5t15 -28.5q0 -29 -17 -49z" />
    <glyph glyph-name="uhungarumlaut" unicode="&#x171;" horiz-adv-x="1206" 
d="M1024 170q0 -26 7.5 -38.5t31.5 -12.5h102v-51l-362 -86l-15 149q-64 -80 -156.5 -123t-187.5 -43q-131 0 -204.5 77.5t-73.5 227.5v527q0 51 -41 51h-86v63h362v-563q0 -108 51.5 -158.5t131.5 -50.5q72 0 138 34.5t66 76.5v547q0 16 -2 25.5t-11.5 17.5t-26.5 8h-103
v63h379v-741zM682 1343l-279 -311l-43 23l140 293q23 48 54.5 74t82.5 26q32 0 47.5 -14.5t15.5 -34.5q0 -32 -18 -56zM979 1343l-279 -311l-43 23l138 293q25 49 56.5 74.5t82.5 25.5q32 0 46.5 -14.5t14.5 -34.5q0 -35 -16 -56z" />
    <glyph glyph-name="Uogonek" unicode="&#x172;" horiz-adv-x="1685" 
d="M1321 1247q0 57 -20 79t-76 22h-86v65h465v-65h-62q-54 0 -73 -22t-19 -71v-747q0 -219 -127 -355.5t-328 -172.5q-75 -40 -117 -106.5t-42 -131.5q0 -59 31.5 -89t86.5 -30q43 0 101 17q12 -3 12 -21q0 -14 -9.5 -28.5t-29.5 -29t-60 -23.5t-94 -9q-111 0 -172 50.5
t-61 129.5q0 69 59 138.5t174 119.5h-14q-295 0 -459.5 133.5t-164.5 407.5v807q0 33 -29 33h-125v65h631v-65h-164q-23 0 -23 -33v-758q0 -211 112.5 -324.5t293.5 -113.5q84 0 152 21t122.5 65.5t84.5 121.5t30 181v739z" />
    <glyph glyph-name="uogonek" unicode="&#x173;" horiz-adv-x="1206" 
d="M1024 170q0 -26 7.5 -38.5t31.5 -12.5h102v-51l-237 -60q-56 -14 -95 -56t-55 -88.5t-16 -92.5q0 -59 31.5 -89t87.5 -30q45 0 100 16q12 -3 12 -20q0 -14 -9 -28.5t-29.5 -29t-60 -23.5t-93.5 -9q-111 0 -172.5 51t-61.5 129q0 68 59.5 138t174.5 120l-13 135
q-64 -80 -156.5 -123t-187.5 -43q-131 0 -204.5 77.5t-73.5 227.5v527q0 51 -41 51h-86v63h362v-563q0 -108 51.5 -158.5t131.5 -50.5q72 0 138 34.5t66 76.5v547q0 16 -2 25.5t-11.5 17.5t-26.5 8h-103v63h379v-741z" />
    <glyph glyph-name="Wcircumflex" unicode="&#x174;" horiz-adv-x="1918" 
d="M578 1413h817v-65h-72q-37 0 -63 -62l-162 -342l223 -600l344 920q16 44 4.5 64t-41.5 20h-94v65h448v-65h-71q-15 0 -33 -16t-31 -46q-109 -229 -276.5 -621t-282.5 -696h-102q-37 153 -230 680q-180 -406 -282 -680h-103q-58 168 -256.5 684t-263.5 662q-15 33 -39 33
h-75v65h563v-65h-78q-30 0 -41.5 -18t-1.5 -48l336 -938l188 442q-131 350 -223 529q-6 13 -20 23t-25 10h-57v65zM991 1618l-248 -148l-36 17l227 313q19 19 57 19q34 0 53 -19l228 -313l-37 -17zM1001 1348q-23 0 -31 -19t1 -47l69 -188l68 170q33 84 -29 84h-78z" />
    <glyph glyph-name="wcircumflex" unicode="&#x175;" horiz-adv-x="1554" 
d="M786 545l-245 -578h-101l-356 850q-14 29 -47 29h-70v65h494v-65h-70q-27 0 -33 -12t7 -52l112 -276q58 -140 96 -266l97 258l67 174l-57 145q-14 29 -47 29h-74v65h512v-65h-104q-25 0 -31.5 -12t6.5 -52l109 -266q43 -102 96 -278q25 91 86 272l94 272q10 38 0.5 51
t-37.5 13h-78v65h375v-65h-51q-27 0 -45 -11.5t-31 -39.5l-350 -828h-100zM813 1214l-248 -172l-37 19l228 364q16 23 57 23q37 0 53 -23l228 -364l-37 -19z" />
    <glyph glyph-name="Ycircumflex" unicode="&#x176;" horiz-adv-x="1388" 
d="M543 645l-465 668q-8 11 -28 23t-34 12h-79v65h638v-65h-137q-14 0 -18.5 -12t6.5 -29l356 -525q96 129 197.5 277.5t146.5 226.5q19 32 11 47t-35 15h-119v65h469v-65h-63q-14 0 -36 -11.5t-34 -23.5q-243 -275 -481 -596v-619q0 -35 24 -35h135v-63h-614v63h135
q25 0 25 35v547zM745 1618l-247 -148l-37 17l227 313q19 19 57 19q35 0 54 -19l227 -313l-37 -17z" />
    <glyph glyph-name="ycircumflex" unicode="&#x177;" horiz-adv-x="976" 
d="M649 911h369v-65h-51q-53 0 -74 -51l-391 -916q-30 -70 -54 -119.5t-54.5 -101t-60.5 -85.5t-66 -62t-78 -41t-91 -13q-94 0 -142 43.5t-48 116.5q0 47 27.5 83t80.5 36q33 0 53.5 -12.5t30 -30t18.5 -35.5t28 -30.5t49 -12.5q51 0 115.5 93t129.5 259l-356 850
q-14 29 -47 29h-70v65h531v-65h-105q-27 0 -33 -12t7 -52l104 -260q67 -165 102 -293q36 117 95 285l96 268q23 64 -35 64h-80v65zM549 1214l-248 -172l-37 19l228 364q16 23 57 23q37 0 53 -23l227 -364l-36 -19z" />
    <glyph glyph-name="Ydieresis" unicode="&#x178;" horiz-adv-x="1388" 
d="M543 645l-465 668q-8 11 -28 23t-34 12h-79v65h638v-65h-137q-14 0 -18.5 -12t6.5 -29l356 -525q96 129 197.5 277.5t146.5 226.5q19 32 11 47t-35 15h-119v65h469v-65h-63q-14 0 -36 -11.5t-34 -23.5q-243 -275 -481 -596v-619q0 -35 24 -35h135v-63h-614v63h135
q25 0 25 35v547zM549 1722q47 0 80 -34t33 -82t-33 -82.5t-80 -34.5t-81 35t-34 82t34 81.5t81 34.5zM936 1722q47 0 80 -34t33 -82t-33 -82.5t-80 -34.5q-49 0 -82 34.5t-33 82.5t33 82t82 34z" />
    <glyph glyph-name="Zacute" unicode="&#x179;" horiz-adv-x="1480" 
d="M1413 426q0 -27 -18.5 -184t-18.5 -197q0 -21 -12 -34t-31 -13q-14 0 -262 0.5t-550.5 1t-448.5 0.5l-11 37l943 1282q-132 -4 -222 -8t-171 -14t-130 -19t-93.5 -31t-68.5 -41.5t-49 -58.5t-39 -74t-36 -96q-22 0 -38 8.5t-16 20.5q0 14 19.5 169.5t19.5 194.5
q0 20 11.5 32.5t27.5 12.5q15 0 246 -0.5t515.5 -1t428.5 -0.5l10 -39l-940 -1278q115 2 200 4t163 8.5t131 11.5t102.5 19.5t79.5 25.5t60 35.5t46.5 43.5t36.5 56.5t32 67.5t32 83q21 0 36 -7.5t15 -17.5zM1030 1737l-393 -267l-47 19l196 252q34 43 72 63.5t111 20.5
q46 0 67 -12t21 -27q0 -33 -27 -49z" />
    <glyph glyph-name="zacute" unicode="&#x17a;" horiz-adv-x="948" 
d="M866 371q15 0 31 -6.5t16 -16.5q0 -23 -15 -137.5t-15 -151.5q0 -26 -16 -42.5t-40 -16.5h-792v55l555 766q-106 -3 -169.5 -9t-119 -19.5t-86.5 -40.5t-53.5 -67t-38.5 -103q-18 0 -29 2t-19 10.5t-5 23.5l55 353h55q0 -21 2 -32t13.5 -19.5t33.5 -8.5h660v-55
l-549 -762q259 6 371.5 63.5t154.5 213.5zM805 1343l-395 -311l-60 23l197 293q33 48 77.5 74t118.5 26q45 0 65.5 -14.5t20.5 -34.5q0 -35 -24 -56z" />
    <glyph glyph-name="Zdotaccent" unicode="&#x17b;" horiz-adv-x="1480" 
d="M1413 426q0 -27 -18.5 -184t-18.5 -197q0 -21 -12 -34t-31 -13q-14 0 -262 0.5t-550.5 1t-448.5 0.5l-11 37l943 1282q-132 -4 -222 -8t-171 -14t-130 -19t-93.5 -31t-68.5 -41.5t-49 -58.5t-39 -74t-36 -96q-22 0 -38 8.5t-16 20.5q0 14 19.5 169.5t19.5 194.5
q0 20 11.5 32.5t27.5 12.5q15 0 246 -0.5t515.5 -1t428.5 -0.5l10 -39l-940 -1278q115 2 200 4t163 8.5t131 11.5t102.5 19.5t79.5 25.5t60 35.5t46.5 43.5t36.5 56.5t32 67.5t32 83q21 0 36 -7.5t15 -17.5zM803 1757q51 0 88 -36.5t37 -88.5q0 -54 -37 -91.5t-88 -37.5
q-54 0 -91.5 37.5t-37.5 91.5q0 52 37.5 88.5t91.5 36.5z" />
    <glyph glyph-name="zdotaccent" unicode="&#x17c;" horiz-adv-x="948" 
d="M866 371q15 0 31 -6.5t16 -16.5q0 -23 -15 -137.5t-15 -151.5q0 -26 -16 -42.5t-40 -16.5h-792v55l555 766q-106 -3 -169.5 -9t-119 -19.5t-86.5 -40.5t-53.5 -67t-38.5 -103q-18 0 -29 2t-19 10.5t-5 23.5l55 353h55q0 -21 2 -32t13.5 -19.5t33.5 -8.5h660v-55
l-549 -762q259 6 371.5 63.5t154.5 213.5zM516 1391q51 0 88 -36.5t37 -88.5q0 -54 -37 -91.5t-88 -37.5q-54 0 -91.5 37.5t-37.5 91.5q0 52 37.5 88.5t91.5 36.5z" />
    <glyph glyph-name="Zcaron" unicode="&#x17d;" horiz-adv-x="1480" 
d="M1413 426q0 -27 -18.5 -184t-18.5 -197q0 -21 -12 -34t-31 -13q-14 0 -262 0.5t-550.5 1t-448.5 0.5l-11 37l943 1282q-132 -4 -222 -8t-171 -14t-130 -19t-93.5 -31t-68.5 -41.5t-49 -58.5t-39 -74t-36 -96q-22 0 -38 8.5t-16 20.5q0 14 19.5 169.5t19.5 194.5
q0 20 11.5 32.5t27.5 12.5q15 0 246 -0.5t515.5 -1t428.5 -0.5l10 -39l-940 -1278q115 2 200 4t163 8.5t131 11.5t102.5 19.5t79.5 25.5t60 35.5t46.5 43.5t36.5 56.5t32 67.5t32 83q21 0 36 -7.5t15 -17.5zM786 1669l244 150l37 -17l-227 -313q-19 -19 -54 -19
q-38 0 -57 19l-227 313l37 17z" />
    <glyph glyph-name="zcaron" unicode="&#x17e;" horiz-adv-x="948" 
d="M866 371q15 0 31 -6.5t16 -16.5q0 -23 -15 -137.5t-15 -151.5q0 -26 -16 -42.5t-40 -16.5h-792v55l555 766q-106 -3 -169.5 -9t-119 -19.5t-86.5 -40.5t-53.5 -67t-38.5 -103q-18 0 -29 2t-19 10.5t-5 23.5l55 353h55q0 -21 2 -32t13.5 -19.5t33.5 -8.5h660v-55
l-549 -762q259 6 371.5 63.5t154.5 213.5zM516 1274l244 172l37 -19l-228 -364q-16 -23 -53 -23q-41 0 -57 23l-228 364l37 19z" />
    <glyph glyph-name="longs" unicode="&#x17f;" horiz-adv-x="606" 
d="M414 1096v-981q0 -25 8 -38.5t33 -13.5h114v-63h-518v63h84q43 0 43 52v673h-145v43l145 70v105q0 148 61 273t175.5 201t257.5 76q135 0 196.5 -50t61.5 -124q0 -58 -31.5 -92.5t-89.5 -34.5q-40 0 -64 20t-33.5 48.5t-18.5 56.5t-30.5 48t-58.5 20q-190 0 -190 -352z
" />
    <glyph glyph-name="florin" unicode="&#x192;" horiz-adv-x="673" 
d="M287 70q-59 -172 -151.5 -307.5t-220.5 -219.5t-269 -84q-90 0 -146.5 43.5t-56.5 108.5q0 55 29.5 87t81.5 32q36 0 58 -16.5t32.5 -39.5l21 -46t33 -39.5t59.5 -16.5q43 0 83.5 32t74.5 88.5t65 124.5t57.5 149t48 153t41.5 145l3 12q22 79 70.5 262t64.5 238h-166
q-18 0 -18 31q0 24 10 46.5t23 23.5l178 16q68 333 206.5 495t362.5 162q162 0 252 -59t90 -156q0 -133 -131 -133q-47 0 -71.5 23.5t-32 57t-15.5 67t-33 57t-73 23.5q-68 0 -117.5 -42.5t-100 -156t-108.5 -324.5l217 8q27 0 27 -51q0 -33 -12 -60.5t-31 -27.5h-234
q-106 -423 -202 -706z" />
    <glyph glyph-name="gacute" unicode="&#x1f5;" horiz-adv-x="1069" 
d="M365 -84q-103 -79 -103 -178q0 -164 256 -164q140 0 239 68t99 176q0 55 -35.5 81.5t-113.5 26.5q-56 0 -175 -5t-167 -5zM291 -72q-68 6 -137.5 59t-69.5 113q0 97 254 213q-100 34 -155.5 117.5t-55.5 183.5q0 154 107 248t278 94q136 0 238 -47h301v-114h-217
q63 -78 63 -189q0 -147 -111.5 -238.5t-273.5 -91.5q-52 0 -111 9q-30 -14 -59 -40.5t-29 -58.5q0 -30 24 -45.5t60 -15.5q41 0 161 9t206 9q151 0 223 -68.5t72 -185.5q0 -190 -180.5 -311t-460.5 -121q-169 0 -274 58t-105 159q0 79 71 146t181 108zM512 870
q-141 0 -141 -243q0 -132 36 -202.5t105 -70.5q71 0 108 68.5t37 200.5q0 247 -145 247zM829 1343l-395 -311l-59 23l196 293q33 48 78 74t119 26q45 0 65.5 -14.5t20.5 -34.5q0 -34 -25 -56z" />
    <glyph glyph-name="AEacute" unicode="&#x1fc;" horiz-adv-x="1923" 
d="M883 598v514l-381 -514h381zM883 500h-451l-229 -307q-48 -66 -44 -98t58 -32h53v-63h-430v63h29q41 0 70 19.5t77 77.5q157 188 405.5 502.5t461.5 599.5v53q0 33 -27 33h-121v65q117 0 515 3t468 3q27 0 37 -11.5t10 -33.5q0 -48 8.5 -140t8.5 -157q0 -20 -53 -20
q-8 47 -14.5 76t-20 59.5t-30 47.5t-46.5 34t-66 25.5t-92.5 15.5t-123.5 10t-160 4v-559q161 4 234.5 16t96.5 34t27 71l6 74q66 0 66 -21q0 -30 -2 -102.5t-2 -104.5t2 -110.5t2 -108.5q0 -31 -66 -31l-8 80q-6 51 -27 74t-96.5 37t-232.5 16v-602q104 5 177 11t136.5 16
t103.5 20.5t74.5 31t53.5 40t35.5 54.5t25.5 68.5t20 86.5q58 0 58 -27q0 -36 -18.5 -160t-18.5 -188q0 -22 -12 -35.5t-31 -13.5q-66 0 -496.5 2t-548.5 2v63h121q27 0 27 35v402zM1593 1737l-393 -267l-47 19l197 252q34 43 71.5 63.5t110.5 20.5q46 0 67 -12t21 -27
q0 -33 -27 -49z" />
    <glyph glyph-name="aeacute" unicode="&#x1fd;" horiz-adv-x="1439" 
d="M557 322v157q-119 -52 -176 -116.5t-57 -131.5q0 -41 24.5 -66.5t59.5 -25.5q52 0 100.5 49.5t48.5 133.5zM774 858q129 98 287 98q170 0 250 -77t80 -211q0 -42 -15 -59t-45 -17h-561q-4 -23 -4 -70q0 -144 80 -236.5t227 -92.5q86 0 156 30.5t104 89.5q18 0 30.5 -8.5
t12.5 -23.5q0 -26 -10 -62t-38 -81.5t-69 -83t-110.5 -63.5t-155.5 -26q-76 0 -146.5 24t-133 78t-99.5 132q-52 -106 -141.5 -170t-193.5 -64q-189 0 -189 176q0 104 113 209t354 199v182q0 53 -23.5 81t-62.5 28q-71 0 -105.5 -37.5t-48.5 -116.5q-7 -42 -51 -72t-88 -30
q-78 0 -78 78q0 45 23.5 92.5t68.5 91.5t122.5 72t172.5 28q217 0 287 -88zM791 662q126 1 205 7.5t117 18.5t49.5 25t11.5 35q0 41 -34.5 68.5t-95.5 27.5q-83 0 -152.5 -53.5t-100.5 -128.5zM1061 1343l-395 -311l-60 23l197 293q33 48 77.5 74t118.5 26q45 0 65.5 -14.5
t20.5 -34.5q0 -35 -24 -56z" />
    <glyph glyph-name="Oslashacute" unicode="&#x1fe;" horiz-adv-x="1665" 
d="M1313 1282l135 131h219l-244 -237q179 -208 179 -478q0 -148 -61 -283t-163.5 -233t-245 -156.5t-298.5 -58.5q-270 0 -482 162l-137 -129h-217l244 233q-179 201 -179 465q0 150 61.5 288t165 239.5t246.5 162t298 60.5q264 0 479 -166zM1233 991l-737 -721
q61 -99 147.5 -154t190.5 -55q126 0 227.5 82t158 228t56.5 327q0 160 -43 293zM430 420l735 717q-61 101 -145.5 156t-185.5 55q-127 0 -229 -85.5t-159 -234t-57 -330.5q0 -140 41 -278zM1081 1737l-393 -267l-47 19l197 252q34 43 71.5 63.5t110.5 20.5q46 0 67 -12
t21 -27q0 -33 -27 -49z" />
    <glyph glyph-name="oslashacute" unicode="&#x1ff;" horiz-adv-x="1175" 
d="M254 82l-94 -82h-162l184 154q-96 122 -96 301q0 213 144 357t360 144q184 0 334 -127l92 82h164l-189 -155q99 -129 99 -301q0 -214 -142 -352t-360 -138q-184 0 -334 117zM813 586l-416 -375q60 -150 191 -150q109 0 170 101.5t61 292.5q0 73 -6 131zM362 324l416 376
q-60 160 -190 160q-108 0 -170 -107t-62 -298q0 -73 6 -131zM891 1343l-395 -311l-60 23l197 293q33 48 77.5 74t118.5 26q45 0 65.5 -14.5t20.5 -34.5q0 -35 -24 -56z" />
    <glyph glyph-name="Scommaaccent" unicode="&#x218;" horiz-adv-x="1069" 
d="M625 842q199 -103 284.5 -201t85.5 -238q0 -89 -28 -162.5t-76.5 -123.5t-114.5 -84.5t-140 -50t-155 -15.5q-105 0 -186.5 14t-126 36t-66.5 44t-24 43l-10 234q-1 19 15 28t42 9q99 -314 356 -314q116 0 174 65t58 165q0 94 -51.5 154.5t-178.5 125.5q-180 90 -264 191
t-84 248q0 193 130.5 315.5t350.5 122.5q153 0 244 -36t92 -99l6 -219q0 -35 -53 -35q-35 151 -109.5 222t-172.5 71q-105 0 -167.5 -65t-62.5 -165q0 -91 54.5 -154.5t177.5 -125.5zM350 -690v61q100 -7 160.5 39.5t60.5 126.5q0 50 -24 77.5t-60 27.5q-58 0 -94.5 29.5
t-36.5 78.5q0 53 37.5 91t93.5 38q82 0 145.5 -70t63.5 -174q0 -154 -97.5 -241t-248.5 -84z" />
    <glyph glyph-name="scommaaccent" unicode="&#x219;" horiz-adv-x="770" 
d="M420 956q105 0 176.5 -26t71.5 -60v-184q0 -24 -58 -24q-21 105 -73.5 153.5t-126.5 48.5q-61 0 -92 -32.5t-31 -79.5q0 -39 23 -71t60 -55t81.5 -45.5t89 -49t81.5 -58t60 -80t23 -108.5q0 -151 -101.5 -235.5t-255.5 -84.5q-132 0 -207 27.5t-75 62.5v187q0 28 57 28
q43 -213 239 -213q66 0 103 32.5t37 80.5q0 45 -23 81t-60 60.5t-82 47.5t-90 48.5t-82 57t-60 80t-23 110.5q0 126 92.5 213.5t245.5 87.5zM209 -690v61q100 -7 160.5 39.5t60.5 126.5q0 50 -24 77.5t-60 27.5q-58 0 -94.5 29.5t-36.5 78.5q0 53 37.5 91t93.5 38
q82 0 145.5 -70t63.5 -174q0 -154 -97.5 -241t-248.5 -84z" />
    <glyph glyph-name="dotlessj" unicode="&#x237;" horiz-adv-x="526" 
d="M162 -20v710q0 25 -8 37t-33 18l-53 13q-19 5 -27 12t-8 23q0 13 8 18q124 18 204 58t115 92q37 0 37 -13v-938q0 -92 -41 -190t-109 -178.5t-167 -132.5t-205 -52q-65 0 -65 70q0 54 37 86.5t100 32.5q82 0 127 28t66.5 100.5t21.5 205.5z" />
    <glyph glyph-name="circumflex" unicode="&#x2c6;" horiz-adv-x="905" 
d="M455 1214l-248 -172l-37 19l227 364q16 23 58 23q37 0 53 -23l227 -364l-37 -19z" />
    <glyph glyph-name="caron" unicode="&#x2c7;" horiz-adv-x="905" 
d="M455 1274l243 172l37 -19l-227 -364q-16 -23 -53 -23q-42 0 -58 23l-227 364l37 19z" />
    <glyph glyph-name="breve" unicode="&#x2d8;" horiz-adv-x="800" 
d="M631 1386q-6 -154 -71.5 -238.5t-158.5 -84.5q-95 0 -160 82.5t-71 240.5h55q3 -42 20.5 -71.5t44.5 -44t54 -21t57 -6.5q29 0 56.5 6.5t55 21t45 44t20.5 71.5h53z" />
    <glyph glyph-name="dotaccent" unicode="&#x2d9;" horiz-adv-x="593" 
d="M299 1391q51 0 88 -36.5t37 -88.5q0 -54 -37 -91.5t-88 -37.5q-54 0 -91.5 37.5t-37.5 91.5q0 52 37.5 88.5t91.5 36.5z" />
    <glyph glyph-name="ring" unicode="&#x2da;" horiz-adv-x="831" 
d="M416 1446q100 0 171.5 -63.5t71.5 -159.5q0 -97 -71 -158t-172 -61q-103 0 -174.5 61t-71.5 158q0 96 72 159.5t174 63.5zM416 1341q-58 0 -95.5 -32t-37.5 -86q0 -56 37.5 -89.5t95.5 -33.5q57 0 94 33.5t37 89.5q0 54 -37 86t-94 32z" />
    <glyph glyph-name="ogonek" unicode="&#x2db;" horiz-adv-x="765" 
d="M573 0q-97 -33 -152.5 -107.5t-55.5 -150.5q0 -59 31.5 -89t86.5 -30q43 0 101 17q12 -3 12 -21q0 -14 -9.5 -28.5t-29.5 -29t-60 -23.5t-94 -9q-111 0 -172 50.5t-61 129.5q0 81 84.5 162.5t243.5 128.5h75z" />
    <glyph glyph-name="tilde" unicode="&#x2dc;" horiz-adv-x="999" 
d="M213 1120l-43 19q65 241 227 241q44 0 83.5 -17t63.5 -38t58.5 -38t69.5 -17q39 0 65.5 21t50.5 73l41 -18q-49 -250 -206 -250q-42 0 -82.5 17t-67.5 37t-65 37t-76 17q-37 0 -64.5 -19t-54.5 -65z" />
    <glyph glyph-name="hungarumlaut" unicode="&#x2dd;" horiz-adv-x="974" 
d="M492 1343l-279 -311l-43 23l139 293q23 48 54.5 74t82.5 26q32 0 48 -14.5t16 -34.5q0 -32 -18 -56zM788 1343l-278 -311l-43 23l137 293q25 49 56.5 74.5t82.5 25.5q32 0 47 -14.5t15 -34.5q0 -33 -17 -56z" />
    <glyph glyph-name="tonos" unicode="&#x384;" horiz-adv-x="741" 
d="M162 1483q0 10 28 10q142 0 211 -41q-27 -106 -82 -214t-124 -194q-10 -12 -31 -12q-10 0 -16 3t-5 9q38 205 19 439z" />
    <glyph glyph-name="dieresistonos" unicode="&#x385;" horiz-adv-x="741" 
d="M338 1483q0 10 29 10q142 0 211 -41q-57 -219 -207 -408q-10 -12 -31 -12q-10 0 -16 3t-5 9q38 205 19 439zM143 1395q52 0 89.5 -40.5t37.5 -97.5t-37.5 -98t-89.5 -41q-54 0 -91.5 41t-37.5 98t37.5 97.5t91.5 40.5zM733 1395q52 0 88.5 -40.5t36.5 -97.5
q0 -58 -35.5 -99.5t-87.5 -41.5q-55 0 -93 41.5t-38 99.5t37 98t92 40z" />
    <glyph glyph-name="Alphatonos" unicode="&#x386;" horiz-adv-x="1325" 
d="M588 1114l-195 -516h385zM764 1442q54 -160 250.5 -677.5t261.5 -664.5q16 -37 39 -37h74v-63h-584v63h102q62 0 39 66l-135 371h-453l-116 -307q-52 -130 61 -130h53v-63h-419v63h26q41 0 65 20t50 77q98 208 262 594.5t278 687.5h146zM203 1483q0 10 28 10
q142 0 211 -41q-27 -106 -82 -214t-124 -194q-10 -12 -31 -12q-10 0 -16 3t-5 9q38 205 19 439z" />
    <glyph glyph-name="anoteleia" unicode="&#x387;" horiz-adv-x="761" 
 />
    <glyph glyph-name="Epsilontonos" unicode="&#x388;" horiz-adv-x="1290" 
d="M547 1329v-559q161 4 234.5 16t96.5 34t27 71l6 74q66 0 66 -21q0 -30 -2 -102.5t-2 -104.5t2 -110.5t2 -108.5q0 -31 -66 -31l-8 80q-6 51 -27 74t-96.5 37t-232.5 16v-602q104 5 177 11t136.5 16t104 20.5t75 31t53.5 40t35.5 54t25.5 68.5t20 87q57 0 57 -27
q0 -36 -18.5 -160t-18.5 -188q0 -21 -12 -35t-29 -14q-68 0 -500.5 2t-550.5 2v63h125q27 0 27 35v1217q0 19 -6 26t-21 7h-125v65q117 0 517.5 3t470.5 3q27 0 37 -11.5t10 -33.5q0 -48 9 -140t9 -157q0 -20 -53 -20q-11 63 -21 98t-34 69.5t-57 50.5t-95.5 30t-142.5 18
t-205 6zM-166 1483q0 10 29 10q142 0 211 -41q-57 -219 -207 -408q-10 -12 -31 -12q-10 0 -15.5 3t-4.5 9q37 201 18 439z" />
    <glyph glyph-name="Etatonos" unicode="&#x389;" horiz-adv-x="1755" 
d="M1208 692h-661v-594q0 -35 28 -35h125v-63h-598v63h125q27 0 27 35v1217q0 33 -27 33h-125v65h598v-65h-125q-15 0 -21.5 -7.5t-6.5 -25.5v-527h661v527q0 33 -26 33h-125v65h596v-65h-125q-15 0 -21 -7t-6 -26v-1217q0 -35 27 -35h125v-63h-596v63h125q26 0 26 35v594z
M-186 1483q0 10 28 10q142 0 211 -41q-57 -219 -207 -408q-10 -12 -30 -12q-10 0 -16 3t-5 9q38 205 19 439z" />
    <glyph glyph-name="Iotatonos" unicode="&#x38a;" horiz-adv-x="800" 
d="M698 0h-596v63h125q27 0 27 35v1217q0 19 -6 26t-21 7h-125v65h596v-65h-125q-26 0 -26 -33v-1217q0 -35 26 -35h125v-63zM-164 1483q0 10 29 10q142 0 211 -41q-57 -219 -207 -408q-10 -12 -31 -12q-10 0 -15.5 3t-4.5 9q37 201 18 439z" />
    <glyph glyph-name="Omicrontonos" unicode="&#x38c;" horiz-adv-x="1665" 
d="M1602 698q0 -148 -61 -283t-163.5 -233t-245 -156.5t-298.5 -58.5q-208 0 -385.5 98.5t-281.5 267t-104 365.5q0 150 61.5 288t165 239.5t246.5 162t298 60.5q156 0 298.5 -60.5t245 -162t163.5 -239.5t61 -288zM389 698q0 -181 57 -327t159 -228t229 -82q126 0 227.5 82
t158 228t56.5 327q0 182 -56.5 330.5t-158 234t-227.5 85.5q-127 0 -229 -85.5t-159 -234t-57 -330.5zM18 1483q0 10 29 10q142 0 211 -41q-57 -219 -207 -408q-10 -12 -31 -12q-10 0 -15.5 3t-4.5 9q37 201 18 439z" />
    <glyph glyph-name="Upsilontonos" unicode="&#x38e;" horiz-adv-x="1388" 
d="M-227 1483q0 10 28 10q142 0 211 -41l-12 -39h575v-65h-137q-14 0 -18.5 -12t6.5 -29l356 -525q96 129 197.5 277.5t146.5 226.5q19 32 11 47t-35 15h-119v65h469v-65h-63q-14 0 -36 -11.5t-34 -23.5q-243 -275 -481 -596v-619q0 -35 24 -35h135v-63h-614v63h135
q25 0 25 35v547l-465 668q-8 11 -28 23t-34 12h-36q-60 -163 -175 -304q-10 -12 -30 -12q-10 0 -16 3t-5 9q38 205 19 439z" />
    <glyph glyph-name="Omegatonos" unicode="&#x38f;" horiz-adv-x="1814" 
d="M907 1448q164 0 300 -40t235.5 -116.5t155 -194.5t55.5 -266q0 -209 -88.5 -359t-290.5 -249q76 0 121.5 0.5t92 4t70 6.5t49 13.5t36 19.5t24.5 30t20.5 38.5t18.5 51.5q47 0 47 -25q0 -20 -15.5 -154t-15.5 -163q0 -21 -12.5 -35t-30.5 -14q-7 0 -278.5 2t-401.5 2
l-2 55q194 134 273.5 306.5t79.5 435.5q0 262 -118 411.5t-325 149.5t-324.5 -149t-117.5 -412t79 -436t273 -306l-2 -55q-130 0 -401.5 -2t-278.5 -2q-18 0 -30.5 14t-12.5 35q0 29 -15.5 163t-15.5 154q0 25 48 25q12 -34 18.5 -51.5t20.5 -38.5t24.5 -30t36 -19.5
t49 -13.5t70 -6.5t92 -4t121.5 -0.5q-202 99 -290.5 249t-88.5 359q0 197 96.5 338t263 210t385.5 69zM23 1483q0 10 28 10q142 0 211 -41q-57 -219 -207 -408q-10 -12 -30 -12q-10 0 -16 3t-5 9q38 205 19 439z" />
    <glyph glyph-name="iotadieresistonos" unicode="&#x390;" horiz-adv-x="593" 
d="M158 147v762q91 49 241 49q31 0 31 -10q-55 -389 -55 -680q0 -63 19.5 -89.5t64.5 -26.5q35 0 71 13.5t58 35.5l28 -35q-12 -23 -39 -54.5t-67.5 -65.5t-96 -57.5t-110.5 -23.5q-82 0 -113.5 49.5t-31.5 132.5zM231 1483q0 10 29 10q142 0 211 -41q-57 -219 -207 -408
q-10 -12 -31 -12q-10 0 -15.5 3t-4.5 9q37 201 18 439zM37 1395q52 0 89.5 -40.5t37.5 -97.5t-37.5 -98t-89.5 -41q-54 0 -91.5 41t-37.5 98t37.5 97.5t91.5 40.5zM627 1395q52 0 88.5 -40.5t36.5 -97.5q0 -58 -35.5 -99.5t-87.5 -41.5q-55 0 -93 41.5t-38 99.5t37 98t92 40
z" />
    <glyph glyph-name="Alpha" unicode="&#x391;" horiz-adv-x="1325" 
d="M588 1114l-195 -516h385zM764 1442q54 -160 250.5 -677.5t261.5 -664.5q16 -37 39 -37h74v-63h-584v63h102q62 0 39 66l-135 371h-453l-116 -307q-52 -130 61 -130h53v-63h-419v63h26q41 0 65 20t50 77q98 208 262 594.5t278 687.5h146z" />
    <glyph glyph-name="Beta" unicode="&#x392;" horiz-adv-x="1386" 
d="M926 1049q0 68 -16 116.5t-56.5 88.5t-117 60.5t-189.5 20.5v-571q115 1 189 17.5t116 53.5t58 87t16 127zM547 76q246 0 354.5 75t108.5 228q0 38 -4.5 69t-17.5 64t-34.5 59t-57 50t-83 40t-115 25.5t-151.5 9.5v-620zM866 748q209 -17 334 -116t125 -251
q0 -81 -37.5 -149t-113 -120.5t-202 -82t-292.5 -29.5h-578v63h125q27 0 27 35v1217q0 19 -6 26t-21 7h-125v65h564q125 0 225 -21t162.5 -55t104 -79.5t58.5 -91t17 -93.5q0 -133 -102.5 -216.5t-264.5 -108.5z" />
    <glyph glyph-name="Gamma" unicode="&#x393;" horiz-adv-x="1126" 
d="M102 1413h983q26 0 35.5 -9.5t9.5 -31.5q0 -70 4 -145t8.5 -124.5t4.5 -58.5q0 -20 -45 -20q-30 71 -49 109t-51 75t-62 52.5t-90 29t-125.5 18t-177.5 7.5v-1217q0 -35 26 -35h125v-63h-596v63h125q27 0 27 35v1217q0 19 -6 26t-21 7h-125v65z" />
    <glyph glyph-name="Delta" unicode="&#x394;" horiz-adv-x="1325" 
d="M1389 0h-1452v63h26q41 0 65 20t50 77q98 208 262 594.5t278 687.5h146q54 -160 250.5 -677.5t261.5 -664.5q16 -37 39 -37h74v-63zM946 129l-358 985l-346 -921q-49 -130 61 -130h604q62 0 39 66z" />
    <glyph glyph-name="Delta" unicode="&#x2206;" horiz-adv-x="1325" 
d="M1389 0h-1452v63h26q41 0 65 20t50 77q98 208 262 594.5t278 687.5h146q54 -160 250.5 -677.5t261.5 -664.5q16 -37 39 -37h74v-63zM946 129l-358 985l-346 -921q-49 -130 61 -130h604q62 0 39 66z" />
    <glyph glyph-name="Epsilon" unicode="&#x395;" horiz-adv-x="1290" 
d="M547 1329v-559q161 4 234.5 16t96.5 34t27 71l6 74q66 0 66 -21q0 -30 -2 -102.5t-2 -104.5t2 -110.5t2 -108.5q0 -31 -66 -31l-8 80q-6 51 -27 74t-96.5 37t-232.5 16v-602q104 5 177 11t136.5 16t104 20.5t75 31t53.5 40t35.5 54t25.5 68.5t20 87q57 0 57 -27
q0 -36 -18.5 -160t-18.5 -188q0 -21 -12 -35t-29 -14q-68 0 -500.5 2t-550.5 2v63h125q27 0 27 35v1217q0 19 -6 26t-21 7h-125v65q117 0 517.5 3t470.5 3q27 0 37 -11.5t10 -33.5q0 -48 9 -140t9 -157q0 -20 -53 -20q-11 63 -21 98t-34 69.5t-57 50.5t-95.5 30t-142.5 18
t-205 6z" />
    <glyph glyph-name="Zeta" unicode="&#x396;" horiz-adv-x="1480" 
d="M1413 426q0 -27 -18.5 -184t-18.5 -197q0 -21 -12 -34t-31 -13q-14 0 -262 0.5t-550.5 1t-448.5 0.5l-11 37l943 1282q-132 -4 -222 -8t-171 -14t-130 -19t-93.5 -31t-68.5 -41.5t-49 -58.5t-39 -74t-36 -96q-22 0 -38 8.5t-16 20.5q0 14 19.5 169.5t19.5 194.5
q0 20 11.5 32.5t27.5 12.5q15 0 246 -0.5t515.5 -1t428.5 -0.5l10 -39l-940 -1278q115 2 200 4t163 8.5t131 11.5t102.5 19.5t79.5 25.5t60 35.5t46.5 43.5t36.5 56.5t32 67.5t32 83q21 0 36 -7.5t15 -17.5z" />
    <glyph glyph-name="Eta" unicode="&#x397;" horiz-adv-x="1755" 
d="M1208 692h-661v-594q0 -35 28 -35h125v-63h-598v63h125q27 0 27 35v1217q0 33 -27 33h-125v65h598v-65h-125q-15 0 -21.5 -7.5t-6.5 -25.5v-527h661v527q0 33 -26 33h-125v65h596v-65h-125q-15 0 -21 -7t-6 -26v-1217q0 -35 27 -35h125v-63h-596v63h125q26 0 26 35v594z
" />
    <glyph glyph-name="Theta" unicode="&#x398;" horiz-adv-x="1665" 
d="M586 825h493q47 0 47 37v92h64v-471h-64v84q0 21 -13.5 32t-33.5 11h-493q-49 0 -49 -41v-86h-64v471h64v-92q0 -37 49 -37zM1602 698q0 -148 -61 -283t-163.5 -233t-245 -156.5t-298.5 -58.5q-208 0 -385.5 98.5t-281.5 267t-104 365.5q0 150 61.5 288t165 239.5
t246.5 162t298 60.5q156 0 298.5 -60.5t245 -162t163.5 -239.5t61 -288zM389 698q0 -181 57 -327t159 -228t229 -82q126 0 227.5 82t158 228t56.5 327q0 182 -56.5 330.5t-158 234t-227.5 85.5q-127 0 -229 -85.5t-159 -234t-57 -330.5z" />
    <glyph glyph-name="Iota" unicode="&#x399;" horiz-adv-x="800" 
d="M698 0h-596v63h125q27 0 27 35v1217q0 19 -6 26t-21 7h-125v65h596v-65h-125q-26 0 -26 -33v-1217q0 -35 26 -35h125v-63z" />
    <glyph glyph-name="Kappa" unicode="&#x39a;" horiz-adv-x="1570" 
d="M1305 1313q-263 -240 -539 -461q110 -107 310 -332t364 -426q22 -31 63 -31h68v-63h-651v63h122q11 0 18 7.5t7 17.5q0 16 -18 39q-84 118 -248.5 303t-253.5 264v-596q0 -35 26 -35h125v-63h-596v63h125q27 0 27 35v1217q0 19 -6 26t-21 7h-125v65h596v-65h-125
q-26 0 -26 -33v-572q124 110 282.5 272.5t239.5 264.5q17 23 11 45.5t-29 22.5h-127v65h544v-65h-69q-49 0 -94 -35z" />
    <glyph glyph-name="Lambda" unicode="&#x39b;" horiz-adv-x="1325" 
d="M946 129l-358 985l-346 -921q-49 -130 61 -130h53v-63h-419v63h26q41 0 65 20t50 77q98 208 262 594.5t278 687.5h146q54 -160 250.5 -677.5t261.5 -664.5q16 -37 39 -37h74v-63h-584v63h102q62 0 39 66z" />
    <glyph glyph-name="Mu" unicode="&#x39c;" horiz-adv-x="1984" 
d="M1008 406l446 1007h428v-65h-125q-24 0 -24 -33v-1217q0 -35 24 -35h125v-63h-604v63h135q25 0 25 35v1018l-482 -1087h-86l-505 1095q0 -553 10 -958q1 -64 20.5 -83.5t71.5 -19.5h70v-63h-435v63h70q38 0 54.5 22t17.5 79q10 645 10 1151q0 33 -25 33h-127v65h473z" />
    <glyph glyph-name="Nu" unicode="&#x39d;" horiz-adv-x="1583" 
d="M1241 477q0 384 -10 768q-1 66 -18 84.5t-74 18.5h-70v65h432v-65h-71q-45 0 -56.5 -18t-13.5 -83q-12 -509 -12 -1270h-125l-861 1272q0 -668 9 -1083q1 -65 18.5 -84t75.5 -19h70v-63h-433v63h64q46 0 62.5 20t17.5 81q8 387 8 1151q0 33 -25 33h-127v65h510z" />
    <glyph glyph-name="Xi" unicode="&#x39e;" horiz-adv-x="1359" 
d="M1219 0h-1078q-18 0 -30.5 14t-12.5 35q0 29 -18.5 184t-18.5 175q0 24 54 24q11 -37 16 -52t17.5 -40.5t18.5 -34t27.5 -24t35 -19t50.5 -11.5t65.5 -9t87.5 -3.5t109 -2.5h138h138t109 2.5t87.5 3.5t65.5 9t50.5 11.5t35 19t27.5 24t18.5 34t17.5 40.5t16 52
q53 0 53 -24q0 -20 -18 -175t-18 -184q0 -21 -12.5 -35t-30.5 -14zM168 1413h1024q47 0 47 -45q0 -32 6 -169t6 -169q0 -22 -49 -22q-8 39 -11.5 57t-17 42t-23 32.5t-41.5 20.5t-59.5 15t-89.5 7t-119.5 4h-160.5h-160.5t-119.5 -4t-89.5 -7t-59.5 -15t-41.5 -20.5
t-23 -32.5t-17 -42t-11.5 -57q-49 0 -49 22q0 32 6 169t6 169q0 45 47 45zM391 825h582q47 0 47 37v92h63v-471h-63v84q0 21 -13.5 32t-33.5 11h-582q-49 0 -49 -41v-86h-63v471h63v-92q0 -37 49 -37z" />
    <glyph glyph-name="Omicron" unicode="&#x39f;" horiz-adv-x="1665" 
d="M1602 698q0 -148 -61 -283t-163.5 -233t-245 -156.5t-298.5 -58.5q-208 0 -385.5 98.5t-281.5 267t-104 365.5q0 150 61.5 288t165 239.5t246.5 162t298 60.5q156 0 298.5 -60.5t245 -162t163.5 -239.5t61 -288zM389 698q0 -181 57 -327t159 -228t229 -82q126 0 227.5 82
t158 228t56.5 327q0 182 -56.5 330.5t-158 234t-227.5 85.5q-127 0 -229 -85.5t-159 -234t-57 -330.5z" />
    <glyph glyph-name="Pi" unicode="&#x3a0;" horiz-adv-x="1755" 
d="M1208 98v1196q0 33 -26 33h-607q-15 0 -21.5 -7.5t-6.5 -25.5v-1196q0 -35 28 -35h125v-63h-598v63h125q27 0 27 35v1217q0 33 -27 33h-125v65h1551v-65h-125q-15 0 -21 -7t-6 -26v-1217q0 -35 27 -35h125v-63h-596v63h125q26 0 26 35z" />
    <glyph glyph-name="Rho" unicode="&#x3a1;" horiz-adv-x="1296" 
d="M547 662q192 0 297.5 75.5t105.5 251.5q0 164 -91.5 252t-311.5 88v-667zM102 0v63h125q27 0 27 35v1217q0 19 -6 26t-21 7h-125v65h580q142 0 253.5 -34t180 -92.5t104 -134t35.5 -163.5q0 -66 -19 -123t-62 -107.5t-107 -86.5t-160 -57t-215 -21q-85 0 -145 8v-504
q0 -35 24 -35h181v-63h-650z" />
    <glyph glyph-name="Sigma" unicode="&#x3a3;" horiz-adv-x="1398" 
d="M889 707l-451 -611q115 2 200 4t163 8.5t131 11.5t102.5 19.5t79.5 25.5t60 35.5t46.5 43.5t36.5 56.5t32 67.5t32 83q21 0 36 -7.5t15 -17.5q0 -27 -18.5 -184t-18.5 -197q0 -21 -12 -34t-31 -13q-14 0 -262 0.5t-550.5 1t-448.5 0.5l-11 37l494 670l-491 667l12 39
q144 0 428 0.5t514.5 1t245.5 0.5q16 0 28.5 -13t12.5 -32q0 -39 18 -194.5t18 -169.5q0 -12 -15.5 -20.5t-37.5 -8.5q-21 61 -35 96t-39 74t-48.5 58.5t-68.5 41.5t-94 31t-130 19t-171.5 14t-222.5 8z" />
    <glyph glyph-name="Tau" unicode="&#x3a4;" horiz-adv-x="1372" 
d="M817 1307v-1209q0 -35 29 -35h133v-63h-614v63h135q26 0 26 35v1209q-58 -2 -97 -4t-79 -6.5t-64.5 -8t-52 -14t-43 -19t-34.5 -27t-30 -34.5t-26.5 -45t-27 -55.5t-29.5 -69.5q-23 0 -33 3.5t-10 16.5q0 9 3.5 57t7 122.5t3.5 148.5q0 23 9.5 32t37.5 9h1250
q26 0 35.5 -9.5t9.5 -31.5q0 -74 4 -148.5t8 -122.5t4 -57q0 -20 -45 -20q-22 52 -36.5 84t-36 64.5t-37.5 49t-46 33.5t-57 24t-76 14t-96.5 9.5t-124.5 4.5z" />
    <glyph glyph-name="Upsilon" unicode="&#x3a5;" horiz-adv-x="1388" 
d="M543 645l-465 668q-8 11 -28 23t-34 12h-79v65h638v-65h-137q-14 0 -18.5 -12t6.5 -29l356 -525q96 129 197.5 277.5t146.5 226.5q19 32 11 47t-35 15h-119v65h469v-65h-63q-14 0 -36 -11.5t-34 -23.5q-243 -275 -481 -596v-619q0 -35 24 -35h135v-63h-614v63h135
q25 0 25 35v547z" />
    <glyph glyph-name="Phi" unicode="&#x3a6;" horiz-adv-x="1601" 
d="M1104 0h-596v63h125q15 0 20.5 8t5.5 27v127q-168 21 -302.5 85t-215 168.5t-80.5 230.5q0 127 80.5 233.5t215.5 172t302 87.5v113q0 19 -5.5 26t-20.5 7h-125v65h596v-65h-125q-27 0 -27 -33v-113q165 -23 297.5 -89t211.5 -171.5t79 -232.5q0 -189 -167 -319.5
t-421 -162.5v-129q0 -35 27 -35h125v-63zM338 709q0 -168 83.5 -275t237.5 -141v837q-154 -35 -237.5 -144.5t-83.5 -276.5zM1266 709q0 164 -82.5 273t-231.5 146v-833q149 36 231.5 143t82.5 271z" />
    <glyph glyph-name="Chi" unicode="&#x3a7;" horiz-adv-x="1540" 
d="M891 778l508 -680q10 -12 31 -23.5t32 -11.5h78v-63h-639v63h109q29 0 33 20.5t-17 45.5l-324 438l-348 -417q-30 -37 -24 -62t37 -25h94v-63h-459v63h55q15 0 49.5 19.5t57.5 42.5l483 514l-497 672q-9 12 -35 24.5t-39 12.5h-76v65h639v-65h-109q-29 0 -33 -20t17 -46
l324 -432l348 414q30 37 24.5 60.5t-36.5 23.5h-95v65h459v-65h-55q-17 0 -51 -18.5t-56 -43.5z" />
    <glyph glyph-name="Psi" unicode="&#x3a8;" horiz-adv-x="1673" 
d="M1135 0h-596v63h127q24 0 24 35v437q-94 7 -177 27t-155.5 56t-124.5 84t-82 115t-30 146q0 220 -18 302.5t-72 82.5h-72v65h262q63 0 95.5 -36.5t45.5 -119t13 -239.5q0 -195 75.5 -292t239.5 -122v711q0 19 -5 26t-19 7h-127v65h596v-65h-127q-25 0 -25 -33v-711
q163 25 239 122.5t76 291.5q0 157 13 239.5t45.5 119t95.5 36.5h262v-65h-72q-54 0 -72 -82.5t-18 -302.5q0 -79 -30 -146t-82 -115.5t-124.5 -84.5t-155.5 -56.5t-177 -28.5v-434q0 -35 25 -35h127v-63z" />
    <glyph glyph-name="Omega" unicode="&#x3a9;" horiz-adv-x="1814" 
d="M907 1448q164 0 300 -40t235.5 -116.5t155 -194.5t55.5 -266q0 -209 -88.5 -359t-290.5 -249q76 0 121.5 0.5t92 4t70 6.5t49 13.5t36 19.5t24.5 30t20.5 38.5t18.5 51.5q47 0 47 -25q0 -20 -15.5 -154t-15.5 -163q0 -21 -12.5 -35t-30.5 -14q-7 0 -278.5 2t-401.5 2
l-2 55q194 134 273.5 306.5t79.5 435.5q0 262 -118 411.5t-325 149.5t-324.5 -149t-117.5 -412t79 -436t273 -306l-2 -55q-130 0 -401.5 -2t-278.5 -2q-18 0 -30.5 14t-12.5 35q0 29 -15.5 163t-15.5 154q0 25 48 25q12 -34 18.5 -51.5t20.5 -38.5t24.5 -30t36 -19.5
t49 -13.5t70 -6.5t92 -4t121.5 -0.5q-202 99 -290.5 249t-88.5 359q0 197 96.5 338t263 210t385.5 69z" />
    <glyph glyph-name="Omega" unicode="&#x2126;" horiz-adv-x="1814" 
d="M907 1448q164 0 300 -40t235.5 -116.5t155 -194.5t55.5 -266q0 -209 -88.5 -359t-290.5 -249q76 0 121.5 0.5t92 4t70 6.5t49 13.5t36 19.5t24.5 30t20.5 38.5t18.5 51.5q47 0 47 -25q0 -20 -15.5 -154t-15.5 -163q0 -21 -12.5 -35t-30.5 -14q-7 0 -278.5 2t-401.5 2
l-2 55q194 134 273.5 306.5t79.5 435.5q0 262 -118 411.5t-325 149.5t-324.5 -149t-117.5 -412t79 -436t273 -306l-2 -55q-130 0 -401.5 -2t-278.5 -2q-18 0 -30.5 14t-12.5 35q0 29 -15.5 163t-15.5 154q0 25 48 25q12 -34 18.5 -51.5t20.5 -38.5t24.5 -30t36 -19.5
t49 -13.5t70 -6.5t92 -4t121.5 -0.5q-202 99 -290.5 249t-88.5 359q0 197 96.5 338t263 210t385.5 69z" />
    <glyph glyph-name="Iotadieresis" unicode="&#x3aa;" horiz-adv-x="819" 
d="M709 0h-596v63h125q15 0 20.5 8t5.5 27v1217q0 19 -5.5 26t-20.5 7h-125v65h596v-65h-125q-27 0 -27 -33v-1217q0 -35 27 -35h125v-63zM217 1722q47 0 80 -34t33 -82t-33 -82.5t-80 -34.5t-81 35t-34 82t34 81.5t81 34.5zM604 1722q47 0 80 -34t33 -82t-33 -82.5
t-80 -34.5q-49 0 -82 34.5t-33 82.5t33 82t82 34z" />
    <glyph glyph-name="Upsilondieresis" unicode="&#x3ab;" horiz-adv-x="1388" 
d="M543 645l-465 668q-8 11 -28 23t-34 12h-79v65h638v-65h-137q-14 0 -18.5 -12t6.5 -29l356 -525q96 129 197.5 277.5t146.5 226.5q19 32 11 47t-35 15h-119v65h469v-65h-63q-14 0 -36 -11.5t-34 -23.5q-243 -275 -481 -596v-619q0 -35 24 -35h135v-63h-614v63h135
q25 0 25 35v547zM549 1722q47 0 80 -34t33 -82t-33 -82.5t-80 -34.5t-81 35t-34 82t34 81.5t81 34.5zM936 1722q47 0 80 -34t33 -82t-33 -82.5t-80 -34.5q-49 0 -82 34.5t-33 82.5t33 82t82 34z" />
    <glyph glyph-name="alphatonos" unicode="&#x3ac;" horiz-adv-x="1191" 
d="M1100 942q-28 -112 -112 -296t-189 -341q51 -63 151 -63q95 0 148 59l32 -18q-15 -55 -35.5 -104.5t-51 -97.5t-73 -77t-91.5 -29q-60 0 -94 53t-64 171q-189 -234 -340 -234q-74 0 -130.5 32.5t-89.5 89.5t-49 127.5t-16 152.5q0 110 20.5 209t64 187t123 140.5
t185.5 52.5q32 0 57 -5t46.5 -20t37 -32t30.5 -50.5t26 -66.5t24 -89.5t23 -108.5t25 -135q71 161 71 458q43 24 115.5 36.5t124.5 12.5q11 0 18.5 -3t10 -6t2.5 -5zM442 240q156 0 244 98q-52 200 -120.5 288.5t-168.5 88.5q-55 0 -92.5 -17t-58 -51t-29 -75.5t-8.5 -98.5
q0 -111 52 -172t181 -61zM592 1483q0 10 29 10q141 0 210 -41q-27 -106 -82 -214t-124 -194q-10 -12 -31 -12q-10 0 -16 3t-5 9q38 205 19 439z" />
    <glyph glyph-name="epsilontonos" unicode="&#x3ad;" horiz-adv-x="839" 
d="M242 451q-70 39 -106 95.5t-36 121.5q0 114 100.5 201t270.5 87q307 0 307 -120q0 -66 -43.5 -116.5t-89.5 -62.5q-42 43 -116.5 72t-157.5 29q-183 0 -183 -80q0 -37 42 -61.5t137 -24.5q44 0 95.5 6t57.5 6q37 0 37 -49q0 -61 -25.5 -130t-58.5 -69q-15 0 -56.5 5.5
t-66.5 5.5q-153 0 -153 -62q0 -38 54 -64t181 -26q92 0 175 19t134 55l33 -31q-15 -53 -49.5 -104.5t-85 -94t-120 -68.5t-146.5 -26q-141 0 -216 71t-75 171q0 75 42.5 142.5t117.5 101.5zM367 1483q0 10 28 10q142 0 211 -41q-57 -219 -207 -408q-10 -12 -30 -12
q-10 0 -16 3t-5 9q38 205 19 439z" />
    <glyph glyph-name="etatonos" unicode="&#x3ae;" horiz-adv-x="1118" 
d="M276 459q-3 109 -37 165t-89 56q-54 0 -125 -39l-25 25q23 42 55 87.5t71.5 93.5t82.5 78.5t78 30.5q72 0 98.5 -83.5t26.5 -272.5q56 143 164 249.5t198 106.5q50 0 88 -19.5t63 -59.5t42 -91t25.5 -126t12 -151t3.5 -179q0 -352 -39 -781q-38 -16 -123 -28.5
t-131 -12.5q88 369 88 766q0 215 -31.5 306.5t-97.5 91.5q-119 0 -252 -144q14 -276 14 -438q0 -35 -18.5 -61.5t-47 -40t-55.5 -19.5t-51 -6q-38 0 -56 9.5t-18 37.5q2 71 25.5 196.5t60.5 252.5zM510 1483q0 10 29 10q142 0 211 -41q-57 -219 -207 -408q-10 -12 -31 -12
q-10 0 -15.5 3t-4.5 9q37 201 18 439z" />
    <glyph glyph-name="iotatonos" unicode="&#x3af;" horiz-adv-x="593" 
d="M158 147v762q91 49 241 49q31 0 31 -10q-55 -389 -55 -680q0 -63 19.5 -89.5t64.5 -26.5q35 0 71 13.5t58 35.5l28 -35q-12 -23 -39 -54.5t-67.5 -65.5t-96 -57.5t-110.5 -23.5q-82 0 -113.5 49.5t-31.5 132.5zM223 1483q0 10 29 10q142 0 211 -41q-57 -219 -207 -408
q-10 -12 -31 -12q-10 0 -15.5 3t-4.5 9q37 201 18 439z" />
    <glyph glyph-name="upsilondieresistonos" unicode="&#x3b0;" horiz-adv-x="1136" 
d="M379 559q0 -97 14 -160.5t43.5 -97.5t67 -46.5t94.5 -12.5q95 0 152 55.5t57 153.5q0 70 -25 125t-83 93t-146 46q0 119 42.5 181t104.5 62q110 0 172 -89t62 -228q0 -166 -57 -322t-157 -255t-214 -99q-157 0 -234 101.5t-77 318.5q0 148 -15.5 222.5t-62.5 74.5
q-39 0 -109 -39l-31 27q68 124 153 206t153 82q35 0 55.5 -25.5t29 -91t10 -118t1.5 -164.5zM451 1483q0 10 28 10q142 0 211 -41q-57 -219 -207 -408q-10 -12 -30 -12q-10 0 -16 3t-5 9q38 205 19 439zM256 1395q52 0 89.5 -40.5t37.5 -97.5t-37.5 -98t-89.5 -41
q-54 0 -91.5 41t-37.5 98t37.5 97.5t91.5 40.5zM846 1395q52 0 88.5 -40.5t36.5 -97.5q0 -58 -35.5 -99.5t-87.5 -41.5q-55 0 -93 41.5t-38 99.5t37 98t92 40z" />
    <glyph glyph-name="alpha" unicode="&#x3b1;" horiz-adv-x="1191" 
d="M1100 942q-28 -112 -112 -296t-189 -341q51 -63 151 -63q95 0 148 59l32 -18q-15 -55 -35.5 -104.5t-51 -97.5t-73 -77t-91.5 -29q-60 0 -94 53t-64 171q-189 -234 -340 -234q-74 0 -130.5 32.5t-89.5 89.5t-49 127.5t-16 152.5q0 110 20.5 209t64 187t123 140.5
t185.5 52.5q32 0 57 -5t46.5 -20t37 -32t30.5 -50.5t26 -66.5t24 -89.5t23 -108.5t25 -135q71 161 71 458q43 24 115.5 36.5t124.5 12.5q11 0 18.5 -3t10 -6t2.5 -5zM442 240q156 0 244 98q-52 200 -120.5 288.5t-168.5 88.5q-55 0 -92.5 -17t-58 -51t-29 -75.5t-8.5 -98.5
q0 -111 52 -172t181 -61z" />
    <glyph glyph-name="beta" unicode="&#x3b2;" horiz-adv-x="1067" 
d="M371 -440q-31 -23 -107.5 -37.5t-118.5 -14.5q-22 0 -22 11v1235q0 173 79.5 334t211 260.5t274.5 99.5q66 0 114.5 -13.5t78 -36.5t47 -58.5t24 -73.5t6.5 -88q0 -79 -35.5 -162t-95.5 -145t-127 -80q91 -5 156.5 -59t95 -133t29.5 -171q0 -112 -46 -217t-132 -174.5
t-189 -69.5q-157 0 -270 158q9 -323 27 -565zM340 1018q-6 -368 2 -807q139 -27 256 -27q143 0 206.5 51t63.5 150q0 190 -243 190q-43 0 -74 -1.5t-46.5 -3t-19.5 -1.5q-41 0 -41 74q0 81 19 134.5t51 53.5q148 0 214.5 57t66.5 154q0 84 -63.5 126t-180.5 42
q-86 0 -130.5 -18.5t-62 -58t-18.5 -115.5z" />
    <glyph glyph-name="gamma" unicode="&#x3b3;" horiz-adv-x="1081" 
d="M1016 956q24 0 24 -24q0 -38 -19 -121.5t-57 -196.5t-110 -246t-162 -239q35 -300 35 -494q0 -36 -23 -62t-62 -39.5t-81 -19.5t-90 -6q-49 0 -69.5 10.5t-20.5 37.5q0 104 38.5 238.5t86.5 244.5q-36 177 -74.5 303.5t-74 199t-77.5 113.5t-77.5 53.5t-81.5 12.5
q-55 0 -115 -29l-26 37q41 98 127.5 162.5t175.5 64.5q55 0 102.5 -24.5t85 -73t67.5 -110t55.5 -146.5t44.5 -170t38 -192q48 104 81.5 238t33.5 253q0 112 -33 191q93 34 258 34z" />
    <glyph glyph-name="delta" unicode="&#x3b4;" horiz-adv-x="1067" 
d="M86 328q0 139 76 274.5t211 214.5q-58 36 -96 64.5t-76.5 69.5t-57 90t-18.5 108q0 131 115.5 215t310.5 84q92 0 165.5 -11.5t117.5 -29t73 -39.5t40 -41t11 -35q0 -73 -51.5 -124.5t-97.5 -51.5q-67 120 -153 182t-183 62q-71 0 -101 -29.5t-30 -73.5q0 -35 22 -66.5
t59 -57.5t85 -53t101 -56.5t105.5 -63.5t100.5 -79t85 -98.5t59 -126.5t22 -158q0 -118 -75 -242t-199.5 -207.5t-253.5 -83.5q-178 0 -272.5 103.5t-94.5 259.5zM762 354q0 66 -19.5 123t-47 97t-76 81t-86 65.5t-97.5 59.5q-102 -86 -102 -278q0 -96 28.5 -183
t84.5 -144.5t126 -57.5q189 0 189 237z" />
    <glyph glyph-name="epsilon" unicode="&#x3b5;" horiz-adv-x="839" 
d="M242 451q-70 39 -106 95.5t-36 121.5q0 114 100.5 201t270.5 87q307 0 307 -120q0 -66 -43.5 -116.5t-89.5 -62.5q-42 43 -116.5 72t-157.5 29q-183 0 -183 -80q0 -37 42 -61.5t137 -24.5q44 0 95.5 6t57.5 6q37 0 37 -49q0 -61 -25.5 -130t-58.5 -69q-15 0 -56.5 5.5
t-66.5 5.5q-153 0 -153 -62q0 -38 54 -64t181 -26q92 0 175 19t134 55l33 -31q-15 -53 -49.5 -104.5t-85 -94t-120 -68.5t-146.5 -26q-141 0 -216 71t-75 171q0 75 42.5 142.5t117.5 101.5z" />
    <glyph glyph-name="zeta" unicode="&#x3b6;" horiz-adv-x="923" 
d="M768 1225q-118 -133 -183.5 -209t-131 -158.5t-95.5 -135t-48.5 -104.5t-18.5 -100q0 -53 27 -97t70 -76.5t95 -62t104.5 -59.5t95.5 -62.5t70 -78.5t27 -100q0 -80 -75 -214.5t-205 -256.5l-41 28q149 181 149 271q0 33 -28.5 63.5t-74.5 56t-101.5 53.5t-111 62
t-101.5 73.5t-74.5 96t-28.5 123.5q0 70 23.5 143t61 141.5t111.5 163.5t146.5 178.5t194.5 217.5q-202 -58 -381 -58q-71 0 -101 52.5t-30 148.5q0 42 9.5 100.5t20.5 90.5h41q0 -64 94.5 -94.5t253.5 -30.5q167 0 263 16q66 86 133 86q37 0 56.5 -24.5t19.5 -63.5
q0 -67 -51.5 -126.5t-133.5 -59.5q-24 0 -51 6z" />
    <glyph glyph-name="eta" unicode="&#x3b7;" horiz-adv-x="1118" 
d="M276 459q-3 109 -37 165t-89 56q-54 0 -125 -39l-25 25q23 42 55 87.5t71.5 93.5t82.5 78.5t78 30.5q72 0 98.5 -83.5t26.5 -272.5q56 143 164 249.5t198 106.5q50 0 88 -19.5t63 -59.5t42 -91t25.5 -126t12 -151t3.5 -179q0 -352 -39 -781q-38 -16 -123 -28.5
t-131 -12.5q88 369 88 766q0 215 -31.5 306.5t-97.5 91.5q-119 0 -252 -144q14 -276 14 -438q0 -35 -18.5 -61.5t-47 -40t-55.5 -19.5t-51 -6q-38 0 -56 9.5t-18 37.5q2 71 25.5 196.5t60.5 252.5z" />
    <glyph glyph-name="theta" unicode="&#x3b8;" horiz-adv-x="1077" 
d="M539 1448q140 0 244.5 -98t158 -265.5t53.5 -379.5q0 -213 -53.5 -379t-158 -262.5t-244.5 -96.5t-245 96.5t-158.5 262.5t-53.5 379t53.5 380.5t158.5 265t245 97.5zM539 45q102 0 154 163t57 449h-418q3 -286 54 -449t153 -163zM539 1360q-102 0 -153 -161t-54 -445
h418q-5 284 -57 445t-154 161z" />
    <glyph glyph-name="iota" unicode="&#x3b9;" horiz-adv-x="593" 
d="M158 147v762q91 49 241 49q31 0 31 -10q-55 -389 -55 -680q0 -63 19.5 -89.5t64.5 -26.5q35 0 71 13.5t58 35.5l28 -35q-12 -23 -39 -54.5t-67.5 -65.5t-96 -57.5t-110.5 -23.5q-82 0 -113.5 49.5t-31.5 132.5z" />
    <glyph glyph-name="kappa" unicode="&#x3ba;" horiz-adv-x="1144" 
d="M434 774q0 -58 -10.5 -212t-11.5 -173q166 146 241.5 278.5t75.5 241.5q83 47 232 47q96 0 96 -24q0 -28 -125.5 -159t-251.5 -224q84 -146 145 -238.5t105.5 -137t74 -59t64.5 -14.5q43 0 78 15l18 -45q-38 -33 -121.5 -65t-138.5 -32q-42 0 -72.5 7t-69.5 30.5
t-77 67.5t-87 118.5t-107 182.5q-42 -42 -84 -70q-9 -156 -9 -299q-24 -12 -76.5 -23.5t-89.5 -11.5q-38 0 -38 13v628q0 82 -10.5 115t-34.5 33q-35 0 -111 -55l-31 34q154 213 309 213q72 0 94.5 -40.5t22.5 -141.5z" />
    <glyph glyph-name="lambda" unicode="&#x3bb;" horiz-adv-x="1128" 
d="M451 1448q36 0 63.5 -9t49.5 -25t40.5 -49.5t33 -69t30 -98t27.5 -123t30 -156.5q77 -416 106 -523q42 -152 98 -188q26 -17 62 -17q47 0 107 43l30 -40q-36 -80 -121.5 -150t-183.5 -70q-30 0 -54.5 6.5t-44.5 17.5t-37 33t-30.5 45t-26 62.5t-22.5 77.5t-22 97
t-22 113.5t-24 134.5q-21 122 -34 190q-37 -83 -69.5 -166.5t-60.5 -173t-43.5 -165.5t-16 -139.5t19.5 -97.5q-48 -18 -135 -26.5t-152 -8.5q-20 0 -20 27q0 69 153.5 365.5t302.5 486.5q-45 233 -80.5 307t-105.5 74q-30 0 -56 -12.5t-75 -46.5l-29 34q44 89 137 164.5
t175 75.5z" />
    <glyph glyph-name="nu" unicode="&#x3bd;" horiz-adv-x="991" 
d="M0 721q0 50 22.5 103t69.5 93.5t107 40.5q142 0 244 -193t128 -515q52 70 87.5 200.5t35.5 251.5q0 136 -47 222q98 34 268 34q39 0 39 -47q0 -121 -136.5 -399.5t-297.5 -499.5q-36 -47 -137 -47q-22 148 -47 264.5t-49.5 195t-54 134.5t-55 87t-58.5 48.5t-58.5 22
t-60.5 4.5z" />
    <glyph glyph-name="xi" unicode="&#x3be;" horiz-adv-x="913" 
d="M180 1511q0 -39 24.5 -63t104.5 -40.5t221 -16.5t263 16q56 78 116 78q41 0 69 -40t28 -91q0 -63 -44.5 -104t-134.5 -31q-208 -110 -306.5 -195t-98.5 -154q0 -68 87 -97.5t298 -29.5q16 0 16 -38q0 -11 -5.5 -20t-12.5 -9q-94 -36 -163.5 -69.5t-129 -72.5t-90.5 -81
t-31 -86t25.5 -75.5t66 -49t90 -32.5t98.5 -32t89.5 -40.5t66 -66t25.5 -100.5q0 -83 -62.5 -204t-189.5 -240l-41 33q125 149 125 254q0 32 -30 53.5t-78 34.5t-105.5 25.5t-115.5 32.5t-106 49t-78 82.5t-30 125.5q0 235 334 375q-97 0 -167.5 15.5t-107 41.5t-53 54.5
t-16.5 60.5q0 114 104 200.5t377 200.5q-157 -43 -411 -43q-55 0 -80 47t-25 123q0 119 39 219h45z" />
    <glyph glyph-name="omicron" unicode="&#x3bf;" horiz-adv-x="950" 
d="M506 956q90 0 159.5 -34.5t112 -94.5t64.5 -137.5t22 -167.5q0 -100 -28 -197.5t-79 -178.5t-133.5 -131t-181.5 -50q-96 0 -166.5 34.5t-111 96t-59.5 137t-19 166.5q0 80 16.5 159t51.5 151t83.5 127t118 87.5t150.5 32.5zM432 657q-126 0 -184 -48.5t-58 -133.5
q0 -98 84.5 -163.5t231.5 -65.5q126 0 185 49.5t59 134.5q0 97 -86.5 162t-231.5 65z" />
    <glyph glyph-name="pi" unicode="&#x3c0;" horiz-adv-x="1103" 
d="M954 657h-151q0 -262 24 -421q6 -39 31.5 -59.5t59.5 -20.5q62 0 108 49l35 -29q-39 -86 -114 -148.5t-152 -62.5q-51 0 -86 13.5t-51.5 37.5t-22.5 48.5t-6 56.5q0 229 100 536l-342 15q3 -85 17 -271.5t14 -312.5q0 -34 -19 -59.5t-49 -38.5t-59.5 -19t-57.5 -6
q-34 0 -50.5 10t-16.5 35q0 19 27.5 98.5t68 233t64.5 330.5l-131 2q-64 0 -91.5 -18.5t-42.5 -59.5l-36 29q0 20 19.5 66.5t50 98t78 90t95.5 38.5q81 0 328 -4.5t278 -4.5q72 0 116 16t46 36q18 0 32.5 -6.5t14.5 -16.5q0 -41 -5.5 -84.5t-18.5 -90.5t-40.5 -76.5
t-64.5 -29.5z" />
    <glyph glyph-name="rho" unicode="&#x3c1;" horiz-adv-x="1095" 
d="M688 956q147 0 234.5 -114t87.5 -289q0 -102 -29.5 -206.5t-79.5 -189.5t-125 -138.5t-158 -53.5q-144 0 -268 162q5 -152 37 -569q-30 -23 -114 -37.5t-128 -14.5q-22 0 -22 11v809q0 126 48 243.5t126.5 201.5t181.5 134.5t209 50.5zM346 463q0 -137 2 -205
q45 -23 115.5 -37t132.5 -14q142 0 208 62t66 169q0 101 -90 178.5t-225 77.5q-86 0 -128.5 -17.5t-61.5 -66t-19 -147.5z" />
    <glyph glyph-name="sigma1" unicode="&#x3c2;" horiz-adv-x="847" 
d="M571 956q129 0 207 -42t78 -101q0 -71 -49 -134t-92 -63q-44 66 -120 103t-155 37q-96 0 -157.5 -57t-61.5 -167q0 -161 273 -342q171 -114 232.5 -185.5t61.5 -170.5q0 -102 -106 -199.5t-242 -132.5l-10 43q139 60 139 142q0 61 -43.5 108t-173.5 127
q-151 93 -208.5 201.5t-57.5 269.5q0 75 20.5 153t62.5 151.5t99 131t136 92.5t167 35z" />
    <glyph glyph-name="sigma" unicode="&#x3c3;" horiz-adv-x="1132" 
d="M608 100q82 0 122 65.5t40 170.5q0 96 -34.5 196.5t-94.5 174.5q-14 0 -56 1t-59 1q-60 0 -98 -9t-58 -31.5t-27 -51.5t-7 -76q0 -111 36 -212.5t99.5 -165t136.5 -63.5zM995 657q-30 0 -127 20.5t-131 22.5q109 -42 178.5 -121.5t69.5 -183.5q0 -127 -71 -226
t-193 -151.5t-272 -52.5q-170 0 -266.5 108.5t-96.5 284.5q0 99 47 200.5t127.5 184.5t200.5 136t254 53q31 0 133 -9.5t143 -9.5q36 0 59.5 11t24.5 30q37 0 37 -16q0 -281 -117 -281z" />
    <glyph glyph-name="tau" unicode="&#x3c4;" horiz-adv-x="966" 
d="M442 659l-252 11q-64 0 -91 -18t-42 -60l-37 29q0 20 19.5 67t50.5 99.5t78.5 91.5t95.5 39q81 0 261.5 -4.5t211.5 -4.5q72 0 116 16t46 36q18 0 32.5 -6.5t14.5 -16.5q0 -41 -5.5 -84.5t-18.5 -90.5t-40.5 -76.5t-64.5 -29.5h-301q0 -256 25 -421q6 -39 31 -59.5
t59 -20.5q62 0 108 49l35 -29q-39 -86 -114 -148.5t-152 -62.5q-51 0 -86 13.5t-51.5 37.5t-22.5 48.5t-6 56.5q0 231 100 538z" />
    <glyph glyph-name="upsilon" unicode="&#x3c5;" horiz-adv-x="1136" 
d="M379 559q0 -97 14 -160.5t43.5 -97.5t67 -46.5t94.5 -12.5q95 0 152 55.5t57 153.5q0 70 -25 125t-83 93t-146 46q0 119 42.5 181t104.5 62q110 0 172 -89t62 -228q0 -166 -57 -322t-157 -255t-214 -99q-157 0 -234 101.5t-77 318.5q0 148 -15.5 222.5t-62.5 74.5
q-39 0 -109 -39l-31 27q68 124 153 206t153 82q35 0 55.5 -25.5t29 -91t10 -118t1.5 -164.5z" />
    <glyph glyph-name="phi" unicode="&#x3c6;" horiz-adv-x="1122" 
d="M700 1446l-26 -494q178 -22 270 -141t92 -289q0 -90 -27.5 -179t-78.5 -165.5t-132 -131.5t-180 -73l-24 -430q-41 -35 -119 -35q4 106 4 459q-106 6 -184 42.5t-122.5 96.5t-65.5 133t-21 160q0 88 25 173.5t72.5 160.5t123.5 131t170 78v449q22 19 95.5 37t127.5 18z
M479 233v443q-284 -7 -284 -201q0 -87 71 -154.5t213 -87.5zM657 664l-24 -439q285 10 285 205q0 80 -67 144.5t-194 89.5z" />
    <glyph glyph-name="chi" unicode="&#x3c7;" horiz-adv-x="1009" 
d="M651 924q91 34 244 34q13 0 24 -11.5t11 -35.5q0 -14 -10 -38.5t-31 -61.5t-43 -72.5t-58.5 -90t-64.5 -95t-73 -106t-72 -105.5q38 -147 65.5 -244t54 -171.5t46.5 -114.5t45 -64.5t48.5 -31.5t57.5 -7q61 0 129 39l27 -47q-48 -65 -145 -129t-175 -64q-73 0 -128 49.5
t-105 167.5t-101 324q-81 -163 -112 -302.5t6 -203.5q-93 -35 -242 -35q-22 0 -22 25q0 80 346 621q-32 135 -58.5 230.5t-53 159t-48 101t-49.5 56t-50.5 23.5t-58.5 5q15 96 69 161.5t118 65.5q51 0 86.5 -19t72 -75t72 -155t78.5 -261q59 111 95 211.5t36 155.5
q0 63 -31 111z" />
    <glyph glyph-name="psi" unicode="&#x3c8;" horiz-adv-x="1255" 
d="M752 1446q-3 -103 -64 -1163q147 12 229 81t82 197q0 161 -108 285q2 38 52 74t108 36q118 0 118 -215q0 -166 -63.5 -327.5t-179.5 -280.5t-256 -153l-25 -437q-41 -35 -119 -35q4 106 4 459q-214 12 -329 144.5t-115 345.5q0 99 32.5 230.5t76.5 209.5q16 31 37.5 45
t39.5 14q13 0 17 -8q-51 -156 -51 -323q0 -157 73 -240t219 -100q0 218 -1 606.5t-1 499.5q22 19 96 37t128 18z" />
    <glyph glyph-name="omega" unicode="&#x3c9;" horiz-adv-x="1431" 
d="M606 715q0 39 37 60.5t100 21.5q40 0 64 -12t24 -33q0 -65 -19.5 -159t-43.5 -159q48 -102 122 -157.5t154 -55.5q82 0 124 52t42 169q0 142 -70 237.5t-186 117.5q14 80 57.5 119.5t106.5 39.5q125 0 176.5 -96t51.5 -313q0 -99 -23.5 -198.5t-68.5 -187t-121.5 -142
t-171.5 -54.5q-215 0 -285 297q-109 -297 -305 -297q-136 0 -210.5 104.5t-74.5 262.5q0 173 94.5 351t251.5 273l33 -47q-91 -59 -141 -187t-50 -261q0 -108 38.5 -174t119.5 -66q88 0 140.5 39t84.5 133q-21 77 -36 171t-15 151z" />
    <glyph glyph-name="iotadieresis" unicode="&#x3ca;" horiz-adv-x="593" 
d="M158 147v762q91 49 241 49q31 0 31 -10q-55 -389 -55 -680q0 -63 19.5 -89.5t64.5 -26.5q35 0 71 13.5t58 35.5l28 -35q-12 -23 -39 -54.5t-67.5 -65.5t-96 -57.5t-110.5 -23.5q-82 0 -113.5 49.5t-31.5 132.5zM74 1395q52 0 89.5 -40.5t37.5 -97.5t-37.5 -98t-89.5 -41
q-54 0 -91.5 41t-37.5 98t37.5 97.5t91.5 40.5zM508 1395q52 0 88.5 -40.5t36.5 -97.5q0 -58 -35.5 -99.5t-87.5 -41.5q-55 0 -93 41.5t-38 99.5t37 98t92 40z" />
    <glyph glyph-name="upsilondieresis" unicode="&#x3cb;" horiz-adv-x="1136" 
d="M379 559q0 -97 14 -160.5t43.5 -97.5t67 -46.5t94.5 -12.5q95 0 152 55.5t57 153.5q0 70 -25 125t-83 93t-146 46q0 119 42.5 181t104.5 62q110 0 172 -89t62 -228q0 -166 -57 -322t-157 -255t-214 -99q-157 0 -234 101.5t-77 318.5q0 148 -15.5 222.5t-62.5 74.5
q-39 0 -109 -39l-31 27q68 124 153 206t153 82q35 0 55.5 -25.5t29 -91t10 -118t1.5 -164.5zM299 1395q52 0 89.5 -40.5t37.5 -97.5t-37.5 -98t-89.5 -41q-54 0 -91.5 41t-37.5 98t37.5 97.5t91.5 40.5zM733 1395q52 0 88.5 -40.5t36.5 -97.5q0 -58 -35.5 -99.5t-87.5 -41.5
q-55 0 -93 41.5t-38 99.5t37 98t92 40z" />
    <glyph glyph-name="omicrontonos" unicode="&#x3cc;" horiz-adv-x="950" 
d="M506 956q90 0 159.5 -34.5t112 -94.5t64.5 -137.5t22 -167.5q0 -100 -28 -197.5t-79 -178.5t-133.5 -131t-181.5 -50q-96 0 -166.5 34.5t-111 96t-59.5 137t-19 166.5q0 80 16.5 159t51.5 151t83.5 127t118 87.5t150.5 32.5zM432 657q-126 0 -184 -48.5t-58 -133.5
q0 -98 84.5 -163.5t231.5 -65.5q126 0 185 49.5t59 134.5q0 97 -86.5 162t-231.5 65zM416 1483q0 10 28 10q142 0 211 -41q-27 -106 -82 -214t-124 -194q-10 -12 -31 -12q-10 0 -16 3t-5 9q38 205 19 439z" />
    <glyph glyph-name="upsilontonos" unicode="&#x3cd;" horiz-adv-x="1136" 
d="M379 559q0 -97 14 -160.5t43.5 -97.5t67 -46.5t94.5 -12.5q95 0 152 55.5t57 153.5q0 70 -25 125t-83 93t-146 46q0 119 42.5 181t104.5 62q110 0 172 -89t62 -228q0 -166 -57 -322t-157 -255t-214 -99q-157 0 -234 101.5t-77 318.5q0 148 -15.5 222.5t-62.5 74.5
q-39 0 -109 -39l-31 27q68 124 153 206t153 82q35 0 55.5 -25.5t29 -91t10 -118t1.5 -164.5zM467 1483q0 10 29 10q142 0 211 -41q-57 -219 -207 -408q-10 -12 -31 -12q-10 0 -15.5 3t-4.5 9q37 201 18 439z" />
    <glyph glyph-name="omegatonos" unicode="&#x3ce;" horiz-adv-x="1431" 
d="M606 715q0 39 37 60.5t100 21.5q40 0 64 -12t24 -33q0 -65 -19.5 -159t-43.5 -159q48 -102 122 -157.5t154 -55.5q82 0 124 52t42 169q0 142 -70 237.5t-186 117.5q14 80 57.5 119.5t106.5 39.5q125 0 176.5 -96t51.5 -313q0 -99 -23.5 -198.5t-68.5 -187t-121.5 -142
t-171.5 -54.5q-215 0 -285 297q-109 -297 -305 -297q-136 0 -210.5 104.5t-74.5 262.5q0 173 94.5 351t251.5 273l33 -47q-91 -59 -141 -187t-50 -261q0 -108 38.5 -174t119.5 -66q88 0 140.5 39t84.5 133q-21 77 -36 171t-15 151zM674 1483q0 10 28 10q142 0 211 -41
q-27 -106 -82 -214t-124 -194q-10 -12 -31 -12q-10 0 -16 3t-5 9q38 205 19 439z" />
    <glyph glyph-name="afii10023" unicode="&#x401;" horiz-adv-x="1290" 
d="M547 1329v-559q161 4 234.5 16t96.5 34t27 71l6 74q66 0 66 -21q0 -30 -2 -102.5t-2 -104.5t2 -110.5t2 -108.5q0 -31 -66 -31l-8 80q-6 51 -27 74t-96.5 37t-232.5 16v-602q104 5 177 11t136.5 16t104 20.5t75 31t53.5 40t35.5 54t25.5 68.5t20 87q57 0 57 -27
q0 -36 -18.5 -160t-18.5 -188q0 -21 -12 -35t-29 -14q-68 0 -500.5 2t-550.5 2v63h125q27 0 27 35v1217q0 19 -6 26t-21 7h-125v65q117 0 517.5 3t470.5 3q27 0 37 -11.5t10 -33.5q0 -48 9 -140t9 -157q0 -20 -53 -20q-11 63 -21 98t-34 69.5t-57 50.5t-95.5 30t-142.5 18
t-205 6zM496 1722q47 0 79.5 -34t32.5 -82t-32.5 -82.5t-79.5 -34.5t-81 35t-34 82t34 81.5t81 34.5zM883 1722q47 0 79.5 -34t32.5 -82t-32.5 -82.5t-79.5 -34.5q-49 0 -82 34.5t-33 82.5t33 82t82 34z" />
    <glyph glyph-name="afii10051" unicode="&#x402;" horiz-adv-x="1783" 
d="M1577 590v-557q0 -95 -43 -191.5t-114 -172t-169 -122.5t-200 -47q-97 0 -145 40.5t-48 99.5q0 51 34 91t85 40q38 0 62.5 -16.5t35 -40.5t19 -48t24 -40.5t41.5 -16.5q67 0 109.5 118t42.5 306v522q0 203 -207 203q-93 0 -168 -30t-119 -81v-549q0 -35 29 -35h125v-63
h-606v63h135q26 0 26 35v1209q-58 -2 -97 -4t-79 -6.5t-64.5 -8t-52 -14t-43 -19t-34.5 -27t-30 -34.5t-26.5 -45t-27 -55.5t-29.5 -69.5q-23 0 -33 3.5t-10 16.5q0 9 3.5 57t7 122.5t3.5 148.5q0 23 9.5 32t37.5 9h1250q26 0 35.5 -9.5t9.5 -31.5q0 -74 4 -148.5t8 -122.5
t4 -57q0 -20 -45 -20q-22 52 -36.5 84t-36 64.5t-37.5 49t-46 33.5t-57 24t-76 14t-96.5 9.5t-124.5 4.5v-574q65 80 184.5 129t241.5 49q153 0 243.5 -82t90.5 -239z" />
    <glyph glyph-name="afii10052" unicode="&#x403;" horiz-adv-x="1126" 
d="M102 1413h983q26 0 35.5 -9.5t9.5 -31.5q0 -70 4 -145t8.5 -124.5t4.5 -58.5q0 -20 -45 -20q-30 71 -49 109t-51 75t-62 52.5t-90 29t-125.5 18t-177.5 7.5v-1217q0 -35 26 -35h125v-63h-596v63h125q27 0 27 35v1217q0 19 -6 26t-21 7h-125v65zM958 1737l-393 -267
l-47 19l197 252q34 43 71.5 63.5t110.5 20.5q46 0 67 -12t21 -27q0 -33 -27 -49z" />
    <glyph glyph-name="afii10053" unicode="&#x404;" horiz-adv-x="1476" 
d="M1350 1366q26 -13 26 -39q0 -38 9.5 -179t9.5 -165q0 -25 -52 -25q-32 186 -156.5 292t-299.5 106q-148 0 -258 -77t-169 -209t-69 -304q179 4 279.5 10.5t152.5 22.5t66 33.5t18 52.5l6 71q64 0 64 -16q0 -30 -2 -100.5t-2 -102.5q0 -31 2 -104t2 -105q0 -30 -64 -30
l-8 73q-4 37 -18 56t-65 36.5t-153.5 25t-279.5 9.5q0 -284 132 -462.5t353 -178.5q87 0 166.5 26.5t146 76.5t111.5 131t58 182q19 0 38 -7t19 -20q0 -23 -10 -168t-10 -184q0 -14 -6.5 -23t-13 -13t-19.5 -9q-88 -37 -222.5 -59.5t-283.5 -22.5q-220 0 -400 93t-282.5 258
t-102.5 370q0 150 64.5 289.5t175 243t265.5 165.5t327 62q281 0 455 -82z" />
    <glyph glyph-name="afii10054" unicode="&#x405;" horiz-adv-x="1069" 
d="M625 842q199 -103 284.5 -201t85.5 -238q0 -89 -28 -162.5t-76.5 -123.5t-114.5 -84.5t-140 -50t-155 -15.5q-105 0 -186.5 14t-126 36t-66.5 44t-24 43l-10 234q-1 19 15 28t42 9q99 -314 356 -314q116 0 174 65t58 165q0 94 -51.5 154.5t-178.5 125.5q-180 90 -264 191
t-84 248q0 193 130.5 315.5t350.5 122.5q153 0 244 -36t92 -99l6 -219q0 -35 -53 -35q-35 151 -109.5 222t-172.5 71q-105 0 -167.5 -65t-62.5 -165q0 -91 54.5 -154.5t177.5 -125.5z" />
    <glyph glyph-name="afii10055" unicode="&#x406;" horiz-adv-x="800" 
d="M698 0h-596v63h125q27 0 27 35v1217q0 19 -6 26t-21 7h-125v65h596v-65h-125q-26 0 -26 -33v-1217q0 -35 26 -35h125v-63z" />
    <glyph glyph-name="afii10056" unicode="&#x407;" horiz-adv-x="819" 
d="M709 0h-596v63h125q15 0 20.5 8t5.5 27v1217q0 19 -5.5 26t-20.5 7h-125v65h596v-65h-125q-27 0 -27 -33v-1217q0 -35 27 -35h125v-63zM217 1722q47 0 80 -34t33 -82t-33 -82.5t-80 -34.5t-81 35t-34 82t34 81.5t81 34.5zM604 1722q47 0 80 -34t33 -82t-33 -82.5
t-80 -34.5q-49 0 -82 34.5t-33 82.5t33 82t82 34z" />
    <glyph glyph-name="afii10057" unicode="&#x408;" horiz-adv-x="798" 
d="M565 285q0 -229 -70.5 -401.5t-205.5 -267.5t-318 -95q-110 0 -168.5 55t-58.5 129q0 60 38.5 101.5t104.5 41.5q44 0 71 -15t39.5 -37t24 -43.5t35.5 -36.5t64 -15q65 0 108 84t43 260v1270q0 19 -5.5 26t-20.5 7h-142v65h613v-65h-125q-27 0 -27 -33v-1030z" />
    <glyph glyph-name="afii10058" unicode="&#x409;" horiz-adv-x="2222" 
d="M1382 76q246 0 354.5 75t108.5 228q0 38 -4.5 69t-17.5 64t-34.5 59t-57 50t-83 40t-115 25.5t-151.5 9.5v-620zM1090 98v1217q0 19 -5.5 26t-19.5 7h-295q-22 0 -22 -31q-4 -131 -13.5 -254.5t-28.5 -261.5t-46 -255.5t-68.5 -227t-93 -186t-122.5 -122t-155 -45.5
q-123 0 -182 48.5t-59 117.5q0 59 39.5 103.5t97.5 44.5q37 0 57 -20.5t26 -50.5t11 -59.5t21.5 -50t48.5 -20.5q48 0 86.5 55t63 155t41.5 217.5t25 265.5t11.5 274.5t3.5 267.5q0 35 -29 35h-153v65h1204v-65h-127q-25 0 -25 -33v-551q39 2 111 2q117 0 213 -11t164.5 -30
t120 -47t83.5 -59.5t52 -70.5t27.5 -77t7.5 -82q0 -81 -37.5 -150t-113 -123.5t-202 -85t-292.5 -30.5h-578v63h125q27 0 27 35z" />
    <glyph glyph-name="afii10059" unicode="&#x40a;" horiz-adv-x="2258" 
d="M1419 76q246 0 354.5 75t108.5 228q0 38 -4.5 69t-17.5 64t-34.5 59t-57 50t-83 40t-115 25.5t-151.5 9.5v-620zM1126 692h-579v-594q0 -35 28 -35h125v-63h-598v63h125q27 0 27 35v1217q0 33 -27 33h-125v65h598v-65h-125q-15 0 -21.5 -7.5t-6.5 -25.5v-527h579v527
q0 33 -26 33h-125v65h596v-65h-125q-15 0 -21 -7t-6 -26v-551q39 2 111 2q117 0 213 -11t164.5 -30t120 -47t83.5 -59.5t52 -70.5t27.5 -77t7.5 -82q0 -81 -37.5 -150t-113 -123.5t-202.5 -85t-293 -30.5h-577v63h125q15 0 20.5 8t5.5 27v594z" />
    <glyph glyph-name="afii10060" unicode="&#x40b;" horiz-adv-x="1783" 
d="M817 1307v-574q65 80 184.5 129t241.5 49q153 0 243.5 -82t90.5 -239v-475q0 -52 41 -52h84v-63h-543v63h109q43 0 43 52v440q0 203 -207 203q-93 0 -168 -30t-119 -81v-549q0 -35 29 -35h125v-63h-606v63h135q26 0 26 35v1209q-58 -2 -97 -4t-79 -6.5t-64.5 -8t-52 -14
t-43 -19t-34.5 -27t-30 -34.5t-26.5 -45t-27 -55.5t-29.5 -69.5q-23 0 -33 3.5t-10 16.5q0 9 3.5 57t7 122.5t3.5 148.5q0 23 9.5 32t37.5 9h1250q26 0 35.5 -9.5t9.5 -31.5q0 -74 4 -148.5t8 -122.5t4 -57q0 -20 -45 -20q-22 52 -36.5 84t-36 64.5t-37.5 49t-46 33.5
t-57 24t-76 14t-96.5 9.5t-124.5 4.5z" />
    <glyph glyph-name="afii10061" unicode="&#x40c;" horiz-adv-x="1570" 
d="M745 872q113 -110 323.5 -345t371.5 -433q22 -31 63 -31h68v-63h-651v63h122q11 0 18 7.5t7 17.5q0 16 -18 39q-84 118 -248.5 303t-253.5 264v-596q0 -35 26 -35h125v-63h-596v63h125q27 0 27 35v1217q0 19 -6 26t-21 7h-125v65h596v-65h-125q-26 0 -26 -33v-572
q82 76 159 168.5t127 165t106 144.5t103 120t109.5 77.5t134.5 29.5q96 0 147.5 -50.5t51.5 -119.5q0 -64 -42 -110t-112 -46q-40 0 -60.5 18.5t-25.5 45t-8.5 53.5t-16 45.5t-40.5 18.5q-26 0 -44.5 -9.5t-49 -42.5t-64.5 -74.5t-110.5 -127t-166.5 -177.5zM1143 1737
l-393 -267l-48 19l197 252q34 43 71.5 63.5t110.5 20.5q46 0 67 -12t21 -27q0 -33 -26 -49z" />
    </font>
</defs>
</svg>
